<?xml version="1.0" encoding="utf-8" standalone="no"?>
<!DOCTYPE svg PUBLIC "-//W3C//DTD SVG 1.1//EN"
  "http://www.w3.org/Graphics/SVG/1.1/DTD/svg11.dtd">
<!-- Created with matplotlib (https://matplotlib.org/) -->
<svg height="720pt" version="1.1" viewBox="0 0 1224 720" width="1224pt" xmlns="http://www.w3.org/2000/svg" xmlns:xlink="http://www.w3.org/1999/xlink">
 <metadata>
  <rdf:RDF xmlns:cc="http://creativecommons.org/ns#" xmlns:dc="http://purl.org/dc/elements/1.1/" xmlns:rdf="http://www.w3.org/1999/02/22-rdf-syntax-ns#">
   <cc:Work>
    <dc:type rdf:resource="http://purl.org/dc/dcmitype/StillImage"/>
    <dc:date>2021-10-14T01:23:41.177978</dc:date>
    <dc:format>image/svg+xml</dc:format>
    <dc:creator>
     <cc:Agent>
      <dc:title>Matplotlib v3.3.4, https://matplotlib.org/</dc:title>
     </cc:Agent>
    </dc:creator>
   </cc:Work>
  </rdf:RDF>
 </metadata>
 <defs>
  <style type="text/css">*{stroke-linecap:butt;stroke-linejoin:round;}</style>
 </defs>
 <g id="figure_1">
  <g id="patch_1">
   <path d="M 0 720 
L 1224 720 
L 1224 0 
L 0 0 
z
" style="fill:none;"/>
  </g>
  <g id="axes_1">
   <g id="patch_2">
    <path d="M 153 630 
L 1101.6 630 
L 1101.6 86.4 
L 153 86.4 
z
" style="fill:#ffffff;"/>
   </g>
   <g id="matplotlib.axis_1">
    <g id="xtick_1">
     <g id="line2d_1">
      <path clip-path="url(#p15e7ec82cd)" d="M 196.118182 630 
L 196.118182 86.4 
" style="fill:none;stroke:#b0b0b0;stroke-linecap:square;stroke-width:0.8;"/>
     </g>
     <g id="line2d_2">
      <defs>
       <path d="M 0 0 
L 0 3.5 
" id="m776dfd8487" style="stroke:#000000;stroke-width:0.8;"/>
      </defs>
      <g>
       <use style="stroke:#000000;stroke-width:0.8;" x="196.118182" xlink:href="#m776dfd8487" y="630"/>
      </g>
     </g>
     <g id="text_1">
      <!-- 17.93 -->
      <g transform="translate(181.804119 644.598438)scale(0.1 -0.1)">
       <defs>
        <path d="M 12.40625 8.296875 
L 28.515625 8.296875 
L 28.515625 63.921875 
L 10.984375 60.40625 
L 10.984375 69.390625 
L 28.421875 72.90625 
L 38.28125 72.90625 
L 38.28125 8.296875 
L 54.390625 8.296875 
L 54.390625 0 
L 12.40625 0 
z
" id="DejaVuSans-49"/>
        <path d="M 8.203125 72.90625 
L 55.078125 72.90625 
L 55.078125 68.703125 
L 28.609375 0 
L 18.3125 0 
L 43.21875 64.59375 
L 8.203125 64.59375 
z
" id="DejaVuSans-55"/>
        <path d="M 10.6875 12.40625 
L 21 12.40625 
L 21 0 
L 10.6875 0 
z
" id="DejaVuSans-46"/>
        <path d="M 10.984375 1.515625 
L 10.984375 10.5 
Q 14.703125 8.734375 18.5 7.8125 
Q 22.3125 6.890625 25.984375 6.890625 
Q 35.75 6.890625 40.890625 13.453125 
Q 46.046875 20.015625 46.78125 33.40625 
Q 43.953125 29.203125 39.59375 26.953125 
Q 35.25 24.703125 29.984375 24.703125 
Q 19.046875 24.703125 12.671875 31.3125 
Q 6.296875 37.9375 6.296875 49.421875 
Q 6.296875 60.640625 12.9375 67.421875 
Q 19.578125 74.21875 30.609375 74.21875 
Q 43.265625 74.21875 49.921875 64.515625 
Q 56.59375 54.828125 56.59375 36.375 
Q 56.59375 19.140625 48.40625 8.859375 
Q 40.234375 -1.421875 26.421875 -1.421875 
Q 22.703125 -1.421875 18.890625 -0.6875 
Q 15.09375 0.046875 10.984375 1.515625 
z
M 30.609375 32.421875 
Q 37.25 32.421875 41.125 36.953125 
Q 45.015625 41.5 45.015625 49.421875 
Q 45.015625 57.28125 41.125 61.84375 
Q 37.25 66.40625 30.609375 66.40625 
Q 23.96875 66.40625 20.09375 61.84375 
Q 16.21875 57.28125 16.21875 49.421875 
Q 16.21875 41.5 20.09375 36.953125 
Q 23.96875 32.421875 30.609375 32.421875 
z
" id="DejaVuSans-57"/>
        <path d="M 40.578125 39.3125 
Q 47.65625 37.796875 51.625 33 
Q 55.609375 28.21875 55.609375 21.1875 
Q 55.609375 10.40625 48.1875 4.484375 
Q 40.765625 -1.421875 27.09375 -1.421875 
Q 22.515625 -1.421875 17.65625 -0.515625 
Q 12.796875 0.390625 7.625 2.203125 
L 7.625 11.71875 
Q 11.71875 9.328125 16.59375 8.109375 
Q 21.484375 6.890625 26.8125 6.890625 
Q 36.078125 6.890625 40.9375 10.546875 
Q 45.796875 14.203125 45.796875 21.1875 
Q 45.796875 27.640625 41.28125 31.265625 
Q 36.765625 34.90625 28.71875 34.90625 
L 20.21875 34.90625 
L 20.21875 43.015625 
L 29.109375 43.015625 
Q 36.375 43.015625 40.234375 45.921875 
Q 44.09375 48.828125 44.09375 54.296875 
Q 44.09375 59.90625 40.109375 62.90625 
Q 36.140625 65.921875 28.71875 65.921875 
Q 24.65625 65.921875 20.015625 65.03125 
Q 15.375 64.15625 9.8125 62.3125 
L 9.8125 71.09375 
Q 15.4375 72.65625 20.34375 73.4375 
Q 25.25 74.21875 29.59375 74.21875 
Q 40.828125 74.21875 47.359375 69.109375 
Q 53.90625 64.015625 53.90625 55.328125 
Q 53.90625 49.265625 50.4375 45.09375 
Q 46.96875 40.921875 40.578125 39.3125 
z
" id="DejaVuSans-51"/>
       </defs>
       <use xlink:href="#DejaVuSans-49"/>
       <use x="63.623047" xlink:href="#DejaVuSans-55"/>
       <use x="127.246094" xlink:href="#DejaVuSans-46"/>
       <use x="159.033203" xlink:href="#DejaVuSans-57"/>
       <use x="222.65625" xlink:href="#DejaVuSans-51"/>
      </g>
     </g>
    </g>
    <g id="xtick_2">
     <g id="line2d_3">
      <path clip-path="url(#p15e7ec82cd)" d="M 321.652129 630 
L 321.652129 86.4 
" style="fill:none;stroke:#b0b0b0;stroke-linecap:square;stroke-width:0.8;"/>
     </g>
     <g id="line2d_4">
      <g>
       <use style="stroke:#000000;stroke-width:0.8;" x="321.652129" xlink:href="#m776dfd8487" y="630"/>
      </g>
     </g>
     <g id="text_2">
      <!-- 55.41 -->
      <g transform="translate(307.338066 644.598438)scale(0.1 -0.1)">
       <defs>
        <path d="M 10.796875 72.90625 
L 49.515625 72.90625 
L 49.515625 64.59375 
L 19.828125 64.59375 
L 19.828125 46.734375 
Q 21.96875 47.46875 24.109375 47.828125 
Q 26.265625 48.1875 28.421875 48.1875 
Q 40.625 48.1875 47.75 41.5 
Q 54.890625 34.8125 54.890625 23.390625 
Q 54.890625 11.625 47.5625 5.09375 
Q 40.234375 -1.421875 26.90625 -1.421875 
Q 22.3125 -1.421875 17.546875 -0.640625 
Q 12.796875 0.140625 7.71875 1.703125 
L 7.71875 11.625 
Q 12.109375 9.234375 16.796875 8.0625 
Q 21.484375 6.890625 26.703125 6.890625 
Q 35.15625 6.890625 40.078125 11.328125 
Q 45.015625 15.765625 45.015625 23.390625 
Q 45.015625 31 40.078125 35.4375 
Q 35.15625 39.890625 26.703125 39.890625 
Q 22.75 39.890625 18.8125 39.015625 
Q 14.890625 38.140625 10.796875 36.28125 
z
" id="DejaVuSans-53"/>
        <path d="M 37.796875 64.3125 
L 12.890625 25.390625 
L 37.796875 25.390625 
z
M 35.203125 72.90625 
L 47.609375 72.90625 
L 47.609375 25.390625 
L 58.015625 25.390625 
L 58.015625 17.1875 
L 47.609375 17.1875 
L 47.609375 0 
L 37.796875 0 
L 37.796875 17.1875 
L 4.890625 17.1875 
L 4.890625 26.703125 
z
" id="DejaVuSans-52"/>
       </defs>
       <use xlink:href="#DejaVuSans-53"/>
       <use x="63.623047" xlink:href="#DejaVuSans-53"/>
       <use x="127.246094" xlink:href="#DejaVuSans-46"/>
       <use x="159.033203" xlink:href="#DejaVuSans-52"/>
       <use x="222.65625" xlink:href="#DejaVuSans-49"/>
      </g>
     </g>
    </g>
    <g id="xtick_3">
     <g id="line2d_5">
      <path clip-path="url(#p15e7ec82cd)" d="M 447.186076 630 
L 447.186076 86.4 
" style="fill:none;stroke:#b0b0b0;stroke-linecap:square;stroke-width:0.8;"/>
     </g>
     <g id="line2d_6">
      <g>
       <use style="stroke:#000000;stroke-width:0.8;" x="447.186076" xlink:href="#m776dfd8487" y="630"/>
      </g>
     </g>
     <g id="text_3">
      <!-- 92.90 -->
      <g transform="translate(432.872013 644.598438)scale(0.1 -0.1)">
       <defs>
        <path d="M 19.1875 8.296875 
L 53.609375 8.296875 
L 53.609375 0 
L 7.328125 0 
L 7.328125 8.296875 
Q 12.9375 14.109375 22.625 23.890625 
Q 32.328125 33.6875 34.8125 36.53125 
Q 39.546875 41.84375 41.421875 45.53125 
Q 43.3125 49.21875 43.3125 52.78125 
Q 43.3125 58.59375 39.234375 62.25 
Q 35.15625 65.921875 28.609375 65.921875 
Q 23.96875 65.921875 18.8125 64.3125 
Q 13.671875 62.703125 7.8125 59.421875 
L 7.8125 69.390625 
Q 13.765625 71.78125 18.9375 73 
Q 24.125 74.21875 28.421875 74.21875 
Q 39.75 74.21875 46.484375 68.546875 
Q 53.21875 62.890625 53.21875 53.421875 
Q 53.21875 48.921875 51.53125 44.890625 
Q 49.859375 40.875 45.40625 35.40625 
Q 44.1875 33.984375 37.640625 27.21875 
Q 31.109375 20.453125 19.1875 8.296875 
z
" id="DejaVuSans-50"/>
        <path d="M 31.78125 66.40625 
Q 24.171875 66.40625 20.328125 58.90625 
Q 16.5 51.421875 16.5 36.375 
Q 16.5 21.390625 20.328125 13.890625 
Q 24.171875 6.390625 31.78125 6.390625 
Q 39.453125 6.390625 43.28125 13.890625 
Q 47.125 21.390625 47.125 36.375 
Q 47.125 51.421875 43.28125 58.90625 
Q 39.453125 66.40625 31.78125 66.40625 
z
M 31.78125 74.21875 
Q 44.046875 74.21875 50.515625 64.515625 
Q 56.984375 54.828125 56.984375 36.375 
Q 56.984375 17.96875 50.515625 8.265625 
Q 44.046875 -1.421875 31.78125 -1.421875 
Q 19.53125 -1.421875 13.0625 8.265625 
Q 6.59375 17.96875 6.59375 36.375 
Q 6.59375 54.828125 13.0625 64.515625 
Q 19.53125 74.21875 31.78125 74.21875 
z
" id="DejaVuSans-48"/>
       </defs>
       <use xlink:href="#DejaVuSans-57"/>
       <use x="63.623047" xlink:href="#DejaVuSans-50"/>
       <use x="127.246094" xlink:href="#DejaVuSans-46"/>
       <use x="159.033203" xlink:href="#DejaVuSans-57"/>
       <use x="222.65625" xlink:href="#DejaVuSans-48"/>
      </g>
     </g>
    </g>
    <g id="xtick_4">
     <g id="line2d_7">
      <path clip-path="url(#p15e7ec82cd)" d="M 572.720023 630 
L 572.720023 86.4 
" style="fill:none;stroke:#b0b0b0;stroke-linecap:square;stroke-width:0.8;"/>
     </g>
     <g id="line2d_8">
      <g>
       <use style="stroke:#000000;stroke-width:0.8;" x="572.720023" xlink:href="#m776dfd8487" y="630"/>
      </g>
     </g>
     <g id="text_4">
      <!-- 130.4 -->
      <g transform="translate(558.405961 644.598438)scale(0.1 -0.1)">
       <use xlink:href="#DejaVuSans-49"/>
       <use x="63.623047" xlink:href="#DejaVuSans-51"/>
       <use x="127.246094" xlink:href="#DejaVuSans-48"/>
       <use x="190.869141" xlink:href="#DejaVuSans-46"/>
       <use x="222.65625" xlink:href="#DejaVuSans-52"/>
      </g>
     </g>
    </g>
    <g id="xtick_5">
     <g id="line2d_9">
      <path clip-path="url(#p15e7ec82cd)" d="M 698.25397 630 
L 698.25397 86.4 
" style="fill:none;stroke:#b0b0b0;stroke-linecap:square;stroke-width:0.8;"/>
     </g>
     <g id="line2d_10">
      <g>
       <use style="stroke:#000000;stroke-width:0.8;" x="698.25397" xlink:href="#m776dfd8487" y="630"/>
      </g>
     </g>
     <g id="text_5">
      <!-- 167.9 -->
      <g transform="translate(683.939908 644.598438)scale(0.1 -0.1)">
       <defs>
        <path d="M 33.015625 40.375 
Q 26.375 40.375 22.484375 35.828125 
Q 18.609375 31.296875 18.609375 23.390625 
Q 18.609375 15.53125 22.484375 10.953125 
Q 26.375 6.390625 33.015625 6.390625 
Q 39.65625 6.390625 43.53125 10.953125 
Q 47.40625 15.53125 47.40625 23.390625 
Q 47.40625 31.296875 43.53125 35.828125 
Q 39.65625 40.375 33.015625 40.375 
z
M 52.59375 71.296875 
L 52.59375 62.3125 
Q 48.875 64.0625 45.09375 64.984375 
Q 41.3125 65.921875 37.59375 65.921875 
Q 27.828125 65.921875 22.671875 59.328125 
Q 17.53125 52.734375 16.796875 39.40625 
Q 19.671875 43.65625 24.015625 45.921875 
Q 28.375 48.1875 33.59375 48.1875 
Q 44.578125 48.1875 50.953125 41.515625 
Q 57.328125 34.859375 57.328125 23.390625 
Q 57.328125 12.15625 50.6875 5.359375 
Q 44.046875 -1.421875 33.015625 -1.421875 
Q 20.359375 -1.421875 13.671875 8.265625 
Q 6.984375 17.96875 6.984375 36.375 
Q 6.984375 53.65625 15.1875 63.9375 
Q 23.390625 74.21875 37.203125 74.21875 
Q 40.921875 74.21875 44.703125 73.484375 
Q 48.484375 72.75 52.59375 71.296875 
z
" id="DejaVuSans-54"/>
       </defs>
       <use xlink:href="#DejaVuSans-49"/>
       <use x="63.623047" xlink:href="#DejaVuSans-54"/>
       <use x="127.246094" xlink:href="#DejaVuSans-55"/>
       <use x="190.869141" xlink:href="#DejaVuSans-46"/>
       <use x="222.65625" xlink:href="#DejaVuSans-57"/>
      </g>
     </g>
    </g>
    <g id="xtick_6">
     <g id="line2d_11">
      <path clip-path="url(#p15e7ec82cd)" d="M 823.787917 630 
L 823.787917 86.4 
" style="fill:none;stroke:#b0b0b0;stroke-linecap:square;stroke-width:0.8;"/>
     </g>
     <g id="line2d_12">
      <g>
       <use style="stroke:#000000;stroke-width:0.8;" x="823.787917" xlink:href="#m776dfd8487" y="630"/>
      </g>
     </g>
     <g id="text_6">
      <!-- 205.4 -->
      <g transform="translate(809.473855 644.598438)scale(0.1 -0.1)">
       <use xlink:href="#DejaVuSans-50"/>
       <use x="63.623047" xlink:href="#DejaVuSans-48"/>
       <use x="127.246094" xlink:href="#DejaVuSans-53"/>
       <use x="190.869141" xlink:href="#DejaVuSans-46"/>
       <use x="222.65625" xlink:href="#DejaVuSans-52"/>
      </g>
     </g>
    </g>
    <g id="xtick_7">
     <g id="line2d_13">
      <path clip-path="url(#p15e7ec82cd)" d="M 1058.481818 630 
L 1058.481818 86.4 
" style="fill:none;stroke:#b0b0b0;stroke-linecap:square;stroke-width:0.8;"/>
     </g>
     <g id="line2d_14">
      <g>
       <use style="stroke:#000000;stroke-width:0.8;" x="1058.481818" xlink:href="#m776dfd8487" y="630"/>
      </g>
     </g>
     <g id="text_7">
      <!-- 275.4 -->
      <g transform="translate(1044.167756 644.598438)scale(0.1 -0.1)">
       <use xlink:href="#DejaVuSans-50"/>
       <use x="63.623047" xlink:href="#DejaVuSans-55"/>
       <use x="127.246094" xlink:href="#DejaVuSans-53"/>
       <use x="190.869141" xlink:href="#DejaVuSans-46"/>
       <use x="222.65625" xlink:href="#DejaVuSans-52"/>
      </g>
     </g>
    </g>
    <g id="text_8">
     <!-- Time (s) -->
     <g transform="translate(598.026375 661.619875)scale(0.144 -0.144)">
      <defs>
       <path d="M -0.296875 72.90625 
L 61.375 72.90625 
L 61.375 64.59375 
L 35.5 64.59375 
L 35.5 0 
L 25.59375 0 
L 25.59375 64.59375 
L -0.296875 64.59375 
z
" id="DejaVuSans-84"/>
       <path d="M 9.421875 54.6875 
L 18.40625 54.6875 
L 18.40625 0 
L 9.421875 0 
z
M 9.421875 75.984375 
L 18.40625 75.984375 
L 18.40625 64.59375 
L 9.421875 64.59375 
z
" id="DejaVuSans-105"/>
       <path d="M 52 44.1875 
Q 55.375 50.25 60.0625 53.125 
Q 64.75 56 71.09375 56 
Q 79.640625 56 84.28125 50.015625 
Q 88.921875 44.046875 88.921875 33.015625 
L 88.921875 0 
L 79.890625 0 
L 79.890625 32.71875 
Q 79.890625 40.578125 77.09375 44.375 
Q 74.3125 48.1875 68.609375 48.1875 
Q 61.625 48.1875 57.5625 43.546875 
Q 53.515625 38.921875 53.515625 30.90625 
L 53.515625 0 
L 44.484375 0 
L 44.484375 32.71875 
Q 44.484375 40.625 41.703125 44.40625 
Q 38.921875 48.1875 33.109375 48.1875 
Q 26.21875 48.1875 22.15625 43.53125 
Q 18.109375 38.875 18.109375 30.90625 
L 18.109375 0 
L 9.078125 0 
L 9.078125 54.6875 
L 18.109375 54.6875 
L 18.109375 46.1875 
Q 21.1875 51.21875 25.484375 53.609375 
Q 29.78125 56 35.6875 56 
Q 41.65625 56 45.828125 52.96875 
Q 50 49.953125 52 44.1875 
z
" id="DejaVuSans-109"/>
       <path d="M 56.203125 29.59375 
L 56.203125 25.203125 
L 14.890625 25.203125 
Q 15.484375 15.921875 20.484375 11.0625 
Q 25.484375 6.203125 34.421875 6.203125 
Q 39.59375 6.203125 44.453125 7.46875 
Q 49.3125 8.734375 54.109375 11.28125 
L 54.109375 2.78125 
Q 49.265625 0.734375 44.1875 -0.34375 
Q 39.109375 -1.421875 33.890625 -1.421875 
Q 20.796875 -1.421875 13.15625 6.1875 
Q 5.515625 13.8125 5.515625 26.8125 
Q 5.515625 40.234375 12.765625 48.109375 
Q 20.015625 56 32.328125 56 
Q 43.359375 56 49.78125 48.890625 
Q 56.203125 41.796875 56.203125 29.59375 
z
M 47.21875 32.234375 
Q 47.125 39.59375 43.09375 43.984375 
Q 39.0625 48.390625 32.421875 48.390625 
Q 24.90625 48.390625 20.390625 44.140625 
Q 15.875 39.890625 15.1875 32.171875 
z
" id="DejaVuSans-101"/>
       <path id="DejaVuSans-32"/>
       <path d="M 31 75.875 
Q 24.46875 64.65625 21.28125 53.65625 
Q 18.109375 42.671875 18.109375 31.390625 
Q 18.109375 20.125 21.3125 9.0625 
Q 24.515625 -2 31 -13.1875 
L 23.1875 -13.1875 
Q 15.875 -1.703125 12.234375 9.375 
Q 8.59375 20.453125 8.59375 31.390625 
Q 8.59375 42.28125 12.203125 53.3125 
Q 15.828125 64.359375 23.1875 75.875 
z
" id="DejaVuSans-40"/>
       <path d="M 44.28125 53.078125 
L 44.28125 44.578125 
Q 40.484375 46.53125 36.375 47.5 
Q 32.28125 48.484375 27.875 48.484375 
Q 21.1875 48.484375 17.84375 46.4375 
Q 14.5 44.390625 14.5 40.28125 
Q 14.5 37.15625 16.890625 35.375 
Q 19.28125 33.59375 26.515625 31.984375 
L 29.59375 31.296875 
Q 39.15625 29.25 43.1875 25.515625 
Q 47.21875 21.78125 47.21875 15.09375 
Q 47.21875 7.46875 41.1875 3.015625 
Q 35.15625 -1.421875 24.609375 -1.421875 
Q 20.21875 -1.421875 15.453125 -0.5625 
Q 10.6875 0.296875 5.421875 2 
L 5.421875 11.28125 
Q 10.40625 8.6875 15.234375 7.390625 
Q 20.0625 6.109375 24.8125 6.109375 
Q 31.15625 6.109375 34.5625 8.28125 
Q 37.984375 10.453125 37.984375 14.40625 
Q 37.984375 18.0625 35.515625 20.015625 
Q 33.0625 21.96875 24.703125 23.78125 
L 21.578125 24.515625 
Q 13.234375 26.265625 9.515625 29.90625 
Q 5.8125 33.546875 5.8125 39.890625 
Q 5.8125 47.609375 11.28125 51.796875 
Q 16.75 56 26.8125 56 
Q 31.78125 56 36.171875 55.265625 
Q 40.578125 54.546875 44.28125 53.078125 
z
" id="DejaVuSans-115"/>
       <path d="M 8.015625 75.875 
L 15.828125 75.875 
Q 23.140625 64.359375 26.78125 53.3125 
Q 30.421875 42.28125 30.421875 31.390625 
Q 30.421875 20.453125 26.78125 9.375 
Q 23.140625 -1.703125 15.828125 -13.1875 
L 8.015625 -13.1875 
Q 14.5 -2 17.703125 9.0625 
Q 20.90625 20.125 20.90625 31.390625 
Q 20.90625 42.671875 17.703125 53.65625 
Q 14.5 64.65625 8.015625 75.875 
z
" id="DejaVuSans-41"/>
      </defs>
      <use xlink:href="#DejaVuSans-84"/>
      <use x="57.958984" xlink:href="#DejaVuSans-105"/>
      <use x="85.742188" xlink:href="#DejaVuSans-109"/>
      <use x="183.154297" xlink:href="#DejaVuSans-101"/>
      <use x="244.677734" xlink:href="#DejaVuSans-32"/>
      <use x="276.464844" xlink:href="#DejaVuSans-40"/>
      <use x="315.478516" xlink:href="#DejaVuSans-115"/>
      <use x="367.578125" xlink:href="#DejaVuSans-41"/>
     </g>
    </g>
   </g>
   <g id="matplotlib.axis_2">
    <g id="ytick_1">
     <g id="line2d_15">
      <path clip-path="url(#p15e7ec82cd)" d="M 153 566.134274 
L 1101.6 566.134274 
" style="fill:none;stroke:#b0b0b0;stroke-linecap:square;stroke-width:0.8;"/>
     </g>
     <g id="line2d_16">
      <defs>
       <path d="M 0 0 
L -3.5 0 
" id="mf05badebcc" style="stroke:#000000;stroke-width:0.8;"/>
      </defs>
      <g>
       <use style="stroke:#000000;stroke-width:0.8;" x="153" xlink:href="#mf05badebcc" y="566.134274"/>
      </g>
     </g>
     <g id="text_9">
      <!-- $\mathdefault{10^{-11}}$ -->
      <g transform="translate(118.1 569.933493)scale(0.1 -0.1)">
       <defs>
        <path d="M 10.59375 35.5 
L 73.1875 35.5 
L 73.1875 27.203125 
L 10.59375 27.203125 
z
" id="DejaVuSans-8722"/>
       </defs>
       <use transform="translate(0 0.684375)" xlink:href="#DejaVuSans-49"/>
       <use transform="translate(63.623047 0.684375)" xlink:href="#DejaVuSans-48"/>
       <use transform="translate(128.203125 38.965625)scale(0.7)" xlink:href="#DejaVuSans-8722"/>
       <use transform="translate(186.855469 38.965625)scale(0.7)" xlink:href="#DejaVuSans-49"/>
       <use transform="translate(231.391602 38.965625)scale(0.7)" xlink:href="#DejaVuSans-49"/>
      </g>
     </g>
    </g>
    <g id="ytick_2">
     <g id="line2d_17">
      <path clip-path="url(#p15e7ec82cd)" d="M 153 483.807022 
L 1101.6 483.807022 
" style="fill:none;stroke:#b0b0b0;stroke-linecap:square;stroke-width:0.8;"/>
     </g>
     <g id="line2d_18">
      <g>
       <use style="stroke:#000000;stroke-width:0.8;" x="153" xlink:href="#mf05badebcc" y="483.807022"/>
      </g>
     </g>
     <g id="text_10">
      <!-- $\mathdefault{10^{-9}}$ -->
      <g transform="translate(122.5 487.606241)scale(0.1 -0.1)">
       <use transform="translate(0 0.765625)" xlink:href="#DejaVuSans-49"/>
       <use transform="translate(63.623047 0.765625)" xlink:href="#DejaVuSans-48"/>
       <use transform="translate(128.203125 39.046875)scale(0.7)" xlink:href="#DejaVuSans-8722"/>
       <use transform="translate(186.855469 39.046875)scale(0.7)" xlink:href="#DejaVuSans-57"/>
      </g>
     </g>
    </g>
    <g id="ytick_3">
     <g id="line2d_19">
      <path clip-path="url(#p15e7ec82cd)" d="M 153 401.47977 
L 1101.6 401.47977 
" style="fill:none;stroke:#b0b0b0;stroke-linecap:square;stroke-width:0.8;"/>
     </g>
     <g id="line2d_20">
      <g>
       <use style="stroke:#000000;stroke-width:0.8;" x="153" xlink:href="#mf05badebcc" y="401.47977"/>
      </g>
     </g>
     <g id="text_11">
      <!-- $\mathdefault{10^{-7}}$ -->
      <g transform="translate(122.5 405.278989)scale(0.1 -0.1)">
       <use transform="translate(0 0.684375)" xlink:href="#DejaVuSans-49"/>
       <use transform="translate(63.623047 0.684375)" xlink:href="#DejaVuSans-48"/>
       <use transform="translate(128.203125 38.965625)scale(0.7)" xlink:href="#DejaVuSans-8722"/>
       <use transform="translate(186.855469 38.965625)scale(0.7)" xlink:href="#DejaVuSans-55"/>
      </g>
     </g>
    </g>
    <g id="ytick_4">
     <g id="line2d_21">
      <path clip-path="url(#p15e7ec82cd)" d="M 153 319.152518 
L 1101.6 319.152518 
" style="fill:none;stroke:#b0b0b0;stroke-linecap:square;stroke-width:0.8;"/>
     </g>
     <g id="line2d_22">
      <g>
       <use style="stroke:#000000;stroke-width:0.8;" x="153" xlink:href="#mf05badebcc" y="319.152518"/>
      </g>
     </g>
     <g id="text_12">
      <!-- $\mathdefault{10^{-5}}$ -->
      <g transform="translate(122.5 322.951737)scale(0.1 -0.1)">
       <use transform="translate(0 0.684375)" xlink:href="#DejaVuSans-49"/>
       <use transform="translate(63.623047 0.684375)" xlink:href="#DejaVuSans-48"/>
       <use transform="translate(128.203125 38.965625)scale(0.7)" xlink:href="#DejaVuSans-8722"/>
       <use transform="translate(186.855469 38.965625)scale(0.7)" xlink:href="#DejaVuSans-53"/>
      </g>
     </g>
    </g>
    <g id="ytick_5">
     <g id="line2d_23">
      <path clip-path="url(#p15e7ec82cd)" d="M 153 236.825266 
L 1101.6 236.825266 
" style="fill:none;stroke:#b0b0b0;stroke-linecap:square;stroke-width:0.8;"/>
     </g>
     <g id="line2d_24">
      <g>
       <use style="stroke:#000000;stroke-width:0.8;" x="153" xlink:href="#mf05badebcc" y="236.825266"/>
      </g>
     </g>
     <g id="text_13">
      <!-- $\mathdefault{10^{-3}}$ -->
      <g transform="translate(122.5 240.624485)scale(0.1 -0.1)">
       <use transform="translate(0 0.765625)" xlink:href="#DejaVuSans-49"/>
       <use transform="translate(63.623047 0.765625)" xlink:href="#DejaVuSans-48"/>
       <use transform="translate(128.203125 39.046875)scale(0.7)" xlink:href="#DejaVuSans-8722"/>
       <use transform="translate(186.855469 39.046875)scale(0.7)" xlink:href="#DejaVuSans-51"/>
      </g>
     </g>
    </g>
    <g id="ytick_6">
     <g id="line2d_25">
      <path clip-path="url(#p15e7ec82cd)" d="M 153 154.498014 
L 1101.6 154.498014 
" style="fill:none;stroke:#b0b0b0;stroke-linecap:square;stroke-width:0.8;"/>
     </g>
     <g id="line2d_26">
      <g>
       <use style="stroke:#000000;stroke-width:0.8;" x="153" xlink:href="#mf05badebcc" y="154.498014"/>
      </g>
     </g>
     <g id="text_14">
      <!-- $\mathdefault{10^{-1}}$ -->
      <g transform="translate(122.5 158.297233)scale(0.1 -0.1)">
       <use transform="translate(0 0.684375)" xlink:href="#DejaVuSans-49"/>
       <use transform="translate(63.623047 0.684375)" xlink:href="#DejaVuSans-48"/>
       <use transform="translate(128.203125 38.965625)scale(0.7)" xlink:href="#DejaVuSans-8722"/>
       <use transform="translate(186.855469 38.965625)scale(0.7)" xlink:href="#DejaVuSans-49"/>
      </g>
     </g>
    </g>
    <g id="text_15">
     <!-- Concentration (molal) -->
     <g transform="translate(111.10525 436.872375)rotate(-90)scale(0.144 -0.144)">
      <defs>
       <path d="M 64.40625 67.28125 
L 64.40625 56.890625 
Q 59.421875 61.53125 53.78125 63.8125 
Q 48.140625 66.109375 41.796875 66.109375 
Q 29.296875 66.109375 22.65625 58.46875 
Q 16.015625 50.828125 16.015625 36.375 
Q 16.015625 21.96875 22.65625 14.328125 
Q 29.296875 6.6875 41.796875 6.6875 
Q 48.140625 6.6875 53.78125 8.984375 
Q 59.421875 11.28125 64.40625 15.921875 
L 64.40625 5.609375 
Q 59.234375 2.09375 53.4375 0.328125 
Q 47.65625 -1.421875 41.21875 -1.421875 
Q 24.65625 -1.421875 15.125 8.703125 
Q 5.609375 18.84375 5.609375 36.375 
Q 5.609375 53.953125 15.125 64.078125 
Q 24.65625 74.21875 41.21875 74.21875 
Q 47.75 74.21875 53.53125 72.484375 
Q 59.328125 70.75 64.40625 67.28125 
z
" id="DejaVuSans-67"/>
       <path d="M 30.609375 48.390625 
Q 23.390625 48.390625 19.1875 42.75 
Q 14.984375 37.109375 14.984375 27.296875 
Q 14.984375 17.484375 19.15625 11.84375 
Q 23.34375 6.203125 30.609375 6.203125 
Q 37.796875 6.203125 41.984375 11.859375 
Q 46.1875 17.53125 46.1875 27.296875 
Q 46.1875 37.015625 41.984375 42.703125 
Q 37.796875 48.390625 30.609375 48.390625 
z
M 30.609375 56 
Q 42.328125 56 49.015625 48.375 
Q 55.71875 40.765625 55.71875 27.296875 
Q 55.71875 13.875 49.015625 6.21875 
Q 42.328125 -1.421875 30.609375 -1.421875 
Q 18.84375 -1.421875 12.171875 6.21875 
Q 5.515625 13.875 5.515625 27.296875 
Q 5.515625 40.765625 12.171875 48.375 
Q 18.84375 56 30.609375 56 
z
" id="DejaVuSans-111"/>
       <path d="M 54.890625 33.015625 
L 54.890625 0 
L 45.90625 0 
L 45.90625 32.71875 
Q 45.90625 40.484375 42.875 44.328125 
Q 39.84375 48.1875 33.796875 48.1875 
Q 26.515625 48.1875 22.3125 43.546875 
Q 18.109375 38.921875 18.109375 30.90625 
L 18.109375 0 
L 9.078125 0 
L 9.078125 54.6875 
L 18.109375 54.6875 
L 18.109375 46.1875 
Q 21.34375 51.125 25.703125 53.5625 
Q 30.078125 56 35.796875 56 
Q 45.21875 56 50.046875 50.171875 
Q 54.890625 44.34375 54.890625 33.015625 
z
" id="DejaVuSans-110"/>
       <path d="M 48.78125 52.59375 
L 48.78125 44.1875 
Q 44.96875 46.296875 41.140625 47.34375 
Q 37.3125 48.390625 33.40625 48.390625 
Q 24.65625 48.390625 19.8125 42.84375 
Q 14.984375 37.3125 14.984375 27.296875 
Q 14.984375 17.28125 19.8125 11.734375 
Q 24.65625 6.203125 33.40625 6.203125 
Q 37.3125 6.203125 41.140625 7.25 
Q 44.96875 8.296875 48.78125 10.40625 
L 48.78125 2.09375 
Q 45.015625 0.34375 40.984375 -0.53125 
Q 36.96875 -1.421875 32.421875 -1.421875 
Q 20.0625 -1.421875 12.78125 6.34375 
Q 5.515625 14.109375 5.515625 27.296875 
Q 5.515625 40.671875 12.859375 48.328125 
Q 20.21875 56 33.015625 56 
Q 37.15625 56 41.109375 55.140625 
Q 45.0625 54.296875 48.78125 52.59375 
z
" id="DejaVuSans-99"/>
       <path d="M 18.3125 70.21875 
L 18.3125 54.6875 
L 36.8125 54.6875 
L 36.8125 47.703125 
L 18.3125 47.703125 
L 18.3125 18.015625 
Q 18.3125 11.328125 20.140625 9.421875 
Q 21.96875 7.515625 27.59375 7.515625 
L 36.8125 7.515625 
L 36.8125 0 
L 27.59375 0 
Q 17.1875 0 13.234375 3.875 
Q 9.28125 7.765625 9.28125 18.015625 
L 9.28125 47.703125 
L 2.6875 47.703125 
L 2.6875 54.6875 
L 9.28125 54.6875 
L 9.28125 70.21875 
z
" id="DejaVuSans-116"/>
       <path d="M 41.109375 46.296875 
Q 39.59375 47.171875 37.8125 47.578125 
Q 36.03125 48 33.890625 48 
Q 26.265625 48 22.1875 43.046875 
Q 18.109375 38.09375 18.109375 28.8125 
L 18.109375 0 
L 9.078125 0 
L 9.078125 54.6875 
L 18.109375 54.6875 
L 18.109375 46.1875 
Q 20.953125 51.171875 25.484375 53.578125 
Q 30.03125 56 36.53125 56 
Q 37.453125 56 38.578125 55.875 
Q 39.703125 55.765625 41.0625 55.515625 
z
" id="DejaVuSans-114"/>
       <path d="M 34.28125 27.484375 
Q 23.390625 27.484375 19.1875 25 
Q 14.984375 22.515625 14.984375 16.5 
Q 14.984375 11.71875 18.140625 8.90625 
Q 21.296875 6.109375 26.703125 6.109375 
Q 34.1875 6.109375 38.703125 11.40625 
Q 43.21875 16.703125 43.21875 25.484375 
L 43.21875 27.484375 
z
M 52.203125 31.203125 
L 52.203125 0 
L 43.21875 0 
L 43.21875 8.296875 
Q 40.140625 3.328125 35.546875 0.953125 
Q 30.953125 -1.421875 24.3125 -1.421875 
Q 15.921875 -1.421875 10.953125 3.296875 
Q 6 8.015625 6 15.921875 
Q 6 25.140625 12.171875 29.828125 
Q 18.359375 34.515625 30.609375 34.515625 
L 43.21875 34.515625 
L 43.21875 35.40625 
Q 43.21875 41.609375 39.140625 45 
Q 35.0625 48.390625 27.6875 48.390625 
Q 23 48.390625 18.546875 47.265625 
Q 14.109375 46.140625 10.015625 43.890625 
L 10.015625 52.203125 
Q 14.9375 54.109375 19.578125 55.046875 
Q 24.21875 56 28.609375 56 
Q 40.484375 56 46.34375 49.84375 
Q 52.203125 43.703125 52.203125 31.203125 
z
" id="DejaVuSans-97"/>
       <path d="M 9.421875 75.984375 
L 18.40625 75.984375 
L 18.40625 0 
L 9.421875 0 
z
" id="DejaVuSans-108"/>
      </defs>
      <use xlink:href="#DejaVuSans-67"/>
      <use x="69.824219" xlink:href="#DejaVuSans-111"/>
      <use x="131.005859" xlink:href="#DejaVuSans-110"/>
      <use x="194.384766" xlink:href="#DejaVuSans-99"/>
      <use x="249.365234" xlink:href="#DejaVuSans-101"/>
      <use x="310.888672" xlink:href="#DejaVuSans-110"/>
      <use x="374.267578" xlink:href="#DejaVuSans-116"/>
      <use x="413.476562" xlink:href="#DejaVuSans-114"/>
      <use x="454.589844" xlink:href="#DejaVuSans-97"/>
      <use x="515.869141" xlink:href="#DejaVuSans-116"/>
      <use x="555.078125" xlink:href="#DejaVuSans-105"/>
      <use x="582.861328" xlink:href="#DejaVuSans-111"/>
      <use x="644.042969" xlink:href="#DejaVuSans-110"/>
      <use x="707.421875" xlink:href="#DejaVuSans-32"/>
      <use x="739.208984" xlink:href="#DejaVuSans-40"/>
      <use x="778.222656" xlink:href="#DejaVuSans-109"/>
      <use x="875.634766" xlink:href="#DejaVuSans-111"/>
      <use x="936.816406" xlink:href="#DejaVuSans-108"/>
      <use x="964.599609" xlink:href="#DejaVuSans-97"/>
      <use x="1025.878906" xlink:href="#DejaVuSans-108"/>
      <use x="1053.662109" xlink:href="#DejaVuSans-41"/>
     </g>
    </g>
   </g>
   <g id="line2d_27">
    <path clip-path="url(#p15e7ec82cd)" d="M 196.118182 452.970071 
L 198.847181 441.395836 
L 201.57618 430.609602 
L 204.305178 420.518267 
L 207.034177 411.044703 
L 209.763176 402.124213 
L 212.492175 393.701943 
L 215.221174 385.730935 
L 217.950173 378.170655 
L 220.679171 370.985847 
L 223.40817 364.145645 
L 226.137169 357.622853 
L 231.595167 345.435784 
L 237.053165 334.261415 
L 242.511162 323.968155 
L 247.96916 314.44826 
L 253.427158 305.612327 
L 258.885155 297.385299 
L 264.343153 289.70351 
L 269.801151 282.512461 
L 275.259148 275.765115 
L 280.717146 269.420581 
L 286.175144 263.443073 
L 291.633142 257.801085 
L 297.091139 252.466735 
L 302.549137 247.415226 
L 308.007135 242.624409 
L 313.465132 238.074428 
L 318.92313 233.747416 
L 324.381128 229.627259 
L 329.839125 225.699399 
L 338.026122 220.13975 
L 346.213119 214.944498 
L 354.400115 210.080814 
L 362.587112 205.521887 
L 370.774108 201.247226 
L 378.961105 197.243234 
L 387.148101 193.505079 
L 395.335098 190.042888 
L 403.522094 186.883655 
L 408.980092 184.982233 
L 411.709091 183.739627 
L 417.167089 182.216975 
L 419.896087 181.64287 
L 447.186076 179.866178 
L 469.018067 178.646788 
L 490.850058 177.647679 
L 512.682048 176.878377 
L 534.514039 176.324945 
L 559.075029 175.919085 
L 589.094016 175.647731 
L 632.757998 175.495019 
L 731.001956 175.443404 
L 1058.481818 175.440727 
L 1058.481818 175.440727 
" style="fill:none;stroke:#1f77b4;stroke-linecap:square;stroke-width:1.5;"/>
   </g>
   <g id="line2d_28">
    <path clip-path="url(#p15e7ec82cd)" d="M 196.118182 457.706177 
L 198.847181 446.131941 
L 201.57618 435.345708 
L 204.305178 425.254373 
L 207.034177 415.780808 
L 209.763176 406.860319 
L 212.492175 398.438049 
L 215.221174 390.467041 
L 217.950173 382.90676 
L 220.679171 375.721953 
L 223.40817 368.88175 
L 226.137169 362.358959 
L 231.595167 350.17189 
L 237.053165 338.997521 
L 242.511162 328.70426 
L 247.96916 319.184366 
L 253.427158 310.348433 
L 258.885155 302.121405 
L 264.343153 294.439616 
L 269.801151 287.248566 
L 275.259148 280.501221 
L 280.717146 274.156687 
L 286.175144 268.179178 
L 291.633142 262.537191 
L 297.091139 257.202841 
L 302.549137 252.151332 
L 308.007135 247.360515 
L 313.465132 242.810533 
L 318.92313 238.48352 
L 324.381128 234.363352 
L 332.568124 228.539402 
L 340.755121 223.104689 
L 348.942117 218.02136 
L 357.129114 213.256491 
L 365.31611 208.781389 
L 373.503107 204.571024 
L 381.690104 200.603558 
L 389.8771 196.859953 
L 398.064097 193.323636 
L 406.251093 189.980196 
L 417.167089 185.801151 
L 428.083084 181.916542 
L 438.999079 178.307683 
L 449.915075 174.958712 
L 460.83107 171.856643 
L 471.747066 168.990966 
L 482.663061 166.352949 
L 493.579056 163.934984 
L 504.495052 161.729951 
L 515.411047 159.730667 
L 526.327043 157.929425 
L 537.243038 156.317662 
L 550.888032 154.554678 
L 564.533026 153.051562 
L 578.178021 151.784949 
L 591.823015 150.729934 
L 608.197008 149.707325 
L 624.571001 148.909462 
L 643.673993 148.208883 
L 665.505984 147.642851 
L 692.795972 147.186473 
L 725.543959 146.87574 
L 771.936939 146.674156 
L 853.806904 146.577025 
L 1058.481818 146.560283 
L 1058.481818 146.560283 
" style="fill:none;stroke:#ff7f0e;stroke-linecap:square;stroke-width:1.5;"/>
   </g>
   <g id="line2d_29">
    <path clip-path="url(#p15e7ec82cd)" d="M 196.118182 425.221892 
L 198.847181 413.647656 
L 201.57618 402.861423 
L 204.305178 392.770088 
L 207.034177 383.296523 
L 209.763176 374.376034 
L 212.492175 365.953764 
L 215.221174 357.982756 
L 217.950173 350.422475 
L 220.679171 343.237668 
L 223.40817 336.397465 
L 226.137169 329.874673 
L 231.595167 317.687604 
L 237.053165 306.513236 
L 242.511162 296.219975 
L 247.96916 286.70008 
L 253.427158 277.864148 
L 258.885155 269.63712 
L 264.343153 261.955331 
L 269.801151 254.764281 
L 275.259148 248.016936 
L 280.717146 241.672402 
L 286.175144 235.694893 
L 291.633142 230.052906 
L 297.091139 224.718556 
L 302.549137 219.667046 
L 308.007135 214.87623 
L 313.465132 210.326248 
L 318.92313 205.999235 
L 324.381128 201.879067 
L 332.568124 196.055116 
L 340.755121 190.620404 
L 348.942117 185.537075 
L 357.129114 180.772206 
L 365.31611 176.297104 
L 373.503107 172.086739 
L 381.690104 168.119273 
L 389.8771 164.375668 
L 398.064097 160.839351 
L 406.251093 157.495911 
L 417.167089 153.316866 
L 428.083084 149.432257 
L 438.999079 145.823398 
L 449.915075 142.474426 
L 460.83107 139.372358 
L 471.747066 136.50668 
L 482.663061 133.868664 
L 493.579056 131.450699 
L 504.495052 129.245666 
L 515.411047 127.246382 
L 526.327043 125.44514 
L 537.243038 123.833377 
L 550.888032 122.070393 
L 564.533026 120.567277 
L 578.178021 119.300663 
L 591.823015 118.245649 
L 608.197008 117.22304 
L 624.571001 116.425177 
L 643.673993 115.724598 
L 665.505984 115.158566 
L 692.795972 114.702188 
L 725.543959 114.391455 
L 771.936939 114.189871 
L 853.806904 114.09274 
L 1058.481818 114.075998 
L 1058.481818 114.075998 
" style="fill:none;stroke:#2ca02c;stroke-linecap:square;stroke-width:1.5;"/>
   </g>
   <g id="line2d_30">
    <path clip-path="url(#p15e7ec82cd)" d="M 196.118182 538.716567 
L 198.847181 527.142331 
L 201.57618 516.356098 
L 204.305178 506.264763 
L 207.034177 496.791198 
L 209.763176 487.870709 
L 212.492175 479.448439 
L 215.221174 471.477431 
L 217.950173 463.91715 
L 220.679171 456.732343 
L 223.40817 449.89214 
L 226.137169 443.369348 
L 231.595167 431.182279 
L 237.053165 420.007911 
L 242.511162 409.71465 
L 247.96916 400.194755 
L 253.427158 391.358823 
L 258.885155 383.131795 
L 264.343153 375.450006 
L 269.801151 368.258956 
L 275.259148 361.511611 
L 280.717146 355.167077 
L 286.175144 349.189568 
L 291.633142 343.54758 
L 297.091139 338.213231 
L 302.549137 333.161721 
L 308.007135 328.370905 
L 313.465132 323.820923 
L 318.92313 319.49391 
L 324.381128 315.373742 
L 329.839125 311.445835 
L 338.026122 305.885894 
L 346.213119 300.68964 
L 354.400115 295.823387 
L 362.587112 291.259117 
L 370.774108 286.974834 
L 378.961105 282.955322 
L 387.148101 279.19425 
L 395.335098 275.698195 
L 403.522094 272.492618 
L 408.980092 270.550632 
L 411.709091 269.282963 
L 417.167089 267.669579 
L 419.896087 266.971017 
L 425.354085 266.496182 
L 452.644074 264.754428 
L 474.476064 263.570677 
L 496.308055 262.609987 
L 518.140046 261.879565 
L 539.972037 261.363262 
L 564.533026 260.994269 
L 597.281013 260.744502 
L 646.402992 260.627279 
L 796.497929 260.605945 
L 1058.481818 260.606204 
L 1058.481818 260.606204 
" style="fill:none;stroke:#d62728;stroke-linecap:square;stroke-width:1.5;"/>
   </g>
   <g id="line2d_31">
    <path clip-path="url(#p15e7ec82cd)" d="M 196.118182 422.254985 
L 198.847181 410.680749 
L 201.57618 399.894516 
L 204.305178 389.803181 
L 207.034177 380.329616 
L 209.763176 371.409127 
L 212.492175 362.986857 
L 215.221174 355.015849 
L 217.950173 347.455568 
L 220.679171 340.270761 
L 223.40817 333.430558 
L 226.137169 326.907766 
L 231.595167 314.720697 
L 237.053165 303.546328 
L 242.511162 293.253068 
L 247.96916 283.733173 
L 253.427158 274.89724 
L 258.885155 266.670212 
L 264.343153 258.988424 
L 269.801151 251.797374 
L 275.259148 245.050029 
L 280.717146 238.705495 
L 286.175144 232.727986 
L 291.633142 227.085998 
L 297.091139 221.751648 
L 302.549137 216.700139 
L 308.007135 211.909323 
L 313.465132 207.359341 
L 318.92313 203.032328 
L 324.381128 198.91216 
L 332.568124 193.088209 
L 340.755121 187.653497 
L 348.942117 182.570168 
L 357.129114 177.805299 
L 365.31611 173.330197 
L 373.503107 169.119832 
L 381.690104 165.152365 
L 389.8771 161.408761 
L 398.064097 157.872444 
L 406.251093 154.529004 
L 417.167089 150.349958 
L 428.083084 146.46535 
L 438.999079 142.85649 
L 449.915075 139.507519 
L 460.83107 136.405451 
L 471.747066 133.539773 
L 482.663061 130.901757 
L 493.579056 128.483791 
L 504.495052 126.278759 
L 515.411047 124.279475 
L 526.327043 122.478233 
L 537.243038 120.86647 
L 550.888032 119.103485 
L 564.533026 117.60037 
L 578.178021 116.333756 
L 591.823015 115.278741 
L 608.197008 114.256133 
L 624.571001 113.45827 
L 643.673993 112.757691 
L 665.505984 112.191659 
L 692.795972 111.735281 
L 725.543959 111.424548 
L 771.936939 111.222964 
L 853.806904 111.125833 
L 1058.481818 111.109091 
L 1058.481818 111.109091 
" style="fill:none;stroke:#9467bd;stroke-linecap:square;stroke-width:1.5;"/>
   </g>
   <g id="line2d_32">
    <path clip-path="url(#p15e7ec82cd)" d="M 196.118182 448.227319 
L 198.847181 436.653083 
L 201.57618 425.86685 
L 204.305178 415.775515 
L 207.034177 406.30195 
L 209.763176 397.381461 
L 212.492175 388.959191 
L 215.221174 380.988183 
L 217.950173 373.427902 
L 220.679171 366.243095 
L 223.40817 359.402892 
L 226.137169 352.880101 
L 231.595167 340.693032 
L 237.053165 329.518663 
L 242.511162 319.225402 
L 247.96916 309.705507 
L 253.427158 300.869575 
L 258.885155 292.642547 
L 264.343153 284.960758 
L 269.801151 277.769708 
L 275.259148 271.022363 
L 280.717146 264.677829 
L 286.175144 258.70032 
L 291.633142 253.058333 
L 297.091139 247.723983 
L 302.549137 242.672474 
L 308.007135 237.881657 
L 313.465132 233.331675 
L 318.92313 229.004663 
L 324.381128 224.884504 
L 329.839125 220.956632 
L 338.026122 215.396905 
L 346.213119 210.201348 
L 354.400115 205.336751 
L 362.587112 200.775565 
L 370.774108 196.495992 
L 378.961105 192.482313 
L 387.148101 188.726214 
L 395.335098 185.231411 
L 403.522094 182.014862 
L 408.980092 180.051036 
L 411.709091 178.852371 
L 417.167089 177.204663 
L 419.896087 176.527942 
L 466.289068 170.113361 
L 488.121059 167.352952 
L 507.224051 165.176891 
L 523.598044 163.521455 
L 539.972037 162.073834 
L 556.34603 160.836292 
L 572.720023 159.801368 
L 591.823015 158.82943 
L 610.926007 158.079586 
L 632.757998 157.447168 
L 657.318987 156.957479 
L 687.337975 156.58423 
L 728.272957 156.319733 
L 791.039931 156.172263 
L 935.67687 156.124998 
L 1058.481818 156.123605 
L 1058.481818 156.123605 
" style="fill:none;stroke:#8c564b;stroke-linecap:square;stroke-width:1.5;"/>
   </g>
   <g id="line2d_33">
    <path clip-path="url(#p15e7ec82cd)" d="M 196.118182 605.290909 
L 198.847181 593.716673 
L 201.57618 582.93044 
L 204.305178 572.839105 
L 207.034177 563.36554 
L 209.763176 554.445051 
L 212.492175 546.022781 
L 215.221174 538.051773 
L 217.950173 530.491492 
L 220.679171 523.306685 
L 223.40817 516.466482 
L 226.137169 509.94369 
L 231.595167 497.756622 
L 237.053165 486.582253 
L 242.511162 476.288992 
L 247.96916 466.769097 
L 253.427158 457.933165 
L 258.885155 449.706137 
L 264.343153 442.024348 
L 269.801151 434.833298 
L 275.259148 428.085953 
L 280.717146 421.741419 
L 286.175144 415.76391 
L 291.633142 410.121923 
L 297.091139 404.787573 
L 302.549137 399.736064 
L 308.007135 394.945247 
L 313.465132 390.395265 
L 318.92313 386.068252 
L 324.381128 381.948084 
L 332.568124 376.124133 
L 340.755121 370.689421 
L 348.942117 365.606092 
L 357.129114 360.841223 
L 365.31611 356.366121 
L 373.503107 352.155756 
L 381.690104 348.18829 
L 389.8771 344.444685 
L 398.064097 340.908368 
L 406.251093 337.564928 
L 417.167089 333.385883 
L 428.083084 329.501274 
L 438.999079 325.892415 
L 449.915075 322.543444 
L 460.83107 319.441375 
L 471.747066 316.575697 
L 482.663061 313.937681 
L 493.579056 311.519716 
L 504.495052 309.314683 
L 515.411047 307.315399 
L 526.327043 305.514157 
L 537.243038 303.902394 
L 550.888032 302.13941 
L 564.533026 300.636294 
L 578.178021 299.369681 
L 591.823015 298.314666 
L 608.197008 297.292057 
L 624.571001 296.494194 
L 643.673993 295.793615 
L 665.505984 295.227583 
L 692.795972 294.771205 
L 725.543959 294.460472 
L 771.936939 294.258888 
L 853.806904 294.161757 
L 1058.481818 294.145015 
L 1058.481818 294.145015 
" style="fill:none;stroke:#e377c2;stroke-linecap:square;stroke-width:1.5;"/>
   </g>
   <g id="patch_3">
    <path d="M 153 630 
L 153 86.4 
" style="fill:none;stroke:#000000;stroke-linecap:square;stroke-linejoin:miter;stroke-width:0.8;"/>
   </g>
   <g id="patch_4">
    <path d="M 1101.6 630 
L 1101.6 86.4 
" style="fill:none;stroke:#000000;stroke-linecap:square;stroke-linejoin:miter;stroke-width:0.8;"/>
   </g>
   <g id="patch_5">
    <path d="M 153 630 
L 1101.6 630 
" style="fill:none;stroke:#000000;stroke-linecap:square;stroke-linejoin:miter;stroke-width:0.8;"/>
   </g>
   <g id="patch_6">
    <path d="M 153 86.4 
L 1101.6 86.4 
" style="fill:none;stroke:#000000;stroke-linecap:square;stroke-linejoin:miter;stroke-width:0.8;"/>
   </g>
   <g id="text_16">
    <!-- Effluent brine concentrations -->
    <g transform="translate(501.642 80.4)scale(0.1728 -0.1728)">
     <defs>
      <path d="M 9.8125 72.90625 
L 55.90625 72.90625 
L 55.90625 64.59375 
L 19.671875 64.59375 
L 19.671875 43.015625 
L 54.390625 43.015625 
L 54.390625 34.71875 
L 19.671875 34.71875 
L 19.671875 8.296875 
L 56.78125 8.296875 
L 56.78125 0 
L 9.8125 0 
z
" id="DejaVuSans-69"/>
      <path d="M 37.109375 75.984375 
L 37.109375 68.5 
L 28.515625 68.5 
Q 23.6875 68.5 21.796875 66.546875 
Q 19.921875 64.59375 19.921875 59.515625 
L 19.921875 54.6875 
L 34.71875 54.6875 
L 34.71875 47.703125 
L 19.921875 47.703125 
L 19.921875 0 
L 10.890625 0 
L 10.890625 47.703125 
L 2.296875 47.703125 
L 2.296875 54.6875 
L 10.890625 54.6875 
L 10.890625 58.5 
Q 10.890625 67.625 15.140625 71.796875 
Q 19.390625 75.984375 28.609375 75.984375 
z
" id="DejaVuSans-102"/>
      <path d="M 8.5 21.578125 
L 8.5 54.6875 
L 17.484375 54.6875 
L 17.484375 21.921875 
Q 17.484375 14.15625 20.5 10.265625 
Q 23.53125 6.390625 29.59375 6.390625 
Q 36.859375 6.390625 41.078125 11.03125 
Q 45.3125 15.671875 45.3125 23.6875 
L 45.3125 54.6875 
L 54.296875 54.6875 
L 54.296875 0 
L 45.3125 0 
L 45.3125 8.40625 
Q 42.046875 3.421875 37.71875 1 
Q 33.40625 -1.421875 27.6875 -1.421875 
Q 18.265625 -1.421875 13.375 4.4375 
Q 8.5 10.296875 8.5 21.578125 
z
M 31.109375 56 
z
" id="DejaVuSans-117"/>
      <path d="M 48.6875 27.296875 
Q 48.6875 37.203125 44.609375 42.84375 
Q 40.53125 48.484375 33.40625 48.484375 
Q 26.265625 48.484375 22.1875 42.84375 
Q 18.109375 37.203125 18.109375 27.296875 
Q 18.109375 17.390625 22.1875 11.75 
Q 26.265625 6.109375 33.40625 6.109375 
Q 40.53125 6.109375 44.609375 11.75 
Q 48.6875 17.390625 48.6875 27.296875 
z
M 18.109375 46.390625 
Q 20.953125 51.265625 25.265625 53.625 
Q 29.59375 56 35.59375 56 
Q 45.5625 56 51.78125 48.09375 
Q 58.015625 40.1875 58.015625 27.296875 
Q 58.015625 14.40625 51.78125 6.484375 
Q 45.5625 -1.421875 35.59375 -1.421875 
Q 29.59375 -1.421875 25.265625 0.953125 
Q 20.953125 3.328125 18.109375 8.203125 
L 18.109375 0 
L 9.078125 0 
L 9.078125 75.984375 
L 18.109375 75.984375 
z
" id="DejaVuSans-98"/>
     </defs>
     <use xlink:href="#DejaVuSans-69"/>
     <use x="63.183594" xlink:href="#DejaVuSans-102"/>
     <use x="98.388672" xlink:href="#DejaVuSans-102"/>
     <use x="133.59375" xlink:href="#DejaVuSans-108"/>
     <use x="161.376953" xlink:href="#DejaVuSans-117"/>
     <use x="224.755859" xlink:href="#DejaVuSans-101"/>
     <use x="286.279297" xlink:href="#DejaVuSans-110"/>
     <use x="349.658203" xlink:href="#DejaVuSans-116"/>
     <use x="388.867188" xlink:href="#DejaVuSans-32"/>
     <use x="420.654297" xlink:href="#DejaVuSans-98"/>
     <use x="484.130859" xlink:href="#DejaVuSans-114"/>
     <use x="525.244141" xlink:href="#DejaVuSans-105"/>
     <use x="553.027344" xlink:href="#DejaVuSans-110"/>
     <use x="616.40625" xlink:href="#DejaVuSans-101"/>
     <use x="677.929688" xlink:href="#DejaVuSans-32"/>
     <use x="709.716797" xlink:href="#DejaVuSans-99"/>
     <use x="764.697266" xlink:href="#DejaVuSans-111"/>
     <use x="825.878906" xlink:href="#DejaVuSans-110"/>
     <use x="889.257812" xlink:href="#DejaVuSans-99"/>
     <use x="944.238281" xlink:href="#DejaVuSans-101"/>
     <use x="1005.761719" xlink:href="#DejaVuSans-110"/>
     <use x="1069.140625" xlink:href="#DejaVuSans-116"/>
     <use x="1108.349609" xlink:href="#DejaVuSans-114"/>
     <use x="1149.462891" xlink:href="#DejaVuSans-97"/>
     <use x="1210.742188" xlink:href="#DejaVuSans-116"/>
     <use x="1249.951172" xlink:href="#DejaVuSans-105"/>
     <use x="1277.734375" xlink:href="#DejaVuSans-111"/>
     <use x="1338.916016" xlink:href="#DejaVuSans-110"/>
     <use x="1402.294922" xlink:href="#DejaVuSans-115"/>
    </g>
   </g>
   <g id="legend_1">
    <g id="patch_7">
     <path d="M 992.32875 622.8 
L 1091.52 622.8 
Q 1094.4 622.8 1094.4 619.92 
L 1094.4 456.526375 
Q 1094.4 453.646375 1091.52 453.646375 
L 992.32875 453.646375 
Q 989.44875 453.646375 989.44875 456.526375 
L 989.44875 619.92 
Q 989.44875 622.8 992.32875 622.8 
z
" style="fill:#ffffff;opacity:0.8;stroke:#cccccc;stroke-linejoin:miter;"/>
    </g>
    <g id="text_17">
     <!-- non-zero elements -->
     <g transform="translate(995.20875 467.004813)scale(0.1 -0.1)">
      <defs>
       <path d="M 4.890625 31.390625 
L 31.203125 31.390625 
L 31.203125 23.390625 
L 4.890625 23.390625 
z
" id="DejaVuSans-45"/>
       <path d="M 5.515625 54.6875 
L 48.1875 54.6875 
L 48.1875 46.484375 
L 14.40625 7.171875 
L 48.1875 7.171875 
L 48.1875 0 
L 4.296875 0 
L 4.296875 8.203125 
L 38.09375 47.515625 
L 5.515625 47.515625 
z
" id="DejaVuSans-122"/>
      </defs>
      <use xlink:href="#DejaVuSans-110"/>
      <use x="63.378906" xlink:href="#DejaVuSans-111"/>
      <use x="124.560547" xlink:href="#DejaVuSans-110"/>
      <use x="187.939453" xlink:href="#DejaVuSans-45"/>
      <use x="224.023438" xlink:href="#DejaVuSans-122"/>
      <use x="276.513672" xlink:href="#DejaVuSans-101"/>
      <use x="338.037109" xlink:href="#DejaVuSans-114"/>
      <use x="376.900391" xlink:href="#DejaVuSans-111"/>
      <use x="438.082031" xlink:href="#DejaVuSans-32"/>
      <use x="469.869141" xlink:href="#DejaVuSans-101"/>
      <use x="531.392578" xlink:href="#DejaVuSans-108"/>
      <use x="559.175781" xlink:href="#DejaVuSans-101"/>
      <use x="620.699219" xlink:href="#DejaVuSans-109"/>
      <use x="718.111328" xlink:href="#DejaVuSans-101"/>
      <use x="779.634766" xlink:href="#DejaVuSans-110"/>
      <use x="843.013672" xlink:href="#DejaVuSans-116"/>
      <use x="882.222656" xlink:href="#DejaVuSans-115"/>
     </g>
    </g>
    <g id="line2d_34">
     <path d="M 1006.99425 482.18625 
L 1035.79425 482.18625 
" style="fill:none;stroke:#1f77b4;stroke-linecap:square;stroke-width:1.5;"/>
    </g>
    <g id="line2d_35"/>
    <g id="text_18">
     <!-- Ca -->
     <g transform="translate(1047.31425 487.22625)scale(0.144 -0.144)">
      <use xlink:href="#DejaVuSans-67"/>
      <use x="69.824219" xlink:href="#DejaVuSans-97"/>
     </g>
    </g>
    <g id="line2d_36">
     <path d="M 1006.99425 503.32275 
L 1035.79425 503.32275 
" style="fill:none;stroke:#ff7f0e;stroke-linecap:square;stroke-width:1.5;"/>
    </g>
    <g id="line2d_37"/>
    <g id="text_19">
     <!-- Mg -->
     <g transform="translate(1047.31425 508.36275)scale(0.144 -0.144)">
      <defs>
       <path d="M 9.8125 72.90625 
L 24.515625 72.90625 
L 43.109375 23.296875 
L 61.8125 72.90625 
L 76.515625 72.90625 
L 76.515625 0 
L 66.890625 0 
L 66.890625 64.015625 
L 48.09375 14.015625 
L 38.1875 14.015625 
L 19.390625 64.015625 
L 19.390625 0 
L 9.8125 0 
z
" id="DejaVuSans-77"/>
       <path d="M 45.40625 27.984375 
Q 45.40625 37.75 41.375 43.109375 
Q 37.359375 48.484375 30.078125 48.484375 
Q 22.859375 48.484375 18.828125 43.109375 
Q 14.796875 37.75 14.796875 27.984375 
Q 14.796875 18.265625 18.828125 12.890625 
Q 22.859375 7.515625 30.078125 7.515625 
Q 37.359375 7.515625 41.375 12.890625 
Q 45.40625 18.265625 45.40625 27.984375 
z
M 54.390625 6.78125 
Q 54.390625 -7.171875 48.1875 -13.984375 
Q 42 -20.796875 29.203125 -20.796875 
Q 24.46875 -20.796875 20.265625 -20.09375 
Q 16.0625 -19.390625 12.109375 -17.921875 
L 12.109375 -9.1875 
Q 16.0625 -11.328125 19.921875 -12.34375 
Q 23.78125 -13.375 27.78125 -13.375 
Q 36.625 -13.375 41.015625 -8.765625 
Q 45.40625 -4.15625 45.40625 5.171875 
L 45.40625 9.625 
Q 42.625 4.78125 38.28125 2.390625 
Q 33.9375 0 27.875 0 
Q 17.828125 0 11.671875 7.65625 
Q 5.515625 15.328125 5.515625 27.984375 
Q 5.515625 40.671875 11.671875 48.328125 
Q 17.828125 56 27.875 56 
Q 33.9375 56 38.28125 53.609375 
Q 42.625 51.21875 45.40625 46.390625 
L 45.40625 54.6875 
L 54.390625 54.6875 
z
" id="DejaVuSans-103"/>
      </defs>
      <use xlink:href="#DejaVuSans-77"/>
      <use x="86.279297" xlink:href="#DejaVuSans-103"/>
     </g>
    </g>
    <g id="line2d_38">
     <path d="M 1006.99425 524.45925 
L 1035.79425 524.45925 
" style="fill:none;stroke:#2ca02c;stroke-linecap:square;stroke-width:1.5;"/>
    </g>
    <g id="line2d_39"/>
    <g id="text_20">
     <!-- Na -->
     <g transform="translate(1047.31425 529.49925)scale(0.144 -0.144)">
      <defs>
       <path d="M 9.8125 72.90625 
L 23.09375 72.90625 
L 55.421875 11.921875 
L 55.421875 72.90625 
L 64.984375 72.90625 
L 64.984375 0 
L 51.703125 0 
L 19.390625 60.984375 
L 19.390625 0 
L 9.8125 0 
z
" id="DejaVuSans-78"/>
      </defs>
      <use xlink:href="#DejaVuSans-78"/>
      <use x="74.804688" xlink:href="#DejaVuSans-97"/>
     </g>
    </g>
    <g id="line2d_40">
     <path d="M 1006.99425 545.59575 
L 1035.79425 545.59575 
" style="fill:none;stroke:#d62728;stroke-linecap:square;stroke-width:1.5;"/>
    </g>
    <g id="line2d_41"/>
    <g id="text_21">
     <!-- Sr -->
     <g transform="translate(1047.31425 550.63575)scale(0.144 -0.144)">
      <defs>
       <path d="M 53.515625 70.515625 
L 53.515625 60.890625 
Q 47.90625 63.578125 42.921875 64.890625 
Q 37.9375 66.21875 33.296875 66.21875 
Q 25.25 66.21875 20.875 63.09375 
Q 16.5 59.96875 16.5 54.203125 
Q 16.5 49.359375 19.40625 46.890625 
Q 22.3125 44.4375 30.421875 42.921875 
L 36.375 41.703125 
Q 47.40625 39.59375 52.65625 34.296875 
Q 57.90625 29 57.90625 20.125 
Q 57.90625 9.515625 50.796875 4.046875 
Q 43.703125 -1.421875 29.984375 -1.421875 
Q 24.8125 -1.421875 18.96875 -0.25 
Q 13.140625 0.921875 6.890625 3.21875 
L 6.890625 13.375 
Q 12.890625 10.015625 18.65625 8.296875 
Q 24.421875 6.59375 29.984375 6.59375 
Q 38.421875 6.59375 43.015625 9.90625 
Q 47.609375 13.234375 47.609375 19.390625 
Q 47.609375 24.75 44.3125 27.78125 
Q 41.015625 30.8125 33.5 32.328125 
L 27.484375 33.5 
Q 16.453125 35.6875 11.515625 40.375 
Q 6.59375 45.0625 6.59375 53.421875 
Q 6.59375 63.09375 13.40625 68.65625 
Q 20.21875 74.21875 32.171875 74.21875 
Q 37.3125 74.21875 42.625 73.28125 
Q 47.953125 72.359375 53.515625 70.515625 
z
" id="DejaVuSans-83"/>
      </defs>
      <use xlink:href="#DejaVuSans-83"/>
      <use x="63.476562" xlink:href="#DejaVuSans-114"/>
     </g>
    </g>
    <g id="line2d_42">
     <path d="M 1006.99425 566.73225 
L 1035.79425 566.73225 
" style="fill:none;stroke:#9467bd;stroke-linecap:square;stroke-width:1.5;"/>
    </g>
    <g id="line2d_43"/>
    <g id="text_22">
     <!-- Cl -->
     <g transform="translate(1047.31425 571.77225)scale(0.144 -0.144)">
      <use xlink:href="#DejaVuSans-67"/>
      <use x="69.824219" xlink:href="#DejaVuSans-108"/>
     </g>
    </g>
    <g id="line2d_44">
     <path d="M 1006.99425 587.86875 
L 1035.79425 587.86875 
" style="fill:none;stroke:#8c564b;stroke-linecap:square;stroke-width:1.5;"/>
    </g>
    <g id="line2d_45"/>
    <g id="text_23">
     <!-- S(6) -->
     <g transform="translate(1047.31425 592.90875)scale(0.144 -0.144)">
      <use xlink:href="#DejaVuSans-83"/>
      <use x="63.476562" xlink:href="#DejaVuSans-40"/>
      <use x="102.490234" xlink:href="#DejaVuSans-54"/>
      <use x="166.113281" xlink:href="#DejaVuSans-41"/>
     </g>
    </g>
    <g id="line2d_46">
     <path d="M 1006.99425 609.00525 
L 1035.79425 609.00525 
" style="fill:none;stroke:#e377c2;stroke-linecap:square;stroke-width:1.5;"/>
    </g>
    <g id="line2d_47"/>
    <g id="text_24">
     <!-- Fe -->
     <g transform="translate(1047.31425 614.04525)scale(0.144 -0.144)">
      <defs>
       <path d="M 9.8125 72.90625 
L 51.703125 72.90625 
L 51.703125 64.59375 
L 19.671875 64.59375 
L 19.671875 43.109375 
L 48.578125 43.109375 
L 48.578125 34.8125 
L 19.671875 34.8125 
L 19.671875 0 
L 9.8125 0 
z
" id="DejaVuSans-70"/>
      </defs>
      <use xlink:href="#DejaVuSans-70"/>
      <use x="52.019531" xlink:href="#DejaVuSans-101"/>
     </g>
    </g>
   </g>
  </g>
  <g id="text_25">
   <!-- Final CF: 11.21 -->
   <g transform="translate(244.8 720)scale(0.12 -0.12)">
    <defs>
     <path d="M 11.71875 12.40625 
L 22.015625 12.40625 
L 22.015625 0 
L 11.71875 0 
z
M 11.71875 51.703125 
L 22.015625 51.703125 
L 22.015625 39.3125 
L 11.71875 39.3125 
z
" id="DejaVuSans-58"/>
    </defs>
    <use xlink:href="#DejaVuSans-70"/>
    <use x="50.269531" xlink:href="#DejaVuSans-105"/>
    <use x="78.052734" xlink:href="#DejaVuSans-110"/>
    <use x="141.431641" xlink:href="#DejaVuSans-97"/>
    <use x="202.710938" xlink:href="#DejaVuSans-108"/>
    <use x="230.494141" xlink:href="#DejaVuSans-32"/>
    <use x="262.28125" xlink:href="#DejaVuSans-67"/>
    <use x="332.105469" xlink:href="#DejaVuSans-70"/>
    <use x="381.875" xlink:href="#DejaVuSans-58"/>
    <use x="415.566406" xlink:href="#DejaVuSans-32"/>
    <use x="447.353516" xlink:href="#DejaVuSans-49"/>
    <use x="510.976562" xlink:href="#DejaVuSans-49"/>
    <use x="574.599609" xlink:href="#DejaVuSans-46"/>
    <use x="606.386719" xlink:href="#DejaVuSans-50"/>
    <use x="670.009766" xlink:href="#DejaVuSans-49"/>
   </g>
  </g>
 </g>
 <defs>
  <clipPath id="p15e7ec82cd">
   <rect height="543.6" width="948.6" x="153" y="86.4"/>
  </clipPath>
 </defs>
</svg>
