<?xml version="1.0" encoding="utf-8" standalone="no"?>
<!DOCTYPE svg PUBLIC "-//W3C//DTD SVG 1.1//EN"
  "http://www.w3.org/Graphics/SVG/1.1/DTD/svg11.dtd">
<!-- Created with matplotlib (https://matplotlib.org/) -->
<svg height="720pt" version="1.1" viewBox="0 0 1224 720" width="1224pt" xmlns="http://www.w3.org/2000/svg" xmlns:xlink="http://www.w3.org/1999/xlink">
 <metadata>
  <rdf:RDF xmlns:cc="http://creativecommons.org/ns#" xmlns:dc="http://purl.org/dc/elements/1.1/" xmlns:rdf="http://www.w3.org/1999/02/22-rdf-syntax-ns#">
   <cc:Work>
    <dc:type rdf:resource="http://purl.org/dc/dcmitype/StillImage"/>
    <dc:date>2021-10-14T01:22:16.630114</dc:date>
    <dc:format>image/svg+xml</dc:format>
    <dc:creator>
     <cc:Agent>
      <dc:title>Matplotlib v3.3.4, https://matplotlib.org/</dc:title>
     </cc:Agent>
    </dc:creator>
   </cc:Work>
  </rdf:RDF>
 </metadata>
 <defs>
  <style type="text/css">*{stroke-linecap:butt;stroke-linejoin:round;}</style>
 </defs>
 <g id="figure_1">
  <g id="patch_1">
   <path d="M 0 720 
L 1224 720 
L 1224 0 
L 0 0 
z
" style="fill:#ffffff;"/>
  </g>
  <g id="axes_1">
   <g id="patch_2">
    <path d="M 153 640.8 
L 1101.6 640.8 
L 1101.6 86.4 
L 153 86.4 
z
" style="fill:#ffffff;"/>
   </g>
   <g id="matplotlib.axis_1">
    <g id="xtick_1">
     <g id="line2d_1">
      <path clip-path="url(#p8f5359b239)" d="M 196.118182 640.8 
L 196.118182 86.4 
" style="fill:none;stroke:#b0b0b0;stroke-linecap:square;stroke-width:0.8;"/>
     </g>
     <g id="line2d_2">
      <defs>
       <path d="M 0 0 
L 0 3.5 
" id="md8189d2c05" style="stroke:#000000;stroke-width:0.8;"/>
      </defs>
      <g>
       <use style="stroke:#000000;stroke-width:0.8;" x="196.118182" xlink:href="#md8189d2c05" y="640.8"/>
      </g>
     </g>
     <g id="text_1">
      <!-- 17.93 -->
      <g transform="translate(181.804119 655.398438)scale(0.1 -0.1)">
       <defs>
        <path d="M 12.40625 8.296875 
L 28.515625 8.296875 
L 28.515625 63.921875 
L 10.984375 60.40625 
L 10.984375 69.390625 
L 28.421875 72.90625 
L 38.28125 72.90625 
L 38.28125 8.296875 
L 54.390625 8.296875 
L 54.390625 0 
L 12.40625 0 
z
" id="DejaVuSans-49"/>
        <path d="M 8.203125 72.90625 
L 55.078125 72.90625 
L 55.078125 68.703125 
L 28.609375 0 
L 18.3125 0 
L 43.21875 64.59375 
L 8.203125 64.59375 
z
" id="DejaVuSans-55"/>
        <path d="M 10.6875 12.40625 
L 21 12.40625 
L 21 0 
L 10.6875 0 
z
" id="DejaVuSans-46"/>
        <path d="M 10.984375 1.515625 
L 10.984375 10.5 
Q 14.703125 8.734375 18.5 7.8125 
Q 22.3125 6.890625 25.984375 6.890625 
Q 35.75 6.890625 40.890625 13.453125 
Q 46.046875 20.015625 46.78125 33.40625 
Q 43.953125 29.203125 39.59375 26.953125 
Q 35.25 24.703125 29.984375 24.703125 
Q 19.046875 24.703125 12.671875 31.3125 
Q 6.296875 37.9375 6.296875 49.421875 
Q 6.296875 60.640625 12.9375 67.421875 
Q 19.578125 74.21875 30.609375 74.21875 
Q 43.265625 74.21875 49.921875 64.515625 
Q 56.59375 54.828125 56.59375 36.375 
Q 56.59375 19.140625 48.40625 8.859375 
Q 40.234375 -1.421875 26.421875 -1.421875 
Q 22.703125 -1.421875 18.890625 -0.6875 
Q 15.09375 0.046875 10.984375 1.515625 
z
M 30.609375 32.421875 
Q 37.25 32.421875 41.125 36.953125 
Q 45.015625 41.5 45.015625 49.421875 
Q 45.015625 57.28125 41.125 61.84375 
Q 37.25 66.40625 30.609375 66.40625 
Q 23.96875 66.40625 20.09375 61.84375 
Q 16.21875 57.28125 16.21875 49.421875 
Q 16.21875 41.5 20.09375 36.953125 
Q 23.96875 32.421875 30.609375 32.421875 
z
" id="DejaVuSans-57"/>
        <path d="M 40.578125 39.3125 
Q 47.65625 37.796875 51.625 33 
Q 55.609375 28.21875 55.609375 21.1875 
Q 55.609375 10.40625 48.1875 4.484375 
Q 40.765625 -1.421875 27.09375 -1.421875 
Q 22.515625 -1.421875 17.65625 -0.515625 
Q 12.796875 0.390625 7.625 2.203125 
L 7.625 11.71875 
Q 11.71875 9.328125 16.59375 8.109375 
Q 21.484375 6.890625 26.8125 6.890625 
Q 36.078125 6.890625 40.9375 10.546875 
Q 45.796875 14.203125 45.796875 21.1875 
Q 45.796875 27.640625 41.28125 31.265625 
Q 36.765625 34.90625 28.71875 34.90625 
L 20.21875 34.90625 
L 20.21875 43.015625 
L 29.109375 43.015625 
Q 36.375 43.015625 40.234375 45.921875 
Q 44.09375 48.828125 44.09375 54.296875 
Q 44.09375 59.90625 40.109375 62.90625 
Q 36.140625 65.921875 28.71875 65.921875 
Q 24.65625 65.921875 20.015625 65.03125 
Q 15.375 64.15625 9.8125 62.3125 
L 9.8125 71.09375 
Q 15.4375 72.65625 20.34375 73.4375 
Q 25.25 74.21875 29.59375 74.21875 
Q 40.828125 74.21875 47.359375 69.109375 
Q 53.90625 64.015625 53.90625 55.328125 
Q 53.90625 49.265625 50.4375 45.09375 
Q 46.96875 40.921875 40.578125 39.3125 
z
" id="DejaVuSans-51"/>
       </defs>
       <use xlink:href="#DejaVuSans-49"/>
       <use x="63.623047" xlink:href="#DejaVuSans-55"/>
       <use x="127.246094" xlink:href="#DejaVuSans-46"/>
       <use x="159.033203" xlink:href="#DejaVuSans-57"/>
       <use x="222.65625" xlink:href="#DejaVuSans-51"/>
      </g>
     </g>
    </g>
    <g id="xtick_2">
     <g id="line2d_3">
      <path clip-path="url(#p8f5359b239)" d="M 321.652129 640.8 
L 321.652129 86.4 
" style="fill:none;stroke:#b0b0b0;stroke-linecap:square;stroke-width:0.8;"/>
     </g>
     <g id="line2d_4">
      <g>
       <use style="stroke:#000000;stroke-width:0.8;" x="321.652129" xlink:href="#md8189d2c05" y="640.8"/>
      </g>
     </g>
     <g id="text_2">
      <!-- 55.41 -->
      <g transform="translate(307.338066 655.398438)scale(0.1 -0.1)">
       <defs>
        <path d="M 10.796875 72.90625 
L 49.515625 72.90625 
L 49.515625 64.59375 
L 19.828125 64.59375 
L 19.828125 46.734375 
Q 21.96875 47.46875 24.109375 47.828125 
Q 26.265625 48.1875 28.421875 48.1875 
Q 40.625 48.1875 47.75 41.5 
Q 54.890625 34.8125 54.890625 23.390625 
Q 54.890625 11.625 47.5625 5.09375 
Q 40.234375 -1.421875 26.90625 -1.421875 
Q 22.3125 -1.421875 17.546875 -0.640625 
Q 12.796875 0.140625 7.71875 1.703125 
L 7.71875 11.625 
Q 12.109375 9.234375 16.796875 8.0625 
Q 21.484375 6.890625 26.703125 6.890625 
Q 35.15625 6.890625 40.078125 11.328125 
Q 45.015625 15.765625 45.015625 23.390625 
Q 45.015625 31 40.078125 35.4375 
Q 35.15625 39.890625 26.703125 39.890625 
Q 22.75 39.890625 18.8125 39.015625 
Q 14.890625 38.140625 10.796875 36.28125 
z
" id="DejaVuSans-53"/>
        <path d="M 37.796875 64.3125 
L 12.890625 25.390625 
L 37.796875 25.390625 
z
M 35.203125 72.90625 
L 47.609375 72.90625 
L 47.609375 25.390625 
L 58.015625 25.390625 
L 58.015625 17.1875 
L 47.609375 17.1875 
L 47.609375 0 
L 37.796875 0 
L 37.796875 17.1875 
L 4.890625 17.1875 
L 4.890625 26.703125 
z
" id="DejaVuSans-52"/>
       </defs>
       <use xlink:href="#DejaVuSans-53"/>
       <use x="63.623047" xlink:href="#DejaVuSans-53"/>
       <use x="127.246094" xlink:href="#DejaVuSans-46"/>
       <use x="159.033203" xlink:href="#DejaVuSans-52"/>
       <use x="222.65625" xlink:href="#DejaVuSans-49"/>
      </g>
     </g>
    </g>
    <g id="xtick_3">
     <g id="line2d_5">
      <path clip-path="url(#p8f5359b239)" d="M 447.186076 640.8 
L 447.186076 86.4 
" style="fill:none;stroke:#b0b0b0;stroke-linecap:square;stroke-width:0.8;"/>
     </g>
     <g id="line2d_6">
      <g>
       <use style="stroke:#000000;stroke-width:0.8;" x="447.186076" xlink:href="#md8189d2c05" y="640.8"/>
      </g>
     </g>
     <g id="text_3">
      <!-- 92.90 -->
      <g transform="translate(432.872013 655.398438)scale(0.1 -0.1)">
       <defs>
        <path d="M 19.1875 8.296875 
L 53.609375 8.296875 
L 53.609375 0 
L 7.328125 0 
L 7.328125 8.296875 
Q 12.9375 14.109375 22.625 23.890625 
Q 32.328125 33.6875 34.8125 36.53125 
Q 39.546875 41.84375 41.421875 45.53125 
Q 43.3125 49.21875 43.3125 52.78125 
Q 43.3125 58.59375 39.234375 62.25 
Q 35.15625 65.921875 28.609375 65.921875 
Q 23.96875 65.921875 18.8125 64.3125 
Q 13.671875 62.703125 7.8125 59.421875 
L 7.8125 69.390625 
Q 13.765625 71.78125 18.9375 73 
Q 24.125 74.21875 28.421875 74.21875 
Q 39.75 74.21875 46.484375 68.546875 
Q 53.21875 62.890625 53.21875 53.421875 
Q 53.21875 48.921875 51.53125 44.890625 
Q 49.859375 40.875 45.40625 35.40625 
Q 44.1875 33.984375 37.640625 27.21875 
Q 31.109375 20.453125 19.1875 8.296875 
z
" id="DejaVuSans-50"/>
        <path d="M 31.78125 66.40625 
Q 24.171875 66.40625 20.328125 58.90625 
Q 16.5 51.421875 16.5 36.375 
Q 16.5 21.390625 20.328125 13.890625 
Q 24.171875 6.390625 31.78125 6.390625 
Q 39.453125 6.390625 43.28125 13.890625 
Q 47.125 21.390625 47.125 36.375 
Q 47.125 51.421875 43.28125 58.90625 
Q 39.453125 66.40625 31.78125 66.40625 
z
M 31.78125 74.21875 
Q 44.046875 74.21875 50.515625 64.515625 
Q 56.984375 54.828125 56.984375 36.375 
Q 56.984375 17.96875 50.515625 8.265625 
Q 44.046875 -1.421875 31.78125 -1.421875 
Q 19.53125 -1.421875 13.0625 8.265625 
Q 6.59375 17.96875 6.59375 36.375 
Q 6.59375 54.828125 13.0625 64.515625 
Q 19.53125 74.21875 31.78125 74.21875 
z
" id="DejaVuSans-48"/>
       </defs>
       <use xlink:href="#DejaVuSans-57"/>
       <use x="63.623047" xlink:href="#DejaVuSans-50"/>
       <use x="127.246094" xlink:href="#DejaVuSans-46"/>
       <use x="159.033203" xlink:href="#DejaVuSans-57"/>
       <use x="222.65625" xlink:href="#DejaVuSans-48"/>
      </g>
     </g>
    </g>
    <g id="xtick_4">
     <g id="line2d_7">
      <path clip-path="url(#p8f5359b239)" d="M 572.720023 640.8 
L 572.720023 86.4 
" style="fill:none;stroke:#b0b0b0;stroke-linecap:square;stroke-width:0.8;"/>
     </g>
     <g id="line2d_8">
      <g>
       <use style="stroke:#000000;stroke-width:0.8;" x="572.720023" xlink:href="#md8189d2c05" y="640.8"/>
      </g>
     </g>
     <g id="text_4">
      <!-- 130.4 -->
      <g transform="translate(558.405961 655.398438)scale(0.1 -0.1)">
       <use xlink:href="#DejaVuSans-49"/>
       <use x="63.623047" xlink:href="#DejaVuSans-51"/>
       <use x="127.246094" xlink:href="#DejaVuSans-48"/>
       <use x="190.869141" xlink:href="#DejaVuSans-46"/>
       <use x="222.65625" xlink:href="#DejaVuSans-52"/>
      </g>
     </g>
    </g>
    <g id="xtick_5">
     <g id="line2d_9">
      <path clip-path="url(#p8f5359b239)" d="M 698.25397 640.8 
L 698.25397 86.4 
" style="fill:none;stroke:#b0b0b0;stroke-linecap:square;stroke-width:0.8;"/>
     </g>
     <g id="line2d_10">
      <g>
       <use style="stroke:#000000;stroke-width:0.8;" x="698.25397" xlink:href="#md8189d2c05" y="640.8"/>
      </g>
     </g>
     <g id="text_5">
      <!-- 167.9 -->
      <g transform="translate(683.939908 655.398438)scale(0.1 -0.1)">
       <defs>
        <path d="M 33.015625 40.375 
Q 26.375 40.375 22.484375 35.828125 
Q 18.609375 31.296875 18.609375 23.390625 
Q 18.609375 15.53125 22.484375 10.953125 
Q 26.375 6.390625 33.015625 6.390625 
Q 39.65625 6.390625 43.53125 10.953125 
Q 47.40625 15.53125 47.40625 23.390625 
Q 47.40625 31.296875 43.53125 35.828125 
Q 39.65625 40.375 33.015625 40.375 
z
M 52.59375 71.296875 
L 52.59375 62.3125 
Q 48.875 64.0625 45.09375 64.984375 
Q 41.3125 65.921875 37.59375 65.921875 
Q 27.828125 65.921875 22.671875 59.328125 
Q 17.53125 52.734375 16.796875 39.40625 
Q 19.671875 43.65625 24.015625 45.921875 
Q 28.375 48.1875 33.59375 48.1875 
Q 44.578125 48.1875 50.953125 41.515625 
Q 57.328125 34.859375 57.328125 23.390625 
Q 57.328125 12.15625 50.6875 5.359375 
Q 44.046875 -1.421875 33.015625 -1.421875 
Q 20.359375 -1.421875 13.671875 8.265625 
Q 6.984375 17.96875 6.984375 36.375 
Q 6.984375 53.65625 15.1875 63.9375 
Q 23.390625 74.21875 37.203125 74.21875 
Q 40.921875 74.21875 44.703125 73.484375 
Q 48.484375 72.75 52.59375 71.296875 
z
" id="DejaVuSans-54"/>
       </defs>
       <use xlink:href="#DejaVuSans-49"/>
       <use x="63.623047" xlink:href="#DejaVuSans-54"/>
       <use x="127.246094" xlink:href="#DejaVuSans-55"/>
       <use x="190.869141" xlink:href="#DejaVuSans-46"/>
       <use x="222.65625" xlink:href="#DejaVuSans-57"/>
      </g>
     </g>
    </g>
    <g id="xtick_6">
     <g id="line2d_11">
      <path clip-path="url(#p8f5359b239)" d="M 823.787917 640.8 
L 823.787917 86.4 
" style="fill:none;stroke:#b0b0b0;stroke-linecap:square;stroke-width:0.8;"/>
     </g>
     <g id="line2d_12">
      <g>
       <use style="stroke:#000000;stroke-width:0.8;" x="823.787917" xlink:href="#md8189d2c05" y="640.8"/>
      </g>
     </g>
     <g id="text_6">
      <!-- 205.4 -->
      <g transform="translate(809.473855 655.398438)scale(0.1 -0.1)">
       <use xlink:href="#DejaVuSans-50"/>
       <use x="63.623047" xlink:href="#DejaVuSans-48"/>
       <use x="127.246094" xlink:href="#DejaVuSans-53"/>
       <use x="190.869141" xlink:href="#DejaVuSans-46"/>
       <use x="222.65625" xlink:href="#DejaVuSans-52"/>
      </g>
     </g>
    </g>
    <g id="xtick_7">
     <g id="line2d_13">
      <path clip-path="url(#p8f5359b239)" d="M 1058.481818 640.8 
L 1058.481818 86.4 
" style="fill:none;stroke:#b0b0b0;stroke-linecap:square;stroke-width:0.8;"/>
     </g>
     <g id="line2d_14">
      <g>
       <use style="stroke:#000000;stroke-width:0.8;" x="1058.481818" xlink:href="#md8189d2c05" y="640.8"/>
      </g>
     </g>
     <g id="text_7">
      <!-- 275.4 -->
      <g transform="translate(1044.167756 655.398438)scale(0.1 -0.1)">
       <use xlink:href="#DejaVuSans-50"/>
       <use x="63.623047" xlink:href="#DejaVuSans-55"/>
       <use x="127.246094" xlink:href="#DejaVuSans-53"/>
       <use x="190.869141" xlink:href="#DejaVuSans-46"/>
       <use x="222.65625" xlink:href="#DejaVuSans-52"/>
      </g>
     </g>
    </g>
    <g id="text_8">
     <!-- Time (s) -->
     <g transform="translate(598.026375 672.419875)scale(0.144 -0.144)">
      <defs>
       <path d="M -0.296875 72.90625 
L 61.375 72.90625 
L 61.375 64.59375 
L 35.5 64.59375 
L 35.5 0 
L 25.59375 0 
L 25.59375 64.59375 
L -0.296875 64.59375 
z
" id="DejaVuSans-84"/>
       <path d="M 9.421875 54.6875 
L 18.40625 54.6875 
L 18.40625 0 
L 9.421875 0 
z
M 9.421875 75.984375 
L 18.40625 75.984375 
L 18.40625 64.59375 
L 9.421875 64.59375 
z
" id="DejaVuSans-105"/>
       <path d="M 52 44.1875 
Q 55.375 50.25 60.0625 53.125 
Q 64.75 56 71.09375 56 
Q 79.640625 56 84.28125 50.015625 
Q 88.921875 44.046875 88.921875 33.015625 
L 88.921875 0 
L 79.890625 0 
L 79.890625 32.71875 
Q 79.890625 40.578125 77.09375 44.375 
Q 74.3125 48.1875 68.609375 48.1875 
Q 61.625 48.1875 57.5625 43.546875 
Q 53.515625 38.921875 53.515625 30.90625 
L 53.515625 0 
L 44.484375 0 
L 44.484375 32.71875 
Q 44.484375 40.625 41.703125 44.40625 
Q 38.921875 48.1875 33.109375 48.1875 
Q 26.21875 48.1875 22.15625 43.53125 
Q 18.109375 38.875 18.109375 30.90625 
L 18.109375 0 
L 9.078125 0 
L 9.078125 54.6875 
L 18.109375 54.6875 
L 18.109375 46.1875 
Q 21.1875 51.21875 25.484375 53.609375 
Q 29.78125 56 35.6875 56 
Q 41.65625 56 45.828125 52.96875 
Q 50 49.953125 52 44.1875 
z
" id="DejaVuSans-109"/>
       <path d="M 56.203125 29.59375 
L 56.203125 25.203125 
L 14.890625 25.203125 
Q 15.484375 15.921875 20.484375 11.0625 
Q 25.484375 6.203125 34.421875 6.203125 
Q 39.59375 6.203125 44.453125 7.46875 
Q 49.3125 8.734375 54.109375 11.28125 
L 54.109375 2.78125 
Q 49.265625 0.734375 44.1875 -0.34375 
Q 39.109375 -1.421875 33.890625 -1.421875 
Q 20.796875 -1.421875 13.15625 6.1875 
Q 5.515625 13.8125 5.515625 26.8125 
Q 5.515625 40.234375 12.765625 48.109375 
Q 20.015625 56 32.328125 56 
Q 43.359375 56 49.78125 48.890625 
Q 56.203125 41.796875 56.203125 29.59375 
z
M 47.21875 32.234375 
Q 47.125 39.59375 43.09375 43.984375 
Q 39.0625 48.390625 32.421875 48.390625 
Q 24.90625 48.390625 20.390625 44.140625 
Q 15.875 39.890625 15.1875 32.171875 
z
" id="DejaVuSans-101"/>
       <path id="DejaVuSans-32"/>
       <path d="M 31 75.875 
Q 24.46875 64.65625 21.28125 53.65625 
Q 18.109375 42.671875 18.109375 31.390625 
Q 18.109375 20.125 21.3125 9.0625 
Q 24.515625 -2 31 -13.1875 
L 23.1875 -13.1875 
Q 15.875 -1.703125 12.234375 9.375 
Q 8.59375 20.453125 8.59375 31.390625 
Q 8.59375 42.28125 12.203125 53.3125 
Q 15.828125 64.359375 23.1875 75.875 
z
" id="DejaVuSans-40"/>
       <path d="M 44.28125 53.078125 
L 44.28125 44.578125 
Q 40.484375 46.53125 36.375 47.5 
Q 32.28125 48.484375 27.875 48.484375 
Q 21.1875 48.484375 17.84375 46.4375 
Q 14.5 44.390625 14.5 40.28125 
Q 14.5 37.15625 16.890625 35.375 
Q 19.28125 33.59375 26.515625 31.984375 
L 29.59375 31.296875 
Q 39.15625 29.25 43.1875 25.515625 
Q 47.21875 21.78125 47.21875 15.09375 
Q 47.21875 7.46875 41.1875 3.015625 
Q 35.15625 -1.421875 24.609375 -1.421875 
Q 20.21875 -1.421875 15.453125 -0.5625 
Q 10.6875 0.296875 5.421875 2 
L 5.421875 11.28125 
Q 10.40625 8.6875 15.234375 7.390625 
Q 20.0625 6.109375 24.8125 6.109375 
Q 31.15625 6.109375 34.5625 8.28125 
Q 37.984375 10.453125 37.984375 14.40625 
Q 37.984375 18.0625 35.515625 20.015625 
Q 33.0625 21.96875 24.703125 23.78125 
L 21.578125 24.515625 
Q 13.234375 26.265625 9.515625 29.90625 
Q 5.8125 33.546875 5.8125 39.890625 
Q 5.8125 47.609375 11.28125 51.796875 
Q 16.75 56 26.8125 56 
Q 31.78125 56 36.171875 55.265625 
Q 40.578125 54.546875 44.28125 53.078125 
z
" id="DejaVuSans-115"/>
       <path d="M 8.015625 75.875 
L 15.828125 75.875 
Q 23.140625 64.359375 26.78125 53.3125 
Q 30.421875 42.28125 30.421875 31.390625 
Q 30.421875 20.453125 26.78125 9.375 
Q 23.140625 -1.703125 15.828125 -13.1875 
L 8.015625 -13.1875 
Q 14.5 -2 17.703125 9.0625 
Q 20.90625 20.125 20.90625 31.390625 
Q 20.90625 42.671875 17.703125 53.65625 
Q 14.5 64.65625 8.015625 75.875 
z
" id="DejaVuSans-41"/>
      </defs>
      <use xlink:href="#DejaVuSans-84"/>
      <use x="57.958984" xlink:href="#DejaVuSans-105"/>
      <use x="85.742188" xlink:href="#DejaVuSans-109"/>
      <use x="183.154297" xlink:href="#DejaVuSans-101"/>
      <use x="244.677734" xlink:href="#DejaVuSans-32"/>
      <use x="276.464844" xlink:href="#DejaVuSans-40"/>
      <use x="315.478516" xlink:href="#DejaVuSans-115"/>
      <use x="367.578125" xlink:href="#DejaVuSans-41"/>
     </g>
    </g>
   </g>
   <g id="matplotlib.axis_2">
    <g id="ytick_1">
     <g id="line2d_15">
      <path clip-path="url(#p8f5359b239)" d="M 153 575.665419 
L 1101.6 575.665419 
" style="fill:none;stroke:#b0b0b0;stroke-linecap:square;stroke-width:0.8;"/>
     </g>
     <g id="line2d_16">
      <defs>
       <path d="M 0 0 
L -3.5 0 
" id="maa9064a979" style="stroke:#000000;stroke-width:0.8;"/>
      </defs>
      <g>
       <use style="stroke:#000000;stroke-width:0.8;" x="153" xlink:href="#maa9064a979" y="575.665419"/>
      </g>
     </g>
     <g id="text_9">
      <!-- $\mathdefault{10^{-11}}$ -->
      <g transform="translate(118.1 579.464637)scale(0.1 -0.1)">
       <defs>
        <path d="M 10.59375 35.5 
L 73.1875 35.5 
L 73.1875 27.203125 
L 10.59375 27.203125 
z
" id="DejaVuSans-8722"/>
       </defs>
       <use transform="translate(0 0.684375)" xlink:href="#DejaVuSans-49"/>
       <use transform="translate(63.623047 0.684375)" xlink:href="#DejaVuSans-48"/>
       <use transform="translate(128.203125 38.965625)scale(0.7)" xlink:href="#DejaVuSans-8722"/>
       <use transform="translate(186.855469 38.965625)scale(0.7)" xlink:href="#DejaVuSans-49"/>
       <use transform="translate(231.391602 38.965625)scale(0.7)" xlink:href="#DejaVuSans-49"/>
      </g>
     </g>
    </g>
    <g id="ytick_2">
     <g id="line2d_17">
      <path clip-path="url(#p8f5359b239)" d="M 153 491.702526 
L 1101.6 491.702526 
" style="fill:none;stroke:#b0b0b0;stroke-linecap:square;stroke-width:0.8;"/>
     </g>
     <g id="line2d_18">
      <g>
       <use style="stroke:#000000;stroke-width:0.8;" x="153" xlink:href="#maa9064a979" y="491.702526"/>
      </g>
     </g>
     <g id="text_10">
      <!-- $\mathdefault{10^{-9}}$ -->
      <g transform="translate(122.5 495.501745)scale(0.1 -0.1)">
       <use transform="translate(0 0.765625)" xlink:href="#DejaVuSans-49"/>
       <use transform="translate(63.623047 0.765625)" xlink:href="#DejaVuSans-48"/>
       <use transform="translate(128.203125 39.046875)scale(0.7)" xlink:href="#DejaVuSans-8722"/>
       <use transform="translate(186.855469 39.046875)scale(0.7)" xlink:href="#DejaVuSans-57"/>
      </g>
     </g>
    </g>
    <g id="ytick_3">
     <g id="line2d_19">
      <path clip-path="url(#p8f5359b239)" d="M 153 407.739633 
L 1101.6 407.739633 
" style="fill:none;stroke:#b0b0b0;stroke-linecap:square;stroke-width:0.8;"/>
     </g>
     <g id="line2d_20">
      <g>
       <use style="stroke:#000000;stroke-width:0.8;" x="153" xlink:href="#maa9064a979" y="407.739633"/>
      </g>
     </g>
     <g id="text_11">
      <!-- $\mathdefault{10^{-7}}$ -->
      <g transform="translate(122.5 411.538852)scale(0.1 -0.1)">
       <use transform="translate(0 0.684375)" xlink:href="#DejaVuSans-49"/>
       <use transform="translate(63.623047 0.684375)" xlink:href="#DejaVuSans-48"/>
       <use transform="translate(128.203125 38.965625)scale(0.7)" xlink:href="#DejaVuSans-8722"/>
       <use transform="translate(186.855469 38.965625)scale(0.7)" xlink:href="#DejaVuSans-55"/>
      </g>
     </g>
    </g>
    <g id="ytick_4">
     <g id="line2d_21">
      <path clip-path="url(#p8f5359b239)" d="M 153 323.77674 
L 1101.6 323.77674 
" style="fill:none;stroke:#b0b0b0;stroke-linecap:square;stroke-width:0.8;"/>
     </g>
     <g id="line2d_22">
      <g>
       <use style="stroke:#000000;stroke-width:0.8;" x="153" xlink:href="#maa9064a979" y="323.77674"/>
      </g>
     </g>
     <g id="text_12">
      <!-- $\mathdefault{10^{-5}}$ -->
      <g transform="translate(122.5 327.575959)scale(0.1 -0.1)">
       <use transform="translate(0 0.684375)" xlink:href="#DejaVuSans-49"/>
       <use transform="translate(63.623047 0.684375)" xlink:href="#DejaVuSans-48"/>
       <use transform="translate(128.203125 38.965625)scale(0.7)" xlink:href="#DejaVuSans-8722"/>
       <use transform="translate(186.855469 38.965625)scale(0.7)" xlink:href="#DejaVuSans-53"/>
      </g>
     </g>
    </g>
    <g id="ytick_5">
     <g id="line2d_23">
      <path clip-path="url(#p8f5359b239)" d="M 153 239.813847 
L 1101.6 239.813847 
" style="fill:none;stroke:#b0b0b0;stroke-linecap:square;stroke-width:0.8;"/>
     </g>
     <g id="line2d_24">
      <g>
       <use style="stroke:#000000;stroke-width:0.8;" x="153" xlink:href="#maa9064a979" y="239.813847"/>
      </g>
     </g>
     <g id="text_13">
      <!-- $\mathdefault{10^{-3}}$ -->
      <g transform="translate(122.5 243.613066)scale(0.1 -0.1)">
       <use transform="translate(0 0.765625)" xlink:href="#DejaVuSans-49"/>
       <use transform="translate(63.623047 0.765625)" xlink:href="#DejaVuSans-48"/>
       <use transform="translate(128.203125 39.046875)scale(0.7)" xlink:href="#DejaVuSans-8722"/>
       <use transform="translate(186.855469 39.046875)scale(0.7)" xlink:href="#DejaVuSans-51"/>
      </g>
     </g>
    </g>
    <g id="ytick_6">
     <g id="line2d_25">
      <path clip-path="url(#p8f5359b239)" d="M 153 155.850955 
L 1101.6 155.850955 
" style="fill:none;stroke:#b0b0b0;stroke-linecap:square;stroke-width:0.8;"/>
     </g>
     <g id="line2d_26">
      <g>
       <use style="stroke:#000000;stroke-width:0.8;" x="153" xlink:href="#maa9064a979" y="155.850955"/>
      </g>
     </g>
     <g id="text_14">
      <!-- $\mathdefault{10^{-1}}$ -->
      <g transform="translate(122.5 159.650173)scale(0.1 -0.1)">
       <use transform="translate(0 0.684375)" xlink:href="#DejaVuSans-49"/>
       <use transform="translate(63.623047 0.684375)" xlink:href="#DejaVuSans-48"/>
       <use transform="translate(128.203125 38.965625)scale(0.7)" xlink:href="#DejaVuSans-8722"/>
       <use transform="translate(186.855469 38.965625)scale(0.7)" xlink:href="#DejaVuSans-49"/>
      </g>
     </g>
    </g>
    <g id="text_15">
     <!-- Concentration (molal) -->
     <g transform="translate(111.10525 442.272375)rotate(-90)scale(0.144 -0.144)">
      <defs>
       <path d="M 64.40625 67.28125 
L 64.40625 56.890625 
Q 59.421875 61.53125 53.78125 63.8125 
Q 48.140625 66.109375 41.796875 66.109375 
Q 29.296875 66.109375 22.65625 58.46875 
Q 16.015625 50.828125 16.015625 36.375 
Q 16.015625 21.96875 22.65625 14.328125 
Q 29.296875 6.6875 41.796875 6.6875 
Q 48.140625 6.6875 53.78125 8.984375 
Q 59.421875 11.28125 64.40625 15.921875 
L 64.40625 5.609375 
Q 59.234375 2.09375 53.4375 0.328125 
Q 47.65625 -1.421875 41.21875 -1.421875 
Q 24.65625 -1.421875 15.125 8.703125 
Q 5.609375 18.84375 5.609375 36.375 
Q 5.609375 53.953125 15.125 64.078125 
Q 24.65625 74.21875 41.21875 74.21875 
Q 47.75 74.21875 53.53125 72.484375 
Q 59.328125 70.75 64.40625 67.28125 
z
" id="DejaVuSans-67"/>
       <path d="M 30.609375 48.390625 
Q 23.390625 48.390625 19.1875 42.75 
Q 14.984375 37.109375 14.984375 27.296875 
Q 14.984375 17.484375 19.15625 11.84375 
Q 23.34375 6.203125 30.609375 6.203125 
Q 37.796875 6.203125 41.984375 11.859375 
Q 46.1875 17.53125 46.1875 27.296875 
Q 46.1875 37.015625 41.984375 42.703125 
Q 37.796875 48.390625 30.609375 48.390625 
z
M 30.609375 56 
Q 42.328125 56 49.015625 48.375 
Q 55.71875 40.765625 55.71875 27.296875 
Q 55.71875 13.875 49.015625 6.21875 
Q 42.328125 -1.421875 30.609375 -1.421875 
Q 18.84375 -1.421875 12.171875 6.21875 
Q 5.515625 13.875 5.515625 27.296875 
Q 5.515625 40.765625 12.171875 48.375 
Q 18.84375 56 30.609375 56 
z
" id="DejaVuSans-111"/>
       <path d="M 54.890625 33.015625 
L 54.890625 0 
L 45.90625 0 
L 45.90625 32.71875 
Q 45.90625 40.484375 42.875 44.328125 
Q 39.84375 48.1875 33.796875 48.1875 
Q 26.515625 48.1875 22.3125 43.546875 
Q 18.109375 38.921875 18.109375 30.90625 
L 18.109375 0 
L 9.078125 0 
L 9.078125 54.6875 
L 18.109375 54.6875 
L 18.109375 46.1875 
Q 21.34375 51.125 25.703125 53.5625 
Q 30.078125 56 35.796875 56 
Q 45.21875 56 50.046875 50.171875 
Q 54.890625 44.34375 54.890625 33.015625 
z
" id="DejaVuSans-110"/>
       <path d="M 48.78125 52.59375 
L 48.78125 44.1875 
Q 44.96875 46.296875 41.140625 47.34375 
Q 37.3125 48.390625 33.40625 48.390625 
Q 24.65625 48.390625 19.8125 42.84375 
Q 14.984375 37.3125 14.984375 27.296875 
Q 14.984375 17.28125 19.8125 11.734375 
Q 24.65625 6.203125 33.40625 6.203125 
Q 37.3125 6.203125 41.140625 7.25 
Q 44.96875 8.296875 48.78125 10.40625 
L 48.78125 2.09375 
Q 45.015625 0.34375 40.984375 -0.53125 
Q 36.96875 -1.421875 32.421875 -1.421875 
Q 20.0625 -1.421875 12.78125 6.34375 
Q 5.515625 14.109375 5.515625 27.296875 
Q 5.515625 40.671875 12.859375 48.328125 
Q 20.21875 56 33.015625 56 
Q 37.15625 56 41.109375 55.140625 
Q 45.0625 54.296875 48.78125 52.59375 
z
" id="DejaVuSans-99"/>
       <path d="M 18.3125 70.21875 
L 18.3125 54.6875 
L 36.8125 54.6875 
L 36.8125 47.703125 
L 18.3125 47.703125 
L 18.3125 18.015625 
Q 18.3125 11.328125 20.140625 9.421875 
Q 21.96875 7.515625 27.59375 7.515625 
L 36.8125 7.515625 
L 36.8125 0 
L 27.59375 0 
Q 17.1875 0 13.234375 3.875 
Q 9.28125 7.765625 9.28125 18.015625 
L 9.28125 47.703125 
L 2.6875 47.703125 
L 2.6875 54.6875 
L 9.28125 54.6875 
L 9.28125 70.21875 
z
" id="DejaVuSans-116"/>
       <path d="M 41.109375 46.296875 
Q 39.59375 47.171875 37.8125 47.578125 
Q 36.03125 48 33.890625 48 
Q 26.265625 48 22.1875 43.046875 
Q 18.109375 38.09375 18.109375 28.8125 
L 18.109375 0 
L 9.078125 0 
L 9.078125 54.6875 
L 18.109375 54.6875 
L 18.109375 46.1875 
Q 20.953125 51.171875 25.484375 53.578125 
Q 30.03125 56 36.53125 56 
Q 37.453125 56 38.578125 55.875 
Q 39.703125 55.765625 41.0625 55.515625 
z
" id="DejaVuSans-114"/>
       <path d="M 34.28125 27.484375 
Q 23.390625 27.484375 19.1875 25 
Q 14.984375 22.515625 14.984375 16.5 
Q 14.984375 11.71875 18.140625 8.90625 
Q 21.296875 6.109375 26.703125 6.109375 
Q 34.1875 6.109375 38.703125 11.40625 
Q 43.21875 16.703125 43.21875 25.484375 
L 43.21875 27.484375 
z
M 52.203125 31.203125 
L 52.203125 0 
L 43.21875 0 
L 43.21875 8.296875 
Q 40.140625 3.328125 35.546875 0.953125 
Q 30.953125 -1.421875 24.3125 -1.421875 
Q 15.921875 -1.421875 10.953125 3.296875 
Q 6 8.015625 6 15.921875 
Q 6 25.140625 12.171875 29.828125 
Q 18.359375 34.515625 30.609375 34.515625 
L 43.21875 34.515625 
L 43.21875 35.40625 
Q 43.21875 41.609375 39.140625 45 
Q 35.0625 48.390625 27.6875 48.390625 
Q 23 48.390625 18.546875 47.265625 
Q 14.109375 46.140625 10.015625 43.890625 
L 10.015625 52.203125 
Q 14.9375 54.109375 19.578125 55.046875 
Q 24.21875 56 28.609375 56 
Q 40.484375 56 46.34375 49.84375 
Q 52.203125 43.703125 52.203125 31.203125 
z
" id="DejaVuSans-97"/>
       <path d="M 9.421875 75.984375 
L 18.40625 75.984375 
L 18.40625 0 
L 9.421875 0 
z
" id="DejaVuSans-108"/>
      </defs>
      <use xlink:href="#DejaVuSans-67"/>
      <use x="69.824219" xlink:href="#DejaVuSans-111"/>
      <use x="131.005859" xlink:href="#DejaVuSans-110"/>
      <use x="194.384766" xlink:href="#DejaVuSans-99"/>
      <use x="249.365234" xlink:href="#DejaVuSans-101"/>
      <use x="310.888672" xlink:href="#DejaVuSans-110"/>
      <use x="374.267578" xlink:href="#DejaVuSans-116"/>
      <use x="413.476562" xlink:href="#DejaVuSans-114"/>
      <use x="454.589844" xlink:href="#DejaVuSans-97"/>
      <use x="515.869141" xlink:href="#DejaVuSans-116"/>
      <use x="555.078125" xlink:href="#DejaVuSans-105"/>
      <use x="582.861328" xlink:href="#DejaVuSans-111"/>
      <use x="644.042969" xlink:href="#DejaVuSans-110"/>
      <use x="707.421875" xlink:href="#DejaVuSans-32"/>
      <use x="739.208984" xlink:href="#DejaVuSans-40"/>
      <use x="778.222656" xlink:href="#DejaVuSans-109"/>
      <use x="875.634766" xlink:href="#DejaVuSans-111"/>
      <use x="936.816406" xlink:href="#DejaVuSans-108"/>
      <use x="964.599609" xlink:href="#DejaVuSans-97"/>
      <use x="1025.878906" xlink:href="#DejaVuSans-108"/>
      <use x="1053.662109" xlink:href="#DejaVuSans-41"/>
     </g>
    </g>
   </g>
   <g id="line2d_27">
    <path clip-path="url(#p8f5359b239)" d="M 196.118182 460.252921 
L 198.847181 448.448733 
L 201.57618 437.448204 
L 204.305178 427.156379 
L 207.034177 417.494597 
L 209.763176 408.39688 
L 212.492175 399.80728 
L 215.221174 391.677907 
L 217.950173 383.967423 
L 220.679171 376.639871 
L 223.40817 369.66377 
L 226.137169 363.011386 
L 231.595167 350.58219 
L 237.053165 339.185814 
L 242.511162 328.688052 
L 247.96916 318.97902 
L 253.427158 309.967539 
L 258.885155 301.57706 
L 264.343153 293.742653 
L 269.801151 286.408735 
L 275.259148 279.527336 
L 280.717146 273.056752 
L 286.175144 266.960485 
L 291.633142 261.206405 
L 297.091139 255.766074 
L 302.549137 250.614204 
L 308.007135 245.728206 
L 313.465132 241.087827 
L 318.92313 236.674848 
L 324.381128 232.472834 
L 329.839125 228.466936 
L 338.026122 222.796831 
L 346.213119 217.498362 
L 354.400115 212.538048 
L 362.587112 207.888547 
L 370.774108 203.528958 
L 378.961105 199.445418 
L 387.148101 195.632994 
L 395.335098 192.102018 
L 403.522094 188.88002 
L 408.980092 186.940821 
L 411.709091 185.673527 
L 417.167089 184.120623 
L 419.896087 183.535112 
L 447.186076 181.723122 
L 469.018067 180.479506 
L 490.850058 179.460547 
L 512.682048 178.67596 
L 534.514039 178.111534 
L 559.075029 177.69761 
L 589.094016 177.420865 
L 632.757998 177.265119 
L 728.272957 177.212697 
L 1058.481818 177.209748 
L 1058.481818 177.209748 
" style="fill:none;stroke:#1f77b4;stroke-linecap:square;stroke-width:1.5;"/>
   </g>
   <g id="line2d_28">
    <path clip-path="url(#p8f5359b239)" d="M 196.118182 465.083121 
L 198.847181 453.278934 
L 201.57618 442.278404 
L 204.305178 431.986579 
L 207.034177 422.324798 
L 209.763176 413.227081 
L 212.492175 404.637481 
L 215.221174 396.508108 
L 217.950173 388.797623 
L 220.679171 381.470071 
L 223.40817 374.493971 
L 226.137169 367.841587 
L 231.595167 355.412391 
L 237.053165 344.016015 
L 242.511162 333.518252 
L 247.96916 323.809221 
L 253.427158 314.797739 
L 258.885155 306.407261 
L 264.343153 298.572853 
L 269.801151 291.238935 
L 275.259148 284.357537 
L 280.717146 277.886952 
L 286.175144 271.790685 
L 291.633142 266.036605 
L 297.091139 260.596275 
L 302.549137 255.444404 
L 308.007135 250.558406 
L 313.465132 245.918027 
L 318.92313 241.505047 
L 324.381128 237.303022 
L 329.839125 233.297074 
L 338.026122 227.626625 
L 346.213119 222.326811 
L 354.400115 217.362465 
L 362.587112 212.702955 
L 370.774108 208.321568 
L 378.961105 204.194994 
L 387.148101 200.302906 
L 395.335098 196.627597 
L 403.522094 193.153672 
L 411.709091 189.868006 
L 422.625086 185.758899 
L 433.541082 181.939865 
L 444.457077 178.393673 
L 455.373072 175.105552 
L 466.289068 172.063607 
L 477.205063 169.258113 
L 488.121059 166.680822 
L 499.037054 164.324298 
L 509.953049 162.181315 
L 520.869045 160.244329 
L 531.78504 158.505078 
L 542.701036 156.954311 
L 556.34603 155.265038 
L 569.991024 153.831507 
L 583.636018 152.629155 
L 597.281013 151.632217 
L 613.655006 150.670494 
L 630.028999 149.92382 
L 649.131991 149.271383 
L 670.963982 148.746939 
L 698.25397 148.326381 
L 733.730955 148.025344 
L 785.581933 147.840751 
L 883.825892 147.763675 
L 1058.481818 147.755521 
L 1058.481818 147.755521 
" style="fill:none;stroke:#ff7f0e;stroke-linecap:square;stroke-width:1.5;"/>
   </g>
   <g id="line2d_29">
    <path clip-path="url(#p8f5359b239)" d="M 196.118182 431.953453 
L 198.847181 420.149265 
L 201.57618 409.148736 
L 204.305178 398.856911 
L 207.034177 389.19513 
L 209.763176 380.097412 
L 212.492175 371.507812 
L 215.221174 363.37844 
L 217.950173 355.667955 
L 220.679171 348.340403 
L 223.40817 341.364302 
L 226.137169 334.711919 
L 231.595167 322.282722 
L 237.053165 310.886346 
L 242.511162 300.388584 
L 247.96916 290.679552 
L 253.427158 281.668071 
L 258.885155 273.277592 
L 264.343153 265.443185 
L 269.801151 258.109267 
L 275.259148 251.227868 
L 280.717146 244.757284 
L 286.175144 238.661017 
L 291.633142 232.906937 
L 297.091139 227.466606 
L 302.549137 222.314736 
L 308.007135 217.428738 
L 313.465132 212.788359 
L 318.92313 208.375379 
L 324.381128 204.173353 
L 329.839125 200.167406 
L 338.026122 194.496957 
L 346.213119 189.197143 
L 354.400115 184.232796 
L 362.587112 179.573287 
L 370.774108 175.1919 
L 378.961105 171.065326 
L 387.148101 167.173238 
L 395.335098 163.497929 
L 403.522094 160.024003 
L 411.709091 156.738338 
L 422.625086 152.62923 
L 433.541082 148.810197 
L 444.457077 145.264005 
L 455.373072 141.975883 
L 466.289068 138.933938 
L 477.205063 136.128445 
L 488.121059 133.551154 
L 499.037054 131.19463 
L 509.953049 129.051646 
L 520.869045 127.114661 
L 531.78504 125.37541 
L 542.701036 123.824643 
L 556.34603 122.13537 
L 569.991024 120.701839 
L 583.636018 119.499486 
L 597.281013 118.502549 
L 613.655006 117.540826 
L 630.028999 116.794152 
L 649.131991 116.141714 
L 670.963982 115.61727 
L 698.25397 115.196712 
L 733.730955 114.895676 
L 785.581933 114.711082 
L 883.825892 114.634007 
L 1058.481818 114.625852 
L 1058.481818 114.625852 
" style="fill:none;stroke:#2ca02c;stroke-linecap:square;stroke-width:1.5;"/>
   </g>
   <g id="line2d_30">
    <path clip-path="url(#p8f5359b239)" d="M 196.118182 547.702989 
L 198.847181 535.898801 
L 201.57618 524.898272 
L 204.305178 514.606447 
L 207.034177 504.944666 
L 209.763176 495.846948 
L 212.492175 487.257348 
L 215.221174 479.127976 
L 217.950173 471.417491 
L 220.679171 464.089939 
L 223.40817 457.113838 
L 226.137169 450.461455 
L 231.595167 438.032258 
L 237.053165 426.635882 
L 242.511162 416.13812 
L 247.96916 406.429088 
L 253.427158 397.417607 
L 258.885155 389.027128 
L 264.343153 381.192721 
L 269.801151 373.858803 
L 275.259148 366.977404 
L 280.717146 360.50682 
L 286.175144 354.410553 
L 291.633142 348.656473 
L 297.091139 343.216142 
L 302.549137 338.064272 
L 308.007135 333.178274 
L 313.465132 328.537895 
L 318.92313 324.124915 
L 324.381128 319.922889 
L 329.839125 315.916944 
L 338.026122 310.246541 
L 346.213119 304.94705 
L 354.400115 299.984117 
L 362.587112 295.329165 
L 370.774108 290.959764 
L 378.961105 286.860394 
L 387.148101 283.024599 
L 395.335098 279.459086 
L 403.522094 276.189823 
L 408.980092 274.209253 
L 411.709091 272.916399 
L 417.167089 271.270961 
L 419.896087 270.558521 
L 425.354085 270.074252 
L 452.644074 268.297893 
L 474.476064 267.090624 
L 496.308055 266.110848 
L 518.140046 265.365914 
L 539.972037 264.839354 
L 564.533026 264.46303 
L 597.281013 264.208301 
L 646.402992 264.088748 
L 793.76893 264.066977 
L 1058.481818 264.067254 
L 1058.481818 264.067254 
" style="fill:none;stroke:#d62728;stroke-linecap:square;stroke-width:1.5;"/>
   </g>
   <g id="line2d_31">
    <path clip-path="url(#p8f5359b239)" d="M 196.118182 428.9276 
L 198.847181 417.123413 
L 201.57618 406.122883 
L 204.305178 395.831058 
L 207.034177 386.169277 
L 209.763176 377.07156 
L 212.492175 368.48196 
L 215.221174 360.352587 
L 217.950173 352.642102 
L 220.679171 345.314551 
L 223.40817 338.33845 
L 226.137169 331.686066 
L 231.595167 319.25687 
L 237.053165 307.860494 
L 242.511162 297.362732 
L 247.96916 287.6537 
L 253.427158 278.642219 
L 258.885155 270.25174 
L 264.343153 262.417333 
L 269.801151 255.083415 
L 275.259148 248.202016 
L 280.717146 241.731432 
L 286.175144 235.635165 
L 291.633142 229.881084 
L 297.091139 224.440754 
L 302.549137 219.288884 
L 308.007135 214.402886 
L 313.465132 209.762507 
L 318.92313 205.349526 
L 324.381128 201.147501 
L 329.839125 197.141553 
L 338.026122 191.471104 
L 346.213119 186.17129 
L 354.400115 181.206944 
L 362.587112 176.547435 
L 370.774108 172.166048 
L 378.961105 168.039474 
L 387.148101 164.147385 
L 395.335098 160.472076 
L 403.522094 156.998151 
L 411.709091 153.712486 
L 422.625086 149.603378 
L 433.541082 145.784345 
L 444.457077 142.238153 
L 455.373072 138.950031 
L 466.289068 135.908086 
L 477.205063 133.102592 
L 488.121059 130.525301 
L 499.037054 128.168777 
L 509.953049 126.025794 
L 520.869045 124.088808 
L 531.78504 122.349557 
L 542.701036 120.798791 
L 556.34603 119.109518 
L 569.991024 117.675986 
L 583.636018 116.473634 
L 597.281013 115.476696 
L 613.655006 114.514974 
L 630.028999 113.768299 
L 649.131991 113.115862 
L 670.963982 112.591418 
L 698.25397 112.17086 
L 733.730955 111.869824 
L 785.581933 111.68523 
L 883.825892 111.608154 
L 1058.481818 111.6 
L 1058.481818 111.6 
" style="fill:none;stroke:#9467bd;stroke-linecap:square;stroke-width:1.5;"/>
   </g>
   <g id="line2d_32">
    <path clip-path="url(#p8f5359b239)" d="M 196.118182 455.415941 
L 198.847181 443.611754 
L 201.57618 432.611224 
L 204.305178 422.319399 
L 207.034177 412.657618 
L 209.763176 403.559901 
L 212.492175 394.970301 
L 215.221174 386.840928 
L 217.950173 379.130443 
L 220.679171 371.802892 
L 223.40817 364.826791 
L 226.137169 358.174407 
L 231.595167 345.745211 
L 237.053165 334.348835 
L 242.511162 323.851073 
L 247.96916 314.142041 
L 253.427158 305.13056 
L 258.885155 296.740081 
L 264.343153 288.905674 
L 269.801151 281.571756 
L 275.259148 274.690357 
L 280.717146 268.219773 
L 286.175144 262.123505 
L 291.633142 256.369425 
L 297.091139 250.929095 
L 302.549137 245.777225 
L 308.007135 240.891226 
L 313.465132 236.250848 
L 318.92313 231.837868 
L 324.381128 227.635852 
L 329.839125 223.629943 
L 338.026122 217.959757 
L 346.213119 212.660977 
L 354.400115 207.699732 
L 362.587112 203.047927 
L 370.774108 198.683329 
L 378.961105 194.589908 
L 387.148101 190.759186 
L 395.335098 187.194949 
L 403.522094 183.914495 
L 408.980092 181.911653 
L 411.709091 180.689173 
L 417.167089 179.00873 
L 419.896087 178.318564 
L 466.289068 171.77654 
L 488.121059 168.961289 
L 507.224051 166.741995 
L 523.598044 165.053669 
L 539.972037 163.577287 
L 556.34603 162.315159 
L 572.720023 161.259673 
L 591.823015 160.268425 
L 610.926007 159.503684 
L 632.757998 158.858701 
L 657.318987 158.359283 
L 687.337975 157.978619 
L 728.272957 157.708867 
L 788.310932 157.561669 
L 924.760875 157.510736 
L 1058.481818 157.508842 
L 1058.481818 157.508842 
" style="fill:none;stroke:#8c564b;stroke-linecap:square;stroke-width:1.5;"/>
   </g>
   <g id="line2d_33">
    <path clip-path="url(#p8f5359b239)" d="M 196.118182 615.6 
L 198.847181 603.795813 
L 201.57618 592.795283 
L 204.305178 582.503458 
L 207.034177 572.841677 
L 209.763176 563.743959 
L 212.492175 555.154359 
L 215.221174 547.024987 
L 217.950173 539.314502 
L 220.679171 531.98695 
L 223.40817 525.01085 
L 226.137169 518.358466 
L 231.595167 505.92927 
L 237.053165 494.532894 
L 242.511162 484.035131 
L 247.96916 474.326099 
L 253.427158 465.314618 
L 258.885155 456.92414 
L 264.343153 449.089732 
L 269.801151 441.755814 
L 275.259148 434.874415 
L 280.717146 428.403831 
L 286.175144 422.307564 
L 291.633142 416.553484 
L 297.091139 411.113154 
L 302.549137 405.961283 
L 308.007135 401.075285 
L 313.465132 396.434906 
L 318.92313 392.021926 
L 324.381128 387.8199 
L 329.839125 383.813953 
L 338.026122 378.143504 
L 346.213119 372.84369 
L 354.400115 367.879344 
L 362.587112 363.219834 
L 370.774108 358.838447 
L 378.961105 354.711873 
L 387.148101 350.819785 
L 395.335098 347.144476 
L 403.522094 343.670551 
L 411.709091 340.384885 
L 422.625086 336.275778 
L 433.541082 332.456744 
L 444.457077 328.910552 
L 455.373072 325.622431 
L 466.289068 322.580486 
L 477.205063 319.774992 
L 488.121059 317.197701 
L 499.037054 314.841177 
L 509.953049 312.698194 
L 520.869045 310.761208 
L 531.78504 309.021957 
L 542.701036 307.47119 
L 556.34603 305.781917 
L 569.991024 304.348386 
L 583.636018 303.146034 
L 597.281013 302.149096 
L 613.655006 301.187373 
L 630.028999 300.440699 
L 649.131991 299.788261 
L 670.963982 299.263818 
L 698.25397 298.843259 
L 733.730955 298.542223 
L 785.581933 298.357629 
L 883.825892 298.280554 
L 1058.481818 298.2724 
L 1058.481818 298.2724 
" style="fill:none;stroke:#e377c2;stroke-linecap:square;stroke-width:1.5;"/>
   </g>
   <g id="patch_3">
    <path d="M 153 640.8 
L 153 86.4 
" style="fill:none;stroke:#000000;stroke-linecap:square;stroke-linejoin:miter;stroke-width:0.8;"/>
   </g>
   <g id="patch_4">
    <path d="M 1101.6 640.8 
L 1101.6 86.4 
" style="fill:none;stroke:#000000;stroke-linecap:square;stroke-linejoin:miter;stroke-width:0.8;"/>
   </g>
   <g id="patch_5">
    <path d="M 153 640.8 
L 1101.6 640.8 
" style="fill:none;stroke:#000000;stroke-linecap:square;stroke-linejoin:miter;stroke-width:0.8;"/>
   </g>
   <g id="patch_6">
    <path d="M 153 86.4 
L 1101.6 86.4 
" style="fill:none;stroke:#000000;stroke-linecap:square;stroke-linejoin:miter;stroke-width:0.8;"/>
   </g>
   <g id="text_16">
    <!-- Effluent brine concentrations -->
    <g transform="translate(501.642 80.4)scale(0.1728 -0.1728)">
     <defs>
      <path d="M 9.8125 72.90625 
L 55.90625 72.90625 
L 55.90625 64.59375 
L 19.671875 64.59375 
L 19.671875 43.015625 
L 54.390625 43.015625 
L 54.390625 34.71875 
L 19.671875 34.71875 
L 19.671875 8.296875 
L 56.78125 8.296875 
L 56.78125 0 
L 9.8125 0 
z
" id="DejaVuSans-69"/>
      <path d="M 37.109375 75.984375 
L 37.109375 68.5 
L 28.515625 68.5 
Q 23.6875 68.5 21.796875 66.546875 
Q 19.921875 64.59375 19.921875 59.515625 
L 19.921875 54.6875 
L 34.71875 54.6875 
L 34.71875 47.703125 
L 19.921875 47.703125 
L 19.921875 0 
L 10.890625 0 
L 10.890625 47.703125 
L 2.296875 47.703125 
L 2.296875 54.6875 
L 10.890625 54.6875 
L 10.890625 58.5 
Q 10.890625 67.625 15.140625 71.796875 
Q 19.390625 75.984375 28.609375 75.984375 
z
" id="DejaVuSans-102"/>
      <path d="M 8.5 21.578125 
L 8.5 54.6875 
L 17.484375 54.6875 
L 17.484375 21.921875 
Q 17.484375 14.15625 20.5 10.265625 
Q 23.53125 6.390625 29.59375 6.390625 
Q 36.859375 6.390625 41.078125 11.03125 
Q 45.3125 15.671875 45.3125 23.6875 
L 45.3125 54.6875 
L 54.296875 54.6875 
L 54.296875 0 
L 45.3125 0 
L 45.3125 8.40625 
Q 42.046875 3.421875 37.71875 1 
Q 33.40625 -1.421875 27.6875 -1.421875 
Q 18.265625 -1.421875 13.375 4.4375 
Q 8.5 10.296875 8.5 21.578125 
z
M 31.109375 56 
z
" id="DejaVuSans-117"/>
      <path d="M 48.6875 27.296875 
Q 48.6875 37.203125 44.609375 42.84375 
Q 40.53125 48.484375 33.40625 48.484375 
Q 26.265625 48.484375 22.1875 42.84375 
Q 18.109375 37.203125 18.109375 27.296875 
Q 18.109375 17.390625 22.1875 11.75 
Q 26.265625 6.109375 33.40625 6.109375 
Q 40.53125 6.109375 44.609375 11.75 
Q 48.6875 17.390625 48.6875 27.296875 
z
M 18.109375 46.390625 
Q 20.953125 51.265625 25.265625 53.625 
Q 29.59375 56 35.59375 56 
Q 45.5625 56 51.78125 48.09375 
Q 58.015625 40.1875 58.015625 27.296875 
Q 58.015625 14.40625 51.78125 6.484375 
Q 45.5625 -1.421875 35.59375 -1.421875 
Q 29.59375 -1.421875 25.265625 0.953125 
Q 20.953125 3.328125 18.109375 8.203125 
L 18.109375 0 
L 9.078125 0 
L 9.078125 75.984375 
L 18.109375 75.984375 
z
" id="DejaVuSans-98"/>
     </defs>
     <use xlink:href="#DejaVuSans-69"/>
     <use x="63.183594" xlink:href="#DejaVuSans-102"/>
     <use x="98.388672" xlink:href="#DejaVuSans-102"/>
     <use x="133.59375" xlink:href="#DejaVuSans-108"/>
     <use x="161.376953" xlink:href="#DejaVuSans-117"/>
     <use x="224.755859" xlink:href="#DejaVuSans-101"/>
     <use x="286.279297" xlink:href="#DejaVuSans-110"/>
     <use x="349.658203" xlink:href="#DejaVuSans-116"/>
     <use x="388.867188" xlink:href="#DejaVuSans-32"/>
     <use x="420.654297" xlink:href="#DejaVuSans-98"/>
     <use x="484.130859" xlink:href="#DejaVuSans-114"/>
     <use x="525.244141" xlink:href="#DejaVuSans-105"/>
     <use x="553.027344" xlink:href="#DejaVuSans-110"/>
     <use x="616.40625" xlink:href="#DejaVuSans-101"/>
     <use x="677.929688" xlink:href="#DejaVuSans-32"/>
     <use x="709.716797" xlink:href="#DejaVuSans-99"/>
     <use x="764.697266" xlink:href="#DejaVuSans-111"/>
     <use x="825.878906" xlink:href="#DejaVuSans-110"/>
     <use x="889.257812" xlink:href="#DejaVuSans-99"/>
     <use x="944.238281" xlink:href="#DejaVuSans-101"/>
     <use x="1005.761719" xlink:href="#DejaVuSans-110"/>
     <use x="1069.140625" xlink:href="#DejaVuSans-116"/>
     <use x="1108.349609" xlink:href="#DejaVuSans-114"/>
     <use x="1149.462891" xlink:href="#DejaVuSans-97"/>
     <use x="1210.742188" xlink:href="#DejaVuSans-116"/>
     <use x="1249.951172" xlink:href="#DejaVuSans-105"/>
     <use x="1277.734375" xlink:href="#DejaVuSans-111"/>
     <use x="1338.916016" xlink:href="#DejaVuSans-110"/>
     <use x="1402.294922" xlink:href="#DejaVuSans-115"/>
    </g>
   </g>
   <g id="legend_1">
    <g id="patch_7">
     <path d="M 992.32875 633.6 
L 1091.52 633.6 
Q 1094.4 633.6 1094.4 630.72 
L 1094.4 467.326375 
Q 1094.4 464.446375 1091.52 464.446375 
L 992.32875 464.446375 
Q 989.44875 464.446375 989.44875 467.326375 
L 989.44875 630.72 
Q 989.44875 633.6 992.32875 633.6 
z
" style="fill:#ffffff;opacity:0.8;stroke:#cccccc;stroke-linejoin:miter;"/>
    </g>
    <g id="text_17">
     <!-- non-zero elements -->
     <g transform="translate(995.20875 477.804813)scale(0.1 -0.1)">
      <defs>
       <path d="M 4.890625 31.390625 
L 31.203125 31.390625 
L 31.203125 23.390625 
L 4.890625 23.390625 
z
" id="DejaVuSans-45"/>
       <path d="M 5.515625 54.6875 
L 48.1875 54.6875 
L 48.1875 46.484375 
L 14.40625 7.171875 
L 48.1875 7.171875 
L 48.1875 0 
L 4.296875 0 
L 4.296875 8.203125 
L 38.09375 47.515625 
L 5.515625 47.515625 
z
" id="DejaVuSans-122"/>
      </defs>
      <use xlink:href="#DejaVuSans-110"/>
      <use x="63.378906" xlink:href="#DejaVuSans-111"/>
      <use x="124.560547" xlink:href="#DejaVuSans-110"/>
      <use x="187.939453" xlink:href="#DejaVuSans-45"/>
      <use x="224.023438" xlink:href="#DejaVuSans-122"/>
      <use x="276.513672" xlink:href="#DejaVuSans-101"/>
      <use x="338.037109" xlink:href="#DejaVuSans-114"/>
      <use x="376.900391" xlink:href="#DejaVuSans-111"/>
      <use x="438.082031" xlink:href="#DejaVuSans-32"/>
      <use x="469.869141" xlink:href="#DejaVuSans-101"/>
      <use x="531.392578" xlink:href="#DejaVuSans-108"/>
      <use x="559.175781" xlink:href="#DejaVuSans-101"/>
      <use x="620.699219" xlink:href="#DejaVuSans-109"/>
      <use x="718.111328" xlink:href="#DejaVuSans-101"/>
      <use x="779.634766" xlink:href="#DejaVuSans-110"/>
      <use x="843.013672" xlink:href="#DejaVuSans-116"/>
      <use x="882.222656" xlink:href="#DejaVuSans-115"/>
     </g>
    </g>
    <g id="line2d_34">
     <path d="M 1006.99425 492.98625 
L 1035.79425 492.98625 
" style="fill:none;stroke:#1f77b4;stroke-linecap:square;stroke-width:1.5;"/>
    </g>
    <g id="line2d_35"/>
    <g id="text_18">
     <!-- Ca -->
     <g transform="translate(1047.31425 498.02625)scale(0.144 -0.144)">
      <use xlink:href="#DejaVuSans-67"/>
      <use x="69.824219" xlink:href="#DejaVuSans-97"/>
     </g>
    </g>
    <g id="line2d_36">
     <path d="M 1006.99425 514.12275 
L 1035.79425 514.12275 
" style="fill:none;stroke:#ff7f0e;stroke-linecap:square;stroke-width:1.5;"/>
    </g>
    <g id="line2d_37"/>
    <g id="text_19">
     <!-- Mg -->
     <g transform="translate(1047.31425 519.16275)scale(0.144 -0.144)">
      <defs>
       <path d="M 9.8125 72.90625 
L 24.515625 72.90625 
L 43.109375 23.296875 
L 61.8125 72.90625 
L 76.515625 72.90625 
L 76.515625 0 
L 66.890625 0 
L 66.890625 64.015625 
L 48.09375 14.015625 
L 38.1875 14.015625 
L 19.390625 64.015625 
L 19.390625 0 
L 9.8125 0 
z
" id="DejaVuSans-77"/>
       <path d="M 45.40625 27.984375 
Q 45.40625 37.75 41.375 43.109375 
Q 37.359375 48.484375 30.078125 48.484375 
Q 22.859375 48.484375 18.828125 43.109375 
Q 14.796875 37.75 14.796875 27.984375 
Q 14.796875 18.265625 18.828125 12.890625 
Q 22.859375 7.515625 30.078125 7.515625 
Q 37.359375 7.515625 41.375 12.890625 
Q 45.40625 18.265625 45.40625 27.984375 
z
M 54.390625 6.78125 
Q 54.390625 -7.171875 48.1875 -13.984375 
Q 42 -20.796875 29.203125 -20.796875 
Q 24.46875 -20.796875 20.265625 -20.09375 
Q 16.0625 -19.390625 12.109375 -17.921875 
L 12.109375 -9.1875 
Q 16.0625 -11.328125 19.921875 -12.34375 
Q 23.78125 -13.375 27.78125 -13.375 
Q 36.625 -13.375 41.015625 -8.765625 
Q 45.40625 -4.15625 45.40625 5.171875 
L 45.40625 9.625 
Q 42.625 4.78125 38.28125 2.390625 
Q 33.9375 0 27.875 0 
Q 17.828125 0 11.671875 7.65625 
Q 5.515625 15.328125 5.515625 27.984375 
Q 5.515625 40.671875 11.671875 48.328125 
Q 17.828125 56 27.875 56 
Q 33.9375 56 38.28125 53.609375 
Q 42.625 51.21875 45.40625 46.390625 
L 45.40625 54.6875 
L 54.390625 54.6875 
z
" id="DejaVuSans-103"/>
      </defs>
      <use xlink:href="#DejaVuSans-77"/>
      <use x="86.279297" xlink:href="#DejaVuSans-103"/>
     </g>
    </g>
    <g id="line2d_38">
     <path d="M 1006.99425 535.25925 
L 1035.79425 535.25925 
" style="fill:none;stroke:#2ca02c;stroke-linecap:square;stroke-width:1.5;"/>
    </g>
    <g id="line2d_39"/>
    <g id="text_20">
     <!-- Na -->
     <g transform="translate(1047.31425 540.29925)scale(0.144 -0.144)">
      <defs>
       <path d="M 9.8125 72.90625 
L 23.09375 72.90625 
L 55.421875 11.921875 
L 55.421875 72.90625 
L 64.984375 72.90625 
L 64.984375 0 
L 51.703125 0 
L 19.390625 60.984375 
L 19.390625 0 
L 9.8125 0 
z
" id="DejaVuSans-78"/>
      </defs>
      <use xlink:href="#DejaVuSans-78"/>
      <use x="74.804688" xlink:href="#DejaVuSans-97"/>
     </g>
    </g>
    <g id="line2d_40">
     <path d="M 1006.99425 556.39575 
L 1035.79425 556.39575 
" style="fill:none;stroke:#d62728;stroke-linecap:square;stroke-width:1.5;"/>
    </g>
    <g id="line2d_41"/>
    <g id="text_21">
     <!-- Sr -->
     <g transform="translate(1047.31425 561.43575)scale(0.144 -0.144)">
      <defs>
       <path d="M 53.515625 70.515625 
L 53.515625 60.890625 
Q 47.90625 63.578125 42.921875 64.890625 
Q 37.9375 66.21875 33.296875 66.21875 
Q 25.25 66.21875 20.875 63.09375 
Q 16.5 59.96875 16.5 54.203125 
Q 16.5 49.359375 19.40625 46.890625 
Q 22.3125 44.4375 30.421875 42.921875 
L 36.375 41.703125 
Q 47.40625 39.59375 52.65625 34.296875 
Q 57.90625 29 57.90625 20.125 
Q 57.90625 9.515625 50.796875 4.046875 
Q 43.703125 -1.421875 29.984375 -1.421875 
Q 24.8125 -1.421875 18.96875 -0.25 
Q 13.140625 0.921875 6.890625 3.21875 
L 6.890625 13.375 
Q 12.890625 10.015625 18.65625 8.296875 
Q 24.421875 6.59375 29.984375 6.59375 
Q 38.421875 6.59375 43.015625 9.90625 
Q 47.609375 13.234375 47.609375 19.390625 
Q 47.609375 24.75 44.3125 27.78125 
Q 41.015625 30.8125 33.5 32.328125 
L 27.484375 33.5 
Q 16.453125 35.6875 11.515625 40.375 
Q 6.59375 45.0625 6.59375 53.421875 
Q 6.59375 63.09375 13.40625 68.65625 
Q 20.21875 74.21875 32.171875 74.21875 
Q 37.3125 74.21875 42.625 73.28125 
Q 47.953125 72.359375 53.515625 70.515625 
z
" id="DejaVuSans-83"/>
      </defs>
      <use xlink:href="#DejaVuSans-83"/>
      <use x="63.476562" xlink:href="#DejaVuSans-114"/>
     </g>
    </g>
    <g id="line2d_42">
     <path d="M 1006.99425 577.53225 
L 1035.79425 577.53225 
" style="fill:none;stroke:#9467bd;stroke-linecap:square;stroke-width:1.5;"/>
    </g>
    <g id="line2d_43"/>
    <g id="text_22">
     <!-- Cl -->
     <g transform="translate(1047.31425 582.57225)scale(0.144 -0.144)">
      <use xlink:href="#DejaVuSans-67"/>
      <use x="69.824219" xlink:href="#DejaVuSans-108"/>
     </g>
    </g>
    <g id="line2d_44">
     <path d="M 1006.99425 598.66875 
L 1035.79425 598.66875 
" style="fill:none;stroke:#8c564b;stroke-linecap:square;stroke-width:1.5;"/>
    </g>
    <g id="line2d_45"/>
    <g id="text_23">
     <!-- S(6) -->
     <g transform="translate(1047.31425 603.70875)scale(0.144 -0.144)">
      <use xlink:href="#DejaVuSans-83"/>
      <use x="63.476562" xlink:href="#DejaVuSans-40"/>
      <use x="102.490234" xlink:href="#DejaVuSans-54"/>
      <use x="166.113281" xlink:href="#DejaVuSans-41"/>
     </g>
    </g>
    <g id="line2d_46">
     <path d="M 1006.99425 619.80525 
L 1035.79425 619.80525 
" style="fill:none;stroke:#e377c2;stroke-linecap:square;stroke-width:1.5;"/>
    </g>
    <g id="line2d_47"/>
    <g id="text_24">
     <!-- Fe -->
     <g transform="translate(1047.31425 624.84525)scale(0.144 -0.144)">
      <defs>
       <path d="M 9.8125 72.90625 
L 51.703125 72.90625 
L 51.703125 64.59375 
L 19.671875 64.59375 
L 19.671875 43.109375 
L 48.578125 43.109375 
L 48.578125 34.8125 
L 19.671875 34.8125 
L 19.671875 0 
L 9.8125 0 
z
" id="DejaVuSans-70"/>
      </defs>
      <use xlink:href="#DejaVuSans-70"/>
      <use x="52.019531" xlink:href="#DejaVuSans-101"/>
     </g>
    </g>
   </g>
  </g>
  <g id="text_25">
   <!-- Final CF: 11.21 -->
   <g transform="translate(244.8 720)scale(0.12 -0.12)">
    <defs>
     <path d="M 11.71875 12.40625 
L 22.015625 12.40625 
L 22.015625 0 
L 11.71875 0 
z
M 11.71875 51.703125 
L 22.015625 51.703125 
L 22.015625 39.3125 
L 11.71875 39.3125 
z
" id="DejaVuSans-58"/>
    </defs>
    <use xlink:href="#DejaVuSans-70"/>
    <use x="50.269531" xlink:href="#DejaVuSans-105"/>
    <use x="78.052734" xlink:href="#DejaVuSans-110"/>
    <use x="141.431641" xlink:href="#DejaVuSans-97"/>
    <use x="202.710938" xlink:href="#DejaVuSans-108"/>
    <use x="230.494141" xlink:href="#DejaVuSans-32"/>
    <use x="262.28125" xlink:href="#DejaVuSans-67"/>
    <use x="332.105469" xlink:href="#DejaVuSans-70"/>
    <use x="381.875" xlink:href="#DejaVuSans-58"/>
    <use x="415.566406" xlink:href="#DejaVuSans-32"/>
    <use x="447.353516" xlink:href="#DejaVuSans-49"/>
    <use x="510.976562" xlink:href="#DejaVuSans-49"/>
    <use x="574.599609" xlink:href="#DejaVuSans-46"/>
    <use x="606.386719" xlink:href="#DejaVuSans-50"/>
    <use x="670.009766" xlink:href="#DejaVuSans-49"/>
   </g>
  </g>
 </g>
 <defs>
  <clipPath id="p8f5359b239">
   <rect height="554.4" width="948.6" x="153" y="86.4"/>
  </clipPath>
 </defs>
</svg>
