<?xml version="1.0" encoding="utf-8" standalone="no"?>
<!DOCTYPE svg PUBLIC "-//W3C//DTD SVG 1.1//EN"
  "http://www.w3.org/Graphics/SVG/1.1/DTD/svg11.dtd">
<svg height="720pt" version="1.1" viewBox="0 0 1224 720" width="1224pt" xmlns="http://www.w3.org/2000/svg" xmlns:xlink="http://www.w3.org/1999/xlink">
 <metadata>
  <rdf:RDF xmlns:cc="http://creativecommons.org/ns#" xmlns:dc="http://purl.org/dc/elements/1.1/" xmlns:rdf="http://www.w3.org/1999/02/22-rdf-syntax-ns#">
   <cc:Work>
    <dc:type rdf:resource="http://purl.org/dc/dcmitype/StillImage"/>
    <dc:date>2022-04-23T14:10:35.525600</dc:date>
    <dc:format>image/svg+xml</dc:format>
    <dc:creator>
     <cc:Agent>
      <dc:title>Matplotlib v3.4.3, https://matplotlib.org/</dc:title>
     </cc:Agent>
    </dc:creator>
   </cc:Work>
  </rdf:RDF>
 </metadata>
 <defs>
  <style type="text/css">*{stroke-linecap:butt;stroke-linejoin:round;}</style>
 </defs>
 <g id="figure_1">
  <g id="patch_1">
   <path d="M 0 720 
L 1224 720 
L 1224 0 
L 0 0 
z
" style="fill:none;"/>
  </g>
  <g id="axes_1">
   <g id="patch_2">
    <path d="M 153 630 
L 1101.6 630 
L 1101.6 86.4 
L 153 86.4 
z
" style="fill:#ffffff;"/>
   </g>
   <g id="matplotlib.axis_1">
    <g id="xtick_1">
     <g id="line2d_1">
      <path clip-path="url(#p2e78095b8e)" d="M 156.919835 630 
L 156.919835 86.4 
" style="fill:none;stroke:#b0b0b0;stroke-linecap:square;stroke-width:0.8;"/>
     </g>
     <g id="line2d_2">
      <defs>
       <path d="M 0 0 
L 0 3.5 
" id="m8de9a7c575" style="stroke:#000000;stroke-width:0.8;"/>
      </defs>
      <g>
       <use style="stroke:#000000;stroke-width:0.8;" x="156.919835" xlink:href="#m8de9a7c575" y="630"/>
      </g>
     </g>
     <g id="text_1">
      <!-- 0.0 -->
      <g transform="translate(148.968272 644.598438)scale(0.1 -0.1)">
       <defs>
        <path d="M 2034 4250 
Q 1547 4250 1301 3770 
Q 1056 3291 1056 2328 
Q 1056 1369 1301 889 
Q 1547 409 2034 409 
Q 2525 409 2770 889 
Q 3016 1369 3016 2328 
Q 3016 3291 2770 3770 
Q 2525 4250 2034 4250 
z
M 2034 4750 
Q 2819 4750 3233 4129 
Q 3647 3509 3647 2328 
Q 3647 1150 3233 529 
Q 2819 -91 2034 -91 
Q 1250 -91 836 529 
Q 422 1150 422 2328 
Q 422 3509 836 4129 
Q 1250 4750 2034 4750 
z
" id="DejaVuSans-30" transform="scale(0.015625)"/>
        <path d="M 684 794 
L 1344 794 
L 1344 0 
L 684 0 
L 684 794 
z
" id="DejaVuSans-2e" transform="scale(0.015625)"/>
       </defs>
       <use xlink:href="#DejaVuSans-30"/>
       <use x="63.623047" xlink:href="#DejaVuSans-2e"/>
       <use x="95.410156" xlink:href="#DejaVuSans-30"/>
      </g>
     </g>
    </g>
    <g id="xtick_2">
     <g id="line2d_3">
      <path clip-path="url(#p2e78095b8e)" d="M 342.108876 630 
L 342.108876 86.4 
" style="fill:none;stroke:#b0b0b0;stroke-linecap:square;stroke-width:0.8;"/>
     </g>
     <g id="line2d_4">
      <g>
       <use style="stroke:#000000;stroke-width:0.8;" x="342.108876" xlink:href="#m8de9a7c575" y="630"/>
      </g>
     </g>
     <g id="text_2">
      <!-- 0.2 -->
      <g transform="translate(334.157314 644.598438)scale(0.1 -0.1)">
       <defs>
        <path d="M 1228 531 
L 3431 531 
L 3431 0 
L 469 0 
L 469 531 
Q 828 903 1448 1529 
Q 2069 2156 2228 2338 
Q 2531 2678 2651 2914 
Q 2772 3150 2772 3378 
Q 2772 3750 2511 3984 
Q 2250 4219 1831 4219 
Q 1534 4219 1204 4116 
Q 875 4013 500 3803 
L 500 4441 
Q 881 4594 1212 4672 
Q 1544 4750 1819 4750 
Q 2544 4750 2975 4387 
Q 3406 4025 3406 3419 
Q 3406 3131 3298 2873 
Q 3191 2616 2906 2266 
Q 2828 2175 2409 1742 
Q 1991 1309 1228 531 
z
" id="DejaVuSans-32" transform="scale(0.015625)"/>
       </defs>
       <use xlink:href="#DejaVuSans-30"/>
       <use x="63.623047" xlink:href="#DejaVuSans-2e"/>
       <use x="95.410156" xlink:href="#DejaVuSans-32"/>
      </g>
     </g>
    </g>
    <g id="xtick_3">
     <g id="line2d_5">
      <path clip-path="url(#p2e78095b8e)" d="M 527.297918 630 
L 527.297918 86.4 
" style="fill:none;stroke:#b0b0b0;stroke-linecap:square;stroke-width:0.8;"/>
     </g>
     <g id="line2d_6">
      <g>
       <use style="stroke:#000000;stroke-width:0.8;" x="527.297918" xlink:href="#m8de9a7c575" y="630"/>
      </g>
     </g>
     <g id="text_3">
      <!-- 0.4 -->
      <g transform="translate(519.346355 644.598438)scale(0.1 -0.1)">
       <defs>
        <path d="M 2419 4116 
L 825 1625 
L 2419 1625 
L 2419 4116 
z
M 2253 4666 
L 3047 4666 
L 3047 1625 
L 3713 1625 
L 3713 1100 
L 3047 1100 
L 3047 0 
L 2419 0 
L 2419 1100 
L 313 1100 
L 313 1709 
L 2253 4666 
z
" id="DejaVuSans-34" transform="scale(0.015625)"/>
       </defs>
       <use xlink:href="#DejaVuSans-30"/>
       <use x="63.623047" xlink:href="#DejaVuSans-2e"/>
       <use x="95.410156" xlink:href="#DejaVuSans-34"/>
      </g>
     </g>
    </g>
    <g id="xtick_4">
     <g id="line2d_7">
      <path clip-path="url(#p2e78095b8e)" d="M 712.486959 630 
L 712.486959 86.4 
" style="fill:none;stroke:#b0b0b0;stroke-linecap:square;stroke-width:0.8;"/>
     </g>
     <g id="line2d_8">
      <g>
       <use style="stroke:#000000;stroke-width:0.8;" x="712.486959" xlink:href="#m8de9a7c575" y="630"/>
      </g>
     </g>
     <g id="text_4">
      <!-- 0.6 -->
      <g transform="translate(704.535397 644.598438)scale(0.1 -0.1)">
       <defs>
        <path d="M 2113 2584 
Q 1688 2584 1439 2293 
Q 1191 2003 1191 1497 
Q 1191 994 1439 701 
Q 1688 409 2113 409 
Q 2538 409 2786 701 
Q 3034 994 3034 1497 
Q 3034 2003 2786 2293 
Q 2538 2584 2113 2584 
z
M 3366 4563 
L 3366 3988 
Q 3128 4100 2886 4159 
Q 2644 4219 2406 4219 
Q 1781 4219 1451 3797 
Q 1122 3375 1075 2522 
Q 1259 2794 1537 2939 
Q 1816 3084 2150 3084 
Q 2853 3084 3261 2657 
Q 3669 2231 3669 1497 
Q 3669 778 3244 343 
Q 2819 -91 2113 -91 
Q 1303 -91 875 529 
Q 447 1150 447 2328 
Q 447 3434 972 4092 
Q 1497 4750 2381 4750 
Q 2619 4750 2861 4703 
Q 3103 4656 3366 4563 
z
" id="DejaVuSans-36" transform="scale(0.015625)"/>
       </defs>
       <use xlink:href="#DejaVuSans-30"/>
       <use x="63.623047" xlink:href="#DejaVuSans-2e"/>
       <use x="95.410156" xlink:href="#DejaVuSans-36"/>
      </g>
     </g>
    </g>
    <g id="xtick_5">
     <g id="line2d_9">
      <path clip-path="url(#p2e78095b8e)" d="M 897.676001 630 
L 897.676001 86.4 
" style="fill:none;stroke:#b0b0b0;stroke-linecap:square;stroke-width:0.8;"/>
     </g>
     <g id="line2d_10">
      <g>
       <use style="stroke:#000000;stroke-width:0.8;" x="897.676001" xlink:href="#m8de9a7c575" y="630"/>
      </g>
     </g>
     <g id="text_5">
      <!-- 0.8 -->
      <g transform="translate(889.724438 644.598438)scale(0.1 -0.1)">
       <defs>
        <path d="M 2034 2216 
Q 1584 2216 1326 1975 
Q 1069 1734 1069 1313 
Q 1069 891 1326 650 
Q 1584 409 2034 409 
Q 2484 409 2743 651 
Q 3003 894 3003 1313 
Q 3003 1734 2745 1975 
Q 2488 2216 2034 2216 
z
M 1403 2484 
Q 997 2584 770 2862 
Q 544 3141 544 3541 
Q 544 4100 942 4425 
Q 1341 4750 2034 4750 
Q 2731 4750 3128 4425 
Q 3525 4100 3525 3541 
Q 3525 3141 3298 2862 
Q 3072 2584 2669 2484 
Q 3125 2378 3379 2068 
Q 3634 1759 3634 1313 
Q 3634 634 3220 271 
Q 2806 -91 2034 -91 
Q 1263 -91 848 271 
Q 434 634 434 1313 
Q 434 1759 690 2068 
Q 947 2378 1403 2484 
z
M 1172 3481 
Q 1172 3119 1398 2916 
Q 1625 2713 2034 2713 
Q 2441 2713 2670 2916 
Q 2900 3119 2900 3481 
Q 2900 3844 2670 4047 
Q 2441 4250 2034 4250 
Q 1625 4250 1398 4047 
Q 1172 3844 1172 3481 
z
" id="DejaVuSans-38" transform="scale(0.015625)"/>
       </defs>
       <use xlink:href="#DejaVuSans-30"/>
       <use x="63.623047" xlink:href="#DejaVuSans-2e"/>
       <use x="95.410156" xlink:href="#DejaVuSans-38"/>
      </g>
     </g>
    </g>
    <g id="xtick_6">
     <g id="line2d_11">
      <path clip-path="url(#p2e78095b8e)" d="M 1082.865042 630 
L 1082.865042 86.4 
" style="fill:none;stroke:#b0b0b0;stroke-linecap:square;stroke-width:0.8;"/>
     </g>
     <g id="line2d_12">
      <g>
       <use style="stroke:#000000;stroke-width:0.8;" x="1082.865042" xlink:href="#m8de9a7c575" y="630"/>
      </g>
     </g>
     <g id="text_6">
      <!-- 1.0 -->
      <g transform="translate(1074.913479 644.598438)scale(0.1 -0.1)">
       <defs>
        <path d="M 794 531 
L 1825 531 
L 1825 4091 
L 703 3866 
L 703 4441 
L 1819 4666 
L 2450 4666 
L 2450 531 
L 3481 531 
L 3481 0 
L 794 0 
L 794 531 
z
" id="DejaVuSans-31" transform="scale(0.015625)"/>
       </defs>
       <use xlink:href="#DejaVuSans-31"/>
       <use x="63.623047" xlink:href="#DejaVuSans-2e"/>
       <use x="95.410156" xlink:href="#DejaVuSans-30"/>
      </g>
     </g>
    </g>
    <g id="text_7">
     <!-- Distance (m) -->
     <g transform="translate(580.89825 661.619875)scale(0.144 -0.144)">
      <defs>
       <path d="M 1259 4147 
L 1259 519 
L 2022 519 
Q 2988 519 3436 956 
Q 3884 1394 3884 2338 
Q 3884 3275 3436 3711 
Q 2988 4147 2022 4147 
L 1259 4147 
z
M 628 4666 
L 1925 4666 
Q 3281 4666 3915 4102 
Q 4550 3538 4550 2338 
Q 4550 1131 3912 565 
Q 3275 0 1925 0 
L 628 0 
L 628 4666 
z
" id="DejaVuSans-44" transform="scale(0.015625)"/>
       <path d="M 603 3500 
L 1178 3500 
L 1178 0 
L 603 0 
L 603 3500 
z
M 603 4863 
L 1178 4863 
L 1178 4134 
L 603 4134 
L 603 4863 
z
" id="DejaVuSans-69" transform="scale(0.015625)"/>
       <path d="M 2834 3397 
L 2834 2853 
Q 2591 2978 2328 3040 
Q 2066 3103 1784 3103 
Q 1356 3103 1142 2972 
Q 928 2841 928 2578 
Q 928 2378 1081 2264 
Q 1234 2150 1697 2047 
L 1894 2003 
Q 2506 1872 2764 1633 
Q 3022 1394 3022 966 
Q 3022 478 2636 193 
Q 2250 -91 1575 -91 
Q 1294 -91 989 -36 
Q 684 19 347 128 
L 347 722 
Q 666 556 975 473 
Q 1284 391 1588 391 
Q 1994 391 2212 530 
Q 2431 669 2431 922 
Q 2431 1156 2273 1281 
Q 2116 1406 1581 1522 
L 1381 1569 
Q 847 1681 609 1914 
Q 372 2147 372 2553 
Q 372 3047 722 3315 
Q 1072 3584 1716 3584 
Q 2034 3584 2315 3537 
Q 2597 3491 2834 3397 
z
" id="DejaVuSans-73" transform="scale(0.015625)"/>
       <path d="M 1172 4494 
L 1172 3500 
L 2356 3500 
L 2356 3053 
L 1172 3053 
L 1172 1153 
Q 1172 725 1289 603 
Q 1406 481 1766 481 
L 2356 481 
L 2356 0 
L 1766 0 
Q 1100 0 847 248 
Q 594 497 594 1153 
L 594 3053 
L 172 3053 
L 172 3500 
L 594 3500 
L 594 4494 
L 1172 4494 
z
" id="DejaVuSans-74" transform="scale(0.015625)"/>
       <path d="M 2194 1759 
Q 1497 1759 1228 1600 
Q 959 1441 959 1056 
Q 959 750 1161 570 
Q 1363 391 1709 391 
Q 2188 391 2477 730 
Q 2766 1069 2766 1631 
L 2766 1759 
L 2194 1759 
z
M 3341 1997 
L 3341 0 
L 2766 0 
L 2766 531 
Q 2569 213 2275 61 
Q 1981 -91 1556 -91 
Q 1019 -91 701 211 
Q 384 513 384 1019 
Q 384 1609 779 1909 
Q 1175 2209 1959 2209 
L 2766 2209 
L 2766 2266 
Q 2766 2663 2505 2880 
Q 2244 3097 1772 3097 
Q 1472 3097 1187 3025 
Q 903 2953 641 2809 
L 641 3341 
Q 956 3463 1253 3523 
Q 1550 3584 1831 3584 
Q 2591 3584 2966 3190 
Q 3341 2797 3341 1997 
z
" id="DejaVuSans-61" transform="scale(0.015625)"/>
       <path d="M 3513 2113 
L 3513 0 
L 2938 0 
L 2938 2094 
Q 2938 2591 2744 2837 
Q 2550 3084 2163 3084 
Q 1697 3084 1428 2787 
Q 1159 2491 1159 1978 
L 1159 0 
L 581 0 
L 581 3500 
L 1159 3500 
L 1159 2956 
Q 1366 3272 1645 3428 
Q 1925 3584 2291 3584 
Q 2894 3584 3203 3211 
Q 3513 2838 3513 2113 
z
" id="DejaVuSans-6e" transform="scale(0.015625)"/>
       <path d="M 3122 3366 
L 3122 2828 
Q 2878 2963 2633 3030 
Q 2388 3097 2138 3097 
Q 1578 3097 1268 2742 
Q 959 2388 959 1747 
Q 959 1106 1268 751 
Q 1578 397 2138 397 
Q 2388 397 2633 464 
Q 2878 531 3122 666 
L 3122 134 
Q 2881 22 2623 -34 
Q 2366 -91 2075 -91 
Q 1284 -91 818 406 
Q 353 903 353 1747 
Q 353 2603 823 3093 
Q 1294 3584 2113 3584 
Q 2378 3584 2631 3529 
Q 2884 3475 3122 3366 
z
" id="DejaVuSans-63" transform="scale(0.015625)"/>
       <path d="M 3597 1894 
L 3597 1613 
L 953 1613 
Q 991 1019 1311 708 
Q 1631 397 2203 397 
Q 2534 397 2845 478 
Q 3156 559 3463 722 
L 3463 178 
Q 3153 47 2828 -22 
Q 2503 -91 2169 -91 
Q 1331 -91 842 396 
Q 353 884 353 1716 
Q 353 2575 817 3079 
Q 1281 3584 2069 3584 
Q 2775 3584 3186 3129 
Q 3597 2675 3597 1894 
z
M 3022 2063 
Q 3016 2534 2758 2815 
Q 2500 3097 2075 3097 
Q 1594 3097 1305 2825 
Q 1016 2553 972 2059 
L 3022 2063 
z
" id="DejaVuSans-65" transform="scale(0.015625)"/>
       <path id="DejaVuSans-20" transform="scale(0.015625)"/>
       <path d="M 1984 4856 
Q 1566 4138 1362 3434 
Q 1159 2731 1159 2009 
Q 1159 1288 1364 580 
Q 1569 -128 1984 -844 
L 1484 -844 
Q 1016 -109 783 600 
Q 550 1309 550 2009 
Q 550 2706 781 3412 
Q 1013 4119 1484 4856 
L 1984 4856 
z
" id="DejaVuSans-28" transform="scale(0.015625)"/>
       <path d="M 3328 2828 
Q 3544 3216 3844 3400 
Q 4144 3584 4550 3584 
Q 5097 3584 5394 3201 
Q 5691 2819 5691 2113 
L 5691 0 
L 5113 0 
L 5113 2094 
Q 5113 2597 4934 2840 
Q 4756 3084 4391 3084 
Q 3944 3084 3684 2787 
Q 3425 2491 3425 1978 
L 3425 0 
L 2847 0 
L 2847 2094 
Q 2847 2600 2669 2842 
Q 2491 3084 2119 3084 
Q 1678 3084 1418 2786 
Q 1159 2488 1159 1978 
L 1159 0 
L 581 0 
L 581 3500 
L 1159 3500 
L 1159 2956 
Q 1356 3278 1631 3431 
Q 1906 3584 2284 3584 
Q 2666 3584 2933 3390 
Q 3200 3197 3328 2828 
z
" id="DejaVuSans-6d" transform="scale(0.015625)"/>
       <path d="M 513 4856 
L 1013 4856 
Q 1481 4119 1714 3412 
Q 1947 2706 1947 2009 
Q 1947 1309 1714 600 
Q 1481 -109 1013 -844 
L 513 -844 
Q 928 -128 1133 580 
Q 1338 1288 1338 2009 
Q 1338 2731 1133 3434 
Q 928 4138 513 4856 
z
" id="DejaVuSans-29" transform="scale(0.015625)"/>
      </defs>
      <use xlink:href="#DejaVuSans-44"/>
      <use x="77.001953" xlink:href="#DejaVuSans-69"/>
      <use x="104.785156" xlink:href="#DejaVuSans-73"/>
      <use x="156.884766" xlink:href="#DejaVuSans-74"/>
      <use x="196.09375" xlink:href="#DejaVuSans-61"/>
      <use x="257.373047" xlink:href="#DejaVuSans-6e"/>
      <use x="320.751953" xlink:href="#DejaVuSans-63"/>
      <use x="375.732422" xlink:href="#DejaVuSans-65"/>
      <use x="437.255859" xlink:href="#DejaVuSans-20"/>
      <use x="469.042969" xlink:href="#DejaVuSans-28"/>
      <use x="508.056641" xlink:href="#DejaVuSans-6d"/>
      <use x="605.46875" xlink:href="#DejaVuSans-29"/>
     </g>
    </g>
   </g>
   <g id="matplotlib.axis_2">
    <g id="ytick_1">
     <g id="line2d_13">
      <path clip-path="url(#p2e78095b8e)" d="M 153 573.058888 
L 1101.6 573.058888 
" style="fill:none;stroke:#b0b0b0;stroke-linecap:square;stroke-width:0.8;"/>
     </g>
     <g id="line2d_14">
      <defs>
       <path d="M 0 0 
L -3.5 0 
" id="m7dccc8f8c9" style="stroke:#000000;stroke-width:0.8;"/>
      </defs>
      <g>
       <use style="stroke:#000000;stroke-width:0.8;" x="153" xlink:href="#m7dccc8f8c9" y="573.058888"/>
      </g>
     </g>
     <g id="text_8">
      <!-- $\mathdefault{10^{-4}}$ -->
      <g transform="translate(122.5 576.858107)scale(0.1 -0.1)">
       <defs>
        <path d="M 678 2272 
L 4684 2272 
L 4684 1741 
L 678 1741 
L 678 2272 
z
" id="DejaVuSans-2212" transform="scale(0.015625)"/>
       </defs>
       <use transform="translate(0 0.684375)" xlink:href="#DejaVuSans-31"/>
       <use transform="translate(63.623047 0.684375)" xlink:href="#DejaVuSans-30"/>
       <use transform="translate(128.203125 38.965625)scale(0.7)" xlink:href="#DejaVuSans-2212"/>
       <use transform="translate(186.855469 38.965625)scale(0.7)" xlink:href="#DejaVuSans-34"/>
      </g>
     </g>
    </g>
    <g id="ytick_2">
     <g id="line2d_15">
      <path clip-path="url(#p2e78095b8e)" d="M 153 496.978721 
L 1101.6 496.978721 
" style="fill:none;stroke:#b0b0b0;stroke-linecap:square;stroke-width:0.8;"/>
     </g>
     <g id="line2d_16">
      <g>
       <use style="stroke:#000000;stroke-width:0.8;" x="153" xlink:href="#m7dccc8f8c9" y="496.978721"/>
      </g>
     </g>
     <g id="text_9">
      <!-- $\mathdefault{10^{-3}}$ -->
      <g transform="translate(122.5 500.77794)scale(0.1 -0.1)">
       <defs>
        <path d="M 2597 2516 
Q 3050 2419 3304 2112 
Q 3559 1806 3559 1356 
Q 3559 666 3084 287 
Q 2609 -91 1734 -91 
Q 1441 -91 1130 -33 
Q 819 25 488 141 
L 488 750 
Q 750 597 1062 519 
Q 1375 441 1716 441 
Q 2309 441 2620 675 
Q 2931 909 2931 1356 
Q 2931 1769 2642 2001 
Q 2353 2234 1838 2234 
L 1294 2234 
L 1294 2753 
L 1863 2753 
Q 2328 2753 2575 2939 
Q 2822 3125 2822 3475 
Q 2822 3834 2567 4026 
Q 2313 4219 1838 4219 
Q 1578 4219 1281 4162 
Q 984 4106 628 3988 
L 628 4550 
Q 988 4650 1302 4700 
Q 1616 4750 1894 4750 
Q 2613 4750 3031 4423 
Q 3450 4097 3450 3541 
Q 3450 3153 3228 2886 
Q 3006 2619 2597 2516 
z
" id="DejaVuSans-33" transform="scale(0.015625)"/>
       </defs>
       <use transform="translate(0 0.765625)" xlink:href="#DejaVuSans-31"/>
       <use transform="translate(63.623047 0.765625)" xlink:href="#DejaVuSans-30"/>
       <use transform="translate(128.203125 39.046875)scale(0.7)" xlink:href="#DejaVuSans-2212"/>
       <use transform="translate(186.855469 39.046875)scale(0.7)" xlink:href="#DejaVuSans-33"/>
      </g>
     </g>
    </g>
    <g id="ytick_3">
     <g id="line2d_17">
      <path clip-path="url(#p2e78095b8e)" d="M 153 420.898554 
L 1101.6 420.898554 
" style="fill:none;stroke:#b0b0b0;stroke-linecap:square;stroke-width:0.8;"/>
     </g>
     <g id="line2d_18">
      <g>
       <use style="stroke:#000000;stroke-width:0.8;" x="153" xlink:href="#m7dccc8f8c9" y="420.898554"/>
      </g>
     </g>
     <g id="text_10">
      <!-- $\mathdefault{10^{-2}}$ -->
      <g transform="translate(122.5 424.697773)scale(0.1 -0.1)">
       <use transform="translate(0 0.765625)" xlink:href="#DejaVuSans-31"/>
       <use transform="translate(63.623047 0.765625)" xlink:href="#DejaVuSans-30"/>
       <use transform="translate(128.203125 39.046875)scale(0.7)" xlink:href="#DejaVuSans-2212"/>
       <use transform="translate(186.855469 39.046875)scale(0.7)" xlink:href="#DejaVuSans-32"/>
      </g>
     </g>
    </g>
    <g id="ytick_4">
     <g id="line2d_19">
      <path clip-path="url(#p2e78095b8e)" d="M 153 344.818387 
L 1101.6 344.818387 
" style="fill:none;stroke:#b0b0b0;stroke-linecap:square;stroke-width:0.8;"/>
     </g>
     <g id="line2d_20">
      <g>
       <use style="stroke:#000000;stroke-width:0.8;" x="153" xlink:href="#m7dccc8f8c9" y="344.818387"/>
      </g>
     </g>
     <g id="text_11">
      <!-- $\mathdefault{10^{-1}}$ -->
      <g transform="translate(122.5 348.617606)scale(0.1 -0.1)">
       <use transform="translate(0 0.684375)" xlink:href="#DejaVuSans-31"/>
       <use transform="translate(63.623047 0.684375)" xlink:href="#DejaVuSans-30"/>
       <use transform="translate(128.203125 38.965625)scale(0.7)" xlink:href="#DejaVuSans-2212"/>
       <use transform="translate(186.855469 38.965625)scale(0.7)" xlink:href="#DejaVuSans-31"/>
      </g>
     </g>
    </g>
    <g id="ytick_5">
     <g id="line2d_21">
      <path clip-path="url(#p2e78095b8e)" d="M 153 268.73822 
L 1101.6 268.73822 
" style="fill:none;stroke:#b0b0b0;stroke-linecap:square;stroke-width:0.8;"/>
     </g>
     <g id="line2d_22">
      <g>
       <use style="stroke:#000000;stroke-width:0.8;" x="153" xlink:href="#m7dccc8f8c9" y="268.73822"/>
      </g>
     </g>
     <g id="text_12">
      <!-- $\mathdefault{10^{0}}$ -->
      <g transform="translate(128.4 272.537439)scale(0.1 -0.1)">
       <use transform="translate(0 0.765625)" xlink:href="#DejaVuSans-31"/>
       <use transform="translate(63.623047 0.765625)" xlink:href="#DejaVuSans-30"/>
       <use transform="translate(128.203125 39.046875)scale(0.7)" xlink:href="#DejaVuSans-30"/>
      </g>
     </g>
    </g>
    <g id="ytick_6">
     <g id="line2d_23">
      <path clip-path="url(#p2e78095b8e)" d="M 153 192.658053 
L 1101.6 192.658053 
" style="fill:none;stroke:#b0b0b0;stroke-linecap:square;stroke-width:0.8;"/>
     </g>
     <g id="line2d_24">
      <g>
       <use style="stroke:#000000;stroke-width:0.8;" x="153" xlink:href="#m7dccc8f8c9" y="192.658053"/>
      </g>
     </g>
     <g id="text_13">
      <!-- $\mathdefault{10^{1}}$ -->
      <g transform="translate(128.4 196.457272)scale(0.1 -0.1)">
       <use transform="translate(0 0.684375)" xlink:href="#DejaVuSans-31"/>
       <use transform="translate(63.623047 0.684375)" xlink:href="#DejaVuSans-30"/>
       <use transform="translate(128.203125 38.965625)scale(0.7)" xlink:href="#DejaVuSans-31"/>
      </g>
     </g>
    </g>
    <g id="ytick_7">
     <g id="line2d_25">
      <path clip-path="url(#p2e78095b8e)" d="M 153 116.577886 
L 1101.6 116.577886 
" style="fill:none;stroke:#b0b0b0;stroke-linecap:square;stroke-width:0.8;"/>
     </g>
     <g id="line2d_26">
      <g>
       <use style="stroke:#000000;stroke-width:0.8;" x="153" xlink:href="#m7dccc8f8c9" y="116.577886"/>
      </g>
     </g>
     <g id="text_14">
      <!-- $\mathdefault{10^{2}}$ -->
      <g transform="translate(128.4 120.377105)scale(0.1 -0.1)">
       <use transform="translate(0 0.765625)" xlink:href="#DejaVuSans-31"/>
       <use transform="translate(63.623047 0.765625)" xlink:href="#DejaVuSans-30"/>
       <use transform="translate(128.203125 39.046875)scale(0.7)" xlink:href="#DejaVuSans-32"/>
      </g>
     </g>
    </g>
    <g id="ytick_8">
     <g id="line2d_27">
      <defs>
       <path d="M 0 0 
L -2 0 
" id="mbb60437a88" style="stroke:#000000;stroke-width:0.6;"/>
      </defs>
      <g>
       <use style="stroke:#000000;stroke-width:0.6;" x="153" xlink:href="#mbb60437a88" y="626.236643"/>
      </g>
     </g>
    </g>
    <g id="ytick_9">
     <g id="line2d_28">
      <g>
       <use style="stroke:#000000;stroke-width:0.6;" x="153" xlink:href="#mbb60437a88" y="612.839591"/>
      </g>
     </g>
    </g>
    <g id="ytick_10">
     <g id="line2d_29">
      <g>
       <use style="stroke:#000000;stroke-width:0.6;" x="153" xlink:href="#mbb60437a88" y="603.334231"/>
      </g>
     </g>
    </g>
    <g id="ytick_11">
     <g id="line2d_30">
      <g>
       <use style="stroke:#000000;stroke-width:0.6;" x="153" xlink:href="#mbb60437a88" y="595.961301"/>
      </g>
     </g>
    </g>
    <g id="ytick_12">
     <g id="line2d_31">
      <g>
       <use style="stroke:#000000;stroke-width:0.6;" x="153" xlink:href="#mbb60437a88" y="589.937178"/>
      </g>
     </g>
    </g>
    <g id="ytick_13">
     <g id="line2d_32">
      <g>
       <use style="stroke:#000000;stroke-width:0.6;" x="153" xlink:href="#mbb60437a88" y="584.843855"/>
      </g>
     </g>
    </g>
    <g id="ytick_14">
     <g id="line2d_33">
      <g>
       <use style="stroke:#000000;stroke-width:0.6;" x="153" xlink:href="#mbb60437a88" y="580.431818"/>
      </g>
     </g>
    </g>
    <g id="ytick_15">
     <g id="line2d_34">
      <g>
       <use style="stroke:#000000;stroke-width:0.6;" x="153" xlink:href="#mbb60437a88" y="576.540126"/>
      </g>
     </g>
    </g>
    <g id="ytick_16">
     <g id="line2d_35">
      <g>
       <use style="stroke:#000000;stroke-width:0.6;" x="153" xlink:href="#mbb60437a88" y="550.156476"/>
      </g>
     </g>
    </g>
    <g id="ytick_17">
     <g id="line2d_36">
      <g>
       <use style="stroke:#000000;stroke-width:0.6;" x="153" xlink:href="#mbb60437a88" y="536.759423"/>
      </g>
     </g>
    </g>
    <g id="ytick_18">
     <g id="line2d_37">
      <g>
       <use style="stroke:#000000;stroke-width:0.6;" x="153" xlink:href="#mbb60437a88" y="527.254064"/>
      </g>
     </g>
    </g>
    <g id="ytick_19">
     <g id="line2d_38">
      <g>
       <use style="stroke:#000000;stroke-width:0.6;" x="153" xlink:href="#mbb60437a88" y="519.881134"/>
      </g>
     </g>
    </g>
    <g id="ytick_20">
     <g id="line2d_39">
      <g>
       <use style="stroke:#000000;stroke-width:0.6;" x="153" xlink:href="#mbb60437a88" y="513.857011"/>
      </g>
     </g>
    </g>
    <g id="ytick_21">
     <g id="line2d_40">
      <g>
       <use style="stroke:#000000;stroke-width:0.6;" x="153" xlink:href="#mbb60437a88" y="508.763688"/>
      </g>
     </g>
    </g>
    <g id="ytick_22">
     <g id="line2d_41">
      <g>
       <use style="stroke:#000000;stroke-width:0.6;" x="153" xlink:href="#mbb60437a88" y="504.351651"/>
      </g>
     </g>
    </g>
    <g id="ytick_23">
     <g id="line2d_42">
      <g>
       <use style="stroke:#000000;stroke-width:0.6;" x="153" xlink:href="#mbb60437a88" y="500.459959"/>
      </g>
     </g>
    </g>
    <g id="ytick_24">
     <g id="line2d_43">
      <g>
       <use style="stroke:#000000;stroke-width:0.6;" x="153" xlink:href="#mbb60437a88" y="474.076309"/>
      </g>
     </g>
    </g>
    <g id="ytick_25">
     <g id="line2d_44">
      <g>
       <use style="stroke:#000000;stroke-width:0.6;" x="153" xlink:href="#mbb60437a88" y="460.679256"/>
      </g>
     </g>
    </g>
    <g id="ytick_26">
     <g id="line2d_45">
      <g>
       <use style="stroke:#000000;stroke-width:0.6;" x="153" xlink:href="#mbb60437a88" y="451.173897"/>
      </g>
     </g>
    </g>
    <g id="ytick_27">
     <g id="line2d_46">
      <g>
       <use style="stroke:#000000;stroke-width:0.6;" x="153" xlink:href="#mbb60437a88" y="443.800967"/>
      </g>
     </g>
    </g>
    <g id="ytick_28">
     <g id="line2d_47">
      <g>
       <use style="stroke:#000000;stroke-width:0.6;" x="153" xlink:href="#mbb60437a88" y="437.776844"/>
      </g>
     </g>
    </g>
    <g id="ytick_29">
     <g id="line2d_48">
      <g>
       <use style="stroke:#000000;stroke-width:0.6;" x="153" xlink:href="#mbb60437a88" y="432.683521"/>
      </g>
     </g>
    </g>
    <g id="ytick_30">
     <g id="line2d_49">
      <g>
       <use style="stroke:#000000;stroke-width:0.6;" x="153" xlink:href="#mbb60437a88" y="428.271484"/>
      </g>
     </g>
    </g>
    <g id="ytick_31">
     <g id="line2d_50">
      <g>
       <use style="stroke:#000000;stroke-width:0.6;" x="153" xlink:href="#mbb60437a88" y="424.379792"/>
      </g>
     </g>
    </g>
    <g id="ytick_32">
     <g id="line2d_51">
      <g>
       <use style="stroke:#000000;stroke-width:0.6;" x="153" xlink:href="#mbb60437a88" y="397.996142"/>
      </g>
     </g>
    </g>
    <g id="ytick_33">
     <g id="line2d_52">
      <g>
       <use style="stroke:#000000;stroke-width:0.6;" x="153" xlink:href="#mbb60437a88" y="384.599089"/>
      </g>
     </g>
    </g>
    <g id="ytick_34">
     <g id="line2d_53">
      <g>
       <use style="stroke:#000000;stroke-width:0.6;" x="153" xlink:href="#mbb60437a88" y="375.093729"/>
      </g>
     </g>
    </g>
    <g id="ytick_35">
     <g id="line2d_54">
      <g>
       <use style="stroke:#000000;stroke-width:0.6;" x="153" xlink:href="#mbb60437a88" y="367.720799"/>
      </g>
     </g>
    </g>
    <g id="ytick_36">
     <g id="line2d_55">
      <g>
       <use style="stroke:#000000;stroke-width:0.6;" x="153" xlink:href="#mbb60437a88" y="361.696677"/>
      </g>
     </g>
    </g>
    <g id="ytick_37">
     <g id="line2d_56">
      <g>
       <use style="stroke:#000000;stroke-width:0.6;" x="153" xlink:href="#mbb60437a88" y="356.603354"/>
      </g>
     </g>
    </g>
    <g id="ytick_38">
     <g id="line2d_57">
      <g>
       <use style="stroke:#000000;stroke-width:0.6;" x="153" xlink:href="#mbb60437a88" y="352.191317"/>
      </g>
     </g>
    </g>
    <g id="ytick_39">
     <g id="line2d_58">
      <g>
       <use style="stroke:#000000;stroke-width:0.6;" x="153" xlink:href="#mbb60437a88" y="348.299625"/>
      </g>
     </g>
    </g>
    <g id="ytick_40">
     <g id="line2d_59">
      <g>
       <use style="stroke:#000000;stroke-width:0.6;" x="153" xlink:href="#mbb60437a88" y="321.915975"/>
      </g>
     </g>
    </g>
    <g id="ytick_41">
     <g id="line2d_60">
      <g>
       <use style="stroke:#000000;stroke-width:0.6;" x="153" xlink:href="#mbb60437a88" y="308.518922"/>
      </g>
     </g>
    </g>
    <g id="ytick_42">
     <g id="line2d_61">
      <g>
       <use style="stroke:#000000;stroke-width:0.6;" x="153" xlink:href="#mbb60437a88" y="299.013562"/>
      </g>
     </g>
    </g>
    <g id="ytick_43">
     <g id="line2d_62">
      <g>
       <use style="stroke:#000000;stroke-width:0.6;" x="153" xlink:href="#mbb60437a88" y="291.640632"/>
      </g>
     </g>
    </g>
    <g id="ytick_44">
     <g id="line2d_63">
      <g>
       <use style="stroke:#000000;stroke-width:0.6;" x="153" xlink:href="#mbb60437a88" y="285.61651"/>
      </g>
     </g>
    </g>
    <g id="ytick_45">
     <g id="line2d_64">
      <g>
       <use style="stroke:#000000;stroke-width:0.6;" x="153" xlink:href="#mbb60437a88" y="280.523187"/>
      </g>
     </g>
    </g>
    <g id="ytick_46">
     <g id="line2d_65">
      <g>
       <use style="stroke:#000000;stroke-width:0.6;" x="153" xlink:href="#mbb60437a88" y="276.11115"/>
      </g>
     </g>
    </g>
    <g id="ytick_47">
     <g id="line2d_66">
      <g>
       <use style="stroke:#000000;stroke-width:0.6;" x="153" xlink:href="#mbb60437a88" y="272.219458"/>
      </g>
     </g>
    </g>
    <g id="ytick_48">
     <g id="line2d_67">
      <g>
       <use style="stroke:#000000;stroke-width:0.6;" x="153" xlink:href="#mbb60437a88" y="245.835808"/>
      </g>
     </g>
    </g>
    <g id="ytick_49">
     <g id="line2d_68">
      <g>
       <use style="stroke:#000000;stroke-width:0.6;" x="153" xlink:href="#mbb60437a88" y="232.438755"/>
      </g>
     </g>
    </g>
    <g id="ytick_50">
     <g id="line2d_69">
      <g>
       <use style="stroke:#000000;stroke-width:0.6;" x="153" xlink:href="#mbb60437a88" y="222.933395"/>
      </g>
     </g>
    </g>
    <g id="ytick_51">
     <g id="line2d_70">
      <g>
       <use style="stroke:#000000;stroke-width:0.6;" x="153" xlink:href="#mbb60437a88" y="215.560465"/>
      </g>
     </g>
    </g>
    <g id="ytick_52">
     <g id="line2d_71">
      <g>
       <use style="stroke:#000000;stroke-width:0.6;" x="153" xlink:href="#mbb60437a88" y="209.536343"/>
      </g>
     </g>
    </g>
    <g id="ytick_53">
     <g id="line2d_72">
      <g>
       <use style="stroke:#000000;stroke-width:0.6;" x="153" xlink:href="#mbb60437a88" y="204.44302"/>
      </g>
     </g>
    </g>
    <g id="ytick_54">
     <g id="line2d_73">
      <g>
       <use style="stroke:#000000;stroke-width:0.6;" x="153" xlink:href="#mbb60437a88" y="200.030983"/>
      </g>
     </g>
    </g>
    <g id="ytick_55">
     <g id="line2d_74">
      <g>
       <use style="stroke:#000000;stroke-width:0.6;" x="153" xlink:href="#mbb60437a88" y="196.139291"/>
      </g>
     </g>
    </g>
    <g id="ytick_56">
     <g id="line2d_75">
      <g>
       <use style="stroke:#000000;stroke-width:0.6;" x="153" xlink:href="#mbb60437a88" y="169.755641"/>
      </g>
     </g>
    </g>
    <g id="ytick_57">
     <g id="line2d_76">
      <g>
       <use style="stroke:#000000;stroke-width:0.6;" x="153" xlink:href="#mbb60437a88" y="156.358588"/>
      </g>
     </g>
    </g>
    <g id="ytick_58">
     <g id="line2d_77">
      <g>
       <use style="stroke:#000000;stroke-width:0.6;" x="153" xlink:href="#mbb60437a88" y="146.853228"/>
      </g>
     </g>
    </g>
    <g id="ytick_59">
     <g id="line2d_78">
      <g>
       <use style="stroke:#000000;stroke-width:0.6;" x="153" xlink:href="#mbb60437a88" y="139.480298"/>
      </g>
     </g>
    </g>
    <g id="ytick_60">
     <g id="line2d_79">
      <g>
       <use style="stroke:#000000;stroke-width:0.6;" x="153" xlink:href="#mbb60437a88" y="133.456176"/>
      </g>
     </g>
    </g>
    <g id="ytick_61">
     <g id="line2d_80">
      <g>
       <use style="stroke:#000000;stroke-width:0.6;" x="153" xlink:href="#mbb60437a88" y="128.362853"/>
      </g>
     </g>
    </g>
    <g id="ytick_62">
     <g id="line2d_81">
      <g>
       <use style="stroke:#000000;stroke-width:0.6;" x="153" xlink:href="#mbb60437a88" y="123.950816"/>
      </g>
     </g>
    </g>
    <g id="ytick_63">
     <g id="line2d_82">
      <g>
       <use style="stroke:#000000;stroke-width:0.6;" x="153" xlink:href="#mbb60437a88" y="120.059124"/>
      </g>
     </g>
    </g>
    <g id="ytick_64">
     <g id="line2d_83">
      <g>
       <use style="stroke:#000000;stroke-width:0.6;" x="153" xlink:href="#mbb60437a88" y="93.675474"/>
      </g>
     </g>
    </g>
    <g id="text_15">
     <!-- Mass concentration (g/m^2) -->
     <g transform="translate(115.50525 461.010375)rotate(-90)scale(0.144 -0.144)">
      <defs>
       <path d="M 628 4666 
L 1569 4666 
L 2759 1491 
L 3956 4666 
L 4897 4666 
L 4897 0 
L 4281 0 
L 4281 4097 
L 3078 897 
L 2444 897 
L 1241 4097 
L 1241 0 
L 628 0 
L 628 4666 
z
" id="DejaVuSans-4d" transform="scale(0.015625)"/>
       <path d="M 1959 3097 
Q 1497 3097 1228 2736 
Q 959 2375 959 1747 
Q 959 1119 1226 758 
Q 1494 397 1959 397 
Q 2419 397 2687 759 
Q 2956 1122 2956 1747 
Q 2956 2369 2687 2733 
Q 2419 3097 1959 3097 
z
M 1959 3584 
Q 2709 3584 3137 3096 
Q 3566 2609 3566 1747 
Q 3566 888 3137 398 
Q 2709 -91 1959 -91 
Q 1206 -91 779 398 
Q 353 888 353 1747 
Q 353 2609 779 3096 
Q 1206 3584 1959 3584 
z
" id="DejaVuSans-6f" transform="scale(0.015625)"/>
       <path d="M 2631 2963 
Q 2534 3019 2420 3045 
Q 2306 3072 2169 3072 
Q 1681 3072 1420 2755 
Q 1159 2438 1159 1844 
L 1159 0 
L 581 0 
L 581 3500 
L 1159 3500 
L 1159 2956 
Q 1341 3275 1631 3429 
Q 1922 3584 2338 3584 
Q 2397 3584 2469 3576 
Q 2541 3569 2628 3553 
L 2631 2963 
z
" id="DejaVuSans-72" transform="scale(0.015625)"/>
       <path d="M 2906 1791 
Q 2906 2416 2648 2759 
Q 2391 3103 1925 3103 
Q 1463 3103 1205 2759 
Q 947 2416 947 1791 
Q 947 1169 1205 825 
Q 1463 481 1925 481 
Q 2391 481 2648 825 
Q 2906 1169 2906 1791 
z
M 3481 434 
Q 3481 -459 3084 -895 
Q 2688 -1331 1869 -1331 
Q 1566 -1331 1297 -1286 
Q 1028 -1241 775 -1147 
L 775 -588 
Q 1028 -725 1275 -790 
Q 1522 -856 1778 -856 
Q 2344 -856 2625 -561 
Q 2906 -266 2906 331 
L 2906 616 
Q 2728 306 2450 153 
Q 2172 0 1784 0 
Q 1141 0 747 490 
Q 353 981 353 1791 
Q 353 2603 747 3093 
Q 1141 3584 1784 3584 
Q 2172 3584 2450 3431 
Q 2728 3278 2906 2969 
L 2906 3500 
L 3481 3500 
L 3481 434 
z
" id="DejaVuSans-67" transform="scale(0.015625)"/>
       <path d="M 1625 4666 
L 2156 4666 
L 531 -594 
L 0 -594 
L 1625 4666 
z
" id="DejaVuSans-2f" transform="scale(0.015625)"/>
       <path d="M 2988 4666 
L 4684 2925 
L 4056 2925 
L 2681 4159 
L 1306 2925 
L 678 2925 
L 2375 4666 
L 2988 4666 
z
" id="DejaVuSans-5e" transform="scale(0.015625)"/>
      </defs>
      <use xlink:href="#DejaVuSans-4d"/>
      <use x="86.279297" xlink:href="#DejaVuSans-61"/>
      <use x="147.558594" xlink:href="#DejaVuSans-73"/>
      <use x="199.658203" xlink:href="#DejaVuSans-73"/>
      <use x="251.757812" xlink:href="#DejaVuSans-20"/>
      <use x="283.544922" xlink:href="#DejaVuSans-63"/>
      <use x="338.525391" xlink:href="#DejaVuSans-6f"/>
      <use x="399.707031" xlink:href="#DejaVuSans-6e"/>
      <use x="463.085938" xlink:href="#DejaVuSans-63"/>
      <use x="518.066406" xlink:href="#DejaVuSans-65"/>
      <use x="579.589844" xlink:href="#DejaVuSans-6e"/>
      <use x="642.96875" xlink:href="#DejaVuSans-74"/>
      <use x="682.177734" xlink:href="#DejaVuSans-72"/>
      <use x="723.291016" xlink:href="#DejaVuSans-61"/>
      <use x="784.570312" xlink:href="#DejaVuSans-74"/>
      <use x="823.779297" xlink:href="#DejaVuSans-69"/>
      <use x="851.5625" xlink:href="#DejaVuSans-6f"/>
      <use x="912.744141" xlink:href="#DejaVuSans-6e"/>
      <use x="976.123047" xlink:href="#DejaVuSans-20"/>
      <use x="1007.910156" xlink:href="#DejaVuSans-28"/>
      <use x="1046.923828" xlink:href="#DejaVuSans-67"/>
      <use x="1110.400391" xlink:href="#DejaVuSans-2f"/>
      <use x="1144.091797" xlink:href="#DejaVuSans-6d"/>
      <use x="1241.503906" xlink:href="#DejaVuSans-5e"/>
      <use x="1325.292969" xlink:href="#DejaVuSans-32"/>
      <use x="1388.916016" xlink:href="#DejaVuSans-29"/>
     </g>
    </g>
   </g>
   <g id="line2d_84">
    <path clip-path="url(#p2e78095b8e)" d="M 196.118182 157.364997 
L 274.514876 594.160946 
L 352.91157 595.048862 
L 431.308264 596.027449 
L 509.704959 596.967709 
L 588.101653 597.935512 
L 666.498347 599.0049 
L 744.895041 600.11006 
L 823.291736 601.253468 
L 901.68843 602.518357 
L 980.085124 603.833603 
L 1058.481818 605.290909 
" style="fill:none;stroke:#1f77b4;stroke-linecap:square;stroke-width:1.5;"/>
   </g>
   <g id="line2d_85">
    <path clip-path="url(#p2e78095b8e)" d="M 196.118182 111.109091 
L 274.514876 291.246498 
L 352.91157 291.574616 
L 431.308264 291.773062 
L 509.704959 291.972708 
L 588.101653 292.106478 
L 666.498347 292.173567 
L 744.895041 292.106478 
L 823.291736 291.906025 
L 901.68843 291.508731 
L 980.085124 290.85701 
L 1058.481818 289.840278 
" style="fill:none;stroke:#ff7f0e;stroke-linecap:square;stroke-width:1.5;"/>
   </g>
   <g id="line2d_86">
    <path clip-path="url(#p2e78095b8e)" d="M 196.118182 357.65846 
L 274.514876 446.989802 
L 352.91157 448.784335 
L 431.308264 450.681959 
L 509.704959 452.695243 
L 588.101653 454.747043 
L 666.498347 457.033225 
L 744.895041 459.383357 
L 823.291736 461.913536 
L 901.68843 464.778104 
L 980.085124 467.777984 
L 1058.481818 471.228895 
" style="fill:none;stroke:#2ca02c;stroke-linecap:square;stroke-width:1.5;"/>
   </g>
   <g id="line2d_87">
    <path clip-path="url(#p2e78095b8e)" d="M 196.118182 342.275502 
L 274.514876 434.22959 
L 352.91157 435.387283 
L 431.308264 436.533938 
L 509.704959 437.721821 
L 588.101653 438.954009 
L 666.498347 440.233933 
L 744.895041 441.565444 
L 823.291736 442.888528 
L 901.68843 444.266812 
L 980.085124 445.775178 
L 1058.481818 447.282204 
" style="fill:none;stroke:#d62728;stroke-linecap:square;stroke-width:1.5;"/>
   </g>
   <g id="patch_3">
    <path d="M 153 630 
L 153 86.4 
" style="fill:none;stroke:#000000;stroke-linecap:square;stroke-linejoin:miter;stroke-width:0.8;"/>
   </g>
   <g id="patch_4">
    <path d="M 1101.6 630 
L 1101.6 86.4 
" style="fill:none;stroke:#000000;stroke-linecap:square;stroke-linejoin:miter;stroke-width:0.8;"/>
   </g>
   <g id="patch_5">
    <path d="M 153 630 
L 1101.6 630 
" style="fill:none;stroke:#000000;stroke-linecap:square;stroke-linejoin:miter;stroke-width:0.8;"/>
   </g>
   <g id="patch_6">
    <path d="M 153 86.4 
L 1101.6 86.4 
" style="fill:none;stroke:#000000;stroke-linecap:square;stroke-linejoin:miter;stroke-width:0.8;"/>
   </g>
   <g id="text_16">
    <!-- Scaling from brackish-water, via the minteq.v4 database -->
    <g transform="translate(381.60675 80.4)scale(0.1728 -0.1728)">
     <defs>
      <path d="M 3425 4513 
L 3425 3897 
Q 3066 4069 2747 4153 
Q 2428 4238 2131 4238 
Q 1616 4238 1336 4038 
Q 1056 3838 1056 3469 
Q 1056 3159 1242 3001 
Q 1428 2844 1947 2747 
L 2328 2669 
Q 3034 2534 3370 2195 
Q 3706 1856 3706 1288 
Q 3706 609 3251 259 
Q 2797 -91 1919 -91 
Q 1588 -91 1214 -16 
Q 841 59 441 206 
L 441 856 
Q 825 641 1194 531 
Q 1563 422 1919 422 
Q 2459 422 2753 634 
Q 3047 847 3047 1241 
Q 3047 1584 2836 1778 
Q 2625 1972 2144 2069 
L 1759 2144 
Q 1053 2284 737 2584 
Q 422 2884 422 3419 
Q 422 4038 858 4394 
Q 1294 4750 2059 4750 
Q 2388 4750 2728 4690 
Q 3069 4631 3425 4513 
z
" id="DejaVuSans-53" transform="scale(0.015625)"/>
      <path d="M 603 4863 
L 1178 4863 
L 1178 0 
L 603 0 
L 603 4863 
z
" id="DejaVuSans-6c" transform="scale(0.015625)"/>
      <path d="M 2375 4863 
L 2375 4384 
L 1825 4384 
Q 1516 4384 1395 4259 
Q 1275 4134 1275 3809 
L 1275 3500 
L 2222 3500 
L 2222 3053 
L 1275 3053 
L 1275 0 
L 697 0 
L 697 3053 
L 147 3053 
L 147 3500 
L 697 3500 
L 697 3744 
Q 697 4328 969 4595 
Q 1241 4863 1831 4863 
L 2375 4863 
z
" id="DejaVuSans-66" transform="scale(0.015625)"/>
      <path d="M 3116 1747 
Q 3116 2381 2855 2742 
Q 2594 3103 2138 3103 
Q 1681 3103 1420 2742 
Q 1159 2381 1159 1747 
Q 1159 1113 1420 752 
Q 1681 391 2138 391 
Q 2594 391 2855 752 
Q 3116 1113 3116 1747 
z
M 1159 2969 
Q 1341 3281 1617 3432 
Q 1894 3584 2278 3584 
Q 2916 3584 3314 3078 
Q 3713 2572 3713 1747 
Q 3713 922 3314 415 
Q 2916 -91 2278 -91 
Q 1894 -91 1617 61 
Q 1341 213 1159 525 
L 1159 0 
L 581 0 
L 581 4863 
L 1159 4863 
L 1159 2969 
z
" id="DejaVuSans-62" transform="scale(0.015625)"/>
      <path d="M 581 4863 
L 1159 4863 
L 1159 1991 
L 2875 3500 
L 3609 3500 
L 1753 1863 
L 3688 0 
L 2938 0 
L 1159 1709 
L 1159 0 
L 581 0 
L 581 4863 
z
" id="DejaVuSans-6b" transform="scale(0.015625)"/>
      <path d="M 3513 2113 
L 3513 0 
L 2938 0 
L 2938 2094 
Q 2938 2591 2744 2837 
Q 2550 3084 2163 3084 
Q 1697 3084 1428 2787 
Q 1159 2491 1159 1978 
L 1159 0 
L 581 0 
L 581 4863 
L 1159 4863 
L 1159 2956 
Q 1366 3272 1645 3428 
Q 1925 3584 2291 3584 
Q 2894 3584 3203 3211 
Q 3513 2838 3513 2113 
z
" id="DejaVuSans-68" transform="scale(0.015625)"/>
      <path d="M 313 2009 
L 1997 2009 
L 1997 1497 
L 313 1497 
L 313 2009 
z
" id="DejaVuSans-2d" transform="scale(0.015625)"/>
      <path d="M 269 3500 
L 844 3500 
L 1563 769 
L 2278 3500 
L 2956 3500 
L 3675 769 
L 4391 3500 
L 4966 3500 
L 4050 0 
L 3372 0 
L 2619 2869 
L 1863 0 
L 1184 0 
L 269 3500 
z
" id="DejaVuSans-77" transform="scale(0.015625)"/>
      <path d="M 750 794 
L 1409 794 
L 1409 256 
L 897 -744 
L 494 -744 
L 750 256 
L 750 794 
z
" id="DejaVuSans-2c" transform="scale(0.015625)"/>
      <path d="M 191 3500 
L 800 3500 
L 1894 563 
L 2988 3500 
L 3597 3500 
L 2284 0 
L 1503 0 
L 191 3500 
z
" id="DejaVuSans-76" transform="scale(0.015625)"/>
      <path d="M 947 1747 
Q 947 1113 1208 752 
Q 1469 391 1925 391 
Q 2381 391 2643 752 
Q 2906 1113 2906 1747 
Q 2906 2381 2643 2742 
Q 2381 3103 1925 3103 
Q 1469 3103 1208 2742 
Q 947 2381 947 1747 
z
M 2906 525 
Q 2725 213 2448 61 
Q 2172 -91 1784 -91 
Q 1150 -91 751 415 
Q 353 922 353 1747 
Q 353 2572 751 3078 
Q 1150 3584 1784 3584 
Q 2172 3584 2448 3432 
Q 2725 3281 2906 2969 
L 2906 3500 
L 3481 3500 
L 3481 -1331 
L 2906 -1331 
L 2906 525 
z
" id="DejaVuSans-71" transform="scale(0.015625)"/>
      <path d="M 2906 2969 
L 2906 4863 
L 3481 4863 
L 3481 0 
L 2906 0 
L 2906 525 
Q 2725 213 2448 61 
Q 2172 -91 1784 -91 
Q 1150 -91 751 415 
Q 353 922 353 1747 
Q 353 2572 751 3078 
Q 1150 3584 1784 3584 
Q 2172 3584 2448 3432 
Q 2725 3281 2906 2969 
z
M 947 1747 
Q 947 1113 1208 752 
Q 1469 391 1925 391 
Q 2381 391 2643 752 
Q 2906 1113 2906 1747 
Q 2906 2381 2643 2742 
Q 2381 3103 1925 3103 
Q 1469 3103 1208 2742 
Q 947 2381 947 1747 
z
" id="DejaVuSans-64" transform="scale(0.015625)"/>
     </defs>
     <use xlink:href="#DejaVuSans-53"/>
     <use x="63.476562" xlink:href="#DejaVuSans-63"/>
     <use x="118.457031" xlink:href="#DejaVuSans-61"/>
     <use x="179.736328" xlink:href="#DejaVuSans-6c"/>
     <use x="207.519531" xlink:href="#DejaVuSans-69"/>
     <use x="235.302734" xlink:href="#DejaVuSans-6e"/>
     <use x="298.681641" xlink:href="#DejaVuSans-67"/>
     <use x="362.158203" xlink:href="#DejaVuSans-20"/>
     <use x="393.945312" xlink:href="#DejaVuSans-66"/>
     <use x="429.150391" xlink:href="#DejaVuSans-72"/>
     <use x="468.013672" xlink:href="#DejaVuSans-6f"/>
     <use x="529.195312" xlink:href="#DejaVuSans-6d"/>
     <use x="626.607422" xlink:href="#DejaVuSans-20"/>
     <use x="658.394531" xlink:href="#DejaVuSans-62"/>
     <use x="721.871094" xlink:href="#DejaVuSans-72"/>
     <use x="762.984375" xlink:href="#DejaVuSans-61"/>
     <use x="824.263672" xlink:href="#DejaVuSans-63"/>
     <use x="879.244141" xlink:href="#DejaVuSans-6b"/>
     <use x="937.154297" xlink:href="#DejaVuSans-69"/>
     <use x="964.9375" xlink:href="#DejaVuSans-73"/>
     <use x="1017.037109" xlink:href="#DejaVuSans-68"/>
     <use x="1080.416016" xlink:href="#DejaVuSans-2d"/>
     <use x="1116.5" xlink:href="#DejaVuSans-77"/>
     <use x="1198.287109" xlink:href="#DejaVuSans-61"/>
     <use x="1259.566406" xlink:href="#DejaVuSans-74"/>
     <use x="1298.775391" xlink:href="#DejaVuSans-65"/>
     <use x="1360.298828" xlink:href="#DejaVuSans-72"/>
     <use x="1401.412109" xlink:href="#DejaVuSans-2c"/>
     <use x="1433.199219" xlink:href="#DejaVuSans-20"/>
     <use x="1464.986328" xlink:href="#DejaVuSans-76"/>
     <use x="1524.166016" xlink:href="#DejaVuSans-69"/>
     <use x="1551.949219" xlink:href="#DejaVuSans-61"/>
     <use x="1613.228516" xlink:href="#DejaVuSans-20"/>
     <use x="1645.015625" xlink:href="#DejaVuSans-74"/>
     <use x="1684.224609" xlink:href="#DejaVuSans-68"/>
     <use x="1747.603516" xlink:href="#DejaVuSans-65"/>
     <use x="1809.126953" xlink:href="#DejaVuSans-20"/>
     <use x="1840.914062" xlink:href="#DejaVuSans-6d"/>
     <use x="1938.326172" xlink:href="#DejaVuSans-69"/>
     <use x="1966.109375" xlink:href="#DejaVuSans-6e"/>
     <use x="2029.488281" xlink:href="#DejaVuSans-74"/>
     <use x="2068.697266" xlink:href="#DejaVuSans-65"/>
     <use x="2130.220703" xlink:href="#DejaVuSans-71"/>
     <use x="2193.697266" xlink:href="#DejaVuSans-2e"/>
     <use x="2225.484375" xlink:href="#DejaVuSans-76"/>
     <use x="2284.664062" xlink:href="#DejaVuSans-34"/>
     <use x="2348.287109" xlink:href="#DejaVuSans-20"/>
     <use x="2380.074219" xlink:href="#DejaVuSans-64"/>
     <use x="2443.550781" xlink:href="#DejaVuSans-61"/>
     <use x="2504.830078" xlink:href="#DejaVuSans-74"/>
     <use x="2544.039062" xlink:href="#DejaVuSans-61"/>
     <use x="2605.318359" xlink:href="#DejaVuSans-62"/>
     <use x="2668.794922" xlink:href="#DejaVuSans-61"/>
     <use x="2730.074219" xlink:href="#DejaVuSans-73"/>
     <use x="2782.173828" xlink:href="#DejaVuSans-65"/>
    </g>
   </g>
   <g id="legend_1">
    <g id="patch_7">
     <path d="M 909.70125 186.3915 
L 1093.2 186.3915 
Q 1095.6 186.3915 1095.6 183.9915 
L 1095.6 94.8 
Q 1095.6 92.4 1093.2 92.4 
L 909.70125 92.4 
Q 907.30125 92.4 907.30125 94.8 
L 907.30125 183.9915 
Q 907.30125 186.3915 909.70125 186.3915 
z
" style="fill:#ffffff;opacity:0.8;stroke:#cccccc;stroke-linejoin:miter;"/>
    </g>
    <g id="text_17">
     <!-- scale -->
     <g transform="translate(982.89825 108.14175)scale(0.144 -0.144)">
      <use xlink:href="#DejaVuSans-73"/>
      <use x="52.099609" xlink:href="#DejaVuSans-63"/>
      <use x="107.080078" xlink:href="#DejaVuSans-61"/>
      <use x="168.359375" xlink:href="#DejaVuSans-6c"/>
      <use x="196.142578" xlink:href="#DejaVuSans-65"/>
     </g>
    </g>
    <g id="line2d_88">
     <path d="M 912.10125 122.054625 
L 936.10125 122.054625 
" style="fill:none;stroke:#1f77b4;stroke-linecap:square;stroke-width:1.5;"/>
    </g>
    <g id="line2d_89"/>
    <g id="text_18">
     <!-- Ferrihydrite [Fe(OH)3] -->
     <g transform="translate(945.70125 126.254625)scale(0.12 -0.12)">
      <defs>
       <path d="M 628 4666 
L 3309 4666 
L 3309 4134 
L 1259 4134 
L 1259 2759 
L 3109 2759 
L 3109 2228 
L 1259 2228 
L 1259 0 
L 628 0 
L 628 4666 
z
" id="DejaVuSans-46" transform="scale(0.015625)"/>
       <path d="M 2059 -325 
Q 1816 -950 1584 -1140 
Q 1353 -1331 966 -1331 
L 506 -1331 
L 506 -850 
L 844 -850 
Q 1081 -850 1212 -737 
Q 1344 -625 1503 -206 
L 1606 56 
L 191 3500 
L 800 3500 
L 1894 763 
L 2988 3500 
L 3597 3500 
L 2059 -325 
z
" id="DejaVuSans-79" transform="scale(0.015625)"/>
       <path d="M 550 4863 
L 1875 4863 
L 1875 4416 
L 1125 4416 
L 1125 -397 
L 1875 -397 
L 1875 -844 
L 550 -844 
L 550 4863 
z
" id="DejaVuSans-5b" transform="scale(0.015625)"/>
       <path d="M 2522 4238 
Q 1834 4238 1429 3725 
Q 1025 3213 1025 2328 
Q 1025 1447 1429 934 
Q 1834 422 2522 422 
Q 3209 422 3611 934 
Q 4013 1447 4013 2328 
Q 4013 3213 3611 3725 
Q 3209 4238 2522 4238 
z
M 2522 4750 
Q 3503 4750 4090 4092 
Q 4678 3434 4678 2328 
Q 4678 1225 4090 567 
Q 3503 -91 2522 -91 
Q 1538 -91 948 565 
Q 359 1222 359 2328 
Q 359 3434 948 4092 
Q 1538 4750 2522 4750 
z
" id="DejaVuSans-4f" transform="scale(0.015625)"/>
       <path d="M 628 4666 
L 1259 4666 
L 1259 2753 
L 3553 2753 
L 3553 4666 
L 4184 4666 
L 4184 0 
L 3553 0 
L 3553 2222 
L 1259 2222 
L 1259 0 
L 628 0 
L 628 4666 
z
" id="DejaVuSans-48" transform="scale(0.015625)"/>
       <path d="M 1947 4863 
L 1947 -844 
L 622 -844 
L 622 -397 
L 1369 -397 
L 1369 4416 
L 622 4416 
L 622 4863 
L 1947 4863 
z
" id="DejaVuSans-5d" transform="scale(0.015625)"/>
      </defs>
      <use xlink:href="#DejaVuSans-46"/>
      <use x="52.019531" xlink:href="#DejaVuSans-65"/>
      <use x="113.542969" xlink:href="#DejaVuSans-72"/>
      <use x="152.90625" xlink:href="#DejaVuSans-72"/>
      <use x="194.019531" xlink:href="#DejaVuSans-69"/>
      <use x="221.802734" xlink:href="#DejaVuSans-68"/>
      <use x="285.181641" xlink:href="#DejaVuSans-79"/>
      <use x="344.361328" xlink:href="#DejaVuSans-64"/>
      <use x="407.837891" xlink:href="#DejaVuSans-72"/>
      <use x="448.951172" xlink:href="#DejaVuSans-69"/>
      <use x="476.734375" xlink:href="#DejaVuSans-74"/>
      <use x="515.943359" xlink:href="#DejaVuSans-65"/>
      <use x="577.466797" xlink:href="#DejaVuSans-20"/>
      <use x="609.253906" xlink:href="#DejaVuSans-5b"/>
      <use x="648.267578" xlink:href="#DejaVuSans-46"/>
      <use x="700.287109" xlink:href="#DejaVuSans-65"/>
      <use x="761.810547" xlink:href="#DejaVuSans-28"/>
      <use x="800.824219" xlink:href="#DejaVuSans-4f"/>
      <use x="879.535156" xlink:href="#DejaVuSans-48"/>
      <use x="954.730469" xlink:href="#DejaVuSans-29"/>
      <use x="993.744141" xlink:href="#DejaVuSans-33"/>
      <use x="1057.367188" xlink:href="#DejaVuSans-5d"/>
     </g>
    </g>
    <g id="line2d_90">
     <path d="M 912.10125 139.668375 
L 936.10125 139.668375 
" style="fill:none;stroke:#ff7f0e;stroke-linecap:square;stroke-width:1.5;"/>
    </g>
    <g id="line2d_91"/>
    <g id="text_19">
     <!-- Brucite [Mg(OH)2] -->
     <g transform="translate(945.70125 143.868375)scale(0.12 -0.12)">
      <defs>
       <path d="M 1259 2228 
L 1259 519 
L 2272 519 
Q 2781 519 3026 730 
Q 3272 941 3272 1375 
Q 3272 1813 3026 2020 
Q 2781 2228 2272 2228 
L 1259 2228 
z
M 1259 4147 
L 1259 2741 
L 2194 2741 
Q 2656 2741 2882 2914 
Q 3109 3088 3109 3444 
Q 3109 3797 2882 3972 
Q 2656 4147 2194 4147 
L 1259 4147 
z
M 628 4666 
L 2241 4666 
Q 2963 4666 3353 4366 
Q 3744 4066 3744 3513 
Q 3744 3084 3544 2831 
Q 3344 2578 2956 2516 
Q 3422 2416 3680 2098 
Q 3938 1781 3938 1306 
Q 3938 681 3513 340 
Q 3088 0 2303 0 
L 628 0 
L 628 4666 
z
" id="DejaVuSans-42" transform="scale(0.015625)"/>
       <path d="M 544 1381 
L 544 3500 
L 1119 3500 
L 1119 1403 
Q 1119 906 1312 657 
Q 1506 409 1894 409 
Q 2359 409 2629 706 
Q 2900 1003 2900 1516 
L 2900 3500 
L 3475 3500 
L 3475 0 
L 2900 0 
L 2900 538 
Q 2691 219 2414 64 
Q 2138 -91 1772 -91 
Q 1169 -91 856 284 
Q 544 659 544 1381 
z
M 1991 3584 
L 1991 3584 
z
" id="DejaVuSans-75" transform="scale(0.015625)"/>
      </defs>
      <use xlink:href="#DejaVuSans-42"/>
      <use x="68.603516" xlink:href="#DejaVuSans-72"/>
      <use x="109.716797" xlink:href="#DejaVuSans-75"/>
      <use x="173.095703" xlink:href="#DejaVuSans-63"/>
      <use x="228.076172" xlink:href="#DejaVuSans-69"/>
      <use x="255.859375" xlink:href="#DejaVuSans-74"/>
      <use x="295.068359" xlink:href="#DejaVuSans-65"/>
      <use x="356.591797" xlink:href="#DejaVuSans-20"/>
      <use x="388.378906" xlink:href="#DejaVuSans-5b"/>
      <use x="427.392578" xlink:href="#DejaVuSans-4d"/>
      <use x="513.671875" xlink:href="#DejaVuSans-67"/>
      <use x="577.148438" xlink:href="#DejaVuSans-28"/>
      <use x="616.162109" xlink:href="#DejaVuSans-4f"/>
      <use x="694.873047" xlink:href="#DejaVuSans-48"/>
      <use x="770.068359" xlink:href="#DejaVuSans-29"/>
      <use x="809.082031" xlink:href="#DejaVuSans-32"/>
      <use x="872.705078" xlink:href="#DejaVuSans-5d"/>
     </g>
    </g>
    <g id="line2d_92">
     <path d="M 912.10125 157.282125 
L 936.10125 157.282125 
" style="fill:none;stroke:#2ca02c;stroke-linecap:square;stroke-width:1.5;"/>
    </g>
    <g id="line2d_93"/>
    <g id="text_20">
     <!-- Atacamite [Cu2(OH)3Cl] -->
     <g transform="translate(945.70125 161.482125)scale(0.12 -0.12)">
      <defs>
       <path d="M 2188 4044 
L 1331 1722 
L 3047 1722 
L 2188 4044 
z
M 1831 4666 
L 2547 4666 
L 4325 0 
L 3669 0 
L 3244 1197 
L 1141 1197 
L 716 0 
L 50 0 
L 1831 4666 
z
" id="DejaVuSans-41" transform="scale(0.015625)"/>
       <path d="M 4122 4306 
L 4122 3641 
Q 3803 3938 3442 4084 
Q 3081 4231 2675 4231 
Q 1875 4231 1450 3742 
Q 1025 3253 1025 2328 
Q 1025 1406 1450 917 
Q 1875 428 2675 428 
Q 3081 428 3442 575 
Q 3803 722 4122 1019 
L 4122 359 
Q 3791 134 3420 21 
Q 3050 -91 2638 -91 
Q 1578 -91 968 557 
Q 359 1206 359 2328 
Q 359 3453 968 4101 
Q 1578 4750 2638 4750 
Q 3056 4750 3426 4639 
Q 3797 4528 4122 4306 
z
" id="DejaVuSans-43" transform="scale(0.015625)"/>
      </defs>
      <use xlink:href="#DejaVuSans-41"/>
      <use x="66.658203" xlink:href="#DejaVuSans-74"/>
      <use x="105.867188" xlink:href="#DejaVuSans-61"/>
      <use x="167.146484" xlink:href="#DejaVuSans-63"/>
      <use x="222.126953" xlink:href="#DejaVuSans-61"/>
      <use x="283.40625" xlink:href="#DejaVuSans-6d"/>
      <use x="380.818359" xlink:href="#DejaVuSans-69"/>
      <use x="408.601562" xlink:href="#DejaVuSans-74"/>
      <use x="447.810547" xlink:href="#DejaVuSans-65"/>
      <use x="509.333984" xlink:href="#DejaVuSans-20"/>
      <use x="541.121094" xlink:href="#DejaVuSans-5b"/>
      <use x="580.134766" xlink:href="#DejaVuSans-43"/>
      <use x="649.958984" xlink:href="#DejaVuSans-75"/>
      <use x="713.337891" xlink:href="#DejaVuSans-32"/>
      <use x="776.960938" xlink:href="#DejaVuSans-28"/>
      <use x="815.974609" xlink:href="#DejaVuSans-4f"/>
      <use x="894.685547" xlink:href="#DejaVuSans-48"/>
      <use x="969.880859" xlink:href="#DejaVuSans-29"/>
      <use x="1008.894531" xlink:href="#DejaVuSans-33"/>
      <use x="1072.517578" xlink:href="#DejaVuSans-43"/>
      <use x="1142.341797" xlink:href="#DejaVuSans-6c"/>
      <use x="1170.125" xlink:href="#DejaVuSans-5d"/>
     </g>
    </g>
    <g id="line2d_94">
     <path d="M 912.10125 174.895875 
L 936.10125 174.895875 
" style="fill:none;stroke:#d62728;stroke-linecap:square;stroke-width:1.5;"/>
    </g>
    <g id="line2d_95"/>
    <g id="text_21">
     <!-- Barite [BaSO4] -->
     <g transform="translate(945.70125 179.095875)scale(0.12 -0.12)">
      <use xlink:href="#DejaVuSans-42"/>
      <use x="68.603516" xlink:href="#DejaVuSans-61"/>
      <use x="129.882812" xlink:href="#DejaVuSans-72"/>
      <use x="170.996094" xlink:href="#DejaVuSans-69"/>
      <use x="198.779297" xlink:href="#DejaVuSans-74"/>
      <use x="237.988281" xlink:href="#DejaVuSans-65"/>
      <use x="299.511719" xlink:href="#DejaVuSans-20"/>
      <use x="331.298828" xlink:href="#DejaVuSans-5b"/>
      <use x="370.3125" xlink:href="#DejaVuSans-42"/>
      <use x="438.916016" xlink:href="#DejaVuSans-61"/>
      <use x="500.195312" xlink:href="#DejaVuSans-53"/>
      <use x="563.671875" xlink:href="#DejaVuSans-4f"/>
      <use x="642.382812" xlink:href="#DejaVuSans-34"/>
      <use x="706.005859" xlink:href="#DejaVuSans-5d"/>
     </g>
    </g>
   </g>
  </g>
  <g id="text_22">
   <!-- Final CF: 3.03 -->
   <g transform="translate(244.8 669.6)scale(0.12 -0.12)">
    <defs>
     <path d="M 750 794 
L 1409 794 
L 1409 0 
L 750 0 
L 750 794 
z
M 750 3309 
L 1409 3309 
L 1409 2516 
L 750 2516 
L 750 3309 
z
" id="DejaVuSans-3a" transform="scale(0.015625)"/>
    </defs>
    <use xlink:href="#DejaVuSans-46"/>
    <use x="50.269531" xlink:href="#DejaVuSans-69"/>
    <use x="78.052734" xlink:href="#DejaVuSans-6e"/>
    <use x="141.431641" xlink:href="#DejaVuSans-61"/>
    <use x="202.710938" xlink:href="#DejaVuSans-6c"/>
    <use x="230.494141" xlink:href="#DejaVuSans-20"/>
    <use x="262.28125" xlink:href="#DejaVuSans-43"/>
    <use x="332.105469" xlink:href="#DejaVuSans-46"/>
    <use x="381.875" xlink:href="#DejaVuSans-3a"/>
    <use x="415.566406" xlink:href="#DejaVuSans-20"/>
    <use x="447.353516" xlink:href="#DejaVuSans-33"/>
    <use x="510.976562" xlink:href="#DejaVuSans-2e"/>
    <use x="542.763672" xlink:href="#DejaVuSans-30"/>
    <use x="606.386719" xlink:href="#DejaVuSans-33"/>
   </g>
  </g>
 </g>
 <defs>
  <clipPath id="p2e78095b8e">
   <rect height="543.6" width="948.6" x="153" y="86.4"/>
  </clipPath>
 </defs>
</svg>
