<?xml version="1.0" encoding="utf-8" standalone="no"?>
<!DOCTYPE svg PUBLIC "-//W3C//DTD SVG 1.1//EN"
  "http://www.w3.org/Graphics/SVG/1.1/DTD/svg11.dtd">
<!-- Created with matplotlib (https://matplotlib.org/) -->
<svg height="720pt" version="1.1" viewBox="0 0 1224 720" width="1224pt" xmlns="http://www.w3.org/2000/svg" xmlns:xlink="http://www.w3.org/1999/xlink">
 <metadata>
  <rdf:RDF xmlns:cc="http://creativecommons.org/ns#" xmlns:dc="http://purl.org/dc/elements/1.1/" xmlns:rdf="http://www.w3.org/1999/02/22-rdf-syntax-ns#">
   <cc:Work>
    <dc:type rdf:resource="http://purl.org/dc/dcmitype/StillImage"/>
    <dc:date>2021-10-12T20:20:00.364450</dc:date>
    <dc:format>image/svg+xml</dc:format>
    <dc:creator>
     <cc:Agent>
      <dc:title>Matplotlib v3.3.4, https://matplotlib.org/</dc:title>
     </cc:Agent>
    </dc:creator>
   </cc:Work>
  </rdf:RDF>
 </metadata>
 <defs>
  <style type="text/css">*{stroke-linecap:butt;stroke-linejoin:round;}</style>
 </defs>
 <g id="figure_1">
  <g id="patch_1">
   <path d="M 0 720 
L 1224 720 
L 1224 0 
L 0 0 
z
" style="fill:none;"/>
  </g>
  <g id="axes_1">
   <g id="patch_2">
    <path d="M 153 630 
L 1101.6 630 
L 1101.6 86.4 
L 153 86.4 
z
" style="fill:#ffffff;"/>
   </g>
   <g id="matplotlib.axis_1">
    <g id="xtick_1">
     <g id="line2d_1">
      <path clip-path="url(#pdeae90707e)" d="M 196.118182 630 
L 196.118182 86.4 
" style="fill:none;stroke:#b0b0b0;stroke-linecap:square;stroke-width:0.8;"/>
     </g>
     <g id="line2d_2">
      <defs>
       <path d="M 0 0 
L 0 3.5 
" id="maecfa1d016" style="stroke:#000000;stroke-width:0.8;"/>
      </defs>
      <g>
       <use style="stroke:#000000;stroke-width:0.8;" x="196.118182" xlink:href="#maecfa1d016" y="630"/>
      </g>
     </g>
     <g id="text_1">
      <!-- 17.93 -->
      <g transform="translate(181.804119 644.598438)scale(0.1 -0.1)">
       <defs>
        <path d="M 12.40625 8.296875 
L 28.515625 8.296875 
L 28.515625 63.921875 
L 10.984375 60.40625 
L 10.984375 69.390625 
L 28.421875 72.90625 
L 38.28125 72.90625 
L 38.28125 8.296875 
L 54.390625 8.296875 
L 54.390625 0 
L 12.40625 0 
z
" id="DejaVuSans-49"/>
        <path d="M 8.203125 72.90625 
L 55.078125 72.90625 
L 55.078125 68.703125 
L 28.609375 0 
L 18.3125 0 
L 43.21875 64.59375 
L 8.203125 64.59375 
z
" id="DejaVuSans-55"/>
        <path d="M 10.6875 12.40625 
L 21 12.40625 
L 21 0 
L 10.6875 0 
z
" id="DejaVuSans-46"/>
        <path d="M 10.984375 1.515625 
L 10.984375 10.5 
Q 14.703125 8.734375 18.5 7.8125 
Q 22.3125 6.890625 25.984375 6.890625 
Q 35.75 6.890625 40.890625 13.453125 
Q 46.046875 20.015625 46.78125 33.40625 
Q 43.953125 29.203125 39.59375 26.953125 
Q 35.25 24.703125 29.984375 24.703125 
Q 19.046875 24.703125 12.671875 31.3125 
Q 6.296875 37.9375 6.296875 49.421875 
Q 6.296875 60.640625 12.9375 67.421875 
Q 19.578125 74.21875 30.609375 74.21875 
Q 43.265625 74.21875 49.921875 64.515625 
Q 56.59375 54.828125 56.59375 36.375 
Q 56.59375 19.140625 48.40625 8.859375 
Q 40.234375 -1.421875 26.421875 -1.421875 
Q 22.703125 -1.421875 18.890625 -0.6875 
Q 15.09375 0.046875 10.984375 1.515625 
z
M 30.609375 32.421875 
Q 37.25 32.421875 41.125 36.953125 
Q 45.015625 41.5 45.015625 49.421875 
Q 45.015625 57.28125 41.125 61.84375 
Q 37.25 66.40625 30.609375 66.40625 
Q 23.96875 66.40625 20.09375 61.84375 
Q 16.21875 57.28125 16.21875 49.421875 
Q 16.21875 41.5 20.09375 36.953125 
Q 23.96875 32.421875 30.609375 32.421875 
z
" id="DejaVuSans-57"/>
        <path d="M 40.578125 39.3125 
Q 47.65625 37.796875 51.625 33 
Q 55.609375 28.21875 55.609375 21.1875 
Q 55.609375 10.40625 48.1875 4.484375 
Q 40.765625 -1.421875 27.09375 -1.421875 
Q 22.515625 -1.421875 17.65625 -0.515625 
Q 12.796875 0.390625 7.625 2.203125 
L 7.625 11.71875 
Q 11.71875 9.328125 16.59375 8.109375 
Q 21.484375 6.890625 26.8125 6.890625 
Q 36.078125 6.890625 40.9375 10.546875 
Q 45.796875 14.203125 45.796875 21.1875 
Q 45.796875 27.640625 41.28125 31.265625 
Q 36.765625 34.90625 28.71875 34.90625 
L 20.21875 34.90625 
L 20.21875 43.015625 
L 29.109375 43.015625 
Q 36.375 43.015625 40.234375 45.921875 
Q 44.09375 48.828125 44.09375 54.296875 
Q 44.09375 59.90625 40.109375 62.90625 
Q 36.140625 65.921875 28.71875 65.921875 
Q 24.65625 65.921875 20.015625 65.03125 
Q 15.375 64.15625 9.8125 62.3125 
L 9.8125 71.09375 
Q 15.4375 72.65625 20.34375 73.4375 
Q 25.25 74.21875 29.59375 74.21875 
Q 40.828125 74.21875 47.359375 69.109375 
Q 53.90625 64.015625 53.90625 55.328125 
Q 53.90625 49.265625 50.4375 45.09375 
Q 46.96875 40.921875 40.578125 39.3125 
z
" id="DejaVuSans-51"/>
       </defs>
       <use xlink:href="#DejaVuSans-49"/>
       <use x="63.623047" xlink:href="#DejaVuSans-55"/>
       <use x="127.246094" xlink:href="#DejaVuSans-46"/>
       <use x="159.033203" xlink:href="#DejaVuSans-57"/>
       <use x="222.65625" xlink:href="#DejaVuSans-51"/>
      </g>
     </g>
    </g>
    <g id="xtick_2">
     <g id="line2d_3">
      <path clip-path="url(#pdeae90707e)" d="M 354.015749 630 
L 354.015749 86.4 
" style="fill:none;stroke:#b0b0b0;stroke-linecap:square;stroke-width:0.8;"/>
     </g>
     <g id="line2d_4">
      <g>
       <use style="stroke:#000000;stroke-width:0.8;" x="354.015749" xlink:href="#maecfa1d016" y="630"/>
      </g>
     </g>
     <g id="text_2">
      <!-- 28.52 -->
      <g transform="translate(339.701687 644.598438)scale(0.1 -0.1)">
       <defs>
        <path d="M 19.1875 8.296875 
L 53.609375 8.296875 
L 53.609375 0 
L 7.328125 0 
L 7.328125 8.296875 
Q 12.9375 14.109375 22.625 23.890625 
Q 32.328125 33.6875 34.8125 36.53125 
Q 39.546875 41.84375 41.421875 45.53125 
Q 43.3125 49.21875 43.3125 52.78125 
Q 43.3125 58.59375 39.234375 62.25 
Q 35.15625 65.921875 28.609375 65.921875 
Q 23.96875 65.921875 18.8125 64.3125 
Q 13.671875 62.703125 7.8125 59.421875 
L 7.8125 69.390625 
Q 13.765625 71.78125 18.9375 73 
Q 24.125 74.21875 28.421875 74.21875 
Q 39.75 74.21875 46.484375 68.546875 
Q 53.21875 62.890625 53.21875 53.421875 
Q 53.21875 48.921875 51.53125 44.890625 
Q 49.859375 40.875 45.40625 35.40625 
Q 44.1875 33.984375 37.640625 27.21875 
Q 31.109375 20.453125 19.1875 8.296875 
z
" id="DejaVuSans-50"/>
        <path d="M 31.78125 34.625 
Q 24.75 34.625 20.71875 30.859375 
Q 16.703125 27.09375 16.703125 20.515625 
Q 16.703125 13.921875 20.71875 10.15625 
Q 24.75 6.390625 31.78125 6.390625 
Q 38.8125 6.390625 42.859375 10.171875 
Q 46.921875 13.96875 46.921875 20.515625 
Q 46.921875 27.09375 42.890625 30.859375 
Q 38.875 34.625 31.78125 34.625 
z
M 21.921875 38.8125 
Q 15.578125 40.375 12.03125 44.71875 
Q 8.5 49.078125 8.5 55.328125 
Q 8.5 64.0625 14.71875 69.140625 
Q 20.953125 74.21875 31.78125 74.21875 
Q 42.671875 74.21875 48.875 69.140625 
Q 55.078125 64.0625 55.078125 55.328125 
Q 55.078125 49.078125 51.53125 44.71875 
Q 48 40.375 41.703125 38.8125 
Q 48.828125 37.15625 52.796875 32.3125 
Q 56.78125 27.484375 56.78125 20.515625 
Q 56.78125 9.90625 50.3125 4.234375 
Q 43.84375 -1.421875 31.78125 -1.421875 
Q 19.734375 -1.421875 13.25 4.234375 
Q 6.78125 9.90625 6.78125 20.515625 
Q 6.78125 27.484375 10.78125 32.3125 
Q 14.796875 37.15625 21.921875 38.8125 
z
M 18.3125 54.390625 
Q 18.3125 48.734375 21.84375 45.5625 
Q 25.390625 42.390625 31.78125 42.390625 
Q 38.140625 42.390625 41.71875 45.5625 
Q 45.3125 48.734375 45.3125 54.390625 
Q 45.3125 60.0625 41.71875 63.234375 
Q 38.140625 66.40625 31.78125 66.40625 
Q 25.390625 66.40625 21.84375 63.234375 
Q 18.3125 60.0625 18.3125 54.390625 
z
" id="DejaVuSans-56"/>
        <path d="M 10.796875 72.90625 
L 49.515625 72.90625 
L 49.515625 64.59375 
L 19.828125 64.59375 
L 19.828125 46.734375 
Q 21.96875 47.46875 24.109375 47.828125 
Q 26.265625 48.1875 28.421875 48.1875 
Q 40.625 48.1875 47.75 41.5 
Q 54.890625 34.8125 54.890625 23.390625 
Q 54.890625 11.625 47.5625 5.09375 
Q 40.234375 -1.421875 26.90625 -1.421875 
Q 22.3125 -1.421875 17.546875 -0.640625 
Q 12.796875 0.140625 7.71875 1.703125 
L 7.71875 11.625 
Q 12.109375 9.234375 16.796875 8.0625 
Q 21.484375 6.890625 26.703125 6.890625 
Q 35.15625 6.890625 40.078125 11.328125 
Q 45.015625 15.765625 45.015625 23.390625 
Q 45.015625 31 40.078125 35.4375 
Q 35.15625 39.890625 26.703125 39.890625 
Q 22.75 39.890625 18.8125 39.015625 
Q 14.890625 38.140625 10.796875 36.28125 
z
" id="DejaVuSans-53"/>
       </defs>
       <use xlink:href="#DejaVuSans-50"/>
       <use x="63.623047" xlink:href="#DejaVuSans-56"/>
       <use x="127.246094" xlink:href="#DejaVuSans-46"/>
       <use x="159.033203" xlink:href="#DejaVuSans-53"/>
       <use x="222.65625" xlink:href="#DejaVuSans-50"/>
      </g>
     </g>
    </g>
    <g id="xtick_3">
     <g id="line2d_5">
      <path clip-path="url(#pdeae90707e)" d="M 511.913316 630 
L 511.913316 86.4 
" style="fill:none;stroke:#b0b0b0;stroke-linecap:square;stroke-width:0.8;"/>
     </g>
     <g id="line2d_6">
      <g>
       <use style="stroke:#000000;stroke-width:0.8;" x="511.913316" xlink:href="#maecfa1d016" y="630"/>
      </g>
     </g>
     <g id="text_3">
      <!-- 39.11 -->
      <g transform="translate(497.599254 644.598438)scale(0.1 -0.1)">
       <use xlink:href="#DejaVuSans-51"/>
       <use x="63.623047" xlink:href="#DejaVuSans-57"/>
       <use x="127.246094" xlink:href="#DejaVuSans-46"/>
       <use x="159.033203" xlink:href="#DejaVuSans-49"/>
       <use x="222.65625" xlink:href="#DejaVuSans-49"/>
      </g>
     </g>
    </g>
    <g id="xtick_4">
     <g id="line2d_7">
      <path clip-path="url(#pdeae90707e)" d="M 657.664917 630 
L 657.664917 86.4 
" style="fill:none;stroke:#b0b0b0;stroke-linecap:square;stroke-width:0.8;"/>
     </g>
     <g id="line2d_8">
      <g>
       <use style="stroke:#000000;stroke-width:0.8;" x="657.664917" xlink:href="#maecfa1d016" y="630"/>
      </g>
     </g>
     <g id="text_4">
      <!-- 48.89 -->
      <g transform="translate(643.350854 644.598438)scale(0.1 -0.1)">
       <defs>
        <path d="M 37.796875 64.3125 
L 12.890625 25.390625 
L 37.796875 25.390625 
z
M 35.203125 72.90625 
L 47.609375 72.90625 
L 47.609375 25.390625 
L 58.015625 25.390625 
L 58.015625 17.1875 
L 47.609375 17.1875 
L 47.609375 0 
L 37.796875 0 
L 37.796875 17.1875 
L 4.890625 17.1875 
L 4.890625 26.703125 
z
" id="DejaVuSans-52"/>
       </defs>
       <use xlink:href="#DejaVuSans-52"/>
       <use x="63.623047" xlink:href="#DejaVuSans-56"/>
       <use x="127.246094" xlink:href="#DejaVuSans-46"/>
       <use x="159.033203" xlink:href="#DejaVuSans-56"/>
       <use x="222.65625" xlink:href="#DejaVuSans-57"/>
      </g>
     </g>
    </g>
    <g id="xtick_5">
     <g id="line2d_9">
      <path clip-path="url(#pdeae90707e)" d="M 815.562484 630 
L 815.562484 86.4 
" style="fill:none;stroke:#b0b0b0;stroke-linecap:square;stroke-width:0.8;"/>
     </g>
     <g id="line2d_10">
      <g>
       <use style="stroke:#000000;stroke-width:0.8;" x="815.562484" xlink:href="#maecfa1d016" y="630"/>
      </g>
     </g>
     <g id="text_5">
      <!-- 59.49 -->
      <g transform="translate(801.248421 644.598438)scale(0.1 -0.1)">
       <use xlink:href="#DejaVuSans-53"/>
       <use x="63.623047" xlink:href="#DejaVuSans-57"/>
       <use x="127.246094" xlink:href="#DejaVuSans-46"/>
       <use x="159.033203" xlink:href="#DejaVuSans-52"/>
       <use x="222.65625" xlink:href="#DejaVuSans-57"/>
      </g>
     </g>
    </g>
    <g id="xtick_6">
     <g id="line2d_11">
      <path clip-path="url(#pdeae90707e)" d="M 973.460051 630 
L 973.460051 86.4 
" style="fill:none;stroke:#b0b0b0;stroke-linecap:square;stroke-width:0.8;"/>
     </g>
     <g id="line2d_12">
      <g>
       <use style="stroke:#000000;stroke-width:0.8;" x="973.460051" xlink:href="#maecfa1d016" y="630"/>
      </g>
     </g>
     <g id="text_6">
      <!-- 70.08 -->
      <g transform="translate(959.145989 644.598438)scale(0.1 -0.1)">
       <defs>
        <path d="M 31.78125 66.40625 
Q 24.171875 66.40625 20.328125 58.90625 
Q 16.5 51.421875 16.5 36.375 
Q 16.5 21.390625 20.328125 13.890625 
Q 24.171875 6.390625 31.78125 6.390625 
Q 39.453125 6.390625 43.28125 13.890625 
Q 47.125 21.390625 47.125 36.375 
Q 47.125 51.421875 43.28125 58.90625 
Q 39.453125 66.40625 31.78125 66.40625 
z
M 31.78125 74.21875 
Q 44.046875 74.21875 50.515625 64.515625 
Q 56.984375 54.828125 56.984375 36.375 
Q 56.984375 17.96875 50.515625 8.265625 
Q 44.046875 -1.421875 31.78125 -1.421875 
Q 19.53125 -1.421875 13.0625 8.265625 
Q 6.59375 17.96875 6.59375 36.375 
Q 6.59375 54.828125 13.0625 64.515625 
Q 19.53125 74.21875 31.78125 74.21875 
z
" id="DejaVuSans-48"/>
       </defs>
       <use xlink:href="#DejaVuSans-55"/>
       <use x="63.623047" xlink:href="#DejaVuSans-48"/>
       <use x="127.246094" xlink:href="#DejaVuSans-46"/>
       <use x="159.033203" xlink:href="#DejaVuSans-48"/>
       <use x="222.65625" xlink:href="#DejaVuSans-56"/>
      </g>
     </g>
    </g>
    <g id="xtick_7">
     <g id="line2d_13">
      <path clip-path="url(#pdeae90707e)" d="M 1058.481818 630 
L 1058.481818 86.4 
" style="fill:none;stroke:#b0b0b0;stroke-linecap:square;stroke-width:0.8;"/>
     </g>
     <g id="line2d_14">
      <g>
       <use style="stroke:#000000;stroke-width:0.8;" x="1058.481818" xlink:href="#maecfa1d016" y="630"/>
      </g>
     </g>
     <g id="text_7">
      <!-- 75.78 -->
      <g transform="translate(1044.167756 644.598438)scale(0.1 -0.1)">
       <use xlink:href="#DejaVuSans-55"/>
       <use x="63.623047" xlink:href="#DejaVuSans-53"/>
       <use x="127.246094" xlink:href="#DejaVuSans-46"/>
       <use x="159.033203" xlink:href="#DejaVuSans-55"/>
       <use x="222.65625" xlink:href="#DejaVuSans-56"/>
      </g>
     </g>
    </g>
    <g id="text_8">
     <!-- Time (s) -->
     <g transform="translate(598.026375 661.619875)scale(0.144 -0.144)">
      <defs>
       <path d="M -0.296875 72.90625 
L 61.375 72.90625 
L 61.375 64.59375 
L 35.5 64.59375 
L 35.5 0 
L 25.59375 0 
L 25.59375 64.59375 
L -0.296875 64.59375 
z
" id="DejaVuSans-84"/>
       <path d="M 9.421875 54.6875 
L 18.40625 54.6875 
L 18.40625 0 
L 9.421875 0 
z
M 9.421875 75.984375 
L 18.40625 75.984375 
L 18.40625 64.59375 
L 9.421875 64.59375 
z
" id="DejaVuSans-105"/>
       <path d="M 52 44.1875 
Q 55.375 50.25 60.0625 53.125 
Q 64.75 56 71.09375 56 
Q 79.640625 56 84.28125 50.015625 
Q 88.921875 44.046875 88.921875 33.015625 
L 88.921875 0 
L 79.890625 0 
L 79.890625 32.71875 
Q 79.890625 40.578125 77.09375 44.375 
Q 74.3125 48.1875 68.609375 48.1875 
Q 61.625 48.1875 57.5625 43.546875 
Q 53.515625 38.921875 53.515625 30.90625 
L 53.515625 0 
L 44.484375 0 
L 44.484375 32.71875 
Q 44.484375 40.625 41.703125 44.40625 
Q 38.921875 48.1875 33.109375 48.1875 
Q 26.21875 48.1875 22.15625 43.53125 
Q 18.109375 38.875 18.109375 30.90625 
L 18.109375 0 
L 9.078125 0 
L 9.078125 54.6875 
L 18.109375 54.6875 
L 18.109375 46.1875 
Q 21.1875 51.21875 25.484375 53.609375 
Q 29.78125 56 35.6875 56 
Q 41.65625 56 45.828125 52.96875 
Q 50 49.953125 52 44.1875 
z
" id="DejaVuSans-109"/>
       <path d="M 56.203125 29.59375 
L 56.203125 25.203125 
L 14.890625 25.203125 
Q 15.484375 15.921875 20.484375 11.0625 
Q 25.484375 6.203125 34.421875 6.203125 
Q 39.59375 6.203125 44.453125 7.46875 
Q 49.3125 8.734375 54.109375 11.28125 
L 54.109375 2.78125 
Q 49.265625 0.734375 44.1875 -0.34375 
Q 39.109375 -1.421875 33.890625 -1.421875 
Q 20.796875 -1.421875 13.15625 6.1875 
Q 5.515625 13.8125 5.515625 26.8125 
Q 5.515625 40.234375 12.765625 48.109375 
Q 20.015625 56 32.328125 56 
Q 43.359375 56 49.78125 48.890625 
Q 56.203125 41.796875 56.203125 29.59375 
z
M 47.21875 32.234375 
Q 47.125 39.59375 43.09375 43.984375 
Q 39.0625 48.390625 32.421875 48.390625 
Q 24.90625 48.390625 20.390625 44.140625 
Q 15.875 39.890625 15.1875 32.171875 
z
" id="DejaVuSans-101"/>
       <path id="DejaVuSans-32"/>
       <path d="M 31 75.875 
Q 24.46875 64.65625 21.28125 53.65625 
Q 18.109375 42.671875 18.109375 31.390625 
Q 18.109375 20.125 21.3125 9.0625 
Q 24.515625 -2 31 -13.1875 
L 23.1875 -13.1875 
Q 15.875 -1.703125 12.234375 9.375 
Q 8.59375 20.453125 8.59375 31.390625 
Q 8.59375 42.28125 12.203125 53.3125 
Q 15.828125 64.359375 23.1875 75.875 
z
" id="DejaVuSans-40"/>
       <path d="M 44.28125 53.078125 
L 44.28125 44.578125 
Q 40.484375 46.53125 36.375 47.5 
Q 32.28125 48.484375 27.875 48.484375 
Q 21.1875 48.484375 17.84375 46.4375 
Q 14.5 44.390625 14.5 40.28125 
Q 14.5 37.15625 16.890625 35.375 
Q 19.28125 33.59375 26.515625 31.984375 
L 29.59375 31.296875 
Q 39.15625 29.25 43.1875 25.515625 
Q 47.21875 21.78125 47.21875 15.09375 
Q 47.21875 7.46875 41.1875 3.015625 
Q 35.15625 -1.421875 24.609375 -1.421875 
Q 20.21875 -1.421875 15.453125 -0.5625 
Q 10.6875 0.296875 5.421875 2 
L 5.421875 11.28125 
Q 10.40625 8.6875 15.234375 7.390625 
Q 20.0625 6.109375 24.8125 6.109375 
Q 31.15625 6.109375 34.5625 8.28125 
Q 37.984375 10.453125 37.984375 14.40625 
Q 37.984375 18.0625 35.515625 20.015625 
Q 33.0625 21.96875 24.703125 23.78125 
L 21.578125 24.515625 
Q 13.234375 26.265625 9.515625 29.90625 
Q 5.8125 33.546875 5.8125 39.890625 
Q 5.8125 47.609375 11.28125 51.796875 
Q 16.75 56 26.8125 56 
Q 31.78125 56 36.171875 55.265625 
Q 40.578125 54.546875 44.28125 53.078125 
z
" id="DejaVuSans-115"/>
       <path d="M 8.015625 75.875 
L 15.828125 75.875 
Q 23.140625 64.359375 26.78125 53.3125 
Q 30.421875 42.28125 30.421875 31.390625 
Q 30.421875 20.453125 26.78125 9.375 
Q 23.140625 -1.703125 15.828125 -13.1875 
L 8.015625 -13.1875 
Q 14.5 -2 17.703125 9.0625 
Q 20.90625 20.125 20.90625 31.390625 
Q 20.90625 42.671875 17.703125 53.65625 
Q 14.5 64.65625 8.015625 75.875 
z
" id="DejaVuSans-41"/>
      </defs>
      <use xlink:href="#DejaVuSans-84"/>
      <use x="57.958984" xlink:href="#DejaVuSans-105"/>
      <use x="85.742188" xlink:href="#DejaVuSans-109"/>
      <use x="183.154297" xlink:href="#DejaVuSans-101"/>
      <use x="244.677734" xlink:href="#DejaVuSans-32"/>
      <use x="276.464844" xlink:href="#DejaVuSans-40"/>
      <use x="315.478516" xlink:href="#DejaVuSans-115"/>
      <use x="367.578125" xlink:href="#DejaVuSans-41"/>
     </g>
    </g>
   </g>
   <g id="matplotlib.axis_2">
    <g id="ytick_1">
     <g id="line2d_15">
      <path clip-path="url(#pdeae90707e)" d="M 153 561.697129 
L 1101.6 561.697129 
" style="fill:none;stroke:#b0b0b0;stroke-linecap:square;stroke-width:0.8;"/>
     </g>
     <g id="line2d_16">
      <defs>
       <path d="M 0 0 
L -3.5 0 
" id="ma9ffa960bc" style="stroke:#000000;stroke-width:0.8;"/>
      </defs>
      <g>
       <use style="stroke:#000000;stroke-width:0.8;" x="153" xlink:href="#ma9ffa960bc" y="561.697129"/>
      </g>
     </g>
     <g id="text_9">
      <!-- $\mathdefault{10^{-11}}$ -->
      <g transform="translate(118.1 565.496348)scale(0.1 -0.1)">
       <defs>
        <path d="M 10.59375 35.5 
L 73.1875 35.5 
L 73.1875 27.203125 
L 10.59375 27.203125 
z
" id="DejaVuSans-8722"/>
       </defs>
       <use transform="translate(0 0.684375)" xlink:href="#DejaVuSans-49"/>
       <use transform="translate(63.623047 0.684375)" xlink:href="#DejaVuSans-48"/>
       <use transform="translate(128.203125 38.965625)scale(0.7)" xlink:href="#DejaVuSans-8722"/>
       <use transform="translate(186.855469 38.965625)scale(0.7)" xlink:href="#DejaVuSans-49"/>
       <use transform="translate(231.391602 38.965625)scale(0.7)" xlink:href="#DejaVuSans-49"/>
      </g>
     </g>
    </g>
    <g id="ytick_2">
     <g id="line2d_17">
      <path clip-path="url(#pdeae90707e)" d="M 153 470.040731 
L 1101.6 470.040731 
" style="fill:none;stroke:#b0b0b0;stroke-linecap:square;stroke-width:0.8;"/>
     </g>
     <g id="line2d_18">
      <g>
       <use style="stroke:#000000;stroke-width:0.8;" x="153" xlink:href="#ma9ffa960bc" y="470.040731"/>
      </g>
     </g>
     <g id="text_10">
      <!-- $\mathdefault{10^{-9}}$ -->
      <g transform="translate(122.5 473.83995)scale(0.1 -0.1)">
       <use transform="translate(0 0.765625)" xlink:href="#DejaVuSans-49"/>
       <use transform="translate(63.623047 0.765625)" xlink:href="#DejaVuSans-48"/>
       <use transform="translate(128.203125 39.046875)scale(0.7)" xlink:href="#DejaVuSans-8722"/>
       <use transform="translate(186.855469 39.046875)scale(0.7)" xlink:href="#DejaVuSans-57"/>
      </g>
     </g>
    </g>
    <g id="ytick_3">
     <g id="line2d_19">
      <path clip-path="url(#pdeae90707e)" d="M 153 378.384333 
L 1101.6 378.384333 
" style="fill:none;stroke:#b0b0b0;stroke-linecap:square;stroke-width:0.8;"/>
     </g>
     <g id="line2d_20">
      <g>
       <use style="stroke:#000000;stroke-width:0.8;" x="153" xlink:href="#ma9ffa960bc" y="378.384333"/>
      </g>
     </g>
     <g id="text_11">
      <!-- $\mathdefault{10^{-7}}$ -->
      <g transform="translate(122.5 382.183552)scale(0.1 -0.1)">
       <use transform="translate(0 0.684375)" xlink:href="#DejaVuSans-49"/>
       <use transform="translate(63.623047 0.684375)" xlink:href="#DejaVuSans-48"/>
       <use transform="translate(128.203125 38.965625)scale(0.7)" xlink:href="#DejaVuSans-8722"/>
       <use transform="translate(186.855469 38.965625)scale(0.7)" xlink:href="#DejaVuSans-55"/>
      </g>
     </g>
    </g>
    <g id="ytick_4">
     <g id="line2d_21">
      <path clip-path="url(#pdeae90707e)" d="M 153 286.727935 
L 1101.6 286.727935 
" style="fill:none;stroke:#b0b0b0;stroke-linecap:square;stroke-width:0.8;"/>
     </g>
     <g id="line2d_22">
      <g>
       <use style="stroke:#000000;stroke-width:0.8;" x="153" xlink:href="#ma9ffa960bc" y="286.727935"/>
      </g>
     </g>
     <g id="text_12">
      <!-- $\mathdefault{10^{-5}}$ -->
      <g transform="translate(122.5 290.527153)scale(0.1 -0.1)">
       <use transform="translate(0 0.684375)" xlink:href="#DejaVuSans-49"/>
       <use transform="translate(63.623047 0.684375)" xlink:href="#DejaVuSans-48"/>
       <use transform="translate(128.203125 38.965625)scale(0.7)" xlink:href="#DejaVuSans-8722"/>
       <use transform="translate(186.855469 38.965625)scale(0.7)" xlink:href="#DejaVuSans-53"/>
      </g>
     </g>
    </g>
    <g id="ytick_5">
     <g id="line2d_23">
      <path clip-path="url(#pdeae90707e)" d="M 153 195.071537 
L 1101.6 195.071537 
" style="fill:none;stroke:#b0b0b0;stroke-linecap:square;stroke-width:0.8;"/>
     </g>
     <g id="line2d_24">
      <g>
       <use style="stroke:#000000;stroke-width:0.8;" x="153" xlink:href="#ma9ffa960bc" y="195.071537"/>
      </g>
     </g>
     <g id="text_13">
      <!-- $\mathdefault{10^{-3}}$ -->
      <g transform="translate(122.5 198.870755)scale(0.1 -0.1)">
       <use transform="translate(0 0.765625)" xlink:href="#DejaVuSans-49"/>
       <use transform="translate(63.623047 0.765625)" xlink:href="#DejaVuSans-48"/>
       <use transform="translate(128.203125 39.046875)scale(0.7)" xlink:href="#DejaVuSans-8722"/>
       <use transform="translate(186.855469 39.046875)scale(0.7)" xlink:href="#DejaVuSans-51"/>
      </g>
     </g>
    </g>
    <g id="ytick_6">
     <g id="line2d_25">
      <path clip-path="url(#pdeae90707e)" d="M 153 103.415139 
L 1101.6 103.415139 
" style="fill:none;stroke:#b0b0b0;stroke-linecap:square;stroke-width:0.8;"/>
     </g>
     <g id="line2d_26">
      <g>
       <use style="stroke:#000000;stroke-width:0.8;" x="153" xlink:href="#ma9ffa960bc" y="103.415139"/>
      </g>
     </g>
     <g id="text_14">
      <!-- $\mathdefault{10^{-1}}$ -->
      <g transform="translate(122.5 107.214357)scale(0.1 -0.1)">
       <use transform="translate(0 0.684375)" xlink:href="#DejaVuSans-49"/>
       <use transform="translate(63.623047 0.684375)" xlink:href="#DejaVuSans-48"/>
       <use transform="translate(128.203125 38.965625)scale(0.7)" xlink:href="#DejaVuSans-8722"/>
       <use transform="translate(186.855469 38.965625)scale(0.7)" xlink:href="#DejaVuSans-49"/>
      </g>
     </g>
    </g>
    <g id="text_15">
     <!-- Concentration (molal) -->
     <g transform="translate(111.10525 436.872375)rotate(-90)scale(0.144 -0.144)">
      <defs>
       <path d="M 64.40625 67.28125 
L 64.40625 56.890625 
Q 59.421875 61.53125 53.78125 63.8125 
Q 48.140625 66.109375 41.796875 66.109375 
Q 29.296875 66.109375 22.65625 58.46875 
Q 16.015625 50.828125 16.015625 36.375 
Q 16.015625 21.96875 22.65625 14.328125 
Q 29.296875 6.6875 41.796875 6.6875 
Q 48.140625 6.6875 53.78125 8.984375 
Q 59.421875 11.28125 64.40625 15.921875 
L 64.40625 5.609375 
Q 59.234375 2.09375 53.4375 0.328125 
Q 47.65625 -1.421875 41.21875 -1.421875 
Q 24.65625 -1.421875 15.125 8.703125 
Q 5.609375 18.84375 5.609375 36.375 
Q 5.609375 53.953125 15.125 64.078125 
Q 24.65625 74.21875 41.21875 74.21875 
Q 47.75 74.21875 53.53125 72.484375 
Q 59.328125 70.75 64.40625 67.28125 
z
" id="DejaVuSans-67"/>
       <path d="M 30.609375 48.390625 
Q 23.390625 48.390625 19.1875 42.75 
Q 14.984375 37.109375 14.984375 27.296875 
Q 14.984375 17.484375 19.15625 11.84375 
Q 23.34375 6.203125 30.609375 6.203125 
Q 37.796875 6.203125 41.984375 11.859375 
Q 46.1875 17.53125 46.1875 27.296875 
Q 46.1875 37.015625 41.984375 42.703125 
Q 37.796875 48.390625 30.609375 48.390625 
z
M 30.609375 56 
Q 42.328125 56 49.015625 48.375 
Q 55.71875 40.765625 55.71875 27.296875 
Q 55.71875 13.875 49.015625 6.21875 
Q 42.328125 -1.421875 30.609375 -1.421875 
Q 18.84375 -1.421875 12.171875 6.21875 
Q 5.515625 13.875 5.515625 27.296875 
Q 5.515625 40.765625 12.171875 48.375 
Q 18.84375 56 30.609375 56 
z
" id="DejaVuSans-111"/>
       <path d="M 54.890625 33.015625 
L 54.890625 0 
L 45.90625 0 
L 45.90625 32.71875 
Q 45.90625 40.484375 42.875 44.328125 
Q 39.84375 48.1875 33.796875 48.1875 
Q 26.515625 48.1875 22.3125 43.546875 
Q 18.109375 38.921875 18.109375 30.90625 
L 18.109375 0 
L 9.078125 0 
L 9.078125 54.6875 
L 18.109375 54.6875 
L 18.109375 46.1875 
Q 21.34375 51.125 25.703125 53.5625 
Q 30.078125 56 35.796875 56 
Q 45.21875 56 50.046875 50.171875 
Q 54.890625 44.34375 54.890625 33.015625 
z
" id="DejaVuSans-110"/>
       <path d="M 48.78125 52.59375 
L 48.78125 44.1875 
Q 44.96875 46.296875 41.140625 47.34375 
Q 37.3125 48.390625 33.40625 48.390625 
Q 24.65625 48.390625 19.8125 42.84375 
Q 14.984375 37.3125 14.984375 27.296875 
Q 14.984375 17.28125 19.8125 11.734375 
Q 24.65625 6.203125 33.40625 6.203125 
Q 37.3125 6.203125 41.140625 7.25 
Q 44.96875 8.296875 48.78125 10.40625 
L 48.78125 2.09375 
Q 45.015625 0.34375 40.984375 -0.53125 
Q 36.96875 -1.421875 32.421875 -1.421875 
Q 20.0625 -1.421875 12.78125 6.34375 
Q 5.515625 14.109375 5.515625 27.296875 
Q 5.515625 40.671875 12.859375 48.328125 
Q 20.21875 56 33.015625 56 
Q 37.15625 56 41.109375 55.140625 
Q 45.0625 54.296875 48.78125 52.59375 
z
" id="DejaVuSans-99"/>
       <path d="M 18.3125 70.21875 
L 18.3125 54.6875 
L 36.8125 54.6875 
L 36.8125 47.703125 
L 18.3125 47.703125 
L 18.3125 18.015625 
Q 18.3125 11.328125 20.140625 9.421875 
Q 21.96875 7.515625 27.59375 7.515625 
L 36.8125 7.515625 
L 36.8125 0 
L 27.59375 0 
Q 17.1875 0 13.234375 3.875 
Q 9.28125 7.765625 9.28125 18.015625 
L 9.28125 47.703125 
L 2.6875 47.703125 
L 2.6875 54.6875 
L 9.28125 54.6875 
L 9.28125 70.21875 
z
" id="DejaVuSans-116"/>
       <path d="M 41.109375 46.296875 
Q 39.59375 47.171875 37.8125 47.578125 
Q 36.03125 48 33.890625 48 
Q 26.265625 48 22.1875 43.046875 
Q 18.109375 38.09375 18.109375 28.8125 
L 18.109375 0 
L 9.078125 0 
L 9.078125 54.6875 
L 18.109375 54.6875 
L 18.109375 46.1875 
Q 20.953125 51.171875 25.484375 53.578125 
Q 30.03125 56 36.53125 56 
Q 37.453125 56 38.578125 55.875 
Q 39.703125 55.765625 41.0625 55.515625 
z
" id="DejaVuSans-114"/>
       <path d="M 34.28125 27.484375 
Q 23.390625 27.484375 19.1875 25 
Q 14.984375 22.515625 14.984375 16.5 
Q 14.984375 11.71875 18.140625 8.90625 
Q 21.296875 6.109375 26.703125 6.109375 
Q 34.1875 6.109375 38.703125 11.40625 
Q 43.21875 16.703125 43.21875 25.484375 
L 43.21875 27.484375 
z
M 52.203125 31.203125 
L 52.203125 0 
L 43.21875 0 
L 43.21875 8.296875 
Q 40.140625 3.328125 35.546875 0.953125 
Q 30.953125 -1.421875 24.3125 -1.421875 
Q 15.921875 -1.421875 10.953125 3.296875 
Q 6 8.015625 6 15.921875 
Q 6 25.140625 12.171875 29.828125 
Q 18.359375 34.515625 30.609375 34.515625 
L 43.21875 34.515625 
L 43.21875 35.40625 
Q 43.21875 41.609375 39.140625 45 
Q 35.0625 48.390625 27.6875 48.390625 
Q 23 48.390625 18.546875 47.265625 
Q 14.109375 46.140625 10.015625 43.890625 
L 10.015625 52.203125 
Q 14.9375 54.109375 19.578125 55.046875 
Q 24.21875 56 28.609375 56 
Q 40.484375 56 46.34375 49.84375 
Q 52.203125 43.703125 52.203125 31.203125 
z
" id="DejaVuSans-97"/>
       <path d="M 9.421875 75.984375 
L 18.40625 75.984375 
L 18.40625 0 
L 9.421875 0 
z
" id="DejaVuSans-108"/>
      </defs>
      <use xlink:href="#DejaVuSans-67"/>
      <use x="69.824219" xlink:href="#DejaVuSans-111"/>
      <use x="131.005859" xlink:href="#DejaVuSans-110"/>
      <use x="194.384766" xlink:href="#DejaVuSans-99"/>
      <use x="249.365234" xlink:href="#DejaVuSans-101"/>
      <use x="310.888672" xlink:href="#DejaVuSans-110"/>
      <use x="374.267578" xlink:href="#DejaVuSans-116"/>
      <use x="413.476562" xlink:href="#DejaVuSans-114"/>
      <use x="454.589844" xlink:href="#DejaVuSans-97"/>
      <use x="515.869141" xlink:href="#DejaVuSans-116"/>
      <use x="555.078125" xlink:href="#DejaVuSans-105"/>
      <use x="582.861328" xlink:href="#DejaVuSans-111"/>
      <use x="644.042969" xlink:href="#DejaVuSans-110"/>
      <use x="707.421875" xlink:href="#DejaVuSans-32"/>
      <use x="739.208984" xlink:href="#DejaVuSans-40"/>
      <use x="778.222656" xlink:href="#DejaVuSans-109"/>
      <use x="875.634766" xlink:href="#DejaVuSans-111"/>
      <use x="936.816406" xlink:href="#DejaVuSans-108"/>
      <use x="964.599609" xlink:href="#DejaVuSans-97"/>
      <use x="1025.878906" xlink:href="#DejaVuSans-108"/>
      <use x="1053.662109" xlink:href="#DejaVuSans-41"/>
     </g>
    </g>
   </g>
   <g id="line2d_27">
    <path clip-path="url(#pdeae90707e)" d="M 196.118182 435.709404 
L 208.264149 422.823601 
L 220.410115 410.815095 
L 232.556082 399.580231 
L 244.702049 389.033143 
L 256.848015 379.101803 
L 268.993982 369.72514 
L 281.139949 360.850874 
L 293.285915 352.433879 
L 305.431882 344.434905 
L 317.577849 336.819585 
L 329.723816 329.557645 
L 341.869782 322.622264 
L 354.015749 315.989563 
L 366.161716 309.638184 
L 378.307682 303.548939 
L 390.453649 297.704522 
L 402.599616 292.089269 
L 414.745583 286.68895 
L 426.891549 281.4906 
L 439.037516 276.48237 
L 451.183483 271.653399 
L 463.329449 266.993707 
L 475.475416 262.494102 
L 487.621383 258.146094 
L 499.76735 253.941829 
L 511.913316 249.874022 
L 524.059283 245.935905 
L 536.20525 242.121178 
L 548.351216 238.423965 
L 560.497183 234.838778 
L 572.64315 231.360482 
L 584.789117 227.984266 
L 596.935083 224.705615 
L 609.08105 221.520287 
L 621.227017 218.42429 
L 633.372983 215.413864 
L 645.51895 212.485463 
L 657.664917 209.635739 
L 669.810883 206.861528 
L 681.95685 204.159835 
L 694.102817 201.527826 
L 706.248784 198.962814 
L 718.39475 196.46225 
L 730.540717 194.023715 
L 742.686684 191.644909 
L 754.83265 189.323648 
L 766.978617 187.057853 
L 779.124584 184.845546 
L 791.270551 182.684841 
L 803.416517 180.573945 
L 815.562484 178.511145 
L 827.708451 176.49481 
L 839.854417 174.523383 
L 852.000384 172.595377 
L 864.146351 170.709375 
L 876.292318 168.864022 
L 888.438284 167.058025 
L 900.584251 165.290148 
L 912.730218 163.55921 
L 924.876184 161.864083 
L 937.022151 160.203691 
L 949.168118 158.577002 
L 961.314085 156.983034 
L 973.460051 155.420845 
L 985.606018 153.889538 
L 997.751985 152.388253 
L 1009.897951 150.916172 
L 1022.043918 149.472511 
L 1034.189885 148.056523 
L 1046.335851 146.667495 
L 1058.481818 145.304745 
" style="fill:none;stroke:#1f77b4;stroke-linecap:square;stroke-width:1.5;"/>
   </g>
   <g id="line2d_28">
    <path clip-path="url(#pdeae90707e)" d="M 196.118182 440.982195 
L 208.264149 428.096392 
L 220.410115 416.087886 
L 232.556082 404.853022 
L 244.702049 394.305934 
L 256.848015 384.374594 
L 268.993982 374.997931 
L 281.139949 366.123665 
L 293.285915 357.70667 
L 305.431882 349.707696 
L 317.577849 342.092376 
L 329.723816 334.830436 
L 341.869782 327.895055 
L 354.015749 321.262354 
L 366.161716 314.910976 
L 378.307682 308.82173 
L 390.453649 302.977313 
L 402.599616 297.36206 
L 414.745583 291.961741 
L 426.891549 286.763391 
L 439.037516 281.755161 
L 451.183483 276.92619 
L 463.329449 272.266498 
L 475.475416 267.766893 
L 487.621383 263.418885 
L 499.76735 259.21462 
L 511.913316 255.146813 
L 524.059283 251.208696 
L 536.20525 247.393969 
L 548.351216 243.696756 
L 560.497183 240.111569 
L 572.64315 236.633273 
L 584.789117 233.257057 
L 596.935083 229.978406 
L 609.08105 226.793078 
L 621.227017 223.697081 
L 633.372983 220.686655 
L 645.51895 217.758254 
L 657.664917 214.90853 
L 669.810883 212.134319 
L 681.95685 209.432626 
L 694.102817 206.800617 
L 706.248784 204.235605 
L 718.39475 201.735042 
L 730.540717 199.296506 
L 742.686684 196.9177 
L 754.83265 194.596439 
L 766.978617 192.330644 
L 779.124584 190.118337 
L 791.270551 187.957632 
L 803.416517 185.846736 
L 815.562484 183.783936 
L 827.708451 181.767601 
L 839.854417 179.796174 
L 852.000384 177.868168 
L 864.146351 175.982166 
L 876.292318 174.136813 
L 888.438284 172.330816 
L 900.584251 170.562939 
L 912.730218 168.832001 
L 924.876184 167.136874 
L 937.022151 165.476482 
L 949.168118 163.849794 
L 961.314085 162.255825 
L 973.460051 160.693636 
L 985.606018 159.162329 
L 997.751985 157.661044 
L 1009.897951 156.188963 
L 1022.043918 154.745302 
L 1034.189885 153.329314 
L 1046.335851 151.940286 
L 1058.481818 150.577536 
" style="fill:none;stroke:#ff7f0e;stroke-linecap:square;stroke-width:1.5;"/>
   </g>
   <g id="line2d_29">
    <path clip-path="url(#pdeae90707e)" d="M 196.118182 404.816861 
L 208.264149 391.931058 
L 220.410115 379.922551 
L 232.556082 368.687688 
L 244.702049 358.1406 
L 256.848015 348.20926 
L 268.993982 338.832596 
L 281.139949 329.958331 
L 293.285915 321.541336 
L 305.431882 313.542362 
L 317.577849 305.927042 
L 329.723816 298.665101 
L 341.869782 291.72972 
L 354.015749 285.09702 
L 366.161716 278.745641 
L 378.307682 272.656396 
L 390.453649 266.811979 
L 402.599616 261.196726 
L 414.745583 255.796407 
L 426.891549 250.598057 
L 439.037516 245.589827 
L 451.183483 240.760855 
L 463.329449 236.101164 
L 475.475416 231.601559 
L 487.621383 227.253551 
L 499.76735 223.049286 
L 511.913316 218.981479 
L 524.059283 215.043362 
L 536.20525 211.228635 
L 548.351216 207.531422 
L 560.497183 203.946235 
L 572.64315 200.467939 
L 584.789117 197.091723 
L 596.935083 193.813072 
L 609.08105 190.627744 
L 621.227017 187.531747 
L 633.372983 184.521321 
L 645.51895 181.59292 
L 657.664917 178.743196 
L 669.810883 175.968985 
L 681.95685 173.267292 
L 694.102817 170.635283 
L 706.248784 168.070271 
L 718.39475 165.569707 
L 730.540717 163.131172 
L 742.686684 160.752366 
L 754.83265 158.431105 
L 766.978617 156.16531 
L 779.124584 153.953002 
L 791.270551 151.792298 
L 803.416517 149.681402 
L 815.562484 147.618602 
L 827.708451 145.602267 
L 839.854417 143.63084 
L 852.000384 141.702834 
L 864.146351 139.816832 
L 876.292318 137.971479 
L 888.438284 136.165482 
L 900.584251 134.397604 
L 912.730218 132.666667 
L 924.876184 130.97154 
L 937.022151 129.311148 
L 949.168118 127.684459 
L 961.314085 126.090491 
L 973.460051 124.528302 
L 985.606018 122.996995 
L 997.751985 121.49571 
L 1009.897951 120.023629 
L 1022.043918 118.579968 
L 1034.189885 117.16398 
L 1046.335851 115.774952 
L 1058.481818 114.412202 
" style="fill:none;stroke:#2ca02c;stroke-linecap:square;stroke-width:1.5;"/>
   </g>
   <g id="line2d_30">
    <path clip-path="url(#pdeae90707e)" d="M 196.118182 531.172506 
L 208.264149 518.286703 
L 220.410115 506.278197 
L 232.556082 495.043334 
L 244.702049 484.496246 
L 256.848015 474.564906 
L 268.993982 465.188242 
L 281.139949 456.313977 
L 293.285915 447.896982 
L 305.431882 439.898007 
L 317.577849 432.282688 
L 329.723816 425.020747 
L 341.869782 418.085366 
L 354.015749 411.452666 
L 366.161716 405.101287 
L 378.307682 399.012042 
L 390.453649 393.167625 
L 402.599616 387.552372 
L 414.745583 382.152053 
L 426.891549 376.953703 
L 439.037516 371.945473 
L 451.183483 367.116501 
L 463.329449 362.45681 
L 475.475416 357.957204 
L 487.621383 353.609197 
L 499.76735 349.404932 
L 511.913316 345.337125 
L 524.059283 341.399008 
L 536.20525 337.584281 
L 548.351216 333.887068 
L 560.497183 330.301881 
L 572.64315 326.823585 
L 584.789117 323.447369 
L 596.935083 320.168718 
L 609.08105 316.98339 
L 621.227017 313.887393 
L 633.372983 310.876967 
L 645.51895 307.948566 
L 657.664917 305.098842 
L 669.810883 302.324631 
L 681.95685 299.622938 
L 694.102817 296.990929 
L 706.248784 294.425917 
L 718.39475 291.925353 
L 730.540717 289.486818 
L 742.686684 287.108012 
L 754.83265 284.786751 
L 766.978617 282.520956 
L 779.124584 280.308648 
L 791.270551 278.147944 
L 803.416517 276.037048 
L 815.562484 273.974248 
L 827.708451 271.957913 
L 839.854417 269.986486 
L 852.000384 268.05848 
L 864.146351 266.172478 
L 876.292318 264.327125 
L 888.438284 262.521128 
L 900.584251 260.75325 
L 912.730218 259.022312 
L 924.876184 257.327186 
L 937.022151 255.666794 
L 949.168118 254.040105 
L 961.314085 252.446137 
L 973.460051 250.883948 
L 985.606018 249.352641 
L 997.751985 247.851356 
L 1009.897951 246.379275 
L 1022.043918 244.935614 
L 1034.189885 243.519626 
L 1046.335851 242.130598 
L 1058.481818 240.767848 
" style="fill:none;stroke:#d62728;stroke-linecap:square;stroke-width:1.5;"/>
   </g>
   <g id="line2d_31">
    <path clip-path="url(#pdeae90707e)" d="M 196.118182 401.51375 
L 208.264149 388.627947 
L 220.410115 376.619441 
L 232.556082 365.384578 
L 244.702049 354.837489 
L 256.848015 344.906149 
L 268.993982 335.529486 
L 281.139949 326.65522 
L 293.285915 318.238225 
L 305.431882 310.239251 
L 317.577849 302.623931 
L 329.723816 295.361991 
L 341.869782 288.42661 
L 354.015749 281.79391 
L 366.161716 275.442531 
L 378.307682 269.353285 
L 390.453649 263.508869 
L 402.599616 257.893615 
L 414.745583 252.493296 
L 426.891549 247.294946 
L 439.037516 242.286716 
L 451.183483 237.457745 
L 463.329449 232.798053 
L 475.475416 228.298448 
L 487.621383 223.95044 
L 499.76735 219.746175 
L 511.913316 215.678368 
L 524.059283 211.740252 
L 536.20525 207.925524 
L 548.351216 204.228311 
L 560.497183 200.643124 
L 572.64315 197.164829 
L 584.789117 193.788613 
L 596.935083 190.509962 
L 609.08105 187.324633 
L 621.227017 184.228636 
L 633.372983 181.21821 
L 645.51895 178.289809 
L 657.664917 175.440085 
L 669.810883 172.665874 
L 681.95685 169.964181 
L 694.102817 167.332173 
L 706.248784 164.767161 
L 718.39475 162.266597 
L 730.540717 159.828061 
L 742.686684 157.449255 
L 754.83265 155.127994 
L 766.978617 152.862199 
L 779.124584 150.649892 
L 791.270551 148.489187 
L 803.416517 146.378291 
L 815.562484 144.315491 
L 827.708451 142.299156 
L 839.854417 140.327729 
L 852.000384 138.399724 
L 864.146351 136.513722 
L 876.292318 134.668369 
L 888.438284 132.862371 
L 900.584251 131.094494 
L 912.730218 129.363556 
L 924.876184 127.668429 
L 937.022151 126.008037 
L 949.168118 124.381349 
L 961.314085 122.78738 
L 973.460051 121.225191 
L 985.606018 119.693884 
L 997.751985 118.1926 
L 1009.897951 116.720518 
L 1022.043918 115.276858 
L 1034.189885 113.86087 
L 1046.335851 112.471841 
L 1058.481818 111.109091 
" style="fill:none;stroke:#9467bd;stroke-linecap:square;stroke-width:1.5;"/>
   </g>
   <g id="line2d_32">
    <path clip-path="url(#pdeae90707e)" d="M 196.118182 430.429213 
L 208.264149 417.54341 
L 220.410115 405.534904 
L 232.556082 394.300041 
L 244.702049 383.752952 
L 256.848015 373.821612 
L 268.993982 364.444949 
L 281.139949 355.570683 
L 293.285915 347.153688 
L 305.431882 339.154714 
L 317.577849 331.539394 
L 329.723816 324.277454 
L 341.869782 317.342073 
L 354.015749 310.709373 
L 366.161716 304.357994 
L 378.307682 298.268749 
L 390.453649 292.424332 
L 402.599616 286.809078 
L 414.745583 281.408759 
L 426.891549 276.210409 
L 439.037516 271.202179 
L 451.183483 266.373208 
L 463.329449 261.713516 
L 475.475416 257.213911 
L 487.621383 252.865903 
L 499.76735 248.661638 
L 511.913316 244.593831 
L 524.059283 240.655715 
L 536.20525 236.840987 
L 548.351216 233.143774 
L 560.497183 229.558587 
L 572.64315 226.080292 
L 584.789117 222.704076 
L 596.935083 219.425425 
L 609.08105 216.240096 
L 621.227017 213.144099 
L 633.372983 210.133673 
L 645.51895 207.205272 
L 657.664917 204.355548 
L 669.810883 201.581337 
L 681.95685 198.879644 
L 694.102817 196.247636 
L 706.248784 193.682624 
L 718.39475 191.18206 
L 730.540717 188.743524 
L 742.686684 186.364719 
L 754.83265 184.043458 
L 766.978617 181.777662 
L 779.124584 179.565355 
L 791.270551 177.404651 
L 803.416517 175.293754 
L 815.562484 173.230955 
L 827.708451 171.21462 
L 839.854417 169.243192 
L 852.000384 167.315187 
L 864.146351 165.429185 
L 876.292318 163.583832 
L 888.438284 161.777834 
L 900.584251 160.009957 
L 912.730218 158.279019 
L 924.876184 156.583893 
L 937.022151 154.9235 
L 949.168118 153.296812 
L 961.314085 151.702843 
L 973.460051 150.140655 
L 985.606018 148.609347 
L 997.751985 147.108063 
L 1009.897951 145.635981 
L 1022.043918 144.192321 
L 1034.189885 142.776333 
L 1046.335851 141.387304 
L 1058.481818 140.024554 
" style="fill:none;stroke:#8c564b;stroke-linecap:square;stroke-width:1.5;"/>
   </g>
   <g id="line2d_33">
    <path clip-path="url(#pdeae90707e)" d="M 196.118182 605.290909 
L 208.264149 592.405106 
L 220.410115 580.3966 
L 232.556082 569.161737 
L 244.702049 558.614648 
L 256.848015 548.683308 
L 268.993982 539.306645 
L 281.139949 530.43238 
L 293.285915 522.015384 
L 305.431882 514.01641 
L 317.577849 506.40109 
L 329.723816 499.13915 
L 341.869782 492.203769 
L 354.015749 485.571069 
L 366.161716 479.21969 
L 378.307682 473.130445 
L 390.453649 467.286028 
L 402.599616 461.670774 
L 414.745583 456.270455 
L 426.891549 451.072105 
L 439.037516 446.063875 
L 451.183483 441.234904 
L 463.329449 436.575212 
L 475.475416 432.075607 
L 487.621383 427.727599 
L 499.76735 423.523334 
L 511.913316 419.455528 
L 524.059283 415.517411 
L 536.20525 411.702684 
L 548.351216 408.005471 
L 560.497183 404.420284 
L 572.64315 400.941988 
L 584.789117 397.565772 
L 596.935083 394.287121 
L 609.08105 391.101793 
L 621.227017 388.005795 
L 633.372983 384.995369 
L 645.51895 382.066969 
L 657.664917 379.217245 
L 669.810883 376.443033 
L 681.95685 373.741341 
L 694.102817 371.109332 
L 706.248784 368.54432 
L 718.39475 366.043756 
L 730.540717 363.60522 
L 742.686684 361.226415 
L 754.83265 358.905154 
L 766.978617 356.639359 
L 779.124584 354.427051 
L 791.270551 352.266347 
L 803.416517 350.15545 
L 815.562484 348.092651 
L 827.708451 346.076316 
L 839.854417 344.104888 
L 852.000384 342.176883 
L 864.146351 340.290881 
L 876.292318 338.445528 
L 888.438284 336.63953 
L 900.584251 334.871653 
L 912.730218 333.140715 
L 924.876184 331.445589 
L 937.022151 329.785196 
L 949.168118 328.158508 
L 961.314085 326.564539 
L 973.460051 325.002351 
L 985.606018 323.471043 
L 997.751985 321.969759 
L 1009.897951 320.497678 
L 1022.043918 319.054017 
L 1034.189885 317.638029 
L 1046.335851 316.249 
L 1058.481818 314.88625 
" style="fill:none;stroke:#e377c2;stroke-linecap:square;stroke-width:1.5;"/>
   </g>
   <g id="patch_3">
    <path d="M 153 630 
L 153 86.4 
" style="fill:none;stroke:#000000;stroke-linecap:square;stroke-linejoin:miter;stroke-width:0.8;"/>
   </g>
   <g id="patch_4">
    <path d="M 1101.6 630 
L 1101.6 86.4 
" style="fill:none;stroke:#000000;stroke-linecap:square;stroke-linejoin:miter;stroke-width:0.8;"/>
   </g>
   <g id="patch_5">
    <path d="M 153 630 
L 1101.6 630 
" style="fill:none;stroke:#000000;stroke-linecap:square;stroke-linejoin:miter;stroke-width:0.8;"/>
   </g>
   <g id="patch_6">
    <path d="M 153 86.4 
L 1101.6 86.4 
" style="fill:none;stroke:#000000;stroke-linecap:square;stroke-linejoin:miter;stroke-width:0.8;"/>
   </g>
   <g id="text_16">
    <!-- Effluent brine elemental concentrations -->
    <g transform="translate(455.57325 80.4)scale(0.1728 -0.1728)">
     <defs>
      <path d="M 9.8125 72.90625 
L 55.90625 72.90625 
L 55.90625 64.59375 
L 19.671875 64.59375 
L 19.671875 43.015625 
L 54.390625 43.015625 
L 54.390625 34.71875 
L 19.671875 34.71875 
L 19.671875 8.296875 
L 56.78125 8.296875 
L 56.78125 0 
L 9.8125 0 
z
" id="DejaVuSans-69"/>
      <path d="M 37.109375 75.984375 
L 37.109375 68.5 
L 28.515625 68.5 
Q 23.6875 68.5 21.796875 66.546875 
Q 19.921875 64.59375 19.921875 59.515625 
L 19.921875 54.6875 
L 34.71875 54.6875 
L 34.71875 47.703125 
L 19.921875 47.703125 
L 19.921875 0 
L 10.890625 0 
L 10.890625 47.703125 
L 2.296875 47.703125 
L 2.296875 54.6875 
L 10.890625 54.6875 
L 10.890625 58.5 
Q 10.890625 67.625 15.140625 71.796875 
Q 19.390625 75.984375 28.609375 75.984375 
z
" id="DejaVuSans-102"/>
      <path d="M 8.5 21.578125 
L 8.5 54.6875 
L 17.484375 54.6875 
L 17.484375 21.921875 
Q 17.484375 14.15625 20.5 10.265625 
Q 23.53125 6.390625 29.59375 6.390625 
Q 36.859375 6.390625 41.078125 11.03125 
Q 45.3125 15.671875 45.3125 23.6875 
L 45.3125 54.6875 
L 54.296875 54.6875 
L 54.296875 0 
L 45.3125 0 
L 45.3125 8.40625 
Q 42.046875 3.421875 37.71875 1 
Q 33.40625 -1.421875 27.6875 -1.421875 
Q 18.265625 -1.421875 13.375 4.4375 
Q 8.5 10.296875 8.5 21.578125 
z
M 31.109375 56 
z
" id="DejaVuSans-117"/>
      <path d="M 48.6875 27.296875 
Q 48.6875 37.203125 44.609375 42.84375 
Q 40.53125 48.484375 33.40625 48.484375 
Q 26.265625 48.484375 22.1875 42.84375 
Q 18.109375 37.203125 18.109375 27.296875 
Q 18.109375 17.390625 22.1875 11.75 
Q 26.265625 6.109375 33.40625 6.109375 
Q 40.53125 6.109375 44.609375 11.75 
Q 48.6875 17.390625 48.6875 27.296875 
z
M 18.109375 46.390625 
Q 20.953125 51.265625 25.265625 53.625 
Q 29.59375 56 35.59375 56 
Q 45.5625 56 51.78125 48.09375 
Q 58.015625 40.1875 58.015625 27.296875 
Q 58.015625 14.40625 51.78125 6.484375 
Q 45.5625 -1.421875 35.59375 -1.421875 
Q 29.59375 -1.421875 25.265625 0.953125 
Q 20.953125 3.328125 18.109375 8.203125 
L 18.109375 0 
L 9.078125 0 
L 9.078125 75.984375 
L 18.109375 75.984375 
z
" id="DejaVuSans-98"/>
     </defs>
     <use xlink:href="#DejaVuSans-69"/>
     <use x="63.183594" xlink:href="#DejaVuSans-102"/>
     <use x="98.388672" xlink:href="#DejaVuSans-102"/>
     <use x="133.59375" xlink:href="#DejaVuSans-108"/>
     <use x="161.376953" xlink:href="#DejaVuSans-117"/>
     <use x="224.755859" xlink:href="#DejaVuSans-101"/>
     <use x="286.279297" xlink:href="#DejaVuSans-110"/>
     <use x="349.658203" xlink:href="#DejaVuSans-116"/>
     <use x="388.867188" xlink:href="#DejaVuSans-32"/>
     <use x="420.654297" xlink:href="#DejaVuSans-98"/>
     <use x="484.130859" xlink:href="#DejaVuSans-114"/>
     <use x="525.244141" xlink:href="#DejaVuSans-105"/>
     <use x="553.027344" xlink:href="#DejaVuSans-110"/>
     <use x="616.40625" xlink:href="#DejaVuSans-101"/>
     <use x="677.929688" xlink:href="#DejaVuSans-32"/>
     <use x="709.716797" xlink:href="#DejaVuSans-101"/>
     <use x="771.240234" xlink:href="#DejaVuSans-108"/>
     <use x="799.023438" xlink:href="#DejaVuSans-101"/>
     <use x="860.546875" xlink:href="#DejaVuSans-109"/>
     <use x="957.958984" xlink:href="#DejaVuSans-101"/>
     <use x="1019.482422" xlink:href="#DejaVuSans-110"/>
     <use x="1082.861328" xlink:href="#DejaVuSans-116"/>
     <use x="1122.070312" xlink:href="#DejaVuSans-97"/>
     <use x="1183.349609" xlink:href="#DejaVuSans-108"/>
     <use x="1211.132812" xlink:href="#DejaVuSans-32"/>
     <use x="1242.919922" xlink:href="#DejaVuSans-99"/>
     <use x="1297.900391" xlink:href="#DejaVuSans-111"/>
     <use x="1359.082031" xlink:href="#DejaVuSans-110"/>
     <use x="1422.460938" xlink:href="#DejaVuSans-99"/>
     <use x="1477.441406" xlink:href="#DejaVuSans-101"/>
     <use x="1538.964844" xlink:href="#DejaVuSans-110"/>
     <use x="1602.34375" xlink:href="#DejaVuSans-116"/>
     <use x="1641.552734" xlink:href="#DejaVuSans-114"/>
     <use x="1682.666016" xlink:href="#DejaVuSans-97"/>
     <use x="1743.945312" xlink:href="#DejaVuSans-116"/>
     <use x="1783.154297" xlink:href="#DejaVuSans-105"/>
     <use x="1810.9375" xlink:href="#DejaVuSans-111"/>
     <use x="1872.119141" xlink:href="#DejaVuSans-110"/>
     <use x="1935.498047" xlink:href="#DejaVuSans-115"/>
    </g>
   </g>
   <g id="legend_1">
    <g id="patch_7">
     <path d="M 163.08 262.753625 
L 262.27125 262.753625 
Q 265.15125 262.753625 265.15125 259.873625 
L 265.15125 96.48 
Q 265.15125 93.6 262.27125 93.6 
L 163.08 93.6 
Q 160.2 93.6 160.2 96.48 
L 160.2 259.873625 
Q 160.2 262.753625 163.08 262.753625 
z
" style="fill:#ffffff;opacity:0.8;stroke:#cccccc;stroke-linejoin:miter;"/>
    </g>
    <g id="text_17">
     <!-- non-zero elements -->
     <g transform="translate(165.96 106.958438)scale(0.1 -0.1)">
      <defs>
       <path d="M 4.890625 31.390625 
L 31.203125 31.390625 
L 31.203125 23.390625 
L 4.890625 23.390625 
z
" id="DejaVuSans-45"/>
       <path d="M 5.515625 54.6875 
L 48.1875 54.6875 
L 48.1875 46.484375 
L 14.40625 7.171875 
L 48.1875 7.171875 
L 48.1875 0 
L 4.296875 0 
L 4.296875 8.203125 
L 38.09375 47.515625 
L 5.515625 47.515625 
z
" id="DejaVuSans-122"/>
      </defs>
      <use xlink:href="#DejaVuSans-110"/>
      <use x="63.378906" xlink:href="#DejaVuSans-111"/>
      <use x="124.560547" xlink:href="#DejaVuSans-110"/>
      <use x="187.939453" xlink:href="#DejaVuSans-45"/>
      <use x="224.023438" xlink:href="#DejaVuSans-122"/>
      <use x="276.513672" xlink:href="#DejaVuSans-101"/>
      <use x="338.037109" xlink:href="#DejaVuSans-114"/>
      <use x="376.900391" xlink:href="#DejaVuSans-111"/>
      <use x="438.082031" xlink:href="#DejaVuSans-32"/>
      <use x="469.869141" xlink:href="#DejaVuSans-101"/>
      <use x="531.392578" xlink:href="#DejaVuSans-108"/>
      <use x="559.175781" xlink:href="#DejaVuSans-101"/>
      <use x="620.699219" xlink:href="#DejaVuSans-109"/>
      <use x="718.111328" xlink:href="#DejaVuSans-101"/>
      <use x="779.634766" xlink:href="#DejaVuSans-110"/>
      <use x="843.013672" xlink:href="#DejaVuSans-116"/>
      <use x="882.222656" xlink:href="#DejaVuSans-115"/>
     </g>
    </g>
    <g id="line2d_34">
     <path d="M 177.7455 122.139875 
L 206.5455 122.139875 
" style="fill:none;stroke:#1f77b4;stroke-linecap:square;stroke-width:1.5;"/>
    </g>
    <g id="line2d_35"/>
    <g id="text_18">
     <!-- Ca -->
     <g transform="translate(218.0655 127.179875)scale(0.144 -0.144)">
      <use xlink:href="#DejaVuSans-67"/>
      <use x="69.824219" xlink:href="#DejaVuSans-97"/>
     </g>
    </g>
    <g id="line2d_36">
     <path d="M 177.7455 143.276375 
L 206.5455 143.276375 
" style="fill:none;stroke:#ff7f0e;stroke-linecap:square;stroke-width:1.5;"/>
    </g>
    <g id="line2d_37"/>
    <g id="text_19">
     <!-- Mg -->
     <g transform="translate(218.0655 148.316375)scale(0.144 -0.144)">
      <defs>
       <path d="M 9.8125 72.90625 
L 24.515625 72.90625 
L 43.109375 23.296875 
L 61.8125 72.90625 
L 76.515625 72.90625 
L 76.515625 0 
L 66.890625 0 
L 66.890625 64.015625 
L 48.09375 14.015625 
L 38.1875 14.015625 
L 19.390625 64.015625 
L 19.390625 0 
L 9.8125 0 
z
" id="DejaVuSans-77"/>
       <path d="M 45.40625 27.984375 
Q 45.40625 37.75 41.375 43.109375 
Q 37.359375 48.484375 30.078125 48.484375 
Q 22.859375 48.484375 18.828125 43.109375 
Q 14.796875 37.75 14.796875 27.984375 
Q 14.796875 18.265625 18.828125 12.890625 
Q 22.859375 7.515625 30.078125 7.515625 
Q 37.359375 7.515625 41.375 12.890625 
Q 45.40625 18.265625 45.40625 27.984375 
z
M 54.390625 6.78125 
Q 54.390625 -7.171875 48.1875 -13.984375 
Q 42 -20.796875 29.203125 -20.796875 
Q 24.46875 -20.796875 20.265625 -20.09375 
Q 16.0625 -19.390625 12.109375 -17.921875 
L 12.109375 -9.1875 
Q 16.0625 -11.328125 19.921875 -12.34375 
Q 23.78125 -13.375 27.78125 -13.375 
Q 36.625 -13.375 41.015625 -8.765625 
Q 45.40625 -4.15625 45.40625 5.171875 
L 45.40625 9.625 
Q 42.625 4.78125 38.28125 2.390625 
Q 33.9375 0 27.875 0 
Q 17.828125 0 11.671875 7.65625 
Q 5.515625 15.328125 5.515625 27.984375 
Q 5.515625 40.671875 11.671875 48.328125 
Q 17.828125 56 27.875 56 
Q 33.9375 56 38.28125 53.609375 
Q 42.625 51.21875 45.40625 46.390625 
L 45.40625 54.6875 
L 54.390625 54.6875 
z
" id="DejaVuSans-103"/>
      </defs>
      <use xlink:href="#DejaVuSans-77"/>
      <use x="86.279297" xlink:href="#DejaVuSans-103"/>
     </g>
    </g>
    <g id="line2d_38">
     <path d="M 177.7455 164.412875 
L 206.5455 164.412875 
" style="fill:none;stroke:#2ca02c;stroke-linecap:square;stroke-width:1.5;"/>
    </g>
    <g id="line2d_39"/>
    <g id="text_20">
     <!-- Na -->
     <g transform="translate(218.0655 169.452875)scale(0.144 -0.144)">
      <defs>
       <path d="M 9.8125 72.90625 
L 23.09375 72.90625 
L 55.421875 11.921875 
L 55.421875 72.90625 
L 64.984375 72.90625 
L 64.984375 0 
L 51.703125 0 
L 19.390625 60.984375 
L 19.390625 0 
L 9.8125 0 
z
" id="DejaVuSans-78"/>
      </defs>
      <use xlink:href="#DejaVuSans-78"/>
      <use x="74.804688" xlink:href="#DejaVuSans-97"/>
     </g>
    </g>
    <g id="line2d_40">
     <path d="M 177.7455 185.549375 
L 206.5455 185.549375 
" style="fill:none;stroke:#d62728;stroke-linecap:square;stroke-width:1.5;"/>
    </g>
    <g id="line2d_41"/>
    <g id="text_21">
     <!-- Sr -->
     <g transform="translate(218.0655 190.589375)scale(0.144 -0.144)">
      <defs>
       <path d="M 53.515625 70.515625 
L 53.515625 60.890625 
Q 47.90625 63.578125 42.921875 64.890625 
Q 37.9375 66.21875 33.296875 66.21875 
Q 25.25 66.21875 20.875 63.09375 
Q 16.5 59.96875 16.5 54.203125 
Q 16.5 49.359375 19.40625 46.890625 
Q 22.3125 44.4375 30.421875 42.921875 
L 36.375 41.703125 
Q 47.40625 39.59375 52.65625 34.296875 
Q 57.90625 29 57.90625 20.125 
Q 57.90625 9.515625 50.796875 4.046875 
Q 43.703125 -1.421875 29.984375 -1.421875 
Q 24.8125 -1.421875 18.96875 -0.25 
Q 13.140625 0.921875 6.890625 3.21875 
L 6.890625 13.375 
Q 12.890625 10.015625 18.65625 8.296875 
Q 24.421875 6.59375 29.984375 6.59375 
Q 38.421875 6.59375 43.015625 9.90625 
Q 47.609375 13.234375 47.609375 19.390625 
Q 47.609375 24.75 44.3125 27.78125 
Q 41.015625 30.8125 33.5 32.328125 
L 27.484375 33.5 
Q 16.453125 35.6875 11.515625 40.375 
Q 6.59375 45.0625 6.59375 53.421875 
Q 6.59375 63.09375 13.40625 68.65625 
Q 20.21875 74.21875 32.171875 74.21875 
Q 37.3125 74.21875 42.625 73.28125 
Q 47.953125 72.359375 53.515625 70.515625 
z
" id="DejaVuSans-83"/>
      </defs>
      <use xlink:href="#DejaVuSans-83"/>
      <use x="63.476562" xlink:href="#DejaVuSans-114"/>
     </g>
    </g>
    <g id="line2d_42">
     <path d="M 177.7455 206.685875 
L 206.5455 206.685875 
" style="fill:none;stroke:#9467bd;stroke-linecap:square;stroke-width:1.5;"/>
    </g>
    <g id="line2d_43"/>
    <g id="text_22">
     <!-- Cl -->
     <g transform="translate(218.0655 211.725875)scale(0.144 -0.144)">
      <use xlink:href="#DejaVuSans-67"/>
      <use x="69.824219" xlink:href="#DejaVuSans-108"/>
     </g>
    </g>
    <g id="line2d_44">
     <path d="M 177.7455 227.822375 
L 206.5455 227.822375 
" style="fill:none;stroke:#8c564b;stroke-linecap:square;stroke-width:1.5;"/>
    </g>
    <g id="line2d_45"/>
    <g id="text_23">
     <!-- S(6) -->
     <g transform="translate(218.0655 232.862375)scale(0.144 -0.144)">
      <defs>
       <path d="M 33.015625 40.375 
Q 26.375 40.375 22.484375 35.828125 
Q 18.609375 31.296875 18.609375 23.390625 
Q 18.609375 15.53125 22.484375 10.953125 
Q 26.375 6.390625 33.015625 6.390625 
Q 39.65625 6.390625 43.53125 10.953125 
Q 47.40625 15.53125 47.40625 23.390625 
Q 47.40625 31.296875 43.53125 35.828125 
Q 39.65625 40.375 33.015625 40.375 
z
M 52.59375 71.296875 
L 52.59375 62.3125 
Q 48.875 64.0625 45.09375 64.984375 
Q 41.3125 65.921875 37.59375 65.921875 
Q 27.828125 65.921875 22.671875 59.328125 
Q 17.53125 52.734375 16.796875 39.40625 
Q 19.671875 43.65625 24.015625 45.921875 
Q 28.375 48.1875 33.59375 48.1875 
Q 44.578125 48.1875 50.953125 41.515625 
Q 57.328125 34.859375 57.328125 23.390625 
Q 57.328125 12.15625 50.6875 5.359375 
Q 44.046875 -1.421875 33.015625 -1.421875 
Q 20.359375 -1.421875 13.671875 8.265625 
Q 6.984375 17.96875 6.984375 36.375 
Q 6.984375 53.65625 15.1875 63.9375 
Q 23.390625 74.21875 37.203125 74.21875 
Q 40.921875 74.21875 44.703125 73.484375 
Q 48.484375 72.75 52.59375 71.296875 
z
" id="DejaVuSans-54"/>
      </defs>
      <use xlink:href="#DejaVuSans-83"/>
      <use x="63.476562" xlink:href="#DejaVuSans-40"/>
      <use x="102.490234" xlink:href="#DejaVuSans-54"/>
      <use x="166.113281" xlink:href="#DejaVuSans-41"/>
     </g>
    </g>
    <g id="line2d_46">
     <path d="M 177.7455 248.958875 
L 206.5455 248.958875 
" style="fill:none;stroke:#e377c2;stroke-linecap:square;stroke-width:1.5;"/>
    </g>
    <g id="line2d_47"/>
    <g id="text_24">
     <!-- Fe -->
     <g transform="translate(218.0655 253.998875)scale(0.144 -0.144)">
      <defs>
       <path d="M 9.8125 72.90625 
L 51.703125 72.90625 
L 51.703125 64.59375 
L 19.671875 64.59375 
L 19.671875 43.109375 
L 48.578125 43.109375 
L 48.578125 34.8125 
L 19.671875 34.8125 
L 19.671875 0 
L 9.8125 0 
z
" id="DejaVuSans-70"/>
      </defs>
      <use xlink:href="#DejaVuSans-70"/>
      <use x="52.019531" xlink:href="#DejaVuSans-101"/>
     </g>
    </g>
   </g>
  </g>
  <g id="text_25">
   <!-- Final CF: 3.077 -->
   <g transform="translate(244.8 720)scale(0.12 -0.12)">
    <defs>
     <path d="M 11.71875 12.40625 
L 22.015625 12.40625 
L 22.015625 0 
L 11.71875 0 
z
M 11.71875 51.703125 
L 22.015625 51.703125 
L 22.015625 39.3125 
L 11.71875 39.3125 
z
" id="DejaVuSans-58"/>
    </defs>
    <use xlink:href="#DejaVuSans-70"/>
    <use x="50.269531" xlink:href="#DejaVuSans-105"/>
    <use x="78.052734" xlink:href="#DejaVuSans-110"/>
    <use x="141.431641" xlink:href="#DejaVuSans-97"/>
    <use x="202.710938" xlink:href="#DejaVuSans-108"/>
    <use x="230.494141" xlink:href="#DejaVuSans-32"/>
    <use x="262.28125" xlink:href="#DejaVuSans-67"/>
    <use x="332.105469" xlink:href="#DejaVuSans-70"/>
    <use x="381.875" xlink:href="#DejaVuSans-58"/>
    <use x="415.566406" xlink:href="#DejaVuSans-32"/>
    <use x="447.353516" xlink:href="#DejaVuSans-51"/>
    <use x="510.976562" xlink:href="#DejaVuSans-46"/>
    <use x="542.763672" xlink:href="#DejaVuSans-48"/>
    <use x="606.386719" xlink:href="#DejaVuSans-55"/>
    <use x="670.009766" xlink:href="#DejaVuSans-55"/>
   </g>
  </g>
 </g>
 <defs>
  <clipPath id="pdeae90707e">
   <rect height="543.6" width="948.6" x="153" y="86.4"/>
  </clipPath>
 </defs>
</svg>
