<?xml version="1.0" encoding="utf-8" standalone="no"?>
<!DOCTYPE svg PUBLIC "-//W3C//DTD SVG 1.1//EN"
  "http://www.w3.org/Graphics/SVG/1.1/DTD/svg11.dtd">
<svg height="720pt" version="1.1" viewBox="0 0 1224 720" width="1224pt" xmlns="http://www.w3.org/2000/svg" xmlns:xlink="http://www.w3.org/1999/xlink">
 <metadata>
  <rdf:RDF xmlns:cc="http://creativecommons.org/ns#" xmlns:dc="http://purl.org/dc/elements/1.1/" xmlns:rdf="http://www.w3.org/1999/02/22-rdf-syntax-ns#">
   <cc:Work>
    <dc:type rdf:resource="http://purl.org/dc/dcmitype/StillImage"/>
    <dc:date>2022-01-21T00:37:06.497331</dc:date>
    <dc:format>image/svg+xml</dc:format>
    <dc:creator>
     <cc:Agent>
      <dc:title>Matplotlib v3.4.3, https://matplotlib.org/</dc:title>
     </cc:Agent>
    </dc:creator>
   </cc:Work>
  </rdf:RDF>
 </metadata>
 <defs>
  <style type="text/css">*{stroke-linecap:butt;stroke-linejoin:round;}</style>
 </defs>
 <g id="figure_1">
  <g id="patch_1">
   <path d="M 0 720 
L 1224 720 
L 1224 0 
L 0 0 
z
" style="fill:none;"/>
  </g>
  <g id="axes_1">
   <g id="patch_2">
    <path d="M 153 630 
L 1101.6 630 
L 1101.6 86.4 
L 153 86.4 
z
" style="fill:#ffffff;"/>
   </g>
   <g id="matplotlib.axis_1">
    <g id="xtick_1">
     <g id="line2d_1">
      <path clip-path="url(#pd3bbe33d12)" d="M 188.684013 630 
L 188.684013 86.4 
" style="fill:none;stroke:#b0b0b0;stroke-linecap:square;stroke-width:0.8;"/>
     </g>
     <g id="line2d_2">
      <defs>
       <path d="M 0 0 
L 0 3.5 
" id="mee8e27f78f" style="stroke:#000000;stroke-width:0.8;"/>
      </defs>
      <g>
       <use style="stroke:#000000;stroke-width:0.8;" x="188.684013" xlink:href="#mee8e27f78f" y="630"/>
      </g>
     </g>
     <g id="text_1">
      <!-- 0 -->
      <g transform="translate(185.502763 644.598438)scale(0.1 -0.1)">
       <defs>
        <path d="M 2034 4250 
Q 1547 4250 1301 3770 
Q 1056 3291 1056 2328 
Q 1056 1369 1301 889 
Q 1547 409 2034 409 
Q 2525 409 2770 889 
Q 3016 1369 3016 2328 
Q 3016 3291 2770 3770 
Q 2525 4250 2034 4250 
z
M 2034 4750 
Q 2819 4750 3233 4129 
Q 3647 3509 3647 2328 
Q 3647 1150 3233 529 
Q 2819 -91 2034 -91 
Q 1250 -91 836 529 
Q 422 1150 422 2328 
Q 422 3509 836 4129 
Q 1250 4750 2034 4750 
z
" id="DejaVuSans-30" transform="scale(0.015625)"/>
       </defs>
       <use xlink:href="#DejaVuSans-30"/>
      </g>
     </g>
    </g>
    <g id="xtick_2">
     <g id="line2d_3">
      <path clip-path="url(#pd3bbe33d12)" d="M 364.29431 630 
L 364.29431 86.4 
" style="fill:none;stroke:#b0b0b0;stroke-linecap:square;stroke-width:0.8;"/>
     </g>
     <g id="line2d_4">
      <g>
       <use style="stroke:#000000;stroke-width:0.8;" x="364.29431" xlink:href="#mee8e27f78f" y="630"/>
      </g>
     </g>
     <g id="text_2">
      <!-- 1 -->
      <g transform="translate(361.11306 644.598438)scale(0.1 -0.1)">
       <defs>
        <path d="M 794 531 
L 1825 531 
L 1825 4091 
L 703 3866 
L 703 4441 
L 1819 4666 
L 2450 4666 
L 2450 531 
L 3481 531 
L 3481 0 
L 794 0 
L 794 531 
z
" id="DejaVuSans-31" transform="scale(0.015625)"/>
       </defs>
       <use xlink:href="#DejaVuSans-31"/>
      </g>
     </g>
    </g>
    <g id="xtick_3">
     <g id="line2d_5">
      <path clip-path="url(#pd3bbe33d12)" d="M 539.904608 630 
L 539.904608 86.4 
" style="fill:none;stroke:#b0b0b0;stroke-linecap:square;stroke-width:0.8;"/>
     </g>
     <g id="line2d_6">
      <g>
       <use style="stroke:#000000;stroke-width:0.8;" x="539.904608" xlink:href="#mee8e27f78f" y="630"/>
      </g>
     </g>
     <g id="text_3">
      <!-- 2 -->
      <g transform="translate(536.723358 644.598438)scale(0.1 -0.1)">
       <defs>
        <path d="M 1228 531 
L 3431 531 
L 3431 0 
L 469 0 
L 469 531 
Q 828 903 1448 1529 
Q 2069 2156 2228 2338 
Q 2531 2678 2651 2914 
Q 2772 3150 2772 3378 
Q 2772 3750 2511 3984 
Q 2250 4219 1831 4219 
Q 1534 4219 1204 4116 
Q 875 4013 500 3803 
L 500 4441 
Q 881 4594 1212 4672 
Q 1544 4750 1819 4750 
Q 2544 4750 2975 4387 
Q 3406 4025 3406 3419 
Q 3406 3131 3298 2873 
Q 3191 2616 2906 2266 
Q 2828 2175 2409 1742 
Q 1991 1309 1228 531 
z
" id="DejaVuSans-32" transform="scale(0.015625)"/>
       </defs>
       <use xlink:href="#DejaVuSans-32"/>
      </g>
     </g>
    </g>
    <g id="xtick_4">
     <g id="line2d_7">
      <path clip-path="url(#pd3bbe33d12)" d="M 715.514906 630 
L 715.514906 86.4 
" style="fill:none;stroke:#b0b0b0;stroke-linecap:square;stroke-width:0.8;"/>
     </g>
     <g id="line2d_8">
      <g>
       <use style="stroke:#000000;stroke-width:0.8;" x="715.514906" xlink:href="#mee8e27f78f" y="630"/>
      </g>
     </g>
     <g id="text_4">
      <!-- 3 -->
      <g transform="translate(712.333656 644.598438)scale(0.1 -0.1)">
       <defs>
        <path d="M 2597 2516 
Q 3050 2419 3304 2112 
Q 3559 1806 3559 1356 
Q 3559 666 3084 287 
Q 2609 -91 1734 -91 
Q 1441 -91 1130 -33 
Q 819 25 488 141 
L 488 750 
Q 750 597 1062 519 
Q 1375 441 1716 441 
Q 2309 441 2620 675 
Q 2931 909 2931 1356 
Q 2931 1769 2642 2001 
Q 2353 2234 1838 2234 
L 1294 2234 
L 1294 2753 
L 1863 2753 
Q 2328 2753 2575 2939 
Q 2822 3125 2822 3475 
Q 2822 3834 2567 4026 
Q 2313 4219 1838 4219 
Q 1578 4219 1281 4162 
Q 984 4106 628 3988 
L 628 4550 
Q 988 4650 1302 4700 
Q 1616 4750 1894 4750 
Q 2613 4750 3031 4423 
Q 3450 4097 3450 3541 
Q 3450 3153 3228 2886 
Q 3006 2619 2597 2516 
z
" id="DejaVuSans-33" transform="scale(0.015625)"/>
       </defs>
       <use xlink:href="#DejaVuSans-33"/>
      </g>
     </g>
    </g>
    <g id="xtick_5">
     <g id="line2d_9">
      <path clip-path="url(#pd3bbe33d12)" d="M 891.125204 630 
L 891.125204 86.4 
" style="fill:none;stroke:#b0b0b0;stroke-linecap:square;stroke-width:0.8;"/>
     </g>
     <g id="line2d_10">
      <g>
       <use style="stroke:#000000;stroke-width:0.8;" x="891.125204" xlink:href="#mee8e27f78f" y="630"/>
      </g>
     </g>
     <g id="text_5">
      <!-- 4 -->
      <g transform="translate(887.943954 644.598438)scale(0.1 -0.1)">
       <defs>
        <path d="M 2419 4116 
L 825 1625 
L 2419 1625 
L 2419 4116 
z
M 2253 4666 
L 3047 4666 
L 3047 1625 
L 3713 1625 
L 3713 1100 
L 3047 1100 
L 3047 0 
L 2419 0 
L 2419 1100 
L 313 1100 
L 313 1709 
L 2253 4666 
z
" id="DejaVuSans-34" transform="scale(0.015625)"/>
       </defs>
       <use xlink:href="#DejaVuSans-34"/>
      </g>
     </g>
    </g>
    <g id="xtick_6">
     <g id="line2d_11">
      <path clip-path="url(#pd3bbe33d12)" d="M 1066.735502 630 
L 1066.735502 86.4 
" style="fill:none;stroke:#b0b0b0;stroke-linecap:square;stroke-width:0.8;"/>
     </g>
     <g id="line2d_12">
      <g>
       <use style="stroke:#000000;stroke-width:0.8;" x="1066.735502" xlink:href="#mee8e27f78f" y="630"/>
      </g>
     </g>
     <g id="text_6">
      <!-- 5 -->
      <g transform="translate(1063.554252 644.598438)scale(0.1 -0.1)">
       <defs>
        <path d="M 691 4666 
L 3169 4666 
L 3169 4134 
L 1269 4134 
L 1269 2991 
Q 1406 3038 1543 3061 
Q 1681 3084 1819 3084 
Q 2600 3084 3056 2656 
Q 3513 2228 3513 1497 
Q 3513 744 3044 326 
Q 2575 -91 1722 -91 
Q 1428 -91 1123 -41 
Q 819 9 494 109 
L 494 744 
Q 775 591 1075 516 
Q 1375 441 1709 441 
Q 2250 441 2565 725 
Q 2881 1009 2881 1497 
Q 2881 1984 2565 2268 
Q 2250 2553 1709 2553 
Q 1456 2553 1204 2497 
Q 953 2441 691 2322 
L 691 4666 
z
" id="DejaVuSans-35" transform="scale(0.015625)"/>
       </defs>
       <use xlink:href="#DejaVuSans-35"/>
      </g>
     </g>
    </g>
    <g id="text_7">
     <!-- Distance (m) -->
     <g transform="translate(580.89825 661.619875)scale(0.144 -0.144)">
      <defs>
       <path d="M 1259 4147 
L 1259 519 
L 2022 519 
Q 2988 519 3436 956 
Q 3884 1394 3884 2338 
Q 3884 3275 3436 3711 
Q 2988 4147 2022 4147 
L 1259 4147 
z
M 628 4666 
L 1925 4666 
Q 3281 4666 3915 4102 
Q 4550 3538 4550 2338 
Q 4550 1131 3912 565 
Q 3275 0 1925 0 
L 628 0 
L 628 4666 
z
" id="DejaVuSans-44" transform="scale(0.015625)"/>
       <path d="M 603 3500 
L 1178 3500 
L 1178 0 
L 603 0 
L 603 3500 
z
M 603 4863 
L 1178 4863 
L 1178 4134 
L 603 4134 
L 603 4863 
z
" id="DejaVuSans-69" transform="scale(0.015625)"/>
       <path d="M 2834 3397 
L 2834 2853 
Q 2591 2978 2328 3040 
Q 2066 3103 1784 3103 
Q 1356 3103 1142 2972 
Q 928 2841 928 2578 
Q 928 2378 1081 2264 
Q 1234 2150 1697 2047 
L 1894 2003 
Q 2506 1872 2764 1633 
Q 3022 1394 3022 966 
Q 3022 478 2636 193 
Q 2250 -91 1575 -91 
Q 1294 -91 989 -36 
Q 684 19 347 128 
L 347 722 
Q 666 556 975 473 
Q 1284 391 1588 391 
Q 1994 391 2212 530 
Q 2431 669 2431 922 
Q 2431 1156 2273 1281 
Q 2116 1406 1581 1522 
L 1381 1569 
Q 847 1681 609 1914 
Q 372 2147 372 2553 
Q 372 3047 722 3315 
Q 1072 3584 1716 3584 
Q 2034 3584 2315 3537 
Q 2597 3491 2834 3397 
z
" id="DejaVuSans-73" transform="scale(0.015625)"/>
       <path d="M 1172 4494 
L 1172 3500 
L 2356 3500 
L 2356 3053 
L 1172 3053 
L 1172 1153 
Q 1172 725 1289 603 
Q 1406 481 1766 481 
L 2356 481 
L 2356 0 
L 1766 0 
Q 1100 0 847 248 
Q 594 497 594 1153 
L 594 3053 
L 172 3053 
L 172 3500 
L 594 3500 
L 594 4494 
L 1172 4494 
z
" id="DejaVuSans-74" transform="scale(0.015625)"/>
       <path d="M 2194 1759 
Q 1497 1759 1228 1600 
Q 959 1441 959 1056 
Q 959 750 1161 570 
Q 1363 391 1709 391 
Q 2188 391 2477 730 
Q 2766 1069 2766 1631 
L 2766 1759 
L 2194 1759 
z
M 3341 1997 
L 3341 0 
L 2766 0 
L 2766 531 
Q 2569 213 2275 61 
Q 1981 -91 1556 -91 
Q 1019 -91 701 211 
Q 384 513 384 1019 
Q 384 1609 779 1909 
Q 1175 2209 1959 2209 
L 2766 2209 
L 2766 2266 
Q 2766 2663 2505 2880 
Q 2244 3097 1772 3097 
Q 1472 3097 1187 3025 
Q 903 2953 641 2809 
L 641 3341 
Q 956 3463 1253 3523 
Q 1550 3584 1831 3584 
Q 2591 3584 2966 3190 
Q 3341 2797 3341 1997 
z
" id="DejaVuSans-61" transform="scale(0.015625)"/>
       <path d="M 3513 2113 
L 3513 0 
L 2938 0 
L 2938 2094 
Q 2938 2591 2744 2837 
Q 2550 3084 2163 3084 
Q 1697 3084 1428 2787 
Q 1159 2491 1159 1978 
L 1159 0 
L 581 0 
L 581 3500 
L 1159 3500 
L 1159 2956 
Q 1366 3272 1645 3428 
Q 1925 3584 2291 3584 
Q 2894 3584 3203 3211 
Q 3513 2838 3513 2113 
z
" id="DejaVuSans-6e" transform="scale(0.015625)"/>
       <path d="M 3122 3366 
L 3122 2828 
Q 2878 2963 2633 3030 
Q 2388 3097 2138 3097 
Q 1578 3097 1268 2742 
Q 959 2388 959 1747 
Q 959 1106 1268 751 
Q 1578 397 2138 397 
Q 2388 397 2633 464 
Q 2878 531 3122 666 
L 3122 134 
Q 2881 22 2623 -34 
Q 2366 -91 2075 -91 
Q 1284 -91 818 406 
Q 353 903 353 1747 
Q 353 2603 823 3093 
Q 1294 3584 2113 3584 
Q 2378 3584 2631 3529 
Q 2884 3475 3122 3366 
z
" id="DejaVuSans-63" transform="scale(0.015625)"/>
       <path d="M 3597 1894 
L 3597 1613 
L 953 1613 
Q 991 1019 1311 708 
Q 1631 397 2203 397 
Q 2534 397 2845 478 
Q 3156 559 3463 722 
L 3463 178 
Q 3153 47 2828 -22 
Q 2503 -91 2169 -91 
Q 1331 -91 842 396 
Q 353 884 353 1716 
Q 353 2575 817 3079 
Q 1281 3584 2069 3584 
Q 2775 3584 3186 3129 
Q 3597 2675 3597 1894 
z
M 3022 2063 
Q 3016 2534 2758 2815 
Q 2500 3097 2075 3097 
Q 1594 3097 1305 2825 
Q 1016 2553 972 2059 
L 3022 2063 
z
" id="DejaVuSans-65" transform="scale(0.015625)"/>
       <path id="DejaVuSans-20" transform="scale(0.015625)"/>
       <path d="M 1984 4856 
Q 1566 4138 1362 3434 
Q 1159 2731 1159 2009 
Q 1159 1288 1364 580 
Q 1569 -128 1984 -844 
L 1484 -844 
Q 1016 -109 783 600 
Q 550 1309 550 2009 
Q 550 2706 781 3412 
Q 1013 4119 1484 4856 
L 1984 4856 
z
" id="DejaVuSans-28" transform="scale(0.015625)"/>
       <path d="M 3328 2828 
Q 3544 3216 3844 3400 
Q 4144 3584 4550 3584 
Q 5097 3584 5394 3201 
Q 5691 2819 5691 2113 
L 5691 0 
L 5113 0 
L 5113 2094 
Q 5113 2597 4934 2840 
Q 4756 3084 4391 3084 
Q 3944 3084 3684 2787 
Q 3425 2491 3425 1978 
L 3425 0 
L 2847 0 
L 2847 2094 
Q 2847 2600 2669 2842 
Q 2491 3084 2119 3084 
Q 1678 3084 1418 2786 
Q 1159 2488 1159 1978 
L 1159 0 
L 581 0 
L 581 3500 
L 1159 3500 
L 1159 2956 
Q 1356 3278 1631 3431 
Q 1906 3584 2284 3584 
Q 2666 3584 2933 3390 
Q 3200 3197 3328 2828 
z
" id="DejaVuSans-6d" transform="scale(0.015625)"/>
       <path d="M 513 4856 
L 1013 4856 
Q 1481 4119 1714 3412 
Q 1947 2706 1947 2009 
Q 1947 1309 1714 600 
Q 1481 -109 1013 -844 
L 513 -844 
Q 928 -128 1133 580 
Q 1338 1288 1338 2009 
Q 1338 2731 1133 3434 
Q 928 4138 513 4856 
z
" id="DejaVuSans-29" transform="scale(0.015625)"/>
      </defs>
      <use xlink:href="#DejaVuSans-44"/>
      <use x="77.001953" xlink:href="#DejaVuSans-69"/>
      <use x="104.785156" xlink:href="#DejaVuSans-73"/>
      <use x="156.884766" xlink:href="#DejaVuSans-74"/>
      <use x="196.09375" xlink:href="#DejaVuSans-61"/>
      <use x="257.373047" xlink:href="#DejaVuSans-6e"/>
      <use x="320.751953" xlink:href="#DejaVuSans-63"/>
      <use x="375.732422" xlink:href="#DejaVuSans-65"/>
      <use x="437.255859" xlink:href="#DejaVuSans-20"/>
      <use x="469.042969" xlink:href="#DejaVuSans-28"/>
      <use x="508.056641" xlink:href="#DejaVuSans-6d"/>
      <use x="605.46875" xlink:href="#DejaVuSans-29"/>
     </g>
    </g>
   </g>
   <g id="matplotlib.axis_2">
    <g id="ytick_1">
     <g id="line2d_13">
      <path clip-path="url(#pd3bbe33d12)" d="M 153 561.531056 
L 1101.6 561.531056 
" style="fill:none;stroke:#b0b0b0;stroke-linecap:square;stroke-width:0.8;"/>
     </g>
     <g id="line2d_14">
      <defs>
       <path d="M 0 0 
L -3.5 0 
" id="me6eae6e756" style="stroke:#000000;stroke-width:0.8;"/>
      </defs>
      <g>
       <use style="stroke:#000000;stroke-width:0.8;" x="153" xlink:href="#me6eae6e756" y="561.531056"/>
      </g>
     </g>
     <g id="text_8">
      <!-- $\mathdefault{10^{-5}}$ -->
      <g transform="translate(122.5 565.330275)scale(0.1 -0.1)">
       <defs>
        <path d="M 678 2272 
L 4684 2272 
L 4684 1741 
L 678 1741 
L 678 2272 
z
" id="DejaVuSans-2212" transform="scale(0.015625)"/>
       </defs>
       <use transform="translate(0 0.684375)" xlink:href="#DejaVuSans-31"/>
       <use transform="translate(63.623047 0.684375)" xlink:href="#DejaVuSans-30"/>
       <use transform="translate(128.203125 38.965625)scale(0.7)" xlink:href="#DejaVuSans-2212"/>
       <use transform="translate(186.855469 38.965625)scale(0.7)" xlink:href="#DejaVuSans-35"/>
      </g>
     </g>
    </g>
    <g id="ytick_2">
     <g id="line2d_15">
      <path clip-path="url(#pd3bbe33d12)" d="M 153 460.516399 
L 1101.6 460.516399 
" style="fill:none;stroke:#b0b0b0;stroke-linecap:square;stroke-width:0.8;"/>
     </g>
     <g id="line2d_16">
      <g>
       <use style="stroke:#000000;stroke-width:0.8;" x="153" xlink:href="#me6eae6e756" y="460.516399"/>
      </g>
     </g>
     <g id="text_9">
      <!-- $\mathdefault{10^{-4}}$ -->
      <g transform="translate(122.5 464.315618)scale(0.1 -0.1)">
       <use transform="translate(0 0.684375)" xlink:href="#DejaVuSans-31"/>
       <use transform="translate(63.623047 0.684375)" xlink:href="#DejaVuSans-30"/>
       <use transform="translate(128.203125 38.965625)scale(0.7)" xlink:href="#DejaVuSans-2212"/>
       <use transform="translate(186.855469 38.965625)scale(0.7)" xlink:href="#DejaVuSans-34"/>
      </g>
     </g>
    </g>
    <g id="ytick_3">
     <g id="line2d_17">
      <path clip-path="url(#pd3bbe33d12)" d="M 153 359.501741 
L 1101.6 359.501741 
" style="fill:none;stroke:#b0b0b0;stroke-linecap:square;stroke-width:0.8;"/>
     </g>
     <g id="line2d_18">
      <g>
       <use style="stroke:#000000;stroke-width:0.8;" x="153" xlink:href="#me6eae6e756" y="359.501741"/>
      </g>
     </g>
     <g id="text_10">
      <!-- $\mathdefault{10^{-3}}$ -->
      <g transform="translate(122.5 363.30096)scale(0.1 -0.1)">
       <use transform="translate(0 0.765625)" xlink:href="#DejaVuSans-31"/>
       <use transform="translate(63.623047 0.765625)" xlink:href="#DejaVuSans-30"/>
       <use transform="translate(128.203125 39.046875)scale(0.7)" xlink:href="#DejaVuSans-2212"/>
       <use transform="translate(186.855469 39.046875)scale(0.7)" xlink:href="#DejaVuSans-33"/>
      </g>
     </g>
    </g>
    <g id="ytick_4">
     <g id="line2d_19">
      <path clip-path="url(#pd3bbe33d12)" d="M 153 258.487084 
L 1101.6 258.487084 
" style="fill:none;stroke:#b0b0b0;stroke-linecap:square;stroke-width:0.8;"/>
     </g>
     <g id="line2d_20">
      <g>
       <use style="stroke:#000000;stroke-width:0.8;" x="153" xlink:href="#me6eae6e756" y="258.487084"/>
      </g>
     </g>
     <g id="text_11">
      <!-- $\mathdefault{10^{-2}}$ -->
      <g transform="translate(122.5 262.286303)scale(0.1 -0.1)">
       <use transform="translate(0 0.765625)" xlink:href="#DejaVuSans-31"/>
       <use transform="translate(63.623047 0.765625)" xlink:href="#DejaVuSans-30"/>
       <use transform="translate(128.203125 39.046875)scale(0.7)" xlink:href="#DejaVuSans-2212"/>
       <use transform="translate(186.855469 39.046875)scale(0.7)" xlink:href="#DejaVuSans-32"/>
      </g>
     </g>
    </g>
    <g id="ytick_5">
     <g id="line2d_21">
      <path clip-path="url(#pd3bbe33d12)" d="M 153 157.472427 
L 1101.6 157.472427 
" style="fill:none;stroke:#b0b0b0;stroke-linecap:square;stroke-width:0.8;"/>
     </g>
     <g id="line2d_22">
      <g>
       <use style="stroke:#000000;stroke-width:0.8;" x="153" xlink:href="#me6eae6e756" y="157.472427"/>
      </g>
     </g>
     <g id="text_12">
      <!-- $\mathdefault{10^{-1}}$ -->
      <g transform="translate(122.5 161.271645)scale(0.1 -0.1)">
       <use transform="translate(0 0.684375)" xlink:href="#DejaVuSans-31"/>
       <use transform="translate(63.623047 0.684375)" xlink:href="#DejaVuSans-30"/>
       <use transform="translate(128.203125 38.965625)scale(0.7)" xlink:href="#DejaVuSans-2212"/>
       <use transform="translate(186.855469 38.965625)scale(0.7)" xlink:href="#DejaVuSans-31"/>
      </g>
     </g>
    </g>
    <g id="ytick_6">
     <g id="line2d_23">
      <defs>
       <path d="M 0 0 
L -2 0 
" id="m4df2884906" style="stroke:#000000;stroke-width:0.6;"/>
      </defs>
      <g>
       <use style="stroke:#000000;stroke-width:0.6;" x="153" xlink:href="#m4df2884906" y="614.349474"/>
      </g>
     </g>
    </g>
    <g id="ytick_7">
     <g id="line2d_24">
      <g>
       <use style="stroke:#000000;stroke-width:0.6;" x="153" xlink:href="#m4df2884906" y="601.72883"/>
      </g>
     </g>
    </g>
    <g id="ytick_8">
     <g id="line2d_25">
      <g>
       <use style="stroke:#000000;stroke-width:0.6;" x="153" xlink:href="#m4df2884906" y="591.939498"/>
      </g>
     </g>
    </g>
    <g id="ytick_9">
     <g id="line2d_26">
      <g>
       <use style="stroke:#000000;stroke-width:0.6;" x="153" xlink:href="#m4df2884906" y="583.941032"/>
      </g>
     </g>
    </g>
    <g id="ytick_10">
     <g id="line2d_27">
      <g>
       <use style="stroke:#000000;stroke-width:0.6;" x="153" xlink:href="#m4df2884906" y="577.178425"/>
      </g>
     </g>
    </g>
    <g id="ytick_11">
     <g id="line2d_28">
      <g>
       <use style="stroke:#000000;stroke-width:0.6;" x="153" xlink:href="#m4df2884906" y="571.320388"/>
      </g>
     </g>
    </g>
    <g id="ytick_12">
     <g id="line2d_29">
      <g>
       <use style="stroke:#000000;stroke-width:0.6;" x="153" xlink:href="#m4df2884906" y="566.153234"/>
      </g>
     </g>
    </g>
    <g id="ytick_13">
     <g id="line2d_30">
      <g>
       <use style="stroke:#000000;stroke-width:0.6;" x="153" xlink:href="#m4df2884906" y="531.122615"/>
      </g>
     </g>
    </g>
    <g id="ytick_14">
     <g id="line2d_31">
      <g>
       <use style="stroke:#000000;stroke-width:0.6;" x="153" xlink:href="#m4df2884906" y="513.334816"/>
      </g>
     </g>
    </g>
    <g id="ytick_15">
     <g id="line2d_32">
      <g>
       <use style="stroke:#000000;stroke-width:0.6;" x="153" xlink:href="#m4df2884906" y="500.714173"/>
      </g>
     </g>
    </g>
    <g id="ytick_16">
     <g id="line2d_33">
      <g>
       <use style="stroke:#000000;stroke-width:0.6;" x="153" xlink:href="#m4df2884906" y="490.924841"/>
      </g>
     </g>
    </g>
    <g id="ytick_17">
     <g id="line2d_34">
      <g>
       <use style="stroke:#000000;stroke-width:0.6;" x="153" xlink:href="#m4df2884906" y="482.926374"/>
      </g>
     </g>
    </g>
    <g id="ytick_18">
     <g id="line2d_35">
      <g>
       <use style="stroke:#000000;stroke-width:0.6;" x="153" xlink:href="#m4df2884906" y="476.163767"/>
      </g>
     </g>
    </g>
    <g id="ytick_19">
     <g id="line2d_36">
      <g>
       <use style="stroke:#000000;stroke-width:0.6;" x="153" xlink:href="#m4df2884906" y="470.305731"/>
      </g>
     </g>
    </g>
    <g id="ytick_20">
     <g id="line2d_37">
      <g>
       <use style="stroke:#000000;stroke-width:0.6;" x="153" xlink:href="#m4df2884906" y="465.138576"/>
      </g>
     </g>
    </g>
    <g id="ytick_21">
     <g id="line2d_38">
      <g>
       <use style="stroke:#000000;stroke-width:0.6;" x="153" xlink:href="#m4df2884906" y="430.107957"/>
      </g>
     </g>
    </g>
    <g id="ytick_22">
     <g id="line2d_39">
      <g>
       <use style="stroke:#000000;stroke-width:0.6;" x="153" xlink:href="#m4df2884906" y="412.320159"/>
      </g>
     </g>
    </g>
    <g id="ytick_23">
     <g id="line2d_40">
      <g>
       <use style="stroke:#000000;stroke-width:0.6;" x="153" xlink:href="#m4df2884906" y="399.699515"/>
      </g>
     </g>
    </g>
    <g id="ytick_24">
     <g id="line2d_41">
      <g>
       <use style="stroke:#000000;stroke-width:0.6;" x="153" xlink:href="#m4df2884906" y="389.910183"/>
      </g>
     </g>
    </g>
    <g id="ytick_25">
     <g id="line2d_42">
      <g>
       <use style="stroke:#000000;stroke-width:0.6;" x="153" xlink:href="#m4df2884906" y="381.911717"/>
      </g>
     </g>
    </g>
    <g id="ytick_26">
     <g id="line2d_43">
      <g>
       <use style="stroke:#000000;stroke-width:0.6;" x="153" xlink:href="#m4df2884906" y="375.14911"/>
      </g>
     </g>
    </g>
    <g id="ytick_27">
     <g id="line2d_44">
      <g>
       <use style="stroke:#000000;stroke-width:0.6;" x="153" xlink:href="#m4df2884906" y="369.291073"/>
      </g>
     </g>
    </g>
    <g id="ytick_28">
     <g id="line2d_45">
      <g>
       <use style="stroke:#000000;stroke-width:0.6;" x="153" xlink:href="#m4df2884906" y="364.123919"/>
      </g>
     </g>
    </g>
    <g id="ytick_29">
     <g id="line2d_46">
      <g>
       <use style="stroke:#000000;stroke-width:0.6;" x="153" xlink:href="#m4df2884906" y="329.0933"/>
      </g>
     </g>
    </g>
    <g id="ytick_30">
     <g id="line2d_47">
      <g>
       <use style="stroke:#000000;stroke-width:0.6;" x="153" xlink:href="#m4df2884906" y="311.305501"/>
      </g>
     </g>
    </g>
    <g id="ytick_31">
     <g id="line2d_48">
      <g>
       <use style="stroke:#000000;stroke-width:0.6;" x="153" xlink:href="#m4df2884906" y="298.684858"/>
      </g>
     </g>
    </g>
    <g id="ytick_32">
     <g id="line2d_49">
      <g>
       <use style="stroke:#000000;stroke-width:0.6;" x="153" xlink:href="#m4df2884906" y="288.895526"/>
      </g>
     </g>
    </g>
    <g id="ytick_33">
     <g id="line2d_50">
      <g>
       <use style="stroke:#000000;stroke-width:0.6;" x="153" xlink:href="#m4df2884906" y="280.897059"/>
      </g>
     </g>
    </g>
    <g id="ytick_34">
     <g id="line2d_51">
      <g>
       <use style="stroke:#000000;stroke-width:0.6;" x="153" xlink:href="#m4df2884906" y="274.134452"/>
      </g>
     </g>
    </g>
    <g id="ytick_35">
     <g id="line2d_52">
      <g>
       <use style="stroke:#000000;stroke-width:0.6;" x="153" xlink:href="#m4df2884906" y="268.276416"/>
      </g>
     </g>
    </g>
    <g id="ytick_36">
     <g id="line2d_53">
      <g>
       <use style="stroke:#000000;stroke-width:0.6;" x="153" xlink:href="#m4df2884906" y="263.109261"/>
      </g>
     </g>
    </g>
    <g id="ytick_37">
     <g id="line2d_54">
      <g>
       <use style="stroke:#000000;stroke-width:0.6;" x="153" xlink:href="#m4df2884906" y="228.078642"/>
      </g>
     </g>
    </g>
    <g id="ytick_38">
     <g id="line2d_55">
      <g>
       <use style="stroke:#000000;stroke-width:0.6;" x="153" xlink:href="#m4df2884906" y="210.290844"/>
      </g>
     </g>
    </g>
    <g id="ytick_39">
     <g id="line2d_56">
      <g>
       <use style="stroke:#000000;stroke-width:0.6;" x="153" xlink:href="#m4df2884906" y="197.6702"/>
      </g>
     </g>
    </g>
    <g id="ytick_40">
     <g id="line2d_57">
      <g>
       <use style="stroke:#000000;stroke-width:0.6;" x="153" xlink:href="#m4df2884906" y="187.880868"/>
      </g>
     </g>
    </g>
    <g id="ytick_41">
     <g id="line2d_58">
      <g>
       <use style="stroke:#000000;stroke-width:0.6;" x="153" xlink:href="#m4df2884906" y="179.882402"/>
      </g>
     </g>
    </g>
    <g id="ytick_42">
     <g id="line2d_59">
      <g>
       <use style="stroke:#000000;stroke-width:0.6;" x="153" xlink:href="#m4df2884906" y="173.119795"/>
      </g>
     </g>
    </g>
    <g id="ytick_43">
     <g id="line2d_60">
      <g>
       <use style="stroke:#000000;stroke-width:0.6;" x="153" xlink:href="#m4df2884906" y="167.261758"/>
      </g>
     </g>
    </g>
    <g id="ytick_44">
     <g id="line2d_61">
      <g>
       <use style="stroke:#000000;stroke-width:0.6;" x="153" xlink:href="#m4df2884906" y="162.094604"/>
      </g>
     </g>
    </g>
    <g id="ytick_45">
     <g id="line2d_62">
      <g>
       <use style="stroke:#000000;stroke-width:0.6;" x="153" xlink:href="#m4df2884906" y="127.063985"/>
      </g>
     </g>
    </g>
    <g id="ytick_46">
     <g id="line2d_63">
      <g>
       <use style="stroke:#000000;stroke-width:0.6;" x="153" xlink:href="#m4df2884906" y="109.276186"/>
      </g>
     </g>
    </g>
    <g id="ytick_47">
     <g id="line2d_64">
      <g>
       <use style="stroke:#000000;stroke-width:0.6;" x="153" xlink:href="#m4df2884906" y="96.655543"/>
      </g>
     </g>
    </g>
    <g id="ytick_48">
     <g id="line2d_65">
      <g>
       <use style="stroke:#000000;stroke-width:0.6;" x="153" xlink:href="#m4df2884906" y="86.866211"/>
      </g>
     </g>
    </g>
    <g id="text_13">
     <!-- Concentration (molal) -->
     <g transform="translate(115.50525 436.872375)rotate(-90)scale(0.144 -0.144)">
      <defs>
       <path d="M 4122 4306 
L 4122 3641 
Q 3803 3938 3442 4084 
Q 3081 4231 2675 4231 
Q 1875 4231 1450 3742 
Q 1025 3253 1025 2328 
Q 1025 1406 1450 917 
Q 1875 428 2675 428 
Q 3081 428 3442 575 
Q 3803 722 4122 1019 
L 4122 359 
Q 3791 134 3420 21 
Q 3050 -91 2638 -91 
Q 1578 -91 968 557 
Q 359 1206 359 2328 
Q 359 3453 968 4101 
Q 1578 4750 2638 4750 
Q 3056 4750 3426 4639 
Q 3797 4528 4122 4306 
z
" id="DejaVuSans-43" transform="scale(0.015625)"/>
       <path d="M 1959 3097 
Q 1497 3097 1228 2736 
Q 959 2375 959 1747 
Q 959 1119 1226 758 
Q 1494 397 1959 397 
Q 2419 397 2687 759 
Q 2956 1122 2956 1747 
Q 2956 2369 2687 2733 
Q 2419 3097 1959 3097 
z
M 1959 3584 
Q 2709 3584 3137 3096 
Q 3566 2609 3566 1747 
Q 3566 888 3137 398 
Q 2709 -91 1959 -91 
Q 1206 -91 779 398 
Q 353 888 353 1747 
Q 353 2609 779 3096 
Q 1206 3584 1959 3584 
z
" id="DejaVuSans-6f" transform="scale(0.015625)"/>
       <path d="M 2631 2963 
Q 2534 3019 2420 3045 
Q 2306 3072 2169 3072 
Q 1681 3072 1420 2755 
Q 1159 2438 1159 1844 
L 1159 0 
L 581 0 
L 581 3500 
L 1159 3500 
L 1159 2956 
Q 1341 3275 1631 3429 
Q 1922 3584 2338 3584 
Q 2397 3584 2469 3576 
Q 2541 3569 2628 3553 
L 2631 2963 
z
" id="DejaVuSans-72" transform="scale(0.015625)"/>
       <path d="M 603 4863 
L 1178 4863 
L 1178 0 
L 603 0 
L 603 4863 
z
" id="DejaVuSans-6c" transform="scale(0.015625)"/>
      </defs>
      <use xlink:href="#DejaVuSans-43"/>
      <use x="69.824219" xlink:href="#DejaVuSans-6f"/>
      <use x="131.005859" xlink:href="#DejaVuSans-6e"/>
      <use x="194.384766" xlink:href="#DejaVuSans-63"/>
      <use x="249.365234" xlink:href="#DejaVuSans-65"/>
      <use x="310.888672" xlink:href="#DejaVuSans-6e"/>
      <use x="374.267578" xlink:href="#DejaVuSans-74"/>
      <use x="413.476562" xlink:href="#DejaVuSans-72"/>
      <use x="454.589844" xlink:href="#DejaVuSans-61"/>
      <use x="515.869141" xlink:href="#DejaVuSans-74"/>
      <use x="555.078125" xlink:href="#DejaVuSans-69"/>
      <use x="582.861328" xlink:href="#DejaVuSans-6f"/>
      <use x="644.042969" xlink:href="#DejaVuSans-6e"/>
      <use x="707.421875" xlink:href="#DejaVuSans-20"/>
      <use x="739.208984" xlink:href="#DejaVuSans-28"/>
      <use x="778.222656" xlink:href="#DejaVuSans-6d"/>
      <use x="875.634766" xlink:href="#DejaVuSans-6f"/>
      <use x="936.816406" xlink:href="#DejaVuSans-6c"/>
      <use x="964.599609" xlink:href="#DejaVuSans-61"/>
      <use x="1025.878906" xlink:href="#DejaVuSans-6c"/>
      <use x="1053.662109" xlink:href="#DejaVuSans-29"/>
     </g>
    </g>
   </g>
   <g id="line2d_66"/>
   <g id="line2d_67">
    <path clip-path="url(#pd3bbe33d12)" d="M 196.118182 231.498833 
L 210.98652 230.167123 
L 225.854859 228.874662 
L 240.723197 227.6192 
L 255.591536 226.398677 
L 270.459875 225.022042 
L 285.328213 224.80837 
L 300.196552 224.598172 
L 315.06489 224.391033 
L 329.933229 224.187993 
L 344.801567 223.988908 
L 359.669906 223.793637 
L 374.538245 223.602052 
L 389.406583 223.414028 
L 404.274922 223.229448 
L 419.14326 223.048199 
L 434.011599 222.870176 
L 448.879937 222.695278 
L 463.748276 222.523408 
L 478.616614 222.354475 
L 493.484953 222.188391 
L 508.353292 222.025072 
L 523.22163 221.86444 
L 538.089969 221.706418 
L 552.958307 221.550932 
L 567.826646 221.397912 
L 582.694984 221.247293 
L 597.563323 221.099009 
L 612.431661 220.953 
L 627.3 220.809205 
L 642.168339 220.667569 
L 657.036677 220.528036 
L 671.905016 220.390555 
L 686.773354 220.255074 
L 701.641693 220.121546 
L 716.510031 219.989924 
L 731.37837 219.860162 
L 746.246708 219.732217 
L 761.115047 219.606048 
L 775.983386 219.481613 
L 790.851724 219.358875 
L 805.720063 219.237795 
L 820.588401 219.118337 
L 835.45674 219.000466 
L 850.325078 218.884147 
L 865.193417 218.769349 
L 880.061755 218.65604 
L 894.930094 218.544188 
L 909.798433 218.433763 
L 924.666771 218.324738 
L 939.53511 218.217084 
L 954.403448 218.110774 
L 969.271787 218.005781 
L 984.140125 217.902081 
L 999.008464 217.799648 
L 1013.876803 217.69846 
L 1028.745141 217.598491 
L 1043.61348 217.49972 
L 1058.481818 217.402125 
" style="fill:none;stroke:#ff7f0e;stroke-linecap:square;stroke-width:1.5;"/>
   </g>
   <g id="line2d_68"/>
   <g id="line2d_69">
    <path clip-path="url(#pd3bbe33d12)" d="M 196.118182 243.121135 
L 210.98652 241.789425 
L 225.854859 240.496964 
L 240.723197 239.241502 
L 255.591536 238.02098 
L 270.459875 236.833649 
L 285.328213 235.67674 
L 300.196552 234.549523 
L 315.06489 233.450512 
L 329.933229 232.378326 
L 344.801567 231.331686 
L 359.669906 230.309402 
L 374.538245 229.310364 
L 389.406583 228.333538 
L 404.274922 227.377956 
L 419.14326 226.442712 
L 434.011599 225.526959 
L 448.879937 224.629898 
L 463.748276 223.750782 
L 478.616614 222.888906 
L 493.484953 222.043605 
L 508.353292 221.214254 
L 523.22163 220.400261 
L 538.089969 219.601066 
L 552.958307 218.81614 
L 567.826646 218.044983 
L 582.694984 217.287119 
L 597.563323 216.542096 
L 612.431661 215.809486 
L 627.3 215.088882 
L 642.168339 214.379896 
L 657.036677 213.682158 
L 671.905016 212.995318 
L 686.773354 212.319038 
L 701.641693 211.653 
L 716.510031 210.996896 
L 731.37837 210.350435 
L 746.246708 209.713336 
L 761.115047 209.085333 
L 775.983386 208.466167 
L 790.851724 207.855594 
L 805.720063 207.253379 
L 820.588401 206.659294 
L 835.45674 206.073124 
L 850.325078 205.494658 
L 865.193417 204.923698 
L 880.061755 204.360051 
L 894.930094 203.803531 
L 909.798433 203.25396 
L 924.666771 202.711167 
L 939.53511 202.174985 
L 954.403448 201.645256 
L 969.271787 201.121825 
L 984.140125 200.604545 
L 999.008464 200.093272 
L 1013.876803 199.587868 
L 1028.745141 199.0882 
L 1043.61348 198.594138 
L 1058.481818 198.105559 
" style="fill:none;stroke:#d62728;stroke-linecap:square;stroke-width:1.5;"/>
   </g>
   <g id="line2d_70"/>
   <g id="line2d_71">
    <path clip-path="url(#pd3bbe33d12)" d="M 196.118182 163.405394 
L 210.98652 162.073685 
L 225.854859 160.781223 
L 240.723197 159.525761 
L 255.591536 158.305239 
L 270.459875 157.117908 
L 285.328213 155.960999 
L 300.196552 154.833782 
L 315.06489 153.734771 
L 329.933229 152.662585 
L 344.801567 151.615945 
L 359.669906 150.593661 
L 374.538245 149.594623 
L 389.406583 148.617797 
L 404.274922 147.662215 
L 419.14326 146.726971 
L 434.011599 145.811218 
L 448.879937 144.914157 
L 463.748276 144.035042 
L 478.616614 143.173165 
L 493.484953 142.327865 
L 508.353292 141.498513 
L 523.22163 140.68452 
L 538.089969 139.885325 
L 552.958307 139.1004 
L 567.826646 138.329242 
L 582.694984 137.571378 
L 597.563323 136.826355 
L 612.431661 136.093745 
L 627.3 135.373141 
L 642.168339 134.664155 
L 657.036677 133.966417 
L 671.905016 133.279577 
L 686.773354 132.603298 
L 701.641693 131.937259 
L 716.510031 131.281156 
L 731.37837 130.634694 
L 746.246708 129.997596 
L 761.115047 129.369592 
L 775.983386 128.750426 
L 790.851724 128.139854 
L 805.720063 127.537638 
L 820.588401 126.943553 
L 835.45674 126.357383 
L 850.325078 125.778918 
L 865.193417 125.207958 
L 880.061755 124.64431 
L 894.930094 124.08779 
L 909.798433 123.53822 
L 924.666771 122.995426 
L 939.53511 122.459244 
L 954.403448 121.929515 
L 969.271787 121.406085 
L 984.140125 120.888804 
L 999.008464 120.377531 
L 1013.876803 119.872128 
L 1028.745141 119.372459 
L 1043.61348 118.878398 
L 1058.481818 118.389818 
" style="fill:none;stroke:#8c564b;stroke-linecap:square;stroke-width:1.5;"/>
   </g>
   <g id="line2d_72"/>
   <g id="line2d_73">
    <path clip-path="url(#pd3bbe33d12)" d="M 196.118182 441.918898 
L 210.98652 440.587188 
L 225.854859 439.294727 
L 240.723197 438.039265 
L 255.591536 436.818743 
L 270.459875 435.631412 
L 285.328213 434.474503 
L 300.196552 433.745414 
L 315.06489 433.537821 
L 329.933229 433.33427 
L 344.801567 433.13462 
L 359.669906 432.938736 
L 374.538245 432.746489 
L 389.406583 432.557758 
L 404.274922 432.372428 
L 419.14326 432.19039 
L 434.011599 432.011539 
L 448.879937 431.835777 
L 463.748276 431.66301 
L 478.616614 431.493146 
L 493.484953 431.326102 
L 508.353292 431.161794 
L 523.22163 431.000144 
L 538.089969 430.841078 
L 552.958307 430.684524 
L 567.826646 430.530412 
L 582.694984 430.378679 
L 597.563323 430.229259 
L 612.431661 430.082094 
L 627.3 429.937124 
L 642.168339 429.794294 
L 657.036677 429.653551 
L 671.905016 429.514843 
L 686.773354 429.37812 
L 701.641693 429.243334 
L 716.510031 429.11044 
L 731.37837 428.979393 
L 746.246708 428.850151 
L 761.115047 428.722672 
L 775.983386 428.596917 
L 790.851724 428.472847 
L 805.720063 428.350426 
L 820.588401 428.229617 
L 835.45674 428.110386 
L 850.325078 427.992699 
L 865.193417 427.876524 
L 880.061755 427.761831 
L 894.930094 427.648587 
L 909.798433 427.536765 
L 924.666771 427.426336 
L 939.53511 427.317273 
L 954.403448 427.209547 
L 969.271787 427.103135 
L 984.140125 426.99801 
L 999.008464 426.894149 
L 1013.876803 426.791528 
L 1028.745141 426.690123 
L 1043.61348 426.589913 
L 1058.481818 426.490876 
" style="fill:none;stroke:#7f7f7f;stroke-linecap:square;stroke-width:1.5;"/>
   </g>
   <g id="line2d_74"/>
   <g id="line2d_75">
    <path clip-path="url(#pd3bbe33d12)" d="M 196.118182 156.124667 
L 210.98652 154.792958 
L 225.854859 153.500496 
L 240.723197 152.245034 
L 255.591536 151.024512 
L 270.459875 149.837182 
L 285.328213 148.680272 
L 300.196552 147.553056 
L 315.06489 146.454044 
L 329.933229 145.381858 
L 344.801567 144.335219 
L 359.669906 143.312934 
L 374.538245 142.313896 
L 389.406583 141.33707 
L 404.274922 140.381488 
L 419.14326 139.446245 
L 434.011599 138.530491 
L 448.879937 137.633431 
L 463.748276 136.754315 
L 478.616614 135.892438 
L 493.484953 135.047138 
L 508.353292 134.217787 
L 523.22163 133.403793 
L 538.089969 132.604598 
L 552.958307 131.819673 
L 567.826646 131.048515 
L 582.694984 130.290651 
L 597.563323 129.545628 
L 612.431661 128.813018 
L 627.3 128.092414 
L 642.168339 127.383428 
L 657.036677 126.685691 
L 671.905016 125.99885 
L 686.773354 125.322571 
L 701.641693 124.656532 
L 716.510031 124.000429 
L 731.37837 123.353967 
L 746.246708 122.716869 
L 761.115047 122.088865 
L 775.983386 121.4697 
L 790.851724 120.859127 
L 805.720063 120.256911 
L 820.588401 119.662827 
L 835.45674 119.076656 
L 850.325078 118.498191 
L 865.193417 117.927231 
L 880.061755 117.363584 
L 894.930094 116.807064 
L 909.798433 116.257493 
L 924.666771 115.714699 
L 939.53511 115.178518 
L 954.403448 114.648788 
L 969.271787 114.125358 
L 984.140125 113.608078 
L 999.008464 113.096805 
L 1013.876803 112.591401 
L 1028.745141 112.091732 
L 1043.61348 111.597671 
L 1058.481818 111.109091 
" style="fill:none;stroke:#17becf;stroke-linecap:square;stroke-width:1.5;"/>
   </g>
   <g id="line2d_76"/>
   <g id="line2d_77">
    <path clip-path="url(#pd3bbe33d12)" d="M 196.118182 219.86022 
L 210.98652 218.52851 
L 225.854859 217.236049 
L 240.723197 215.980587 
L 255.591536 214.760065 
L 270.459875 213.427468 
L 285.328213 212.992913 
L 300.196552 212.56705 
L 315.06489 212.150125 
L 329.933229 211.739491 
L 344.801567 211.334937 
L 359.669906 210.936265 
L 374.538245 210.543286 
L 389.406583 210.155821 
L 404.274922 209.773699 
L 419.14326 209.396758 
L 434.011599 209.024844 
L 448.879937 208.657808 
L 463.748276 208.295511 
L 478.616614 207.937818 
L 493.484953 207.5846 
L 508.353292 207.235735 
L 523.22163 206.891104 
L 538.089969 206.550596 
L 552.958307 206.214101 
L 567.826646 205.881517 
L 582.694984 205.552744 
L 597.563323 205.227687 
L 612.431661 204.906253 
L 627.3 204.588355 
L 642.168339 204.273906 
L 657.036677 203.962827 
L 671.905016 203.655037 
L 686.773354 203.350461 
L 701.641693 203.049026 
L 716.510031 202.750661 
L 731.37837 202.455298 
L 746.246708 202.162871 
L 761.115047 201.873317 
L 775.983386 201.586574 
L 790.851724 201.302583 
L 805.720063 201.021287 
L 820.588401 200.74263 
L 835.45674 200.466558 
L 850.325078 200.193019 
L 865.193417 199.921963 
L 880.061755 199.65334 
L 894.930094 199.387104 
L 909.798433 199.123209 
L 924.666771 198.86161 
L 939.53511 198.602264 
L 954.403448 198.345128 
L 969.271787 198.090162 
L 984.140125 197.837327 
L 999.008464 197.586583 
L 1013.876803 197.337894 
L 1028.745141 197.091224 
L 1043.61348 196.846536 
L 1058.481818 196.603796 
" style="fill:none;stroke:#ff7f0e;stroke-linecap:square;stroke-width:1.5;"/>
   </g>
   <g id="line2d_78"/>
   <g id="line2d_79">
    <path clip-path="url(#pd3bbe33d12)" d="M 196.118182 605.290909 
L 210.98652 603.9592 
L 225.854859 602.666738 
L 240.723197 601.411276 
L 255.591536 600.190754 
L 270.459875 599.003424 
L 285.328213 597.846514 
L 300.196552 596.719298 
L 315.06489 595.620286 
L 329.933229 594.5481 
L 344.801567 593.501461 
L 359.669906 592.479176 
L 374.538245 591.480138 
L 389.406583 590.503312 
L 404.274922 589.54773 
L 419.14326 588.612486 
L 434.011599 587.696733 
L 448.879937 586.799673 
L 463.748276 585.920557 
L 478.616614 585.05868 
L 493.484953 584.21338 
L 508.353292 583.384028 
L 523.22163 582.570035 
L 538.089969 581.77084 
L 552.958307 580.985915 
L 567.826646 580.214757 
L 582.694984 579.456893 
L 597.563323 578.71187 
L 612.431661 577.97926 
L 627.3 577.258656 
L 642.168339 576.54967 
L 657.036677 575.851933 
L 671.905016 575.165092 
L 686.773354 574.488813 
L 701.641693 573.822774 
L 716.510031 573.166671 
L 731.37837 572.520209 
L 746.246708 571.883111 
L 761.115047 571.255107 
L 775.983386 570.635941 
L 790.851724 570.025369 
L 805.720063 569.423153 
L 820.588401 568.829068 
L 835.45674 568.242898 
L 850.325078 567.664433 
L 865.193417 567.093473 
L 880.061755 566.529825 
L 894.930094 565.973306 
L 909.798433 565.423735 
L 924.666771 564.880941 
L 939.53511 564.344759 
L 954.403448 563.81503 
L 969.271787 563.2916 
L 984.140125 562.774319 
L 999.008464 562.263047 
L 1013.876803 561.757643 
L 1028.745141 561.257974 
L 1043.61348 560.763913 
L 1058.481818 560.275333 
" style="fill:none;stroke:#d62728;stroke-linecap:square;stroke-width:1.5;"/>
   </g>
   <g id="patch_3">
    <path d="M 153 630 
L 153 86.4 
" style="fill:none;stroke:#000000;stroke-linecap:square;stroke-linejoin:miter;stroke-width:0.8;"/>
   </g>
   <g id="patch_4">
    <path d="M 1101.6 630 
L 1101.6 86.4 
" style="fill:none;stroke:#000000;stroke-linecap:square;stroke-linejoin:miter;stroke-width:0.8;"/>
   </g>
   <g id="patch_5">
    <path d="M 153 630 
L 1101.6 630 
" style="fill:none;stroke:#000000;stroke-linecap:square;stroke-linejoin:miter;stroke-width:0.8;"/>
   </g>
   <g id="patch_6">
    <path d="M 153 86.4 
L 1101.6 86.4 
" style="fill:none;stroke:#000000;stroke-linecap:square;stroke-linejoin:miter;stroke-width:0.8;"/>
   </g>
   <g id="text_14">
    <!-- Brine concentrations along the module after 7.6E1 seconds -->
    <g transform="translate(370.11285 80.4)scale(0.1728 -0.1728)">
     <defs>
      <path d="M 1259 2228 
L 1259 519 
L 2272 519 
Q 2781 519 3026 730 
Q 3272 941 3272 1375 
Q 3272 1813 3026 2020 
Q 2781 2228 2272 2228 
L 1259 2228 
z
M 1259 4147 
L 1259 2741 
L 2194 2741 
Q 2656 2741 2882 2914 
Q 3109 3088 3109 3444 
Q 3109 3797 2882 3972 
Q 2656 4147 2194 4147 
L 1259 4147 
z
M 628 4666 
L 2241 4666 
Q 2963 4666 3353 4366 
Q 3744 4066 3744 3513 
Q 3744 3084 3544 2831 
Q 3344 2578 2956 2516 
Q 3422 2416 3680 2098 
Q 3938 1781 3938 1306 
Q 3938 681 3513 340 
Q 3088 0 2303 0 
L 628 0 
L 628 4666 
z
" id="DejaVuSans-42" transform="scale(0.015625)"/>
      <path d="M 2906 1791 
Q 2906 2416 2648 2759 
Q 2391 3103 1925 3103 
Q 1463 3103 1205 2759 
Q 947 2416 947 1791 
Q 947 1169 1205 825 
Q 1463 481 1925 481 
Q 2391 481 2648 825 
Q 2906 1169 2906 1791 
z
M 3481 434 
Q 3481 -459 3084 -895 
Q 2688 -1331 1869 -1331 
Q 1566 -1331 1297 -1286 
Q 1028 -1241 775 -1147 
L 775 -588 
Q 1028 -725 1275 -790 
Q 1522 -856 1778 -856 
Q 2344 -856 2625 -561 
Q 2906 -266 2906 331 
L 2906 616 
Q 2728 306 2450 153 
Q 2172 0 1784 0 
Q 1141 0 747 490 
Q 353 981 353 1791 
Q 353 2603 747 3093 
Q 1141 3584 1784 3584 
Q 2172 3584 2450 3431 
Q 2728 3278 2906 2969 
L 2906 3500 
L 3481 3500 
L 3481 434 
z
" id="DejaVuSans-67" transform="scale(0.015625)"/>
      <path d="M 3513 2113 
L 3513 0 
L 2938 0 
L 2938 2094 
Q 2938 2591 2744 2837 
Q 2550 3084 2163 3084 
Q 1697 3084 1428 2787 
Q 1159 2491 1159 1978 
L 1159 0 
L 581 0 
L 581 4863 
L 1159 4863 
L 1159 2956 
Q 1366 3272 1645 3428 
Q 1925 3584 2291 3584 
Q 2894 3584 3203 3211 
Q 3513 2838 3513 2113 
z
" id="DejaVuSans-68" transform="scale(0.015625)"/>
      <path d="M 2906 2969 
L 2906 4863 
L 3481 4863 
L 3481 0 
L 2906 0 
L 2906 525 
Q 2725 213 2448 61 
Q 2172 -91 1784 -91 
Q 1150 -91 751 415 
Q 353 922 353 1747 
Q 353 2572 751 3078 
Q 1150 3584 1784 3584 
Q 2172 3584 2448 3432 
Q 2725 3281 2906 2969 
z
M 947 1747 
Q 947 1113 1208 752 
Q 1469 391 1925 391 
Q 2381 391 2643 752 
Q 2906 1113 2906 1747 
Q 2906 2381 2643 2742 
Q 2381 3103 1925 3103 
Q 1469 3103 1208 2742 
Q 947 2381 947 1747 
z
" id="DejaVuSans-64" transform="scale(0.015625)"/>
      <path d="M 544 1381 
L 544 3500 
L 1119 3500 
L 1119 1403 
Q 1119 906 1312 657 
Q 1506 409 1894 409 
Q 2359 409 2629 706 
Q 2900 1003 2900 1516 
L 2900 3500 
L 3475 3500 
L 3475 0 
L 2900 0 
L 2900 538 
Q 2691 219 2414 64 
Q 2138 -91 1772 -91 
Q 1169 -91 856 284 
Q 544 659 544 1381 
z
M 1991 3584 
L 1991 3584 
z
" id="DejaVuSans-75" transform="scale(0.015625)"/>
      <path d="M 2375 4863 
L 2375 4384 
L 1825 4384 
Q 1516 4384 1395 4259 
Q 1275 4134 1275 3809 
L 1275 3500 
L 2222 3500 
L 2222 3053 
L 1275 3053 
L 1275 0 
L 697 0 
L 697 3053 
L 147 3053 
L 147 3500 
L 697 3500 
L 697 3744 
Q 697 4328 969 4595 
Q 1241 4863 1831 4863 
L 2375 4863 
z
" id="DejaVuSans-66" transform="scale(0.015625)"/>
      <path d="M 525 4666 
L 3525 4666 
L 3525 4397 
L 1831 0 
L 1172 0 
L 2766 4134 
L 525 4134 
L 525 4666 
z
" id="DejaVuSans-37" transform="scale(0.015625)"/>
      <path d="M 684 794 
L 1344 794 
L 1344 0 
L 684 0 
L 684 794 
z
" id="DejaVuSans-2e" transform="scale(0.015625)"/>
      <path d="M 2113 2584 
Q 1688 2584 1439 2293 
Q 1191 2003 1191 1497 
Q 1191 994 1439 701 
Q 1688 409 2113 409 
Q 2538 409 2786 701 
Q 3034 994 3034 1497 
Q 3034 2003 2786 2293 
Q 2538 2584 2113 2584 
z
M 3366 4563 
L 3366 3988 
Q 3128 4100 2886 4159 
Q 2644 4219 2406 4219 
Q 1781 4219 1451 3797 
Q 1122 3375 1075 2522 
Q 1259 2794 1537 2939 
Q 1816 3084 2150 3084 
Q 2853 3084 3261 2657 
Q 3669 2231 3669 1497 
Q 3669 778 3244 343 
Q 2819 -91 2113 -91 
Q 1303 -91 875 529 
Q 447 1150 447 2328 
Q 447 3434 972 4092 
Q 1497 4750 2381 4750 
Q 2619 4750 2861 4703 
Q 3103 4656 3366 4563 
z
" id="DejaVuSans-36" transform="scale(0.015625)"/>
      <path d="M 628 4666 
L 3578 4666 
L 3578 4134 
L 1259 4134 
L 1259 2753 
L 3481 2753 
L 3481 2222 
L 1259 2222 
L 1259 531 
L 3634 531 
L 3634 0 
L 628 0 
L 628 4666 
z
" id="DejaVuSans-45" transform="scale(0.015625)"/>
     </defs>
     <use xlink:href="#DejaVuSans-42"/>
     <use x="68.603516" xlink:href="#DejaVuSans-72"/>
     <use x="109.716797" xlink:href="#DejaVuSans-69"/>
     <use x="137.5" xlink:href="#DejaVuSans-6e"/>
     <use x="200.878906" xlink:href="#DejaVuSans-65"/>
     <use x="262.402344" xlink:href="#DejaVuSans-20"/>
     <use x="294.189453" xlink:href="#DejaVuSans-63"/>
     <use x="349.169922" xlink:href="#DejaVuSans-6f"/>
     <use x="410.351562" xlink:href="#DejaVuSans-6e"/>
     <use x="473.730469" xlink:href="#DejaVuSans-63"/>
     <use x="528.710938" xlink:href="#DejaVuSans-65"/>
     <use x="590.234375" xlink:href="#DejaVuSans-6e"/>
     <use x="653.613281" xlink:href="#DejaVuSans-74"/>
     <use x="692.822266" xlink:href="#DejaVuSans-72"/>
     <use x="733.935547" xlink:href="#DejaVuSans-61"/>
     <use x="795.214844" xlink:href="#DejaVuSans-74"/>
     <use x="834.423828" xlink:href="#DejaVuSans-69"/>
     <use x="862.207031" xlink:href="#DejaVuSans-6f"/>
     <use x="923.388672" xlink:href="#DejaVuSans-6e"/>
     <use x="986.767578" xlink:href="#DejaVuSans-73"/>
     <use x="1038.867188" xlink:href="#DejaVuSans-20"/>
     <use x="1070.654297" xlink:href="#DejaVuSans-61"/>
     <use x="1131.933594" xlink:href="#DejaVuSans-6c"/>
     <use x="1159.716797" xlink:href="#DejaVuSans-6f"/>
     <use x="1220.898438" xlink:href="#DejaVuSans-6e"/>
     <use x="1284.277344" xlink:href="#DejaVuSans-67"/>
     <use x="1347.753906" xlink:href="#DejaVuSans-20"/>
     <use x="1379.541016" xlink:href="#DejaVuSans-74"/>
     <use x="1418.75" xlink:href="#DejaVuSans-68"/>
     <use x="1482.128906" xlink:href="#DejaVuSans-65"/>
     <use x="1543.652344" xlink:href="#DejaVuSans-20"/>
     <use x="1575.439453" xlink:href="#DejaVuSans-6d"/>
     <use x="1672.851562" xlink:href="#DejaVuSans-6f"/>
     <use x="1734.033203" xlink:href="#DejaVuSans-64"/>
     <use x="1797.509766" xlink:href="#DejaVuSans-75"/>
     <use x="1860.888672" xlink:href="#DejaVuSans-6c"/>
     <use x="1888.671875" xlink:href="#DejaVuSans-65"/>
     <use x="1950.195312" xlink:href="#DejaVuSans-20"/>
     <use x="1981.982422" xlink:href="#DejaVuSans-61"/>
     <use x="2043.261719" xlink:href="#DejaVuSans-66"/>
     <use x="2076.716797" xlink:href="#DejaVuSans-74"/>
     <use x="2115.925781" xlink:href="#DejaVuSans-65"/>
     <use x="2177.449219" xlink:href="#DejaVuSans-72"/>
     <use x="2218.5625" xlink:href="#DejaVuSans-20"/>
     <use x="2250.349609" xlink:href="#DejaVuSans-37"/>
     <use x="2313.972656" xlink:href="#DejaVuSans-2e"/>
     <use x="2345.759766" xlink:href="#DejaVuSans-36"/>
     <use x="2409.382812" xlink:href="#DejaVuSans-45"/>
     <use x="2472.566406" xlink:href="#DejaVuSans-31"/>
     <use x="2536.189453" xlink:href="#DejaVuSans-20"/>
     <use x="2567.976562" xlink:href="#DejaVuSans-73"/>
     <use x="2620.076172" xlink:href="#DejaVuSans-65"/>
     <use x="2681.599609" xlink:href="#DejaVuSans-63"/>
     <use x="2736.580078" xlink:href="#DejaVuSans-6f"/>
     <use x="2797.761719" xlink:href="#DejaVuSans-6e"/>
     <use x="2861.140625" xlink:href="#DejaVuSans-64"/>
     <use x="2924.617188" xlink:href="#DejaVuSans-73"/>
    </g>
   </g>
   <g id="legend_1">
    <g id="patch_7">
     <path d="M 161.4 431.616375 
L 300.741 431.616375 
Q 303.141 431.616375 303.141 429.216375 
L 303.141 287.183625 
Q 303.141 284.783625 300.741 284.783625 
L 161.4 284.783625 
Q 159 284.783625 159 287.183625 
L 159 429.216375 
Q 159 431.616375 161.4 431.616375 
z
" style="fill:#ffffff;opacity:0.8;stroke:#cccccc;stroke-linejoin:miter;"/>
    </g>
    <g id="text_15">
     <!-- non-zero elements -->
     <g transform="translate(163.8 300.525375)scale(0.144 -0.144)">
      <defs>
       <path d="M 313 2009 
L 1997 2009 
L 1997 1497 
L 313 1497 
L 313 2009 
z
" id="DejaVuSans-2d" transform="scale(0.015625)"/>
       <path d="M 353 3500 
L 3084 3500 
L 3084 2975 
L 922 459 
L 3084 459 
L 3084 0 
L 275 0 
L 275 525 
L 2438 3041 
L 353 3041 
L 353 3500 
z
" id="DejaVuSans-7a" transform="scale(0.015625)"/>
      </defs>
      <use xlink:href="#DejaVuSans-6e"/>
      <use x="63.378906" xlink:href="#DejaVuSans-6f"/>
      <use x="124.560547" xlink:href="#DejaVuSans-6e"/>
      <use x="187.939453" xlink:href="#DejaVuSans-2d"/>
      <use x="224.023438" xlink:href="#DejaVuSans-7a"/>
      <use x="276.513672" xlink:href="#DejaVuSans-65"/>
      <use x="338.037109" xlink:href="#DejaVuSans-72"/>
      <use x="376.900391" xlink:href="#DejaVuSans-6f"/>
      <use x="438.082031" xlink:href="#DejaVuSans-20"/>
      <use x="469.869141" xlink:href="#DejaVuSans-65"/>
      <use x="531.392578" xlink:href="#DejaVuSans-6c"/>
      <use x="559.175781" xlink:href="#DejaVuSans-65"/>
      <use x="620.699219" xlink:href="#DejaVuSans-6d"/>
      <use x="718.111328" xlink:href="#DejaVuSans-65"/>
      <use x="779.634766" xlink:href="#DejaVuSans-6e"/>
      <use x="843.013672" xlink:href="#DejaVuSans-74"/>
      <use x="882.222656" xlink:href="#DejaVuSans-73"/>
     </g>
    </g>
    <g id="line2d_80">
     <path d="M 201.962063 314.43825 
L 225.962063 314.43825 
" style="fill:none;stroke:#1f77b4;stroke-linecap:square;stroke-width:1.5;"/>
    </g>
    <g id="line2d_81"/>
    <g id="text_16">
     <!-- Ca -->
     <g transform="translate(235.562062 318.63825)scale(0.12 -0.12)">
      <use xlink:href="#DejaVuSans-43"/>
      <use x="69.824219" xlink:href="#DejaVuSans-61"/>
     </g>
    </g>
    <g id="line2d_82">
     <path d="M 201.962063 332.052 
L 225.962063 332.052 
" style="fill:none;stroke:#ff7f0e;stroke-linecap:square;stroke-width:1.5;"/>
    </g>
    <g id="line2d_83"/>
    <g id="text_17">
     <!-- Mg -->
     <g transform="translate(235.562062 336.252)scale(0.12 -0.12)">
      <defs>
       <path d="M 628 4666 
L 1569 4666 
L 2759 1491 
L 3956 4666 
L 4897 4666 
L 4897 0 
L 4281 0 
L 4281 4097 
L 3078 897 
L 2444 897 
L 1241 4097 
L 1241 0 
L 628 0 
L 628 4666 
z
" id="DejaVuSans-4d" transform="scale(0.015625)"/>
      </defs>
      <use xlink:href="#DejaVuSans-4d"/>
      <use x="86.279297" xlink:href="#DejaVuSans-67"/>
     </g>
    </g>
    <g id="line2d_84">
     <path d="M 201.962063 349.66575 
L 225.962063 349.66575 
" style="fill:none;stroke:#2ca02c;stroke-linecap:square;stroke-width:1.5;"/>
    </g>
    <g id="line2d_85"/>
    <g id="text_18">
     <!-- Na -->
     <g transform="translate(235.562062 353.86575)scale(0.12 -0.12)">
      <defs>
       <path d="M 628 4666 
L 1478 4666 
L 3547 763 
L 3547 4666 
L 4159 4666 
L 4159 0 
L 3309 0 
L 1241 3903 
L 1241 0 
L 628 0 
L 628 4666 
z
" id="DejaVuSans-4e" transform="scale(0.015625)"/>
      </defs>
      <use xlink:href="#DejaVuSans-4e"/>
      <use x="74.804688" xlink:href="#DejaVuSans-61"/>
     </g>
    </g>
    <g id="line2d_86">
     <path d="M 201.962063 367.2795 
L 225.962063 367.2795 
" style="fill:none;stroke:#d62728;stroke-linecap:square;stroke-width:1.5;"/>
    </g>
    <g id="line2d_87"/>
    <g id="text_19">
     <!-- Sr -->
     <g transform="translate(235.562062 371.4795)scale(0.12 -0.12)">
      <defs>
       <path d="M 3425 4513 
L 3425 3897 
Q 3066 4069 2747 4153 
Q 2428 4238 2131 4238 
Q 1616 4238 1336 4038 
Q 1056 3838 1056 3469 
Q 1056 3159 1242 3001 
Q 1428 2844 1947 2747 
L 2328 2669 
Q 3034 2534 3370 2195 
Q 3706 1856 3706 1288 
Q 3706 609 3251 259 
Q 2797 -91 1919 -91 
Q 1588 -91 1214 -16 
Q 841 59 441 206 
L 441 856 
Q 825 641 1194 531 
Q 1563 422 1919 422 
Q 2459 422 2753 634 
Q 3047 847 3047 1241 
Q 3047 1584 2836 1778 
Q 2625 1972 2144 2069 
L 1759 2144 
Q 1053 2284 737 2584 
Q 422 2884 422 3419 
Q 422 4038 858 4394 
Q 1294 4750 2059 4750 
Q 2388 4750 2728 4690 
Q 3069 4631 3425 4513 
z
" id="DejaVuSans-53" transform="scale(0.015625)"/>
      </defs>
      <use xlink:href="#DejaVuSans-53"/>
      <use x="63.476562" xlink:href="#DejaVuSans-72"/>
     </g>
    </g>
    <g id="line2d_88">
     <path d="M 201.962063 384.89325 
L 225.962063 384.89325 
" style="fill:none;stroke:#9467bd;stroke-linecap:square;stroke-width:1.5;"/>
    </g>
    <g id="line2d_89"/>
    <g id="text_20">
     <!-- Cl -->
     <g transform="translate(235.562062 389.09325)scale(0.12 -0.12)">
      <use xlink:href="#DejaVuSans-43"/>
      <use x="69.824219" xlink:href="#DejaVuSans-6c"/>
     </g>
    </g>
    <g id="line2d_90">
     <path d="M 201.962063 402.507 
L 225.962063 402.507 
" style="fill:none;stroke:#8c564b;stroke-linecap:square;stroke-width:1.5;"/>
    </g>
    <g id="line2d_91"/>
    <g id="text_21">
     <!-- S(6) -->
     <g transform="translate(235.562062 406.707)scale(0.12 -0.12)">
      <use xlink:href="#DejaVuSans-53"/>
      <use x="63.476562" xlink:href="#DejaVuSans-28"/>
      <use x="102.490234" xlink:href="#DejaVuSans-36"/>
      <use x="166.113281" xlink:href="#DejaVuSans-29"/>
     </g>
    </g>
    <g id="line2d_92">
     <path d="M 201.962063 420.12075 
L 225.962063 420.12075 
" style="fill:none;stroke:#e377c2;stroke-linecap:square;stroke-width:1.5;"/>
    </g>
    <g id="line2d_93"/>
    <g id="text_22">
     <!-- Fe -->
     <g transform="translate(235.562062 424.32075)scale(0.12 -0.12)">
      <defs>
       <path d="M 628 4666 
L 3309 4666 
L 3309 4134 
L 1259 4134 
L 1259 2759 
L 3109 2759 
L 3109 2228 
L 1259 2228 
L 1259 0 
L 628 0 
L 628 4666 
z
" id="DejaVuSans-46" transform="scale(0.015625)"/>
      </defs>
      <use xlink:href="#DejaVuSans-46"/>
      <use x="52.019531" xlink:href="#DejaVuSans-65"/>
     </g>
    </g>
   </g>
  </g>
  <g id="text_23">
   <!-- Final CF: 2.88 -->
   <g transform="translate(244.8 669.6)scale(0.12 -0.12)">
    <defs>
     <path d="M 750 794 
L 1409 794 
L 1409 0 
L 750 0 
L 750 794 
z
M 750 3309 
L 1409 3309 
L 1409 2516 
L 750 2516 
L 750 3309 
z
" id="DejaVuSans-3a" transform="scale(0.015625)"/>
     <path d="M 2034 2216 
Q 1584 2216 1326 1975 
Q 1069 1734 1069 1313 
Q 1069 891 1326 650 
Q 1584 409 2034 409 
Q 2484 409 2743 651 
Q 3003 894 3003 1313 
Q 3003 1734 2745 1975 
Q 2488 2216 2034 2216 
z
M 1403 2484 
Q 997 2584 770 2862 
Q 544 3141 544 3541 
Q 544 4100 942 4425 
Q 1341 4750 2034 4750 
Q 2731 4750 3128 4425 
Q 3525 4100 3525 3541 
Q 3525 3141 3298 2862 
Q 3072 2584 2669 2484 
Q 3125 2378 3379 2068 
Q 3634 1759 3634 1313 
Q 3634 634 3220 271 
Q 2806 -91 2034 -91 
Q 1263 -91 848 271 
Q 434 634 434 1313 
Q 434 1759 690 2068 
Q 947 2378 1403 2484 
z
M 1172 3481 
Q 1172 3119 1398 2916 
Q 1625 2713 2034 2713 
Q 2441 2713 2670 2916 
Q 2900 3119 2900 3481 
Q 2900 3844 2670 4047 
Q 2441 4250 2034 4250 
Q 1625 4250 1398 4047 
Q 1172 3844 1172 3481 
z
" id="DejaVuSans-38" transform="scale(0.015625)"/>
    </defs>
    <use xlink:href="#DejaVuSans-46"/>
    <use x="50.269531" xlink:href="#DejaVuSans-69"/>
    <use x="78.052734" xlink:href="#DejaVuSans-6e"/>
    <use x="141.431641" xlink:href="#DejaVuSans-61"/>
    <use x="202.710938" xlink:href="#DejaVuSans-6c"/>
    <use x="230.494141" xlink:href="#DejaVuSans-20"/>
    <use x="262.28125" xlink:href="#DejaVuSans-43"/>
    <use x="332.105469" xlink:href="#DejaVuSans-46"/>
    <use x="381.875" xlink:href="#DejaVuSans-3a"/>
    <use x="415.566406" xlink:href="#DejaVuSans-20"/>
    <use x="447.353516" xlink:href="#DejaVuSans-32"/>
    <use x="510.976562" xlink:href="#DejaVuSans-2e"/>
    <use x="542.763672" xlink:href="#DejaVuSans-38"/>
    <use x="606.386719" xlink:href="#DejaVuSans-38"/>
   </g>
  </g>
 </g>
 <defs>
  <clipPath id="pd3bbe33d12">
   <rect height="543.6" width="948.6" x="153" y="86.4"/>
  </clipPath>
 </defs>
</svg>
