<?xml version="1.0" encoding="utf-8" standalone="no"?>
<!DOCTYPE svg PUBLIC "-//W3C//DTD SVG 1.1//EN"
  "http://www.w3.org/Graphics/SVG/1.1/DTD/svg11.dtd">
<svg height="720pt" version="1.1" viewBox="0 0 1224 720" width="1224pt" xmlns="http://www.w3.org/2000/svg" xmlns:xlink="http://www.w3.org/1999/xlink">
 <metadata>
  <rdf:RDF xmlns:cc="http://creativecommons.org/ns#" xmlns:dc="http://purl.org/dc/elements/1.1/" xmlns:rdf="http://www.w3.org/1999/02/22-rdf-syntax-ns#">
   <cc:Work>
    <dc:type rdf:resource="http://purl.org/dc/dcmitype/StillImage"/>
    <dc:date>2021-11-04T15:27:25.993712</dc:date>
    <dc:format>image/svg+xml</dc:format>
    <dc:creator>
     <cc:Agent>
      <dc:title>Matplotlib v3.4.3, https://matplotlib.org/</dc:title>
     </cc:Agent>
    </dc:creator>
   </cc:Work>
  </rdf:RDF>
 </metadata>
 <defs>
  <style type="text/css">*{stroke-linecap:butt;stroke-linejoin:round;}</style>
 </defs>
 <g id="figure_1">
  <g id="patch_1">
   <path d="M 0 720 
L 1224 720 
L 1224 0 
L 0 0 
z
" style="fill:none;"/>
  </g>
  <g id="axes_1">
   <g id="patch_2">
    <path d="M 153 630 
L 1101.6 630 
L 1101.6 86.4 
L 153 86.4 
z
" style="fill:#ffffff;"/>
   </g>
   <g id="matplotlib.axis_1">
    <g id="xtick_1">
     <g id="line2d_1">
      <path clip-path="url(#p01bcd13ac0)" d="M 196.118182 630 
L 196.118182 86.4 
" style="fill:none;stroke:#b0b0b0;stroke-linecap:square;stroke-width:0.8;"/>
     </g>
     <g id="line2d_2">
      <defs>
       <path d="M 0 0 
L 0 3.5 
" id="m1f0e3fe69b" style="stroke:#000000;stroke-width:0.8;"/>
      </defs>
      <g>
       <use style="stroke:#000000;stroke-width:0.8;" x="196.118182" xlink:href="#m1f0e3fe69b" y="630"/>
      </g>
     </g>
     <g id="text_1">
      <!-- 4.34E1 -->
      <g transform="translate(178.644744 644.598438)scale(0.1 -0.1)">
       <defs>
        <path d="M 2419 4116 
L 825 1625 
L 2419 1625 
L 2419 4116 
z
M 2253 4666 
L 3047 4666 
L 3047 1625 
L 3713 1625 
L 3713 1100 
L 3047 1100 
L 3047 0 
L 2419 0 
L 2419 1100 
L 313 1100 
L 313 1709 
L 2253 4666 
z
" id="DejaVuSans-34" transform="scale(0.015625)"/>
        <path d="M 684 794 
L 1344 794 
L 1344 0 
L 684 0 
L 684 794 
z
" id="DejaVuSans-2e" transform="scale(0.015625)"/>
        <path d="M 2597 2516 
Q 3050 2419 3304 2112 
Q 3559 1806 3559 1356 
Q 3559 666 3084 287 
Q 2609 -91 1734 -91 
Q 1441 -91 1130 -33 
Q 819 25 488 141 
L 488 750 
Q 750 597 1062 519 
Q 1375 441 1716 441 
Q 2309 441 2620 675 
Q 2931 909 2931 1356 
Q 2931 1769 2642 2001 
Q 2353 2234 1838 2234 
L 1294 2234 
L 1294 2753 
L 1863 2753 
Q 2328 2753 2575 2939 
Q 2822 3125 2822 3475 
Q 2822 3834 2567 4026 
Q 2313 4219 1838 4219 
Q 1578 4219 1281 4162 
Q 984 4106 628 3988 
L 628 4550 
Q 988 4650 1302 4700 
Q 1616 4750 1894 4750 
Q 2613 4750 3031 4423 
Q 3450 4097 3450 3541 
Q 3450 3153 3228 2886 
Q 3006 2619 2597 2516 
z
" id="DejaVuSans-33" transform="scale(0.015625)"/>
        <path d="M 628 4666 
L 3578 4666 
L 3578 4134 
L 1259 4134 
L 1259 2753 
L 3481 2753 
L 3481 2222 
L 1259 2222 
L 1259 531 
L 3634 531 
L 3634 0 
L 628 0 
L 628 4666 
z
" id="DejaVuSans-45" transform="scale(0.015625)"/>
        <path d="M 794 531 
L 1825 531 
L 1825 4091 
L 703 3866 
L 703 4441 
L 1819 4666 
L 2450 4666 
L 2450 531 
L 3481 531 
L 3481 0 
L 794 0 
L 794 531 
z
" id="DejaVuSans-31" transform="scale(0.015625)"/>
       </defs>
       <use xlink:href="#DejaVuSans-34"/>
       <use x="63.623047" xlink:href="#DejaVuSans-2e"/>
       <use x="95.410156" xlink:href="#DejaVuSans-33"/>
       <use x="159.033203" xlink:href="#DejaVuSans-34"/>
       <use x="222.65625" xlink:href="#DejaVuSans-45"/>
       <use x="285.839844" xlink:href="#DejaVuSans-31"/>
      </g>
     </g>
    </g>
    <g id="xtick_2">
     <g id="line2d_3">
      <path clip-path="url(#p01bcd13ac0)" d="M 342.28151 630 
L 342.28151 86.4 
" style="fill:none;stroke:#b0b0b0;stroke-linecap:square;stroke-width:0.8;"/>
     </g>
     <g id="line2d_4">
      <g>
       <use style="stroke:#000000;stroke-width:0.8;" x="342.28151" xlink:href="#m1f0e3fe69b" y="630"/>
      </g>
     </g>
     <g id="text_2">
      <!-- 8.29E1 -->
      <g transform="translate(324.808073 644.598438)scale(0.1 -0.1)">
       <defs>
        <path d="M 2034 2216 
Q 1584 2216 1326 1975 
Q 1069 1734 1069 1313 
Q 1069 891 1326 650 
Q 1584 409 2034 409 
Q 2484 409 2743 651 
Q 3003 894 3003 1313 
Q 3003 1734 2745 1975 
Q 2488 2216 2034 2216 
z
M 1403 2484 
Q 997 2584 770 2862 
Q 544 3141 544 3541 
Q 544 4100 942 4425 
Q 1341 4750 2034 4750 
Q 2731 4750 3128 4425 
Q 3525 4100 3525 3541 
Q 3525 3141 3298 2862 
Q 3072 2584 2669 2484 
Q 3125 2378 3379 2068 
Q 3634 1759 3634 1313 
Q 3634 634 3220 271 
Q 2806 -91 2034 -91 
Q 1263 -91 848 271 
Q 434 634 434 1313 
Q 434 1759 690 2068 
Q 947 2378 1403 2484 
z
M 1172 3481 
Q 1172 3119 1398 2916 
Q 1625 2713 2034 2713 
Q 2441 2713 2670 2916 
Q 2900 3119 2900 3481 
Q 2900 3844 2670 4047 
Q 2441 4250 2034 4250 
Q 1625 4250 1398 4047 
Q 1172 3844 1172 3481 
z
" id="DejaVuSans-38" transform="scale(0.015625)"/>
        <path d="M 1228 531 
L 3431 531 
L 3431 0 
L 469 0 
L 469 531 
Q 828 903 1448 1529 
Q 2069 2156 2228 2338 
Q 2531 2678 2651 2914 
Q 2772 3150 2772 3378 
Q 2772 3750 2511 3984 
Q 2250 4219 1831 4219 
Q 1534 4219 1204 4116 
Q 875 4013 500 3803 
L 500 4441 
Q 881 4594 1212 4672 
Q 1544 4750 1819 4750 
Q 2544 4750 2975 4387 
Q 3406 4025 3406 3419 
Q 3406 3131 3298 2873 
Q 3191 2616 2906 2266 
Q 2828 2175 2409 1742 
Q 1991 1309 1228 531 
z
" id="DejaVuSans-32" transform="scale(0.015625)"/>
        <path d="M 703 97 
L 703 672 
Q 941 559 1184 500 
Q 1428 441 1663 441 
Q 2288 441 2617 861 
Q 2947 1281 2994 2138 
Q 2813 1869 2534 1725 
Q 2256 1581 1919 1581 
Q 1219 1581 811 2004 
Q 403 2428 403 3163 
Q 403 3881 828 4315 
Q 1253 4750 1959 4750 
Q 2769 4750 3195 4129 
Q 3622 3509 3622 2328 
Q 3622 1225 3098 567 
Q 2575 -91 1691 -91 
Q 1453 -91 1209 -44 
Q 966 3 703 97 
z
M 1959 2075 
Q 2384 2075 2632 2365 
Q 2881 2656 2881 3163 
Q 2881 3666 2632 3958 
Q 2384 4250 1959 4250 
Q 1534 4250 1286 3958 
Q 1038 3666 1038 3163 
Q 1038 2656 1286 2365 
Q 1534 2075 1959 2075 
z
" id="DejaVuSans-39" transform="scale(0.015625)"/>
       </defs>
       <use xlink:href="#DejaVuSans-38"/>
       <use x="63.623047" xlink:href="#DejaVuSans-2e"/>
       <use x="95.410156" xlink:href="#DejaVuSans-32"/>
       <use x="159.033203" xlink:href="#DejaVuSans-39"/>
       <use x="222.65625" xlink:href="#DejaVuSans-45"/>
       <use x="285.839844" xlink:href="#DejaVuSans-31"/>
      </g>
     </g>
    </g>
    <g id="xtick_3">
     <g id="line2d_5">
      <path clip-path="url(#p01bcd13ac0)" d="M 488.444838 630 
L 488.444838 86.4 
" style="fill:none;stroke:#b0b0b0;stroke-linecap:square;stroke-width:0.8;"/>
     </g>
     <g id="line2d_6">
      <g>
       <use style="stroke:#000000;stroke-width:0.8;" x="488.444838" xlink:href="#m1f0e3fe69b" y="630"/>
      </g>
     </g>
     <g id="text_3">
      <!-- 1.22E2 -->
      <g transform="translate(470.971401 644.598438)scale(0.1 -0.1)">
       <use xlink:href="#DejaVuSans-31"/>
       <use x="63.623047" xlink:href="#DejaVuSans-2e"/>
       <use x="95.410156" xlink:href="#DejaVuSans-32"/>
       <use x="159.033203" xlink:href="#DejaVuSans-32"/>
       <use x="222.65625" xlink:href="#DejaVuSans-45"/>
       <use x="285.839844" xlink:href="#DejaVuSans-32"/>
      </g>
     </g>
    </g>
    <g id="xtick_4">
     <g id="line2d_7">
      <path clip-path="url(#p01bcd13ac0)" d="M 634.608166 630 
L 634.608166 86.4 
" style="fill:none;stroke:#b0b0b0;stroke-linecap:square;stroke-width:0.8;"/>
     </g>
     <g id="line2d_8">
      <g>
       <use style="stroke:#000000;stroke-width:0.8;" x="634.608166" xlink:href="#m1f0e3fe69b" y="630"/>
      </g>
     </g>
     <g id="text_4">
      <!-- 1.62E2 -->
      <g transform="translate(617.134729 644.598438)scale(0.1 -0.1)">
       <defs>
        <path d="M 2113 2584 
Q 1688 2584 1439 2293 
Q 1191 2003 1191 1497 
Q 1191 994 1439 701 
Q 1688 409 2113 409 
Q 2538 409 2786 701 
Q 3034 994 3034 1497 
Q 3034 2003 2786 2293 
Q 2538 2584 2113 2584 
z
M 3366 4563 
L 3366 3988 
Q 3128 4100 2886 4159 
Q 2644 4219 2406 4219 
Q 1781 4219 1451 3797 
Q 1122 3375 1075 2522 
Q 1259 2794 1537 2939 
Q 1816 3084 2150 3084 
Q 2853 3084 3261 2657 
Q 3669 2231 3669 1497 
Q 3669 778 3244 343 
Q 2819 -91 2113 -91 
Q 1303 -91 875 529 
Q 447 1150 447 2328 
Q 447 3434 972 4092 
Q 1497 4750 2381 4750 
Q 2619 4750 2861 4703 
Q 3103 4656 3366 4563 
z
" id="DejaVuSans-36" transform="scale(0.015625)"/>
       </defs>
       <use xlink:href="#DejaVuSans-31"/>
       <use x="63.623047" xlink:href="#DejaVuSans-2e"/>
       <use x="95.410156" xlink:href="#DejaVuSans-36"/>
       <use x="159.033203" xlink:href="#DejaVuSans-32"/>
       <use x="222.65625" xlink:href="#DejaVuSans-45"/>
       <use x="285.839844" xlink:href="#DejaVuSans-32"/>
      </g>
     </g>
    </g>
    <g id="xtick_5">
     <g id="line2d_9">
      <path clip-path="url(#p01bcd13ac0)" d="M 780.771495 630 
L 780.771495 86.4 
" style="fill:none;stroke:#b0b0b0;stroke-linecap:square;stroke-width:0.8;"/>
     </g>
     <g id="line2d_10">
      <g>
       <use style="stroke:#000000;stroke-width:0.8;" x="780.771495" xlink:href="#m1f0e3fe69b" y="630"/>
      </g>
     </g>
     <g id="text_5">
      <!-- 2.01E2 -->
      <g transform="translate(763.298057 644.598438)scale(0.1 -0.1)">
       <defs>
        <path d="M 2034 4250 
Q 1547 4250 1301 3770 
Q 1056 3291 1056 2328 
Q 1056 1369 1301 889 
Q 1547 409 2034 409 
Q 2525 409 2770 889 
Q 3016 1369 3016 2328 
Q 3016 3291 2770 3770 
Q 2525 4250 2034 4250 
z
M 2034 4750 
Q 2819 4750 3233 4129 
Q 3647 3509 3647 2328 
Q 3647 1150 3233 529 
Q 2819 -91 2034 -91 
Q 1250 -91 836 529 
Q 422 1150 422 2328 
Q 422 3509 836 4129 
Q 1250 4750 2034 4750 
z
" id="DejaVuSans-30" transform="scale(0.015625)"/>
       </defs>
       <use xlink:href="#DejaVuSans-32"/>
       <use x="63.623047" xlink:href="#DejaVuSans-2e"/>
       <use x="95.410156" xlink:href="#DejaVuSans-30"/>
       <use x="159.033203" xlink:href="#DejaVuSans-31"/>
       <use x="222.65625" xlink:href="#DejaVuSans-45"/>
       <use x="285.839844" xlink:href="#DejaVuSans-32"/>
      </g>
     </g>
    </g>
    <g id="xtick_6">
     <g id="line2d_11">
      <path clip-path="url(#p01bcd13ac0)" d="M 926.934823 630 
L 926.934823 86.4 
" style="fill:none;stroke:#b0b0b0;stroke-linecap:square;stroke-width:0.8;"/>
     </g>
     <g id="line2d_12">
      <g>
       <use style="stroke:#000000;stroke-width:0.8;" x="926.934823" xlink:href="#m1f0e3fe69b" y="630"/>
      </g>
     </g>
     <g id="text_6">
      <!-- 2.41E2 -->
      <g transform="translate(909.461385 644.598438)scale(0.1 -0.1)">
       <use xlink:href="#DejaVuSans-32"/>
       <use x="63.623047" xlink:href="#DejaVuSans-2e"/>
       <use x="95.410156" xlink:href="#DejaVuSans-34"/>
       <use x="159.033203" xlink:href="#DejaVuSans-31"/>
       <use x="222.65625" xlink:href="#DejaVuSans-45"/>
       <use x="285.839844" xlink:href="#DejaVuSans-32"/>
      </g>
     </g>
    </g>
    <g id="xtick_7">
     <g id="line2d_13">
      <path clip-path="url(#p01bcd13ac0)" d="M 1058.481818 630 
L 1058.481818 86.4 
" style="fill:none;stroke:#b0b0b0;stroke-linecap:square;stroke-width:0.8;"/>
     </g>
     <g id="line2d_14">
      <g>
       <use style="stroke:#000000;stroke-width:0.8;" x="1058.481818" xlink:href="#m1f0e3fe69b" y="630"/>
      </g>
     </g>
     <g id="text_7">
      <!-- 2.76E2 -->
      <g transform="translate(1041.008381 644.598438)scale(0.1 -0.1)">
       <defs>
        <path d="M 525 4666 
L 3525 4666 
L 3525 4397 
L 1831 0 
L 1172 0 
L 2766 4134 
L 525 4134 
L 525 4666 
z
" id="DejaVuSans-37" transform="scale(0.015625)"/>
       </defs>
       <use xlink:href="#DejaVuSans-32"/>
       <use x="63.623047" xlink:href="#DejaVuSans-2e"/>
       <use x="95.410156" xlink:href="#DejaVuSans-37"/>
       <use x="159.033203" xlink:href="#DejaVuSans-36"/>
       <use x="222.65625" xlink:href="#DejaVuSans-45"/>
       <use x="285.839844" xlink:href="#DejaVuSans-32"/>
      </g>
     </g>
    </g>
    <g id="text_8">
     <!-- Time (s) -->
     <g transform="translate(598.026375 661.619875)scale(0.144 -0.144)">
      <defs>
       <path d="M -19 4666 
L 3928 4666 
L 3928 4134 
L 2272 4134 
L 2272 0 
L 1638 0 
L 1638 4134 
L -19 4134 
L -19 4666 
z
" id="DejaVuSans-54" transform="scale(0.015625)"/>
       <path d="M 603 3500 
L 1178 3500 
L 1178 0 
L 603 0 
L 603 3500 
z
M 603 4863 
L 1178 4863 
L 1178 4134 
L 603 4134 
L 603 4863 
z
" id="DejaVuSans-69" transform="scale(0.015625)"/>
       <path d="M 3328 2828 
Q 3544 3216 3844 3400 
Q 4144 3584 4550 3584 
Q 5097 3584 5394 3201 
Q 5691 2819 5691 2113 
L 5691 0 
L 5113 0 
L 5113 2094 
Q 5113 2597 4934 2840 
Q 4756 3084 4391 3084 
Q 3944 3084 3684 2787 
Q 3425 2491 3425 1978 
L 3425 0 
L 2847 0 
L 2847 2094 
Q 2847 2600 2669 2842 
Q 2491 3084 2119 3084 
Q 1678 3084 1418 2786 
Q 1159 2488 1159 1978 
L 1159 0 
L 581 0 
L 581 3500 
L 1159 3500 
L 1159 2956 
Q 1356 3278 1631 3431 
Q 1906 3584 2284 3584 
Q 2666 3584 2933 3390 
Q 3200 3197 3328 2828 
z
" id="DejaVuSans-6d" transform="scale(0.015625)"/>
       <path d="M 3597 1894 
L 3597 1613 
L 953 1613 
Q 991 1019 1311 708 
Q 1631 397 2203 397 
Q 2534 397 2845 478 
Q 3156 559 3463 722 
L 3463 178 
Q 3153 47 2828 -22 
Q 2503 -91 2169 -91 
Q 1331 -91 842 396 
Q 353 884 353 1716 
Q 353 2575 817 3079 
Q 1281 3584 2069 3584 
Q 2775 3584 3186 3129 
Q 3597 2675 3597 1894 
z
M 3022 2063 
Q 3016 2534 2758 2815 
Q 2500 3097 2075 3097 
Q 1594 3097 1305 2825 
Q 1016 2553 972 2059 
L 3022 2063 
z
" id="DejaVuSans-65" transform="scale(0.015625)"/>
       <path id="DejaVuSans-20" transform="scale(0.015625)"/>
       <path d="M 1984 4856 
Q 1566 4138 1362 3434 
Q 1159 2731 1159 2009 
Q 1159 1288 1364 580 
Q 1569 -128 1984 -844 
L 1484 -844 
Q 1016 -109 783 600 
Q 550 1309 550 2009 
Q 550 2706 781 3412 
Q 1013 4119 1484 4856 
L 1984 4856 
z
" id="DejaVuSans-28" transform="scale(0.015625)"/>
       <path d="M 2834 3397 
L 2834 2853 
Q 2591 2978 2328 3040 
Q 2066 3103 1784 3103 
Q 1356 3103 1142 2972 
Q 928 2841 928 2578 
Q 928 2378 1081 2264 
Q 1234 2150 1697 2047 
L 1894 2003 
Q 2506 1872 2764 1633 
Q 3022 1394 3022 966 
Q 3022 478 2636 193 
Q 2250 -91 1575 -91 
Q 1294 -91 989 -36 
Q 684 19 347 128 
L 347 722 
Q 666 556 975 473 
Q 1284 391 1588 391 
Q 1994 391 2212 530 
Q 2431 669 2431 922 
Q 2431 1156 2273 1281 
Q 2116 1406 1581 1522 
L 1381 1569 
Q 847 1681 609 1914 
Q 372 2147 372 2553 
Q 372 3047 722 3315 
Q 1072 3584 1716 3584 
Q 2034 3584 2315 3537 
Q 2597 3491 2834 3397 
z
" id="DejaVuSans-73" transform="scale(0.015625)"/>
       <path d="M 513 4856 
L 1013 4856 
Q 1481 4119 1714 3412 
Q 1947 2706 1947 2009 
Q 1947 1309 1714 600 
Q 1481 -109 1013 -844 
L 513 -844 
Q 928 -128 1133 580 
Q 1338 1288 1338 2009 
Q 1338 2731 1133 3434 
Q 928 4138 513 4856 
z
" id="DejaVuSans-29" transform="scale(0.015625)"/>
      </defs>
      <use xlink:href="#DejaVuSans-54"/>
      <use x="57.958984" xlink:href="#DejaVuSans-69"/>
      <use x="85.742188" xlink:href="#DejaVuSans-6d"/>
      <use x="183.154297" xlink:href="#DejaVuSans-65"/>
      <use x="244.677734" xlink:href="#DejaVuSans-20"/>
      <use x="276.464844" xlink:href="#DejaVuSans-28"/>
      <use x="315.478516" xlink:href="#DejaVuSans-73"/>
      <use x="367.578125" xlink:href="#DejaVuSans-29"/>
     </g>
    </g>
   </g>
   <g id="matplotlib.axis_2">
    <g id="ytick_1">
     <g id="line2d_15">
      <path clip-path="url(#p01bcd13ac0)" d="M 153 572.861708 
L 1101.6 572.861708 
" style="fill:none;stroke:#b0b0b0;stroke-linecap:square;stroke-width:0.8;"/>
     </g>
     <g id="line2d_16">
      <defs>
       <path d="M 0 0 
L -3.5 0 
" id="m14935d32be" style="stroke:#000000;stroke-width:0.8;"/>
      </defs>
      <g>
       <use style="stroke:#000000;stroke-width:0.8;" x="153" xlink:href="#m14935d32be" y="572.861708"/>
      </g>
     </g>
     <g id="text_9">
      <!-- $\mathdefault{10^{-13}}$ -->
      <g transform="translate(118.1 576.660927)scale(0.1 -0.1)">
       <defs>
        <path d="M 678 2272 
L 4684 2272 
L 4684 1741 
L 678 1741 
L 678 2272 
z
" id="DejaVuSans-2212" transform="scale(0.015625)"/>
       </defs>
       <use transform="translate(0 0.765625)" xlink:href="#DejaVuSans-31"/>
       <use transform="translate(63.623047 0.765625)" xlink:href="#DejaVuSans-30"/>
       <use transform="translate(128.203125 39.046875)scale(0.7)" xlink:href="#DejaVuSans-2212"/>
       <use transform="translate(186.855469 39.046875)scale(0.7)" xlink:href="#DejaVuSans-31"/>
       <use transform="translate(231.391602 39.046875)scale(0.7)" xlink:href="#DejaVuSans-33"/>
      </g>
     </g>
    </g>
    <g id="ytick_2">
     <g id="line2d_17">
      <path clip-path="url(#p01bcd13ac0)" d="M 153 501.408498 
L 1101.6 501.408498 
" style="fill:none;stroke:#b0b0b0;stroke-linecap:square;stroke-width:0.8;"/>
     </g>
     <g id="line2d_18">
      <g>
       <use style="stroke:#000000;stroke-width:0.8;" x="153" xlink:href="#m14935d32be" y="501.408498"/>
      </g>
     </g>
     <g id="text_10">
      <!-- $\mathdefault{10^{-11}}$ -->
      <g transform="translate(118.1 505.207717)scale(0.1 -0.1)">
       <use transform="translate(0 0.684375)" xlink:href="#DejaVuSans-31"/>
       <use transform="translate(63.623047 0.684375)" xlink:href="#DejaVuSans-30"/>
       <use transform="translate(128.203125 38.965625)scale(0.7)" xlink:href="#DejaVuSans-2212"/>
       <use transform="translate(186.855469 38.965625)scale(0.7)" xlink:href="#DejaVuSans-31"/>
       <use transform="translate(231.391602 38.965625)scale(0.7)" xlink:href="#DejaVuSans-31"/>
      </g>
     </g>
    </g>
    <g id="ytick_3">
     <g id="line2d_19">
      <path clip-path="url(#p01bcd13ac0)" d="M 153 429.955288 
L 1101.6 429.955288 
" style="fill:none;stroke:#b0b0b0;stroke-linecap:square;stroke-width:0.8;"/>
     </g>
     <g id="line2d_20">
      <g>
       <use style="stroke:#000000;stroke-width:0.8;" x="153" xlink:href="#m14935d32be" y="429.955288"/>
      </g>
     </g>
     <g id="text_11">
      <!-- $\mathdefault{10^{-9}}$ -->
      <g transform="translate(122.5 433.754506)scale(0.1 -0.1)">
       <use transform="translate(0 0.765625)" xlink:href="#DejaVuSans-31"/>
       <use transform="translate(63.623047 0.765625)" xlink:href="#DejaVuSans-30"/>
       <use transform="translate(128.203125 39.046875)scale(0.7)" xlink:href="#DejaVuSans-2212"/>
       <use transform="translate(186.855469 39.046875)scale(0.7)" xlink:href="#DejaVuSans-39"/>
      </g>
     </g>
    </g>
    <g id="ytick_4">
     <g id="line2d_21">
      <path clip-path="url(#p01bcd13ac0)" d="M 153 358.502077 
L 1101.6 358.502077 
" style="fill:none;stroke:#b0b0b0;stroke-linecap:square;stroke-width:0.8;"/>
     </g>
     <g id="line2d_22">
      <g>
       <use style="stroke:#000000;stroke-width:0.8;" x="153" xlink:href="#m14935d32be" y="358.502077"/>
      </g>
     </g>
     <g id="text_12">
      <!-- $\mathdefault{10^{-7}}$ -->
      <g transform="translate(122.5 362.301296)scale(0.1 -0.1)">
       <use transform="translate(0 0.684375)" xlink:href="#DejaVuSans-31"/>
       <use transform="translate(63.623047 0.684375)" xlink:href="#DejaVuSans-30"/>
       <use transform="translate(128.203125 38.965625)scale(0.7)" xlink:href="#DejaVuSans-2212"/>
       <use transform="translate(186.855469 38.965625)scale(0.7)" xlink:href="#DejaVuSans-37"/>
      </g>
     </g>
    </g>
    <g id="ytick_5">
     <g id="line2d_23">
      <path clip-path="url(#p01bcd13ac0)" d="M 153 287.048867 
L 1101.6 287.048867 
" style="fill:none;stroke:#b0b0b0;stroke-linecap:square;stroke-width:0.8;"/>
     </g>
     <g id="line2d_24">
      <g>
       <use style="stroke:#000000;stroke-width:0.8;" x="153" xlink:href="#m14935d32be" y="287.048867"/>
      </g>
     </g>
     <g id="text_13">
      <!-- $\mathdefault{10^{-5}}$ -->
      <g transform="translate(122.5 290.848086)scale(0.1 -0.1)">
       <defs>
        <path d="M 691 4666 
L 3169 4666 
L 3169 4134 
L 1269 4134 
L 1269 2991 
Q 1406 3038 1543 3061 
Q 1681 3084 1819 3084 
Q 2600 3084 3056 2656 
Q 3513 2228 3513 1497 
Q 3513 744 3044 326 
Q 2575 -91 1722 -91 
Q 1428 -91 1123 -41 
Q 819 9 494 109 
L 494 744 
Q 775 591 1075 516 
Q 1375 441 1709 441 
Q 2250 441 2565 725 
Q 2881 1009 2881 1497 
Q 2881 1984 2565 2268 
Q 2250 2553 1709 2553 
Q 1456 2553 1204 2497 
Q 953 2441 691 2322 
L 691 4666 
z
" id="DejaVuSans-35" transform="scale(0.015625)"/>
       </defs>
       <use transform="translate(0 0.684375)" xlink:href="#DejaVuSans-31"/>
       <use transform="translate(63.623047 0.684375)" xlink:href="#DejaVuSans-30"/>
       <use transform="translate(128.203125 38.965625)scale(0.7)" xlink:href="#DejaVuSans-2212"/>
       <use transform="translate(186.855469 38.965625)scale(0.7)" xlink:href="#DejaVuSans-35"/>
      </g>
     </g>
    </g>
    <g id="ytick_6">
     <g id="line2d_25">
      <path clip-path="url(#p01bcd13ac0)" d="M 153 215.595657 
L 1101.6 215.595657 
" style="fill:none;stroke:#b0b0b0;stroke-linecap:square;stroke-width:0.8;"/>
     </g>
     <g id="line2d_26">
      <g>
       <use style="stroke:#000000;stroke-width:0.8;" x="153" xlink:href="#m14935d32be" y="215.595657"/>
      </g>
     </g>
     <g id="text_14">
      <!-- $\mathdefault{10^{-3}}$ -->
      <g transform="translate(122.5 219.394876)scale(0.1 -0.1)">
       <use transform="translate(0 0.765625)" xlink:href="#DejaVuSans-31"/>
       <use transform="translate(63.623047 0.765625)" xlink:href="#DejaVuSans-30"/>
       <use transform="translate(128.203125 39.046875)scale(0.7)" xlink:href="#DejaVuSans-2212"/>
       <use transform="translate(186.855469 39.046875)scale(0.7)" xlink:href="#DejaVuSans-33"/>
      </g>
     </g>
    </g>
    <g id="ytick_7">
     <g id="line2d_27">
      <path clip-path="url(#p01bcd13ac0)" d="M 153 144.142447 
L 1101.6 144.142447 
" style="fill:none;stroke:#b0b0b0;stroke-linecap:square;stroke-width:0.8;"/>
     </g>
     <g id="line2d_28">
      <g>
       <use style="stroke:#000000;stroke-width:0.8;" x="153" xlink:href="#m14935d32be" y="144.142447"/>
      </g>
     </g>
     <g id="text_15">
      <!-- $\mathdefault{10^{-1}}$ -->
      <g transform="translate(122.5 147.941665)scale(0.1 -0.1)">
       <use transform="translate(0 0.684375)" xlink:href="#DejaVuSans-31"/>
       <use transform="translate(63.623047 0.684375)" xlink:href="#DejaVuSans-30"/>
       <use transform="translate(128.203125 38.965625)scale(0.7)" xlink:href="#DejaVuSans-2212"/>
       <use transform="translate(186.855469 38.965625)scale(0.7)" xlink:href="#DejaVuSans-31"/>
      </g>
     </g>
    </g>
    <g id="text_16">
     <!-- Concentration (molal) -->
     <g transform="translate(111.10525 436.872375)rotate(-90)scale(0.144 -0.144)">
      <defs>
       <path d="M 4122 4306 
L 4122 3641 
Q 3803 3938 3442 4084 
Q 3081 4231 2675 4231 
Q 1875 4231 1450 3742 
Q 1025 3253 1025 2328 
Q 1025 1406 1450 917 
Q 1875 428 2675 428 
Q 3081 428 3442 575 
Q 3803 722 4122 1019 
L 4122 359 
Q 3791 134 3420 21 
Q 3050 -91 2638 -91 
Q 1578 -91 968 557 
Q 359 1206 359 2328 
Q 359 3453 968 4101 
Q 1578 4750 2638 4750 
Q 3056 4750 3426 4639 
Q 3797 4528 4122 4306 
z
" id="DejaVuSans-43" transform="scale(0.015625)"/>
       <path d="M 1959 3097 
Q 1497 3097 1228 2736 
Q 959 2375 959 1747 
Q 959 1119 1226 758 
Q 1494 397 1959 397 
Q 2419 397 2687 759 
Q 2956 1122 2956 1747 
Q 2956 2369 2687 2733 
Q 2419 3097 1959 3097 
z
M 1959 3584 
Q 2709 3584 3137 3096 
Q 3566 2609 3566 1747 
Q 3566 888 3137 398 
Q 2709 -91 1959 -91 
Q 1206 -91 779 398 
Q 353 888 353 1747 
Q 353 2609 779 3096 
Q 1206 3584 1959 3584 
z
" id="DejaVuSans-6f" transform="scale(0.015625)"/>
       <path d="M 3513 2113 
L 3513 0 
L 2938 0 
L 2938 2094 
Q 2938 2591 2744 2837 
Q 2550 3084 2163 3084 
Q 1697 3084 1428 2787 
Q 1159 2491 1159 1978 
L 1159 0 
L 581 0 
L 581 3500 
L 1159 3500 
L 1159 2956 
Q 1366 3272 1645 3428 
Q 1925 3584 2291 3584 
Q 2894 3584 3203 3211 
Q 3513 2838 3513 2113 
z
" id="DejaVuSans-6e" transform="scale(0.015625)"/>
       <path d="M 3122 3366 
L 3122 2828 
Q 2878 2963 2633 3030 
Q 2388 3097 2138 3097 
Q 1578 3097 1268 2742 
Q 959 2388 959 1747 
Q 959 1106 1268 751 
Q 1578 397 2138 397 
Q 2388 397 2633 464 
Q 2878 531 3122 666 
L 3122 134 
Q 2881 22 2623 -34 
Q 2366 -91 2075 -91 
Q 1284 -91 818 406 
Q 353 903 353 1747 
Q 353 2603 823 3093 
Q 1294 3584 2113 3584 
Q 2378 3584 2631 3529 
Q 2884 3475 3122 3366 
z
" id="DejaVuSans-63" transform="scale(0.015625)"/>
       <path d="M 1172 4494 
L 1172 3500 
L 2356 3500 
L 2356 3053 
L 1172 3053 
L 1172 1153 
Q 1172 725 1289 603 
Q 1406 481 1766 481 
L 2356 481 
L 2356 0 
L 1766 0 
Q 1100 0 847 248 
Q 594 497 594 1153 
L 594 3053 
L 172 3053 
L 172 3500 
L 594 3500 
L 594 4494 
L 1172 4494 
z
" id="DejaVuSans-74" transform="scale(0.015625)"/>
       <path d="M 2631 2963 
Q 2534 3019 2420 3045 
Q 2306 3072 2169 3072 
Q 1681 3072 1420 2755 
Q 1159 2438 1159 1844 
L 1159 0 
L 581 0 
L 581 3500 
L 1159 3500 
L 1159 2956 
Q 1341 3275 1631 3429 
Q 1922 3584 2338 3584 
Q 2397 3584 2469 3576 
Q 2541 3569 2628 3553 
L 2631 2963 
z
" id="DejaVuSans-72" transform="scale(0.015625)"/>
       <path d="M 2194 1759 
Q 1497 1759 1228 1600 
Q 959 1441 959 1056 
Q 959 750 1161 570 
Q 1363 391 1709 391 
Q 2188 391 2477 730 
Q 2766 1069 2766 1631 
L 2766 1759 
L 2194 1759 
z
M 3341 1997 
L 3341 0 
L 2766 0 
L 2766 531 
Q 2569 213 2275 61 
Q 1981 -91 1556 -91 
Q 1019 -91 701 211 
Q 384 513 384 1019 
Q 384 1609 779 1909 
Q 1175 2209 1959 2209 
L 2766 2209 
L 2766 2266 
Q 2766 2663 2505 2880 
Q 2244 3097 1772 3097 
Q 1472 3097 1187 3025 
Q 903 2953 641 2809 
L 641 3341 
Q 956 3463 1253 3523 
Q 1550 3584 1831 3584 
Q 2591 3584 2966 3190 
Q 3341 2797 3341 1997 
z
" id="DejaVuSans-61" transform="scale(0.015625)"/>
       <path d="M 603 4863 
L 1178 4863 
L 1178 0 
L 603 0 
L 603 4863 
z
" id="DejaVuSans-6c" transform="scale(0.015625)"/>
      </defs>
      <use xlink:href="#DejaVuSans-43"/>
      <use x="69.824219" xlink:href="#DejaVuSans-6f"/>
      <use x="131.005859" xlink:href="#DejaVuSans-6e"/>
      <use x="194.384766" xlink:href="#DejaVuSans-63"/>
      <use x="249.365234" xlink:href="#DejaVuSans-65"/>
      <use x="310.888672" xlink:href="#DejaVuSans-6e"/>
      <use x="374.267578" xlink:href="#DejaVuSans-74"/>
      <use x="413.476562" xlink:href="#DejaVuSans-72"/>
      <use x="454.589844" xlink:href="#DejaVuSans-61"/>
      <use x="515.869141" xlink:href="#DejaVuSans-74"/>
      <use x="555.078125" xlink:href="#DejaVuSans-69"/>
      <use x="582.861328" xlink:href="#DejaVuSans-6f"/>
      <use x="644.042969" xlink:href="#DejaVuSans-6e"/>
      <use x="707.421875" xlink:href="#DejaVuSans-20"/>
      <use x="739.208984" xlink:href="#DejaVuSans-28"/>
      <use x="778.222656" xlink:href="#DejaVuSans-6d"/>
      <use x="875.634766" xlink:href="#DejaVuSans-6f"/>
      <use x="936.816406" xlink:href="#DejaVuSans-6c"/>
      <use x="964.599609" xlink:href="#DejaVuSans-61"/>
      <use x="1025.878906" xlink:href="#DejaVuSans-6c"/>
      <use x="1053.662109" xlink:href="#DejaVuSans-29"/>
     </g>
    </g>
   </g>
   <g id="line2d_29">
    <path clip-path="url(#p01bcd13ac0)" d="M 196.118182 605.290909 
L 210.734515 400.777424 
L 225.350847 400.777396 
L 239.96718 400.777396 
L 254.583513 400.777395 
L 269.199846 400.777395 
L 283.816179 400.777395 
L 298.432512 400.777394 
L 313.048844 400.777393 
L 327.665177 400.777392 
L 342.28151 400.777391 
L 356.897843 400.777389 
L 371.514176 400.777388 
L 386.130508 400.777387 
L 400.746841 400.777385 
L 415.363174 400.777384 
L 429.979507 400.777383 
L 444.59584 400.777383 
L 459.212173 400.777382 
L 473.828505 400.777381 
L 488.444838 400.777381 
L 503.061171 400.777381 
L 517.677504 400.777381 
L 532.293837 400.77738 
L 546.910169 400.77738 
L 561.526502 400.77738 
L 576.142835 400.77738 
L 590.759168 400.77738 
L 605.375501 400.77738 
L 619.991834 400.77738 
L 634.608166 400.77738 
L 649.224499 400.77738 
L 663.840832 400.77738 
L 678.457165 400.77738 
L 693.073498 400.77738 
L 707.689831 400.77738 
L 722.306163 400.77738 
L 736.922496 400.77738 
L 751.538829 400.77738 
L 766.155162 400.77738 
L 780.771495 400.77738 
L 795.387827 400.77738 
L 810.00416 400.77738 
L 824.620493 400.77738 
L 839.236826 400.77738 
L 853.853159 400.77738 
L 868.469492 400.77738 
L 883.085824 400.77738 
L 897.702157 400.77738 
L 912.31849 400.77738 
L 926.934823 400.77738 
L 941.551156 400.77738 
L 956.167488 400.77738 
L 970.783821 400.77738 
L 985.400154 400.77738 
L 1000.016487 400.77738 
L 1014.63282 400.77738 
L 1029.249153 400.77738 
L 1043.865485 400.77738 
L 1058.481818 400.77738 
" style="fill:none;stroke:#1f77b4;stroke-linecap:square;stroke-width:1.5;"/>
   </g>
   <g id="line2d_30">
    <path clip-path="url(#p01bcd13ac0)" d="M 196.118182 558.661246 
L 210.734515 354.147761 
L 225.350847 354.147732 
L 239.96718 354.147732 
L 254.583513 354.147732 
L 269.199846 354.147732 
L 283.816179 354.147731 
L 298.432512 354.14773 
L 313.048844 354.147729 
L 327.665177 354.147728 
L 342.28151 354.147727 
L 356.897843 354.147726 
L 371.514176 354.147724 
L 386.130508 354.147723 
L 400.746841 354.147722 
L 415.363174 354.147721 
L 429.979507 354.14772 
L 444.59584 354.147719 
L 459.212173 354.147719 
L 473.828505 354.147718 
L 488.444838 354.147718 
L 503.061171 354.147717 
L 517.677504 354.147717 
L 532.293837 354.147717 
L 546.910169 354.147717 
L 561.526502 354.147717 
L 576.142835 354.147717 
L 590.759168 354.147716 
L 605.375501 354.147716 
L 619.991834 354.147716 
L 634.608166 354.147716 
L 649.224499 354.147716 
L 663.840832 354.147716 
L 678.457165 354.147716 
L 693.073498 354.147716 
L 707.689831 354.147716 
L 722.306163 354.147716 
L 736.922496 354.147716 
L 751.538829 354.147716 
L 766.155162 354.147716 
L 780.771495 354.147716 
L 795.387827 354.147716 
L 810.00416 354.147716 
L 824.620493 354.147716 
L 839.236826 354.147716 
L 853.853159 354.147716 
L 868.469492 354.147716 
L 883.085824 354.147716 
L 897.702157 354.147716 
L 912.31849 354.147716 
L 926.934823 354.147716 
L 941.551156 354.147716 
L 956.167488 354.147716 
L 970.783821 354.147716 
L 985.400154 354.147716 
L 1000.016487 354.147716 
L 1014.63282 354.147716 
L 1029.249153 354.147716 
L 1043.865485 354.147716 
L 1058.481818 354.147716 
" style="fill:none;stroke:#ff7f0e;stroke-linecap:square;stroke-width:1.5;"/>
   </g>
   <g id="line2d_31">
    <path clip-path="url(#p01bcd13ac0)" d="M 196.118182 449.925728 
L 210.734515 245.412243 
L 225.350847 245.412215 
L 239.96718 245.412215 
L 254.583513 245.412215 
L 269.199846 245.412214 
L 283.816179 245.412214 
L 298.432512 245.412213 
L 313.048844 245.412212 
L 327.665177 245.412211 
L 342.28151 245.41221 
L 356.897843 245.412208 
L 371.514176 245.412207 
L 386.130508 245.412206 
L 400.746841 245.412205 
L 415.363174 245.412204 
L 429.979507 245.412203 
L 444.59584 245.412202 
L 459.212173 245.412201 
L 473.828505 245.412201 
L 488.444838 245.4122 
L 503.061171 245.4122 
L 517.677504 245.4122 
L 532.293837 245.4122 
L 546.910169 245.412199 
L 561.526502 245.412199 
L 576.142835 245.412199 
L 590.759168 245.412199 
L 605.375501 245.412199 
L 619.991834 245.412199 
L 634.608166 245.412199 
L 649.224499 245.412199 
L 663.840832 245.412199 
L 678.457165 245.412199 
L 693.073498 245.412199 
L 707.689831 245.412199 
L 722.306163 245.412199 
L 736.922496 245.412199 
L 751.538829 245.412199 
L 766.155162 245.412199 
L 780.771495 245.412199 
L 795.387827 245.412199 
L 810.00416 245.412199 
L 824.620493 245.412199 
L 839.236826 245.412199 
L 853.853159 245.412199 
L 868.469492 245.412199 
L 883.085824 245.412199 
L 897.702157 245.412199 
L 912.31849 245.412199 
L 926.934823 245.412199 
L 941.551156 245.412199 
L 956.167488 245.412199 
L 970.783821 245.412199 
L 985.400154 245.412199 
L 1000.016487 245.412199 
L 1014.63282 245.412199 
L 1029.249153 245.412199 
L 1043.865485 245.412199 
L 1058.481818 245.412199 
" style="fill:none;stroke:#2ca02c;stroke-linecap:square;stroke-width:1.5;"/>
   </g>
   <g id="line2d_32">
    <path clip-path="url(#p01bcd13ac0)" d="M 196.118182 315.970469 
L 210.734515 111.456984 
L 225.350847 111.456956 
L 239.96718 111.456956 
L 254.583513 111.456955 
L 269.199846 111.456955 
L 283.816179 111.456955 
L 298.432512 111.456954 
L 313.048844 111.456953 
L 327.665177 111.456952 
L 342.28151 111.456951 
L 356.897843 111.456949 
L 371.514176 111.456948 
L 386.130508 111.456947 
L 400.746841 111.456945 
L 415.363174 111.456944 
L 429.979507 111.456943 
L 444.59584 111.456943 
L 459.212173 111.456942 
L 473.828505 111.456941 
L 488.444838 111.456941 
L 503.061171 111.456941 
L 517.677504 111.456941 
L 532.293837 111.45694 
L 546.910169 111.45694 
L 561.526502 111.45694 
L 576.142835 111.45694 
L 590.759168 111.45694 
L 605.375501 111.45694 
L 619.991834 111.45694 
L 634.608166 111.45694 
L 649.224499 111.45694 
L 663.840832 111.45694 
L 678.457165 111.45694 
L 693.073498 111.45694 
L 707.689831 111.45694 
L 722.306163 111.45694 
L 736.922496 111.45694 
L 751.538829 111.45694 
L 766.155162 111.45694 
L 780.771495 111.45694 
L 795.387827 111.45694 
L 810.00416 111.45694 
L 824.620493 111.45694 
L 839.236826 111.45694 
L 853.853159 111.45694 
L 868.469492 111.45694 
L 883.085824 111.45694 
L 897.702157 111.45694 
L 912.31849 111.45694 
L 926.934823 111.45694 
L 941.551156 111.45694 
L 956.167488 111.45694 
L 970.783821 111.45694 
L 985.400154 111.45694 
L 1000.016487 111.45694 
L 1014.63282 111.45694 
L 1029.249153 111.45694 
L 1043.865485 111.45694 
L 1058.481818 111.45694 
" style="fill:none;stroke:#d62728;stroke-linecap:square;stroke-width:1.5;"/>
   </g>
   <g id="line2d_33">
    <path clip-path="url(#p01bcd13ac0)" d="M 196.118182 315.62262 
L 210.734515 111.109135 
L 225.350847 111.109107 
L 239.96718 111.109107 
L 254.583513 111.109106 
L 269.199846 111.109106 
L 283.816179 111.109106 
L 298.432512 111.109105 
L 313.048844 111.109104 
L 327.665177 111.109103 
L 342.28151 111.109102 
L 356.897843 111.1091 
L 371.514176 111.109099 
L 386.130508 111.109098 
L 400.746841 111.109096 
L 415.363174 111.109095 
L 429.979507 111.109094 
L 444.59584 111.109094 
L 459.212173 111.109093 
L 473.828505 111.109093 
L 488.444838 111.109092 
L 503.061171 111.109092 
L 517.677504 111.109092 
L 532.293837 111.109091 
L 546.910169 111.109091 
L 561.526502 111.109091 
L 576.142835 111.109091 
L 590.759168 111.109091 
L 605.375501 111.109091 
L 619.991834 111.109091 
L 634.608166 111.109091 
L 649.224499 111.109091 
L 663.840832 111.109091 
L 678.457165 111.109091 
L 693.073498 111.109091 
L 707.689831 111.109091 
L 722.306163 111.109091 
L 736.922496 111.109091 
L 751.538829 111.109091 
L 766.155162 111.109091 
L 780.771495 111.109091 
L 795.387827 111.109091 
L 810.00416 111.109091 
L 824.620493 111.109091 
L 839.236826 111.109091 
L 853.853159 111.109091 
L 868.469492 111.109091 
L 883.085824 111.109091 
L 897.702157 111.109091 
L 912.31849 111.109091 
L 926.934823 111.109091 
L 941.551156 111.109091 
L 956.167488 111.109091 
L 970.783821 111.109091 
L 985.400154 111.109091 
L 1000.016487 111.109091 
L 1014.63282 111.109091 
L 1029.249153 111.109091 
L 1043.865485 111.109091 
L 1058.481818 111.109091 
" style="fill:none;stroke:#9467bd;stroke-linecap:square;stroke-width:1.5;"/>
   </g>
   <g id="line2d_34">
    <path clip-path="url(#p01bcd13ac0)" d="M 196.118182 346.321012 
L 210.734515 141.939085 
L 225.350847 141.93908 
L 239.96718 141.939084 
L 254.583513 141.939126 
L 269.199846 141.939204 
L 283.816179 141.93933 
L 298.432512 141.939508 
L 313.048844 141.939737 
L 327.665177 141.94001 
L 342.28151 141.940313 
L 356.897843 141.940633 
L 371.514176 141.940952 
L 386.130508 141.941259 
L 400.746841 141.941543 
L 415.363174 141.941797 
L 429.979507 141.942017 
L 444.59584 141.942203 
L 459.212173 141.942356 
L 473.828505 141.942479 
L 488.444838 141.942577 
L 503.061171 141.942653 
L 517.677504 141.94271 
L 532.293837 141.942754 
L 546.910169 141.942786 
L 561.526502 141.942809 
L 576.142835 141.942826 
L 590.759168 141.942838 
L 605.375501 141.942846 
L 619.991834 141.942852 
L 634.608166 141.942856 
L 649.224499 141.942859 
L 663.840832 141.942861 
L 678.457165 141.942862 
L 693.073498 141.942863 
L 707.689831 141.942863 
L 722.306163 141.942864 
L 736.922496 141.942864 
L 751.538829 141.942864 
L 766.155162 141.942864 
L 780.771495 141.942864 
L 795.387827 141.942864 
L 810.00416 141.942864 
L 824.620493 141.942864 
L 839.236826 141.942864 
L 853.853159 141.942864 
L 868.469492 141.942864 
L 883.085824 141.942864 
L 897.702157 141.942864 
L 912.31849 141.942864 
L 926.934823 141.942864 
L 941.551156 141.942864 
L 956.167488 141.942864 
L 970.783821 141.942864 
L 985.400154 141.942864 
L 1000.016487 141.942864 
L 1014.63282 141.942864 
L 1029.249153 141.942864 
L 1043.865485 141.942864 
L 1058.481818 141.942864 
" style="fill:none;stroke:#8c564b;stroke-linecap:square;stroke-width:1.5;"/>
   </g>
   <g id="line2d_35">
    <path clip-path="url(#p01bcd13ac0)" d="M 196.118182 371.760864 
L 210.734515 167.937576 
L 225.350847 167.937668 
L 239.96718 167.937692 
L 254.583513 167.937916 
L 269.199846 167.938337 
L 283.816179 167.93901 
L 298.432512 167.939965 
L 313.048844 167.941195 
L 327.665177 167.942657 
L 342.28151 167.944284 
L 356.897843 167.945995 
L 371.514176 167.947709 
L 386.130508 167.949355 
L 400.746841 167.950877 
L 415.363174 167.952238 
L 429.979507 167.953419 
L 444.59584 167.954416 
L 459.212173 167.955238 
L 473.828505 167.955901 
L 488.444838 167.956425 
L 503.061171 167.956831 
L 517.677504 167.95714 
L 532.293837 167.957373 
L 546.910169 167.957544 
L 561.526502 167.957669 
L 576.142835 167.95776 
L 590.759168 167.957824 
L 605.375501 167.957869 
L 619.991834 167.9579 
L 634.608166 167.957922 
L 649.224499 167.957937 
L 663.840832 167.957947 
L 678.457165 167.957953 
L 693.073498 167.957958 
L 707.689831 167.957961 
L 722.306163 167.957963 
L 736.922496 167.957964 
L 751.538829 167.957965 
L 766.155162 167.957966 
L 780.771495 167.957966 
L 795.387827 167.957966 
L 810.00416 167.957966 
L 824.620493 167.957966 
L 839.236826 167.957966 
L 853.853159 167.957966 
L 868.469492 167.957966 
L 883.085824 167.957966 
L 897.702157 167.957966 
L 912.31849 167.957966 
L 926.934823 167.957966 
L 941.551156 167.957966 
L 956.167488 167.957966 
L 970.783821 167.957966 
L 985.400154 167.957966 
L 1000.016487 167.957966 
L 1014.63282 167.957966 
L 1029.249153 167.957966 
L 1043.865485 167.957966 
L 1058.481818 167.957966 
" style="fill:none;stroke:#e377c2;stroke-linecap:square;stroke-width:1.5;"/>
   </g>
   <g id="line2d_36">
    <path clip-path="url(#p01bcd13ac0)" d="M 196.118182 385.909545 
L 210.734515 181.39606 
L 225.350847 181.396032 
L 239.96718 181.396032 
L 254.583513 181.396032 
L 269.199846 181.396031 
L 283.816179 181.396031 
L 298.432512 181.39603 
L 313.048844 181.396029 
L 327.665177 181.396028 
L 342.28151 181.396027 
L 356.897843 181.396025 
L 371.514176 181.396024 
L 386.130508 181.396023 
L 400.746841 181.396021 
L 415.363174 181.39602 
L 429.979507 181.39602 
L 444.59584 181.396019 
L 459.212173 181.396018 
L 473.828505 181.396018 
L 488.444838 181.396017 
L 503.061171 181.396017 
L 517.677504 181.396017 
L 532.293837 181.396016 
L 546.910169 181.396016 
L 561.526502 181.396016 
L 576.142835 181.396016 
L 590.759168 181.396016 
L 605.375501 181.396016 
L 619.991834 181.396016 
L 634.608166 181.396016 
L 649.224499 181.396016 
L 663.840832 181.396016 
L 678.457165 181.396016 
L 693.073498 181.396016 
L 707.689831 181.396016 
L 722.306163 181.396016 
L 736.922496 181.396016 
L 751.538829 181.396016 
L 766.155162 181.396016 
L 780.771495 181.396016 
L 795.387827 181.396016 
L 810.00416 181.396016 
L 824.620493 181.396016 
L 839.236826 181.396016 
L 853.853159 181.396016 
L 868.469492 181.396016 
L 883.085824 181.396016 
L 897.702157 181.396016 
L 912.31849 181.396016 
L 926.934823 181.396016 
L 941.551156 181.396016 
L 956.167488 181.396016 
L 970.783821 181.396016 
L 985.400154 181.396016 
L 1000.016487 181.396016 
L 1014.63282 181.396016 
L 1029.249153 181.396016 
L 1043.865485 181.396016 
L 1058.481818 181.396016 
" style="fill:none;stroke:#7f7f7f;stroke-linecap:square;stroke-width:1.5;"/>
   </g>
   <g id="line2d_37">
    <path clip-path="url(#p01bcd13ac0)" d="M 196.118182 352.171998 
L 210.734515 147.658513 
L 225.350847 147.658484 
L 239.96718 147.658484 
L 254.583513 147.658484 
L 269.199846 147.658484 
L 283.816179 147.658483 
L 298.432512 147.658483 
L 313.048844 147.658482 
L 327.665177 147.658481 
L 342.28151 147.658479 
L 356.897843 147.658478 
L 371.514176 147.658477 
L 386.130508 147.658475 
L 400.746841 147.658474 
L 415.363174 147.658473 
L 429.979507 147.658472 
L 444.59584 147.658471 
L 459.212173 147.658471 
L 473.828505 147.65847 
L 488.444838 147.65847 
L 503.061171 147.65847 
L 517.677504 147.658469 
L 532.293837 147.658469 
L 546.910169 147.658469 
L 561.526502 147.658469 
L 576.142835 147.658469 
L 590.759168 147.658469 
L 605.375501 147.658469 
L 619.991834 147.658469 
L 634.608166 147.658469 
L 649.224499 147.658469 
L 663.840832 147.658469 
L 678.457165 147.658469 
L 693.073498 147.658469 
L 707.689831 147.658469 
L 722.306163 147.658469 
L 736.922496 147.658469 
L 751.538829 147.658469 
L 766.155162 147.658469 
L 780.771495 147.658469 
L 795.387827 147.658469 
L 810.00416 147.658469 
L 824.620493 147.658469 
L 839.236826 147.658469 
L 853.853159 147.658469 
L 868.469492 147.658469 
L 883.085824 147.658469 
L 897.702157 147.658469 
L 912.31849 147.658469 
L 926.934823 147.658469 
L 941.551156 147.658469 
L 956.167488 147.658469 
L 970.783821 147.658469 
L 985.400154 147.658469 
L 1000.016487 147.658469 
L 1014.63282 147.658469 
L 1029.249153 147.658469 
L 1043.865485 147.658469 
L 1058.481818 147.658469 
" style="fill:none;stroke:#bcbd22;stroke-linecap:square;stroke-width:1.5;"/>
   </g>
   <g id="line2d_38">
    <path clip-path="url(#p01bcd13ac0)" d="M 196.118182 454.144995 
L 210.734515 249.63151 
L 225.350847 249.631482 
L 239.96718 249.631482 
L 254.583513 249.631481 
L 269.199846 249.631481 
L 283.816179 249.631481 
L 298.432512 249.63148 
L 313.048844 249.631479 
L 327.665177 249.631478 
L 342.28151 249.631477 
L 356.897843 249.631475 
L 371.514176 249.631474 
L 386.130508 249.631473 
L 400.746841 249.631471 
L 415.363174 249.63147 
L 429.979507 249.631469 
L 444.59584 249.631469 
L 459.212173 249.631468 
L 473.828505 249.631468 
L 488.444838 249.631467 
L 503.061171 249.631467 
L 517.677504 249.631467 
L 532.293837 249.631466 
L 546.910169 249.631466 
L 561.526502 249.631466 
L 576.142835 249.631466 
L 590.759168 249.631466 
L 605.375501 249.631466 
L 619.991834 249.631466 
L 634.608166 249.631466 
L 649.224499 249.631466 
L 663.840832 249.631466 
L 678.457165 249.631466 
L 693.073498 249.631466 
L 707.689831 249.631466 
L 722.306163 249.631466 
L 736.922496 249.631466 
L 751.538829 249.631466 
L 766.155162 249.631466 
L 780.771495 249.631466 
L 795.387827 249.631466 
L 810.00416 249.631466 
L 824.620493 249.631466 
L 839.236826 249.631466 
L 853.853159 249.631466 
L 868.469492 249.631466 
L 883.085824 249.631466 
L 897.702157 249.631466 
L 912.31849 249.631466 
L 926.934823 249.631466 
L 941.551156 249.631466 
L 956.167488 249.631466 
L 970.783821 249.631466 
L 985.400154 249.631466 
L 1000.016487 249.631466 
L 1014.63282 249.631466 
L 1029.249153 249.631466 
L 1043.865485 249.631466 
L 1058.481818 249.631466 
" style="fill:none;stroke:#17becf;stroke-linecap:square;stroke-width:1.5;"/>
   </g>
   <g id="line2d_39">
    <path clip-path="url(#p01bcd13ac0)" d="M 196.118182 563.927407 
L 210.734515 359.413922 
L 225.350847 359.413894 
L 239.96718 359.413894 
L 254.583513 359.413894 
L 269.199846 359.413893 
L 283.816179 359.413893 
L 298.432512 359.413892 
L 313.048844 359.413891 
L 327.665177 359.41389 
L 342.28151 359.413889 
L 356.897843 359.413887 
L 371.514176 359.413886 
L 386.130508 359.413885 
L 400.746841 359.413884 
L 415.363174 359.413882 
L 429.979507 359.413882 
L 444.59584 359.413881 
L 459.212173 359.41388 
L 473.828505 359.41388 
L 488.444838 359.413879 
L 503.061171 359.413879 
L 517.677504 359.413879 
L 532.293837 359.413878 
L 546.910169 359.413878 
L 561.526502 359.413878 
L 576.142835 359.413878 
L 590.759168 359.413878 
L 605.375501 359.413878 
L 619.991834 359.413878 
L 634.608166 359.413878 
L 649.224499 359.413878 
L 663.840832 359.413878 
L 678.457165 359.413878 
L 693.073498 359.413878 
L 707.689831 359.413878 
L 722.306163 359.413878 
L 736.922496 359.413878 
L 751.538829 359.413878 
L 766.155162 359.413878 
L 780.771495 359.413878 
L 795.387827 359.413878 
L 810.00416 359.413878 
L 824.620493 359.413878 
L 839.236826 359.413878 
L 853.853159 359.413878 
L 868.469492 359.413878 
L 883.085824 359.413878 
L 897.702157 359.413878 
L 912.31849 359.413878 
L 926.934823 359.413878 
L 941.551156 359.413878 
L 956.167488 359.413878 
L 970.783821 359.413878 
L 985.400154 359.413878 
L 1000.016487 359.413878 
L 1014.63282 359.413878 
L 1029.249153 359.413878 
L 1043.865485 359.413878 
L 1058.481818 359.413878 
" style="fill:none;stroke:#1f77b4;stroke-linecap:square;stroke-width:1.5;"/>
   </g>
   <g id="line2d_40">
    <path clip-path="url(#p01bcd13ac0)" d="M 196.118182 470.577877 
L 210.734515 266.064392 
L 225.350847 266.064364 
L 239.96718 266.064364 
L 254.583513 266.064364 
L 269.199846 266.064363 
L 283.816179 266.064363 
L 298.432512 266.064362 
L 313.048844 266.064361 
L 327.665177 266.06436 
L 342.28151 266.064359 
L 356.897843 266.064357 
L 371.514176 266.064356 
L 386.130508 266.064355 
L 400.746841 266.064354 
L 415.363174 266.064353 
L 429.979507 266.064352 
L 444.59584 266.064351 
L 459.212173 266.06435 
L 473.828505 266.06435 
L 488.444838 266.064349 
L 503.061171 266.064349 
L 517.677504 266.064349 
L 532.293837 266.064349 
L 546.910169 266.064348 
L 561.526502 266.064348 
L 576.142835 266.064348 
L 590.759168 266.064348 
L 605.375501 266.064348 
L 619.991834 266.064348 
L 634.608166 266.064348 
L 649.224499 266.064348 
L 663.840832 266.064348 
L 678.457165 266.064348 
L 693.073498 266.064348 
L 707.689831 266.064348 
L 722.306163 266.064348 
L 736.922496 266.064348 
L 751.538829 266.064348 
L 766.155162 266.064348 
L 780.771495 266.064348 
L 795.387827 266.064348 
L 810.00416 266.064348 
L 824.620493 266.064348 
L 839.236826 266.064348 
L 853.853159 266.064348 
L 868.469492 266.064348 
L 883.085824 266.064348 
L 897.702157 266.064348 
L 912.31849 266.064348 
L 926.934823 266.064348 
L 941.551156 266.064348 
L 956.167488 266.064348 
L 970.783821 266.064348 
L 985.400154 266.064348 
L 1000.016487 266.064348 
L 1014.63282 266.064348 
L 1029.249153 266.064348 
L 1043.865485 266.064348 
L 1058.481818 266.064348 
" style="fill:none;stroke:#ff7f0e;stroke-linecap:square;stroke-width:1.5;"/>
   </g>
   <g id="patch_3">
    <path d="M 153 630 
L 153 86.4 
" style="fill:none;stroke:#000000;stroke-linecap:square;stroke-linejoin:miter;stroke-width:0.8;"/>
   </g>
   <g id="patch_4">
    <path d="M 1101.6 630 
L 1101.6 86.4 
" style="fill:none;stroke:#000000;stroke-linecap:square;stroke-linejoin:miter;stroke-width:0.8;"/>
   </g>
   <g id="patch_5">
    <path d="M 153 630 
L 1101.6 630 
" style="fill:none;stroke:#000000;stroke-linecap:square;stroke-linejoin:miter;stroke-width:0.8;"/>
   </g>
   <g id="patch_6">
    <path d="M 153 86.4 
L 1101.6 86.4 
" style="fill:none;stroke:#000000;stroke-linecap:square;stroke-linejoin:miter;stroke-width:0.8;"/>
   </g>
   <g id="text_17">
    <!-- Effluent brine concentration over time -->
    <g transform="translate(461.8629 80.4)scale(0.1728 -0.1728)">
     <defs>
      <path d="M 2375 4863 
L 2375 4384 
L 1825 4384 
Q 1516 4384 1395 4259 
Q 1275 4134 1275 3809 
L 1275 3500 
L 2222 3500 
L 2222 3053 
L 1275 3053 
L 1275 0 
L 697 0 
L 697 3053 
L 147 3053 
L 147 3500 
L 697 3500 
L 697 3744 
Q 697 4328 969 4595 
Q 1241 4863 1831 4863 
L 2375 4863 
z
" id="DejaVuSans-66" transform="scale(0.015625)"/>
      <path d="M 544 1381 
L 544 3500 
L 1119 3500 
L 1119 1403 
Q 1119 906 1312 657 
Q 1506 409 1894 409 
Q 2359 409 2629 706 
Q 2900 1003 2900 1516 
L 2900 3500 
L 3475 3500 
L 3475 0 
L 2900 0 
L 2900 538 
Q 2691 219 2414 64 
Q 2138 -91 1772 -91 
Q 1169 -91 856 284 
Q 544 659 544 1381 
z
M 1991 3584 
L 1991 3584 
z
" id="DejaVuSans-75" transform="scale(0.015625)"/>
      <path d="M 3116 1747 
Q 3116 2381 2855 2742 
Q 2594 3103 2138 3103 
Q 1681 3103 1420 2742 
Q 1159 2381 1159 1747 
Q 1159 1113 1420 752 
Q 1681 391 2138 391 
Q 2594 391 2855 752 
Q 3116 1113 3116 1747 
z
M 1159 2969 
Q 1341 3281 1617 3432 
Q 1894 3584 2278 3584 
Q 2916 3584 3314 3078 
Q 3713 2572 3713 1747 
Q 3713 922 3314 415 
Q 2916 -91 2278 -91 
Q 1894 -91 1617 61 
Q 1341 213 1159 525 
L 1159 0 
L 581 0 
L 581 4863 
L 1159 4863 
L 1159 2969 
z
" id="DejaVuSans-62" transform="scale(0.015625)"/>
      <path d="M 191 3500 
L 800 3500 
L 1894 563 
L 2988 3500 
L 3597 3500 
L 2284 0 
L 1503 0 
L 191 3500 
z
" id="DejaVuSans-76" transform="scale(0.015625)"/>
     </defs>
     <use xlink:href="#DejaVuSans-45"/>
     <use x="63.183594" xlink:href="#DejaVuSans-66"/>
     <use x="98.388672" xlink:href="#DejaVuSans-66"/>
     <use x="133.59375" xlink:href="#DejaVuSans-6c"/>
     <use x="161.376953" xlink:href="#DejaVuSans-75"/>
     <use x="224.755859" xlink:href="#DejaVuSans-65"/>
     <use x="286.279297" xlink:href="#DejaVuSans-6e"/>
     <use x="349.658203" xlink:href="#DejaVuSans-74"/>
     <use x="388.867188" xlink:href="#DejaVuSans-20"/>
     <use x="420.654297" xlink:href="#DejaVuSans-62"/>
     <use x="484.130859" xlink:href="#DejaVuSans-72"/>
     <use x="525.244141" xlink:href="#DejaVuSans-69"/>
     <use x="553.027344" xlink:href="#DejaVuSans-6e"/>
     <use x="616.40625" xlink:href="#DejaVuSans-65"/>
     <use x="677.929688" xlink:href="#DejaVuSans-20"/>
     <use x="709.716797" xlink:href="#DejaVuSans-63"/>
     <use x="764.697266" xlink:href="#DejaVuSans-6f"/>
     <use x="825.878906" xlink:href="#DejaVuSans-6e"/>
     <use x="889.257812" xlink:href="#DejaVuSans-63"/>
     <use x="944.238281" xlink:href="#DejaVuSans-65"/>
     <use x="1005.761719" xlink:href="#DejaVuSans-6e"/>
     <use x="1069.140625" xlink:href="#DejaVuSans-74"/>
     <use x="1108.349609" xlink:href="#DejaVuSans-72"/>
     <use x="1149.462891" xlink:href="#DejaVuSans-61"/>
     <use x="1210.742188" xlink:href="#DejaVuSans-74"/>
     <use x="1249.951172" xlink:href="#DejaVuSans-69"/>
     <use x="1277.734375" xlink:href="#DejaVuSans-6f"/>
     <use x="1338.916016" xlink:href="#DejaVuSans-6e"/>
     <use x="1402.294922" xlink:href="#DejaVuSans-20"/>
     <use x="1434.082031" xlink:href="#DejaVuSans-6f"/>
     <use x="1495.263672" xlink:href="#DejaVuSans-76"/>
     <use x="1554.443359" xlink:href="#DejaVuSans-65"/>
     <use x="1615.966797" xlink:href="#DejaVuSans-72"/>
     <use x="1657.080078" xlink:href="#DejaVuSans-20"/>
     <use x="1688.867188" xlink:href="#DejaVuSans-74"/>
     <use x="1728.076172" xlink:href="#DejaVuSans-69"/>
     <use x="1755.859375" xlink:href="#DejaVuSans-6d"/>
     <use x="1853.271484" xlink:href="#DejaVuSans-65"/>
    </g>
   </g>
   <g id="legend_1">
    <g id="patch_7">
     <path d="M 953.859 624 
L 1093.2 624 
Q 1095.6 624 1095.6 621.6 
L 1095.6 391.4985 
Q 1095.6 389.0985 1093.2 389.0985 
L 953.859 389.0985 
Q 951.459 389.0985 951.459 391.4985 
L 951.459 621.6 
Q 951.459 624 953.859 624 
z
" style="fill:#ffffff;opacity:0.8;stroke:#cccccc;stroke-linejoin:miter;"/>
    </g>
    <g id="text_18">
     <!-- non-zero elements -->
     <g transform="translate(956.259 404.84025)scale(0.144 -0.144)">
      <defs>
       <path d="M 313 2009 
L 1997 2009 
L 1997 1497 
L 313 1497 
L 313 2009 
z
" id="DejaVuSans-2d" transform="scale(0.015625)"/>
       <path d="M 353 3500 
L 3084 3500 
L 3084 2975 
L 922 459 
L 3084 459 
L 3084 0 
L 275 0 
L 275 525 
L 2438 3041 
L 353 3041 
L 353 3500 
z
" id="DejaVuSans-7a" transform="scale(0.015625)"/>
      </defs>
      <use xlink:href="#DejaVuSans-6e"/>
      <use x="63.378906" xlink:href="#DejaVuSans-6f"/>
      <use x="124.560547" xlink:href="#DejaVuSans-6e"/>
      <use x="187.939453" xlink:href="#DejaVuSans-2d"/>
      <use x="224.023438" xlink:href="#DejaVuSans-7a"/>
      <use x="276.513672" xlink:href="#DejaVuSans-65"/>
      <use x="338.037109" xlink:href="#DejaVuSans-72"/>
      <use x="376.900391" xlink:href="#DejaVuSans-6f"/>
      <use x="438.082031" xlink:href="#DejaVuSans-20"/>
      <use x="469.869141" xlink:href="#DejaVuSans-65"/>
      <use x="531.392578" xlink:href="#DejaVuSans-6c"/>
      <use x="559.175781" xlink:href="#DejaVuSans-65"/>
      <use x="620.699219" xlink:href="#DejaVuSans-6d"/>
      <use x="718.111328" xlink:href="#DejaVuSans-65"/>
      <use x="779.634766" xlink:href="#DejaVuSans-6e"/>
      <use x="843.013672" xlink:href="#DejaVuSans-74"/>
      <use x="882.222656" xlink:href="#DejaVuSans-73"/>
     </g>
    </g>
    <g id="line2d_41">
     <path d="M 994.421063 418.753125 
L 1018.421063 418.753125 
" style="fill:none;stroke:#1f77b4;stroke-linecap:square;stroke-width:1.5;"/>
    </g>
    <g id="line2d_42"/>
    <g id="text_19">
     <!-- Mn -->
     <g transform="translate(1028.021062 422.953125)scale(0.12 -0.12)">
      <defs>
       <path d="M 628 4666 
L 1569 4666 
L 2759 1491 
L 3956 4666 
L 4897 4666 
L 4897 0 
L 4281 0 
L 4281 4097 
L 3078 897 
L 2444 897 
L 1241 4097 
L 1241 0 
L 628 0 
L 628 4666 
z
" id="DejaVuSans-4d" transform="scale(0.015625)"/>
      </defs>
      <use xlink:href="#DejaVuSans-4d"/>
      <use x="86.279297" xlink:href="#DejaVuSans-6e"/>
     </g>
    </g>
    <g id="line2d_43">
     <path d="M 994.421063 436.366875 
L 1018.421063 436.366875 
" style="fill:none;stroke:#ff7f0e;stroke-linecap:square;stroke-width:1.5;"/>
    </g>
    <g id="line2d_44"/>
    <g id="text_20">
     <!-- Fe -->
     <g transform="translate(1028.021062 440.566875)scale(0.12 -0.12)">
      <defs>
       <path d="M 628 4666 
L 3309 4666 
L 3309 4134 
L 1259 4134 
L 1259 2759 
L 3109 2759 
L 3109 2228 
L 1259 2228 
L 1259 0 
L 628 0 
L 628 4666 
z
" id="DejaVuSans-46" transform="scale(0.015625)"/>
      </defs>
      <use xlink:href="#DejaVuSans-46"/>
      <use x="52.019531" xlink:href="#DejaVuSans-65"/>
     </g>
    </g>
    <g id="line2d_45">
     <path d="M 994.421063 453.980625 
L 1018.421063 453.980625 
" style="fill:none;stroke:#2ca02c;stroke-linecap:square;stroke-width:1.5;"/>
    </g>
    <g id="line2d_46"/>
    <g id="text_21">
     <!-- B -->
     <g transform="translate(1028.021062 458.180625)scale(0.12 -0.12)">
      <defs>
       <path d="M 1259 2228 
L 1259 519 
L 2272 519 
Q 2781 519 3026 730 
Q 3272 941 3272 1375 
Q 3272 1813 3026 2020 
Q 2781 2228 2272 2228 
L 1259 2228 
z
M 1259 4147 
L 1259 2741 
L 2194 2741 
Q 2656 2741 2882 2914 
Q 3109 3088 3109 3444 
Q 3109 3797 2882 3972 
Q 2656 4147 2194 4147 
L 1259 4147 
z
M 628 4666 
L 2241 4666 
Q 2963 4666 3353 4366 
Q 3744 4066 3744 3513 
Q 3744 3084 3544 2831 
Q 3344 2578 2956 2516 
Q 3422 2416 3680 2098 
Q 3938 1781 3938 1306 
Q 3938 681 3513 340 
Q 3088 0 2303 0 
L 628 0 
L 628 4666 
z
" id="DejaVuSans-42" transform="scale(0.015625)"/>
      </defs>
      <use xlink:href="#DejaVuSans-42"/>
     </g>
    </g>
    <g id="line2d_47">
     <path d="M 994.421063 471.594375 
L 1018.421063 471.594375 
" style="fill:none;stroke:#d62728;stroke-linecap:square;stroke-width:1.5;"/>
    </g>
    <g id="line2d_48"/>
    <g id="text_22">
     <!-- Cl -->
     <g transform="translate(1028.021062 475.794375)scale(0.12 -0.12)">
      <use xlink:href="#DejaVuSans-43"/>
      <use x="69.824219" xlink:href="#DejaVuSans-6c"/>
     </g>
    </g>
    <g id="line2d_49">
     <path d="M 994.421063 489.208125 
L 1018.421063 489.208125 
" style="fill:none;stroke:#9467bd;stroke-linecap:square;stroke-width:1.5;"/>
    </g>
    <g id="line2d_50"/>
    <g id="text_23">
     <!-- Na -->
     <g transform="translate(1028.021062 493.408125)scale(0.12 -0.12)">
      <defs>
       <path d="M 628 4666 
L 1478 4666 
L 3547 763 
L 3547 4666 
L 4159 4666 
L 4159 0 
L 3309 0 
L 1241 3903 
L 1241 0 
L 628 0 
L 628 4666 
z
" id="DejaVuSans-4e" transform="scale(0.015625)"/>
      </defs>
      <use xlink:href="#DejaVuSans-4e"/>
      <use x="74.804688" xlink:href="#DejaVuSans-61"/>
     </g>
    </g>
    <g id="line2d_51">
     <path d="M 994.421063 506.821875 
L 1018.421063 506.821875 
" style="fill:none;stroke:#8c564b;stroke-linecap:square;stroke-width:1.5;"/>
    </g>
    <g id="line2d_52"/>
    <g id="text_24">
     <!-- S(6) -->
     <g transform="translate(1028.021062 511.021875)scale(0.12 -0.12)">
      <defs>
       <path d="M 3425 4513 
L 3425 3897 
Q 3066 4069 2747 4153 
Q 2428 4238 2131 4238 
Q 1616 4238 1336 4038 
Q 1056 3838 1056 3469 
Q 1056 3159 1242 3001 
Q 1428 2844 1947 2747 
L 2328 2669 
Q 3034 2534 3370 2195 
Q 3706 1856 3706 1288 
Q 3706 609 3251 259 
Q 2797 -91 1919 -91 
Q 1588 -91 1214 -16 
Q 841 59 441 206 
L 441 856 
Q 825 641 1194 531 
Q 1563 422 1919 422 
Q 2459 422 2753 634 
Q 3047 847 3047 1241 
Q 3047 1584 2836 1778 
Q 2625 1972 2144 2069 
L 1759 2144 
Q 1053 2284 737 2584 
Q 422 2884 422 3419 
Q 422 4038 858 4394 
Q 1294 4750 2059 4750 
Q 2388 4750 2728 4690 
Q 3069 4631 3425 4513 
z
" id="DejaVuSans-53" transform="scale(0.015625)"/>
      </defs>
      <use xlink:href="#DejaVuSans-53"/>
      <use x="63.476562" xlink:href="#DejaVuSans-28"/>
      <use x="102.490234" xlink:href="#DejaVuSans-36"/>
      <use x="166.113281" xlink:href="#DejaVuSans-29"/>
     </g>
    </g>
    <g id="line2d_53">
     <path d="M 994.421063 524.435625 
L 1018.421063 524.435625 
" style="fill:none;stroke:#e377c2;stroke-linecap:square;stroke-width:1.5;"/>
    </g>
    <g id="line2d_54"/>
    <g id="text_25">
     <!-- Ca -->
     <g transform="translate(1028.021062 528.635625)scale(0.12 -0.12)">
      <use xlink:href="#DejaVuSans-43"/>
      <use x="69.824219" xlink:href="#DejaVuSans-61"/>
     </g>
    </g>
    <g id="line2d_55">
     <path d="M 994.421063 542.049375 
L 1018.421063 542.049375 
" style="fill:none;stroke:#7f7f7f;stroke-linecap:square;stroke-width:1.5;"/>
    </g>
    <g id="line2d_56"/>
    <g id="text_26">
     <!-- K -->
     <g transform="translate(1028.021062 546.249375)scale(0.12 -0.12)">
      <defs>
       <path d="M 628 4666 
L 1259 4666 
L 1259 2694 
L 3353 4666 
L 4166 4666 
L 1850 2491 
L 4331 0 
L 3500 0 
L 1259 2247 
L 1259 0 
L 628 0 
L 628 4666 
z
" id="DejaVuSans-4b" transform="scale(0.015625)"/>
      </defs>
      <use xlink:href="#DejaVuSans-4b"/>
     </g>
    </g>
    <g id="line2d_57">
     <path d="M 994.421063 559.663125 
L 1018.421063 559.663125 
" style="fill:none;stroke:#bcbd22;stroke-linecap:square;stroke-width:1.5;"/>
    </g>
    <g id="line2d_58"/>
    <g id="text_27">
     <!-- Mg -->
     <g transform="translate(1028.021062 563.863125)scale(0.12 -0.12)">
      <defs>
       <path d="M 2906 1791 
Q 2906 2416 2648 2759 
Q 2391 3103 1925 3103 
Q 1463 3103 1205 2759 
Q 947 2416 947 1791 
Q 947 1169 1205 825 
Q 1463 481 1925 481 
Q 2391 481 2648 825 
Q 2906 1169 2906 1791 
z
M 3481 434 
Q 3481 -459 3084 -895 
Q 2688 -1331 1869 -1331 
Q 1566 -1331 1297 -1286 
Q 1028 -1241 775 -1147 
L 775 -588 
Q 1028 -725 1275 -790 
Q 1522 -856 1778 -856 
Q 2344 -856 2625 -561 
Q 2906 -266 2906 331 
L 2906 616 
Q 2728 306 2450 153 
Q 2172 0 1784 0 
Q 1141 0 747 490 
Q 353 981 353 1791 
Q 353 2603 747 3093 
Q 1141 3584 1784 3584 
Q 2172 3584 2450 3431 
Q 2728 3278 2906 2969 
L 2906 3500 
L 3481 3500 
L 3481 434 
z
" id="DejaVuSans-67" transform="scale(0.015625)"/>
      </defs>
      <use xlink:href="#DejaVuSans-4d"/>
      <use x="86.279297" xlink:href="#DejaVuSans-67"/>
     </g>
    </g>
    <g id="line2d_59">
     <path d="M 994.421063 577.276875 
L 1018.421063 577.276875 
" style="fill:none;stroke:#17becf;stroke-linecap:square;stroke-width:1.5;"/>
    </g>
    <g id="line2d_60"/>
    <g id="text_28">
     <!-- Sr -->
     <g transform="translate(1028.021062 581.476875)scale(0.12 -0.12)">
      <use xlink:href="#DejaVuSans-53"/>
      <use x="63.476562" xlink:href="#DejaVuSans-72"/>
     </g>
    </g>
    <g id="line2d_61">
     <path d="M 994.421063 594.890625 
L 1018.421063 594.890625 
" style="fill:none;stroke:#1f77b4;stroke-linecap:square;stroke-width:1.5;"/>
    </g>
    <g id="line2d_62"/>
    <g id="text_29">
     <!-- Ba -->
     <g transform="translate(1028.021062 599.090625)scale(0.12 -0.12)">
      <use xlink:href="#DejaVuSans-42"/>
      <use x="68.603516" xlink:href="#DejaVuSans-61"/>
     </g>
    </g>
    <g id="line2d_63">
     <path d="M 994.421063 612.504375 
L 1018.421063 612.504375 
" style="fill:none;stroke:#ff7f0e;stroke-linecap:square;stroke-width:1.5;"/>
    </g>
    <g id="line2d_64"/>
    <g id="text_30">
     <!-- Li -->
     <g transform="translate(1028.021062 616.704375)scale(0.12 -0.12)">
      <defs>
       <path d="M 628 4666 
L 1259 4666 
L 1259 531 
L 3531 531 
L 3531 0 
L 628 0 
L 628 4666 
z
" id="DejaVuSans-4c" transform="scale(0.015625)"/>
      </defs>
      <use xlink:href="#DejaVuSans-4c"/>
      <use x="55.712891" xlink:href="#DejaVuSans-69"/>
     </g>
    </g>
   </g>
  </g>
  <g id="text_31">
   <!-- Final CF: 1.114E0 -->
   <g transform="translate(244.8 669.6)scale(0.12 -0.12)">
    <defs>
     <path d="M 750 794 
L 1409 794 
L 1409 0 
L 750 0 
L 750 794 
z
M 750 3309 
L 1409 3309 
L 1409 2516 
L 750 2516 
L 750 3309 
z
" id="DejaVuSans-3a" transform="scale(0.015625)"/>
    </defs>
    <use xlink:href="#DejaVuSans-46"/>
    <use x="50.269531" xlink:href="#DejaVuSans-69"/>
    <use x="78.052734" xlink:href="#DejaVuSans-6e"/>
    <use x="141.431641" xlink:href="#DejaVuSans-61"/>
    <use x="202.710938" xlink:href="#DejaVuSans-6c"/>
    <use x="230.494141" xlink:href="#DejaVuSans-20"/>
    <use x="262.28125" xlink:href="#DejaVuSans-43"/>
    <use x="332.105469" xlink:href="#DejaVuSans-46"/>
    <use x="381.875" xlink:href="#DejaVuSans-3a"/>
    <use x="415.566406" xlink:href="#DejaVuSans-20"/>
    <use x="447.353516" xlink:href="#DejaVuSans-31"/>
    <use x="510.976562" xlink:href="#DejaVuSans-2e"/>
    <use x="542.763672" xlink:href="#DejaVuSans-31"/>
    <use x="606.386719" xlink:href="#DejaVuSans-31"/>
    <use x="670.009766" xlink:href="#DejaVuSans-34"/>
    <use x="733.632812" xlink:href="#DejaVuSans-45"/>
    <use x="796.816406" xlink:href="#DejaVuSans-30"/>
   </g>
  </g>
 </g>
 <defs>
  <clipPath id="p01bcd13ac0">
   <rect height="543.6" width="948.6" x="153" y="86.4"/>
  </clipPath>
 </defs>
</svg>
