<?xml version="1.0" encoding="utf-8" standalone="no"?>
<!DOCTYPE svg PUBLIC "-//W3C//DTD SVG 1.1//EN"
  "http://www.w3.org/Graphics/SVG/1.1/DTD/svg11.dtd">
<svg height="720pt" version="1.1" viewBox="0 0 1224 720" width="1224pt" xmlns="http://www.w3.org/2000/svg" xmlns:xlink="http://www.w3.org/1999/xlink">
 <metadata>
  <rdf:RDF xmlns:cc="http://creativecommons.org/ns#" xmlns:dc="http://purl.org/dc/elements/1.1/" xmlns:rdf="http://www.w3.org/1999/02/22-rdf-syntax-ns#">
   <cc:Work>
    <dc:type rdf:resource="http://purl.org/dc/dcmitype/StillImage"/>
    <dc:date>2021-11-04T19:37:45.760593</dc:date>
    <dc:format>image/svg+xml</dc:format>
    <dc:creator>
     <cc:Agent>
      <dc:title>Matplotlib v3.4.3, https://matplotlib.org/</dc:title>
     </cc:Agent>
    </dc:creator>
   </cc:Work>
  </rdf:RDF>
 </metadata>
 <defs>
  <style type="text/css">*{stroke-linecap:butt;stroke-linejoin:round;}</style>
 </defs>
 <g id="figure_1">
  <g id="patch_1">
   <path d="M 0 720 
L 1224 720 
L 1224 0 
L 0 0 
z
" style="fill:#ffffff;"/>
  </g>
  <g id="axes_1">
   <g id="patch_2">
    <path d="M 153 640.8 
L 1101.6 640.8 
L 1101.6 86.4 
L 153 86.4 
z
" style="fill:#ffffff;"/>
   </g>
   <g id="matplotlib.axis_1">
    <g id="xtick_1">
     <g id="line2d_1">
      <path clip-path="url(#pe5af7c9813)" d="M 196.118182 640.8 
L 196.118182 86.4 
" style="fill:none;stroke:#b0b0b0;stroke-linecap:square;stroke-width:0.8;"/>
     </g>
     <g id="line2d_2">
      <defs>
       <path d="M 0 0 
L 0 3.5 
" id="mbb34baa7e6" style="stroke:#000000;stroke-width:0.8;"/>
      </defs>
      <g>
       <use style="stroke:#000000;stroke-width:0.8;" x="196.118182" xlink:href="#mbb34baa7e6" y="640.8"/>
      </g>
     </g>
     <g id="text_1">
      <!-- 4.34E1 -->
      <g transform="translate(178.644744 655.398438)scale(0.1 -0.1)">
       <defs>
        <path d="M 2419 4116 
L 825 1625 
L 2419 1625 
L 2419 4116 
z
M 2253 4666 
L 3047 4666 
L 3047 1625 
L 3713 1625 
L 3713 1100 
L 3047 1100 
L 3047 0 
L 2419 0 
L 2419 1100 
L 313 1100 
L 313 1709 
L 2253 4666 
z
" id="DejaVuSans-34" transform="scale(0.015625)"/>
        <path d="M 684 794 
L 1344 794 
L 1344 0 
L 684 0 
L 684 794 
z
" id="DejaVuSans-2e" transform="scale(0.015625)"/>
        <path d="M 2597 2516 
Q 3050 2419 3304 2112 
Q 3559 1806 3559 1356 
Q 3559 666 3084 287 
Q 2609 -91 1734 -91 
Q 1441 -91 1130 -33 
Q 819 25 488 141 
L 488 750 
Q 750 597 1062 519 
Q 1375 441 1716 441 
Q 2309 441 2620 675 
Q 2931 909 2931 1356 
Q 2931 1769 2642 2001 
Q 2353 2234 1838 2234 
L 1294 2234 
L 1294 2753 
L 1863 2753 
Q 2328 2753 2575 2939 
Q 2822 3125 2822 3475 
Q 2822 3834 2567 4026 
Q 2313 4219 1838 4219 
Q 1578 4219 1281 4162 
Q 984 4106 628 3988 
L 628 4550 
Q 988 4650 1302 4700 
Q 1616 4750 1894 4750 
Q 2613 4750 3031 4423 
Q 3450 4097 3450 3541 
Q 3450 3153 3228 2886 
Q 3006 2619 2597 2516 
z
" id="DejaVuSans-33" transform="scale(0.015625)"/>
        <path d="M 628 4666 
L 3578 4666 
L 3578 4134 
L 1259 4134 
L 1259 2753 
L 3481 2753 
L 3481 2222 
L 1259 2222 
L 1259 531 
L 3634 531 
L 3634 0 
L 628 0 
L 628 4666 
z
" id="DejaVuSans-45" transform="scale(0.015625)"/>
        <path d="M 794 531 
L 1825 531 
L 1825 4091 
L 703 3866 
L 703 4441 
L 1819 4666 
L 2450 4666 
L 2450 531 
L 3481 531 
L 3481 0 
L 794 0 
L 794 531 
z
" id="DejaVuSans-31" transform="scale(0.015625)"/>
       </defs>
       <use xlink:href="#DejaVuSans-34"/>
       <use x="63.623047" xlink:href="#DejaVuSans-2e"/>
       <use x="95.410156" xlink:href="#DejaVuSans-33"/>
       <use x="159.033203" xlink:href="#DejaVuSans-34"/>
       <use x="222.65625" xlink:href="#DejaVuSans-45"/>
       <use x="285.839844" xlink:href="#DejaVuSans-31"/>
      </g>
     </g>
    </g>
    <g id="xtick_2">
     <g id="line2d_3">
      <path clip-path="url(#pe5af7c9813)" d="M 342.28151 640.8 
L 342.28151 86.4 
" style="fill:none;stroke:#b0b0b0;stroke-linecap:square;stroke-width:0.8;"/>
     </g>
     <g id="line2d_4">
      <g>
       <use style="stroke:#000000;stroke-width:0.8;" x="342.28151" xlink:href="#mbb34baa7e6" y="640.8"/>
      </g>
     </g>
     <g id="text_2">
      <!-- 8.29E1 -->
      <g transform="translate(324.808073 655.398438)scale(0.1 -0.1)">
       <defs>
        <path d="M 2034 2216 
Q 1584 2216 1326 1975 
Q 1069 1734 1069 1313 
Q 1069 891 1326 650 
Q 1584 409 2034 409 
Q 2484 409 2743 651 
Q 3003 894 3003 1313 
Q 3003 1734 2745 1975 
Q 2488 2216 2034 2216 
z
M 1403 2484 
Q 997 2584 770 2862 
Q 544 3141 544 3541 
Q 544 4100 942 4425 
Q 1341 4750 2034 4750 
Q 2731 4750 3128 4425 
Q 3525 4100 3525 3541 
Q 3525 3141 3298 2862 
Q 3072 2584 2669 2484 
Q 3125 2378 3379 2068 
Q 3634 1759 3634 1313 
Q 3634 634 3220 271 
Q 2806 -91 2034 -91 
Q 1263 -91 848 271 
Q 434 634 434 1313 
Q 434 1759 690 2068 
Q 947 2378 1403 2484 
z
M 1172 3481 
Q 1172 3119 1398 2916 
Q 1625 2713 2034 2713 
Q 2441 2713 2670 2916 
Q 2900 3119 2900 3481 
Q 2900 3844 2670 4047 
Q 2441 4250 2034 4250 
Q 1625 4250 1398 4047 
Q 1172 3844 1172 3481 
z
" id="DejaVuSans-38" transform="scale(0.015625)"/>
        <path d="M 1228 531 
L 3431 531 
L 3431 0 
L 469 0 
L 469 531 
Q 828 903 1448 1529 
Q 2069 2156 2228 2338 
Q 2531 2678 2651 2914 
Q 2772 3150 2772 3378 
Q 2772 3750 2511 3984 
Q 2250 4219 1831 4219 
Q 1534 4219 1204 4116 
Q 875 4013 500 3803 
L 500 4441 
Q 881 4594 1212 4672 
Q 1544 4750 1819 4750 
Q 2544 4750 2975 4387 
Q 3406 4025 3406 3419 
Q 3406 3131 3298 2873 
Q 3191 2616 2906 2266 
Q 2828 2175 2409 1742 
Q 1991 1309 1228 531 
z
" id="DejaVuSans-32" transform="scale(0.015625)"/>
        <path d="M 703 97 
L 703 672 
Q 941 559 1184 500 
Q 1428 441 1663 441 
Q 2288 441 2617 861 
Q 2947 1281 2994 2138 
Q 2813 1869 2534 1725 
Q 2256 1581 1919 1581 
Q 1219 1581 811 2004 
Q 403 2428 403 3163 
Q 403 3881 828 4315 
Q 1253 4750 1959 4750 
Q 2769 4750 3195 4129 
Q 3622 3509 3622 2328 
Q 3622 1225 3098 567 
Q 2575 -91 1691 -91 
Q 1453 -91 1209 -44 
Q 966 3 703 97 
z
M 1959 2075 
Q 2384 2075 2632 2365 
Q 2881 2656 2881 3163 
Q 2881 3666 2632 3958 
Q 2384 4250 1959 4250 
Q 1534 4250 1286 3958 
Q 1038 3666 1038 3163 
Q 1038 2656 1286 2365 
Q 1534 2075 1959 2075 
z
" id="DejaVuSans-39" transform="scale(0.015625)"/>
       </defs>
       <use xlink:href="#DejaVuSans-38"/>
       <use x="63.623047" xlink:href="#DejaVuSans-2e"/>
       <use x="95.410156" xlink:href="#DejaVuSans-32"/>
       <use x="159.033203" xlink:href="#DejaVuSans-39"/>
       <use x="222.65625" xlink:href="#DejaVuSans-45"/>
       <use x="285.839844" xlink:href="#DejaVuSans-31"/>
      </g>
     </g>
    </g>
    <g id="xtick_3">
     <g id="line2d_5">
      <path clip-path="url(#pe5af7c9813)" d="M 488.444838 640.8 
L 488.444838 86.4 
" style="fill:none;stroke:#b0b0b0;stroke-linecap:square;stroke-width:0.8;"/>
     </g>
     <g id="line2d_6">
      <g>
       <use style="stroke:#000000;stroke-width:0.8;" x="488.444838" xlink:href="#mbb34baa7e6" y="640.8"/>
      </g>
     </g>
     <g id="text_3">
      <!-- 1.22E2 -->
      <g transform="translate(470.971401 655.398438)scale(0.1 -0.1)">
       <use xlink:href="#DejaVuSans-31"/>
       <use x="63.623047" xlink:href="#DejaVuSans-2e"/>
       <use x="95.410156" xlink:href="#DejaVuSans-32"/>
       <use x="159.033203" xlink:href="#DejaVuSans-32"/>
       <use x="222.65625" xlink:href="#DejaVuSans-45"/>
       <use x="285.839844" xlink:href="#DejaVuSans-32"/>
      </g>
     </g>
    </g>
    <g id="xtick_4">
     <g id="line2d_7">
      <path clip-path="url(#pe5af7c9813)" d="M 634.608166 640.8 
L 634.608166 86.4 
" style="fill:none;stroke:#b0b0b0;stroke-linecap:square;stroke-width:0.8;"/>
     </g>
     <g id="line2d_8">
      <g>
       <use style="stroke:#000000;stroke-width:0.8;" x="634.608166" xlink:href="#mbb34baa7e6" y="640.8"/>
      </g>
     </g>
     <g id="text_4">
      <!-- 1.62E2 -->
      <g transform="translate(617.134729 655.398438)scale(0.1 -0.1)">
       <defs>
        <path d="M 2113 2584 
Q 1688 2584 1439 2293 
Q 1191 2003 1191 1497 
Q 1191 994 1439 701 
Q 1688 409 2113 409 
Q 2538 409 2786 701 
Q 3034 994 3034 1497 
Q 3034 2003 2786 2293 
Q 2538 2584 2113 2584 
z
M 3366 4563 
L 3366 3988 
Q 3128 4100 2886 4159 
Q 2644 4219 2406 4219 
Q 1781 4219 1451 3797 
Q 1122 3375 1075 2522 
Q 1259 2794 1537 2939 
Q 1816 3084 2150 3084 
Q 2853 3084 3261 2657 
Q 3669 2231 3669 1497 
Q 3669 778 3244 343 
Q 2819 -91 2113 -91 
Q 1303 -91 875 529 
Q 447 1150 447 2328 
Q 447 3434 972 4092 
Q 1497 4750 2381 4750 
Q 2619 4750 2861 4703 
Q 3103 4656 3366 4563 
z
" id="DejaVuSans-36" transform="scale(0.015625)"/>
       </defs>
       <use xlink:href="#DejaVuSans-31"/>
       <use x="63.623047" xlink:href="#DejaVuSans-2e"/>
       <use x="95.410156" xlink:href="#DejaVuSans-36"/>
       <use x="159.033203" xlink:href="#DejaVuSans-32"/>
       <use x="222.65625" xlink:href="#DejaVuSans-45"/>
       <use x="285.839844" xlink:href="#DejaVuSans-32"/>
      </g>
     </g>
    </g>
    <g id="xtick_5">
     <g id="line2d_9">
      <path clip-path="url(#pe5af7c9813)" d="M 780.771495 640.8 
L 780.771495 86.4 
" style="fill:none;stroke:#b0b0b0;stroke-linecap:square;stroke-width:0.8;"/>
     </g>
     <g id="line2d_10">
      <g>
       <use style="stroke:#000000;stroke-width:0.8;" x="780.771495" xlink:href="#mbb34baa7e6" y="640.8"/>
      </g>
     </g>
     <g id="text_5">
      <!-- 2.01E2 -->
      <g transform="translate(763.298057 655.398438)scale(0.1 -0.1)">
       <defs>
        <path d="M 2034 4250 
Q 1547 4250 1301 3770 
Q 1056 3291 1056 2328 
Q 1056 1369 1301 889 
Q 1547 409 2034 409 
Q 2525 409 2770 889 
Q 3016 1369 3016 2328 
Q 3016 3291 2770 3770 
Q 2525 4250 2034 4250 
z
M 2034 4750 
Q 2819 4750 3233 4129 
Q 3647 3509 3647 2328 
Q 3647 1150 3233 529 
Q 2819 -91 2034 -91 
Q 1250 -91 836 529 
Q 422 1150 422 2328 
Q 422 3509 836 4129 
Q 1250 4750 2034 4750 
z
" id="DejaVuSans-30" transform="scale(0.015625)"/>
       </defs>
       <use xlink:href="#DejaVuSans-32"/>
       <use x="63.623047" xlink:href="#DejaVuSans-2e"/>
       <use x="95.410156" xlink:href="#DejaVuSans-30"/>
       <use x="159.033203" xlink:href="#DejaVuSans-31"/>
       <use x="222.65625" xlink:href="#DejaVuSans-45"/>
       <use x="285.839844" xlink:href="#DejaVuSans-32"/>
      </g>
     </g>
    </g>
    <g id="xtick_6">
     <g id="line2d_11">
      <path clip-path="url(#pe5af7c9813)" d="M 926.934823 640.8 
L 926.934823 86.4 
" style="fill:none;stroke:#b0b0b0;stroke-linecap:square;stroke-width:0.8;"/>
     </g>
     <g id="line2d_12">
      <g>
       <use style="stroke:#000000;stroke-width:0.8;" x="926.934823" xlink:href="#mbb34baa7e6" y="640.8"/>
      </g>
     </g>
     <g id="text_6">
      <!-- 2.41E2 -->
      <g transform="translate(909.461385 655.398438)scale(0.1 -0.1)">
       <use xlink:href="#DejaVuSans-32"/>
       <use x="63.623047" xlink:href="#DejaVuSans-2e"/>
       <use x="95.410156" xlink:href="#DejaVuSans-34"/>
       <use x="159.033203" xlink:href="#DejaVuSans-31"/>
       <use x="222.65625" xlink:href="#DejaVuSans-45"/>
       <use x="285.839844" xlink:href="#DejaVuSans-32"/>
      </g>
     </g>
    </g>
    <g id="xtick_7">
     <g id="line2d_13">
      <path clip-path="url(#pe5af7c9813)" d="M 1058.481818 640.8 
L 1058.481818 86.4 
" style="fill:none;stroke:#b0b0b0;stroke-linecap:square;stroke-width:0.8;"/>
     </g>
     <g id="line2d_14">
      <g>
       <use style="stroke:#000000;stroke-width:0.8;" x="1058.481818" xlink:href="#mbb34baa7e6" y="640.8"/>
      </g>
     </g>
     <g id="text_7">
      <!-- 2.76E2 -->
      <g transform="translate(1041.008381 655.398438)scale(0.1 -0.1)">
       <defs>
        <path d="M 525 4666 
L 3525 4666 
L 3525 4397 
L 1831 0 
L 1172 0 
L 2766 4134 
L 525 4134 
L 525 4666 
z
" id="DejaVuSans-37" transform="scale(0.015625)"/>
       </defs>
       <use xlink:href="#DejaVuSans-32"/>
       <use x="63.623047" xlink:href="#DejaVuSans-2e"/>
       <use x="95.410156" xlink:href="#DejaVuSans-37"/>
       <use x="159.033203" xlink:href="#DejaVuSans-36"/>
       <use x="222.65625" xlink:href="#DejaVuSans-45"/>
       <use x="285.839844" xlink:href="#DejaVuSans-32"/>
      </g>
     </g>
    </g>
    <g id="text_8">
     <!-- Time (s) -->
     <g transform="translate(598.026375 672.419875)scale(0.144 -0.144)">
      <defs>
       <path d="M -19 4666 
L 3928 4666 
L 3928 4134 
L 2272 4134 
L 2272 0 
L 1638 0 
L 1638 4134 
L -19 4134 
L -19 4666 
z
" id="DejaVuSans-54" transform="scale(0.015625)"/>
       <path d="M 603 3500 
L 1178 3500 
L 1178 0 
L 603 0 
L 603 3500 
z
M 603 4863 
L 1178 4863 
L 1178 4134 
L 603 4134 
L 603 4863 
z
" id="DejaVuSans-69" transform="scale(0.015625)"/>
       <path d="M 3328 2828 
Q 3544 3216 3844 3400 
Q 4144 3584 4550 3584 
Q 5097 3584 5394 3201 
Q 5691 2819 5691 2113 
L 5691 0 
L 5113 0 
L 5113 2094 
Q 5113 2597 4934 2840 
Q 4756 3084 4391 3084 
Q 3944 3084 3684 2787 
Q 3425 2491 3425 1978 
L 3425 0 
L 2847 0 
L 2847 2094 
Q 2847 2600 2669 2842 
Q 2491 3084 2119 3084 
Q 1678 3084 1418 2786 
Q 1159 2488 1159 1978 
L 1159 0 
L 581 0 
L 581 3500 
L 1159 3500 
L 1159 2956 
Q 1356 3278 1631 3431 
Q 1906 3584 2284 3584 
Q 2666 3584 2933 3390 
Q 3200 3197 3328 2828 
z
" id="DejaVuSans-6d" transform="scale(0.015625)"/>
       <path d="M 3597 1894 
L 3597 1613 
L 953 1613 
Q 991 1019 1311 708 
Q 1631 397 2203 397 
Q 2534 397 2845 478 
Q 3156 559 3463 722 
L 3463 178 
Q 3153 47 2828 -22 
Q 2503 -91 2169 -91 
Q 1331 -91 842 396 
Q 353 884 353 1716 
Q 353 2575 817 3079 
Q 1281 3584 2069 3584 
Q 2775 3584 3186 3129 
Q 3597 2675 3597 1894 
z
M 3022 2063 
Q 3016 2534 2758 2815 
Q 2500 3097 2075 3097 
Q 1594 3097 1305 2825 
Q 1016 2553 972 2059 
L 3022 2063 
z
" id="DejaVuSans-65" transform="scale(0.015625)"/>
       <path id="DejaVuSans-20" transform="scale(0.015625)"/>
       <path d="M 1984 4856 
Q 1566 4138 1362 3434 
Q 1159 2731 1159 2009 
Q 1159 1288 1364 580 
Q 1569 -128 1984 -844 
L 1484 -844 
Q 1016 -109 783 600 
Q 550 1309 550 2009 
Q 550 2706 781 3412 
Q 1013 4119 1484 4856 
L 1984 4856 
z
" id="DejaVuSans-28" transform="scale(0.015625)"/>
       <path d="M 2834 3397 
L 2834 2853 
Q 2591 2978 2328 3040 
Q 2066 3103 1784 3103 
Q 1356 3103 1142 2972 
Q 928 2841 928 2578 
Q 928 2378 1081 2264 
Q 1234 2150 1697 2047 
L 1894 2003 
Q 2506 1872 2764 1633 
Q 3022 1394 3022 966 
Q 3022 478 2636 193 
Q 2250 -91 1575 -91 
Q 1294 -91 989 -36 
Q 684 19 347 128 
L 347 722 
Q 666 556 975 473 
Q 1284 391 1588 391 
Q 1994 391 2212 530 
Q 2431 669 2431 922 
Q 2431 1156 2273 1281 
Q 2116 1406 1581 1522 
L 1381 1569 
Q 847 1681 609 1914 
Q 372 2147 372 2553 
Q 372 3047 722 3315 
Q 1072 3584 1716 3584 
Q 2034 3584 2315 3537 
Q 2597 3491 2834 3397 
z
" id="DejaVuSans-73" transform="scale(0.015625)"/>
       <path d="M 513 4856 
L 1013 4856 
Q 1481 4119 1714 3412 
Q 1947 2706 1947 2009 
Q 1947 1309 1714 600 
Q 1481 -109 1013 -844 
L 513 -844 
Q 928 -128 1133 580 
Q 1338 1288 1338 2009 
Q 1338 2731 1133 3434 
Q 928 4138 513 4856 
z
" id="DejaVuSans-29" transform="scale(0.015625)"/>
      </defs>
      <use xlink:href="#DejaVuSans-54"/>
      <use x="57.958984" xlink:href="#DejaVuSans-69"/>
      <use x="85.742188" xlink:href="#DejaVuSans-6d"/>
      <use x="183.154297" xlink:href="#DejaVuSans-65"/>
      <use x="244.677734" xlink:href="#DejaVuSans-20"/>
      <use x="276.464844" xlink:href="#DejaVuSans-28"/>
      <use x="315.478516" xlink:href="#DejaVuSans-73"/>
      <use x="367.578125" xlink:href="#DejaVuSans-29"/>
     </g>
    </g>
   </g>
   <g id="matplotlib.axis_2">
    <g id="ytick_1">
     <g id="line2d_15">
      <path clip-path="url(#pe5af7c9813)" d="M 153 570.362042 
L 1101.6 570.362042 
" style="fill:none;stroke:#b0b0b0;stroke-linecap:square;stroke-width:0.8;"/>
     </g>
     <g id="line2d_16">
      <defs>
       <path d="M 0 0 
L -3.5 0 
" id="mb4a2b32af2" style="stroke:#000000;stroke-width:0.8;"/>
      </defs>
      <g>
       <use style="stroke:#000000;stroke-width:0.8;" x="153" xlink:href="#mb4a2b32af2" y="570.362042"/>
      </g>
     </g>
     <g id="text_9">
      <!-- $\mathdefault{10^{-10}}$ -->
      <g transform="translate(118.1 574.161261)scale(0.1 -0.1)">
       <defs>
        <path d="M 678 2272 
L 4684 2272 
L 4684 1741 
L 678 1741 
L 678 2272 
z
" id="DejaVuSans-2212" transform="scale(0.015625)"/>
       </defs>
       <use transform="translate(0 0.765625)" xlink:href="#DejaVuSans-31"/>
       <use transform="translate(63.623047 0.765625)" xlink:href="#DejaVuSans-30"/>
       <use transform="translate(128.203125 39.046875)scale(0.7)" xlink:href="#DejaVuSans-2212"/>
       <use transform="translate(186.855469 39.046875)scale(0.7)" xlink:href="#DejaVuSans-31"/>
       <use transform="translate(231.391602 39.046875)scale(0.7)" xlink:href="#DejaVuSans-30"/>
      </g>
     </g>
    </g>
    <g id="ytick_2">
     <g id="line2d_17">
      <path clip-path="url(#pe5af7c9813)" d="M 153 478.33189 
L 1101.6 478.33189 
" style="fill:none;stroke:#b0b0b0;stroke-linecap:square;stroke-width:0.8;"/>
     </g>
     <g id="line2d_18">
      <g>
       <use style="stroke:#000000;stroke-width:0.8;" x="153" xlink:href="#mb4a2b32af2" y="478.33189"/>
      </g>
     </g>
     <g id="text_10">
      <!-- $\mathdefault{10^{-8}}$ -->
      <g transform="translate(122.5 482.131109)scale(0.1 -0.1)">
       <use transform="translate(0 0.765625)" xlink:href="#DejaVuSans-31"/>
       <use transform="translate(63.623047 0.765625)" xlink:href="#DejaVuSans-30"/>
       <use transform="translate(128.203125 39.046875)scale(0.7)" xlink:href="#DejaVuSans-2212"/>
       <use transform="translate(186.855469 39.046875)scale(0.7)" xlink:href="#DejaVuSans-38"/>
      </g>
     </g>
    </g>
    <g id="ytick_3">
     <g id="line2d_19">
      <path clip-path="url(#pe5af7c9813)" d="M 153 386.301738 
L 1101.6 386.301738 
" style="fill:none;stroke:#b0b0b0;stroke-linecap:square;stroke-width:0.8;"/>
     </g>
     <g id="line2d_20">
      <g>
       <use style="stroke:#000000;stroke-width:0.8;" x="153" xlink:href="#mb4a2b32af2" y="386.301738"/>
      </g>
     </g>
     <g id="text_11">
      <!-- $\mathdefault{10^{-6}}$ -->
      <g transform="translate(122.5 390.100957)scale(0.1 -0.1)">
       <use transform="translate(0 0.765625)" xlink:href="#DejaVuSans-31"/>
       <use transform="translate(63.623047 0.765625)" xlink:href="#DejaVuSans-30"/>
       <use transform="translate(128.203125 39.046875)scale(0.7)" xlink:href="#DejaVuSans-2212"/>
       <use transform="translate(186.855469 39.046875)scale(0.7)" xlink:href="#DejaVuSans-36"/>
      </g>
     </g>
    </g>
    <g id="ytick_4">
     <g id="line2d_21">
      <path clip-path="url(#pe5af7c9813)" d="M 153 294.271586 
L 1101.6 294.271586 
" style="fill:none;stroke:#b0b0b0;stroke-linecap:square;stroke-width:0.8;"/>
     </g>
     <g id="line2d_22">
      <g>
       <use style="stroke:#000000;stroke-width:0.8;" x="153" xlink:href="#mb4a2b32af2" y="294.271586"/>
      </g>
     </g>
     <g id="text_12">
      <!-- $\mathdefault{10^{-4}}$ -->
      <g transform="translate(122.5 298.070805)scale(0.1 -0.1)">
       <use transform="translate(0 0.684375)" xlink:href="#DejaVuSans-31"/>
       <use transform="translate(63.623047 0.684375)" xlink:href="#DejaVuSans-30"/>
       <use transform="translate(128.203125 38.965625)scale(0.7)" xlink:href="#DejaVuSans-2212"/>
       <use transform="translate(186.855469 38.965625)scale(0.7)" xlink:href="#DejaVuSans-34"/>
      </g>
     </g>
    </g>
    <g id="ytick_5">
     <g id="line2d_23">
      <path clip-path="url(#pe5af7c9813)" d="M 153 202.241434 
L 1101.6 202.241434 
" style="fill:none;stroke:#b0b0b0;stroke-linecap:square;stroke-width:0.8;"/>
     </g>
     <g id="line2d_24">
      <g>
       <use style="stroke:#000000;stroke-width:0.8;" x="153" xlink:href="#mb4a2b32af2" y="202.241434"/>
      </g>
     </g>
     <g id="text_13">
      <!-- $\mathdefault{10^{-2}}$ -->
      <g transform="translate(122.5 206.040653)scale(0.1 -0.1)">
       <use transform="translate(0 0.765625)" xlink:href="#DejaVuSans-31"/>
       <use transform="translate(63.623047 0.765625)" xlink:href="#DejaVuSans-30"/>
       <use transform="translate(128.203125 39.046875)scale(0.7)" xlink:href="#DejaVuSans-2212"/>
       <use transform="translate(186.855469 39.046875)scale(0.7)" xlink:href="#DejaVuSans-32"/>
      </g>
     </g>
    </g>
    <g id="ytick_6">
     <g id="line2d_25">
      <path clip-path="url(#pe5af7c9813)" d="M 153 110.211283 
L 1101.6 110.211283 
" style="fill:none;stroke:#b0b0b0;stroke-linecap:square;stroke-width:0.8;"/>
     </g>
     <g id="line2d_26">
      <g>
       <use style="stroke:#000000;stroke-width:0.8;" x="153" xlink:href="#mb4a2b32af2" y="110.211283"/>
      </g>
     </g>
     <g id="text_14">
      <!-- $\mathdefault{10^{0}}$ -->
      <g transform="translate(128.4 114.010501)scale(0.1 -0.1)">
       <use transform="translate(0 0.765625)" xlink:href="#DejaVuSans-31"/>
       <use transform="translate(63.623047 0.765625)" xlink:href="#DejaVuSans-30"/>
       <use transform="translate(128.203125 39.046875)scale(0.7)" xlink:href="#DejaVuSans-30"/>
      </g>
     </g>
    </g>
    <g id="text_15">
     <!-- Concentration (molal) -->
     <g transform="translate(111.10525 442.272375)rotate(-90)scale(0.144 -0.144)">
      <defs>
       <path d="M 4122 4306 
L 4122 3641 
Q 3803 3938 3442 4084 
Q 3081 4231 2675 4231 
Q 1875 4231 1450 3742 
Q 1025 3253 1025 2328 
Q 1025 1406 1450 917 
Q 1875 428 2675 428 
Q 3081 428 3442 575 
Q 3803 722 4122 1019 
L 4122 359 
Q 3791 134 3420 21 
Q 3050 -91 2638 -91 
Q 1578 -91 968 557 
Q 359 1206 359 2328 
Q 359 3453 968 4101 
Q 1578 4750 2638 4750 
Q 3056 4750 3426 4639 
Q 3797 4528 4122 4306 
z
" id="DejaVuSans-43" transform="scale(0.015625)"/>
       <path d="M 1959 3097 
Q 1497 3097 1228 2736 
Q 959 2375 959 1747 
Q 959 1119 1226 758 
Q 1494 397 1959 397 
Q 2419 397 2687 759 
Q 2956 1122 2956 1747 
Q 2956 2369 2687 2733 
Q 2419 3097 1959 3097 
z
M 1959 3584 
Q 2709 3584 3137 3096 
Q 3566 2609 3566 1747 
Q 3566 888 3137 398 
Q 2709 -91 1959 -91 
Q 1206 -91 779 398 
Q 353 888 353 1747 
Q 353 2609 779 3096 
Q 1206 3584 1959 3584 
z
" id="DejaVuSans-6f" transform="scale(0.015625)"/>
       <path d="M 3513 2113 
L 3513 0 
L 2938 0 
L 2938 2094 
Q 2938 2591 2744 2837 
Q 2550 3084 2163 3084 
Q 1697 3084 1428 2787 
Q 1159 2491 1159 1978 
L 1159 0 
L 581 0 
L 581 3500 
L 1159 3500 
L 1159 2956 
Q 1366 3272 1645 3428 
Q 1925 3584 2291 3584 
Q 2894 3584 3203 3211 
Q 3513 2838 3513 2113 
z
" id="DejaVuSans-6e" transform="scale(0.015625)"/>
       <path d="M 3122 3366 
L 3122 2828 
Q 2878 2963 2633 3030 
Q 2388 3097 2138 3097 
Q 1578 3097 1268 2742 
Q 959 2388 959 1747 
Q 959 1106 1268 751 
Q 1578 397 2138 397 
Q 2388 397 2633 464 
Q 2878 531 3122 666 
L 3122 134 
Q 2881 22 2623 -34 
Q 2366 -91 2075 -91 
Q 1284 -91 818 406 
Q 353 903 353 1747 
Q 353 2603 823 3093 
Q 1294 3584 2113 3584 
Q 2378 3584 2631 3529 
Q 2884 3475 3122 3366 
z
" id="DejaVuSans-63" transform="scale(0.015625)"/>
       <path d="M 1172 4494 
L 1172 3500 
L 2356 3500 
L 2356 3053 
L 1172 3053 
L 1172 1153 
Q 1172 725 1289 603 
Q 1406 481 1766 481 
L 2356 481 
L 2356 0 
L 1766 0 
Q 1100 0 847 248 
Q 594 497 594 1153 
L 594 3053 
L 172 3053 
L 172 3500 
L 594 3500 
L 594 4494 
L 1172 4494 
z
" id="DejaVuSans-74" transform="scale(0.015625)"/>
       <path d="M 2631 2963 
Q 2534 3019 2420 3045 
Q 2306 3072 2169 3072 
Q 1681 3072 1420 2755 
Q 1159 2438 1159 1844 
L 1159 0 
L 581 0 
L 581 3500 
L 1159 3500 
L 1159 2956 
Q 1341 3275 1631 3429 
Q 1922 3584 2338 3584 
Q 2397 3584 2469 3576 
Q 2541 3569 2628 3553 
L 2631 2963 
z
" id="DejaVuSans-72" transform="scale(0.015625)"/>
       <path d="M 2194 1759 
Q 1497 1759 1228 1600 
Q 959 1441 959 1056 
Q 959 750 1161 570 
Q 1363 391 1709 391 
Q 2188 391 2477 730 
Q 2766 1069 2766 1631 
L 2766 1759 
L 2194 1759 
z
M 3341 1997 
L 3341 0 
L 2766 0 
L 2766 531 
Q 2569 213 2275 61 
Q 1981 -91 1556 -91 
Q 1019 -91 701 211 
Q 384 513 384 1019 
Q 384 1609 779 1909 
Q 1175 2209 1959 2209 
L 2766 2209 
L 2766 2266 
Q 2766 2663 2505 2880 
Q 2244 3097 1772 3097 
Q 1472 3097 1187 3025 
Q 903 2953 641 2809 
L 641 3341 
Q 956 3463 1253 3523 
Q 1550 3584 1831 3584 
Q 2591 3584 2966 3190 
Q 3341 2797 3341 1997 
z
" id="DejaVuSans-61" transform="scale(0.015625)"/>
       <path d="M 603 4863 
L 1178 4863 
L 1178 0 
L 603 0 
L 603 4863 
z
" id="DejaVuSans-6c" transform="scale(0.015625)"/>
      </defs>
      <use xlink:href="#DejaVuSans-43"/>
      <use x="69.824219" xlink:href="#DejaVuSans-6f"/>
      <use x="131.005859" xlink:href="#DejaVuSans-6e"/>
      <use x="194.384766" xlink:href="#DejaVuSans-63"/>
      <use x="249.365234" xlink:href="#DejaVuSans-65"/>
      <use x="310.888672" xlink:href="#DejaVuSans-6e"/>
      <use x="374.267578" xlink:href="#DejaVuSans-74"/>
      <use x="413.476562" xlink:href="#DejaVuSans-72"/>
      <use x="454.589844" xlink:href="#DejaVuSans-61"/>
      <use x="515.869141" xlink:href="#DejaVuSans-74"/>
      <use x="555.078125" xlink:href="#DejaVuSans-69"/>
      <use x="582.861328" xlink:href="#DejaVuSans-6f"/>
      <use x="644.042969" xlink:href="#DejaVuSans-6e"/>
      <use x="707.421875" xlink:href="#DejaVuSans-20"/>
      <use x="739.208984" xlink:href="#DejaVuSans-28"/>
      <use x="778.222656" xlink:href="#DejaVuSans-6d"/>
      <use x="875.634766" xlink:href="#DejaVuSans-6f"/>
      <use x="936.816406" xlink:href="#DejaVuSans-6c"/>
      <use x="964.599609" xlink:href="#DejaVuSans-61"/>
      <use x="1025.878906" xlink:href="#DejaVuSans-6c"/>
      <use x="1053.662109" xlink:href="#DejaVuSans-29"/>
     </g>
    </g>
   </g>
   <g id="line2d_27">
    <path clip-path="url(#pe5af7c9813)" d="M 196.118182 456.012012 
L 210.734515 192.185733 
L 225.350847 192.185695 
L 239.96718 192.185695 
L 254.583513 192.185695 
L 269.199846 192.185695 
L 283.816179 192.185695 
L 298.432512 192.185695 
L 313.048844 192.185695 
L 327.665177 192.185695 
L 342.28151 192.185695 
L 356.897843 192.185695 
L 371.514176 192.185695 
L 386.130508 192.185695 
L 400.746841 192.185695 
L 415.363174 192.185695 
L 429.979507 192.185695 
L 444.59584 192.185695 
L 459.212173 192.185695 
L 473.828505 192.185695 
L 488.444838 192.185695 
L 503.061171 192.185695 
L 517.677504 192.185695 
L 532.293837 192.185695 
L 546.910169 192.185695 
L 561.526502 192.185695 
L 576.142835 192.185695 
L 590.759168 192.185695 
L 605.375501 192.185695 
L 619.991834 192.185695 
L 634.608166 192.185695 
L 649.224499 192.185695 
L 663.840832 192.185695 
L 678.457165 192.185695 
L 693.073498 192.185695 
L 707.689831 192.185695 
L 722.306163 192.185695 
L 736.922496 192.185695 
L 751.538829 192.185695 
L 766.155162 192.185695 
L 780.771495 192.185695 
L 795.387827 192.185695 
L 810.00416 192.185695 
L 824.620493 192.185695 
L 839.236826 192.185695 
L 853.853159 192.185695 
L 868.469492 192.185695 
L 883.085824 192.185695 
L 897.702157 192.185695 
L 912.31849 192.185695 
L 926.934823 192.185695 
L 941.551156 192.185695 
L 956.167488 192.185695 
L 970.783821 192.185695 
L 985.400154 192.185695 
L 1000.016487 192.185695 
L 1014.63282 192.185695 
L 1029.249153 192.185695 
L 1043.865485 192.185695 
L 1058.481818 192.185695 
" style="fill:none;stroke:#1f77b4;stroke-linecap:square;stroke-width:1.5;"/>
   </g>
   <g id="line2d_28">
    <path clip-path="url(#pe5af7c9813)" d="M 196.118182 420.784805 
L 210.734515 156.958525 
L 225.350847 156.958488 
L 239.96718 156.958488 
L 254.583513 156.958488 
L 269.199846 156.958488 
L 283.816179 156.958488 
L 298.432512 156.958488 
L 313.048844 156.958488 
L 327.665177 156.958488 
L 342.28151 156.958488 
L 356.897843 156.958488 
L 371.514176 156.958488 
L 386.130508 156.958488 
L 400.746841 156.958488 
L 415.363174 156.958488 
L 429.979507 156.958488 
L 444.59584 156.958488 
L 459.212173 156.958488 
L 473.828505 156.958488 
L 488.444838 156.958488 
L 503.061171 156.958488 
L 517.677504 156.958488 
L 532.293837 156.958488 
L 546.910169 156.958488 
L 561.526502 156.958488 
L 576.142835 156.958488 
L 590.759168 156.958488 
L 605.375501 156.958488 
L 619.991834 156.958488 
L 634.608166 156.958488 
L 649.224499 156.958488 
L 663.840832 156.958488 
L 678.457165 156.958488 
L 693.073498 156.958488 
L 707.689831 156.958488 
L 722.306163 156.958488 
L 736.922496 156.958488 
L 751.538829 156.958488 
L 766.155162 156.958488 
L 780.771495 156.958488 
L 795.387827 156.958488 
L 810.00416 156.958488 
L 824.620493 156.958488 
L 839.236826 156.958488 
L 853.853159 156.958488 
L 868.469492 156.958488 
L 883.085824 156.958488 
L 897.702157 156.958488 
L 912.31849 156.958488 
L 926.934823 156.958488 
L 941.551156 156.958488 
L 956.167488 156.958488 
L 970.783821 156.958488 
L 985.400154 156.958488 
L 1000.016487 156.958488 
L 1014.63282 156.958488 
L 1029.249153 156.958488 
L 1043.865485 156.958488 
L 1058.481818 156.958488 
" style="fill:none;stroke:#ff7f0e;stroke-linecap:square;stroke-width:1.5;"/>
   </g>
   <g id="line2d_29">
    <path clip-path="url(#pe5af7c9813)" d="M 196.118182 380.067741 
L 210.734515 116.241462 
L 225.350847 116.241425 
L 239.96718 116.241425 
L 254.583513 116.241425 
L 269.199846 116.241425 
L 283.816179 116.241425 
L 298.432512 116.241425 
L 313.048844 116.241425 
L 327.665177 116.241425 
L 342.28151 116.241425 
L 356.897843 116.241425 
L 371.514176 116.241425 
L 386.130508 116.241425 
L 400.746841 116.241425 
L 415.363174 116.241425 
L 429.979507 116.241425 
L 444.59584 116.241425 
L 459.212173 116.241425 
L 473.828505 116.241425 
L 488.444838 116.241425 
L 503.061171 116.241425 
L 517.677504 116.241425 
L 532.293837 116.241425 
L 546.910169 116.241425 
L 561.526502 116.241425 
L 576.142835 116.241425 
L 590.759168 116.241425 
L 605.375501 116.241425 
L 619.991834 116.241425 
L 634.608166 116.241425 
L 649.224499 116.241425 
L 663.840832 116.241425 
L 678.457165 116.241425 
L 693.073498 116.241425 
L 707.689831 116.241425 
L 722.306163 116.241425 
L 736.922496 116.241425 
L 751.538829 116.241425 
L 766.155162 116.241425 
L 780.771495 116.241425 
L 795.387827 116.241425 
L 810.00416 116.241425 
L 824.620493 116.241425 
L 839.236826 116.241425 
L 853.853159 116.241425 
L 868.469492 116.241425 
L 883.085824 116.241425 
L 897.702157 116.241425 
L 912.31849 116.241425 
L 926.934823 116.241425 
L 941.551156 116.241425 
L 956.167488 116.241425 
L 970.783821 116.241425 
L 985.400154 116.241425 
L 1000.016487 116.241425 
L 1014.63282 116.241425 
L 1029.249153 116.241425 
L 1043.865485 116.241425 
L 1058.481818 116.241425 
" style="fill:none;stroke:#2ca02c;stroke-linecap:square;stroke-width:1.5;"/>
   </g>
   <g id="line2d_30">
    <path clip-path="url(#pe5af7c9813)" d="M 196.118182 564.019918 
L 210.734515 300.193638 
L 225.350847 300.193601 
L 239.96718 300.193601 
L 254.583513 300.193601 
L 269.199846 300.193601 
L 283.816179 300.193601 
L 298.432512 300.193601 
L 313.048844 300.193601 
L 327.665177 300.193601 
L 342.28151 300.193601 
L 356.897843 300.193601 
L 371.514176 300.193601 
L 386.130508 300.193601 
L 400.746841 300.193601 
L 415.363174 300.193601 
L 429.979507 300.193601 
L 444.59584 300.193601 
L 459.212173 300.193601 
L 473.828505 300.193601 
L 488.444838 300.193601 
L 503.061171 300.193601 
L 517.677504 300.193601 
L 532.293837 300.193601 
L 546.910169 300.193601 
L 561.526502 300.193601 
L 576.142835 300.193601 
L 590.759168 300.193601 
L 605.375501 300.193601 
L 619.991834 300.193601 
L 634.608166 300.193601 
L 649.224499 300.193601 
L 663.840832 300.193601 
L 678.457165 300.193601 
L 693.073498 300.193601 
L 707.689831 300.193601 
L 722.306163 300.193601 
L 736.922496 300.193601 
L 751.538829 300.193601 
L 766.155162 300.193601 
L 780.771495 300.193601 
L 795.387827 300.193601 
L 810.00416 300.193601 
L 824.620493 300.193601 
L 839.236826 300.193601 
L 853.853159 300.193601 
L 868.469492 300.193601 
L 883.085824 300.193601 
L 897.702157 300.193601 
L 912.31849 300.193601 
L 926.934823 300.193601 
L 941.551156 300.193601 
L 956.167488 300.193601 
L 970.783821 300.193601 
L 985.400154 300.193601 
L 1000.016487 300.193601 
L 1014.63282 300.193601 
L 1029.249153 300.193601 
L 1043.865485 300.193601 
L 1058.481818 300.193601 
" style="fill:none;stroke:#d62728;stroke-linecap:square;stroke-width:1.5;"/>
   </g>
   <g id="line2d_31">
    <path clip-path="url(#pe5af7c9813)" d="M 196.118182 375.426317 
L 210.734515 111.600037 
L 225.350847 111.6 
L 239.96718 111.6 
L 254.583513 111.6 
L 269.199846 111.6 
L 283.816179 111.6 
L 298.432512 111.6 
L 313.048844 111.6 
L 327.665177 111.6 
L 342.28151 111.6 
L 356.897843 111.6 
L 371.514176 111.6 
L 386.130508 111.6 
L 400.746841 111.6 
L 415.363174 111.6 
L 429.979507 111.6 
L 444.59584 111.6 
L 459.212173 111.6 
L 473.828505 111.6 
L 488.444838 111.6 
L 503.061171 111.6 
L 517.677504 111.6 
L 532.293837 111.6 
L 546.910169 111.6 
L 561.526502 111.6 
L 576.142835 111.6 
L 590.759168 111.6 
L 605.375501 111.6 
L 619.991834 111.6 
L 634.608166 111.6 
L 649.224499 111.6 
L 663.840832 111.6 
L 678.457165 111.6 
L 693.073498 111.6 
L 707.689831 111.6 
L 722.306163 111.6 
L 736.922496 111.6 
L 751.538829 111.6 
L 766.155162 111.6 
L 780.771495 111.6 
L 795.387827 111.6 
L 810.00416 111.6 
L 824.620493 111.6 
L 839.236826 111.6 
L 853.853159 111.6 
L 868.469492 111.6 
L 883.085824 111.6 
L 897.702157 111.6 
L 912.31849 111.6 
L 926.934823 111.6 
L 941.551156 111.6 
L 956.167488 111.6 
L 970.783821 111.6 
L 985.400154 111.6 
L 1000.016487 111.6 
L 1014.63282 111.6 
L 1029.249153 111.6 
L 1043.865485 111.6 
L 1058.481818 111.6 
" style="fill:none;stroke:#9467bd;stroke-linecap:square;stroke-width:1.5;"/>
   </g>
   <g id="line2d_32">
    <path clip-path="url(#pe5af7c9813)" d="M 196.118182 437.652639 
L 210.734515 173.82636 
L 225.350847 173.826323 
L 239.96718 173.826323 
L 254.583513 173.826323 
L 269.199846 173.826323 
L 283.816179 173.826323 
L 298.432512 173.826323 
L 313.048844 173.826323 
L 327.665177 173.826323 
L 342.28151 173.826323 
L 356.897843 173.826323 
L 371.514176 173.826323 
L 386.130508 173.826323 
L 400.746841 173.826323 
L 415.363174 173.826323 
L 429.979507 173.826323 
L 444.59584 173.826323 
L 459.212173 173.826323 
L 473.828505 173.826323 
L 488.444838 173.826323 
L 503.061171 173.826323 
L 517.677504 173.826323 
L 532.293837 173.826323 
L 546.910169 173.826323 
L 561.526502 173.826323 
L 576.142835 173.826323 
L 590.759168 173.826323 
L 605.375501 173.826323 
L 619.991834 173.826323 
L 634.608166 173.826323 
L 649.224499 173.826323 
L 663.840832 173.826323 
L 678.457165 173.826323 
L 693.073498 173.826323 
L 707.689831 173.826323 
L 722.306163 173.826323 
L 736.922496 173.826323 
L 751.538829 173.826323 
L 766.155162 173.826323 
L 780.771495 173.826323 
L 795.387827 173.826323 
L 810.00416 173.826323 
L 824.620493 173.826323 
L 839.236826 173.826323 
L 853.853159 173.826323 
L 868.469492 173.826323 
L 883.085824 173.826323 
L 897.702157 173.826323 
L 912.31849 173.826323 
L 926.934823 173.826323 
L 941.551156 173.826323 
L 956.167488 173.826323 
L 970.783821 173.826323 
L 985.400154 173.826323 
L 1000.016487 173.826323 
L 1014.63282 173.826323 
L 1029.249153 173.826323 
L 1043.865485 173.826323 
L 1058.481818 173.826323 
" style="fill:none;stroke:#8c564b;stroke-linecap:square;stroke-width:1.5;"/>
   </g>
   <g id="line2d_33">
    <path clip-path="url(#pe5af7c9813)" d="M 196.118182 615.6 
L 210.734515 351.773721 
L 225.350847 351.773683 
L 239.96718 351.773683 
L 254.583513 351.773683 
L 269.199846 351.773683 
L 283.816179 351.773683 
L 298.432512 351.773683 
L 313.048844 351.773683 
L 327.665177 351.773683 
L 342.28151 351.773683 
L 356.897843 351.773683 
L 371.514176 351.773683 
L 386.130508 351.773683 
L 400.746841 351.773683 
L 415.363174 351.773683 
L 429.979507 351.773683 
L 444.59584 351.773683 
L 459.212173 351.773683 
L 473.828505 351.773683 
L 488.444838 351.773683 
L 503.061171 351.773683 
L 517.677504 351.773683 
L 532.293837 351.773683 
L 546.910169 351.773683 
L 561.526502 351.773683 
L 576.142835 351.773683 
L 590.759168 351.773683 
L 605.375501 351.773683 
L 619.991834 351.773683 
L 634.608166 351.773683 
L 649.224499 351.773683 
L 663.840832 351.773683 
L 678.457165 351.773683 
L 693.073498 351.773683 
L 707.689831 351.773683 
L 722.306163 351.773683 
L 736.922496 351.773683 
L 751.538829 351.773683 
L 766.155162 351.773683 
L 780.771495 351.773683 
L 795.387827 351.773683 
L 810.00416 351.773683 
L 824.620493 351.773683 
L 839.236826 351.773683 
L 853.853159 351.773683 
L 868.469492 351.773683 
L 883.085824 351.773683 
L 897.702157 351.773683 
L 912.31849 351.773683 
L 926.934823 351.773683 
L 941.551156 351.773683 
L 956.167488 351.773683 
L 970.783821 351.773683 
L 985.400154 351.773683 
L 1000.016487 351.773683 
L 1014.63282 351.773683 
L 1029.249153 351.773683 
L 1043.865485 351.773683 
L 1058.481818 351.773683 
" style="fill:none;stroke:#e377c2;stroke-linecap:square;stroke-width:1.5;"/>
   </g>
   <g id="line2d_34">
    <path clip-path="url(#pe5af7c9813)" d="M 196.118182 451.264924 
L 210.734515 187.438645 
L 225.350847 187.438607 
L 239.96718 187.438607 
L 254.583513 187.438607 
L 269.199846 187.438607 
L 283.816179 187.438607 
L 298.432512 187.438607 
L 313.048844 187.438607 
L 327.665177 187.438607 
L 342.28151 187.438607 
L 356.897843 187.438607 
L 371.514176 187.438607 
L 386.130508 187.438607 
L 400.746841 187.438607 
L 415.363174 187.438607 
L 429.979507 187.438607 
L 444.59584 187.438607 
L 459.212173 187.438607 
L 473.828505 187.438607 
L 488.444838 187.438607 
L 503.061171 187.438607 
L 517.677504 187.438607 
L 532.293837 187.438607 
L 546.910169 187.438607 
L 561.526502 187.438607 
L 576.142835 187.438607 
L 590.759168 187.438607 
L 605.375501 187.438607 
L 619.991834 187.438607 
L 634.608166 187.438607 
L 649.224499 187.438607 
L 663.840832 187.438607 
L 678.457165 187.438607 
L 693.073498 187.438607 
L 707.689831 187.438607 
L 722.306163 187.438607 
L 736.922496 187.438607 
L 751.538829 187.438607 
L 766.155162 187.438607 
L 780.771495 187.438607 
L 795.387827 187.438607 
L 810.00416 187.438607 
L 824.620493 187.438607 
L 839.236826 187.438607 
L 853.853159 187.438607 
L 868.469492 187.438607 
L 883.085824 187.438607 
L 897.702157 187.438607 
L 912.31849 187.438607 
L 926.934823 187.438607 
L 941.551156 187.438607 
L 956.167488 187.438607 
L 970.783821 187.438607 
L 985.400154 187.438607 
L 1000.016487 187.438607 
L 1014.63282 187.438607 
L 1029.249153 187.438607 
L 1043.865485 187.438607 
L 1058.481818 187.438607 
" style="fill:none;stroke:#7f7f7f;stroke-linecap:square;stroke-width:1.5;"/>
   </g>
   <g id="patch_3">
    <path d="M 153 640.8 
L 153 86.4 
" style="fill:none;stroke:#000000;stroke-linecap:square;stroke-linejoin:miter;stroke-width:0.8;"/>
   </g>
   <g id="patch_4">
    <path d="M 1101.6 640.8 
L 1101.6 86.4 
" style="fill:none;stroke:#000000;stroke-linecap:square;stroke-linejoin:miter;stroke-width:0.8;"/>
   </g>
   <g id="patch_5">
    <path d="M 153 640.8 
L 1101.6 640.8 
" style="fill:none;stroke:#000000;stroke-linecap:square;stroke-linejoin:miter;stroke-width:0.8;"/>
   </g>
   <g id="patch_6">
    <path d="M 153 86.4 
L 1101.6 86.4 
" style="fill:none;stroke:#000000;stroke-linecap:square;stroke-linejoin:miter;stroke-width:0.8;"/>
   </g>
   <g id="text_16">
    <!-- Effluent brine concentration over time -->
    <g transform="translate(461.8629 80.4)scale(0.1728 -0.1728)">
     <defs>
      <path d="M 2375 4863 
L 2375 4384 
L 1825 4384 
Q 1516 4384 1395 4259 
Q 1275 4134 1275 3809 
L 1275 3500 
L 2222 3500 
L 2222 3053 
L 1275 3053 
L 1275 0 
L 697 0 
L 697 3053 
L 147 3053 
L 147 3500 
L 697 3500 
L 697 3744 
Q 697 4328 969 4595 
Q 1241 4863 1831 4863 
L 2375 4863 
z
" id="DejaVuSans-66" transform="scale(0.015625)"/>
      <path d="M 544 1381 
L 544 3500 
L 1119 3500 
L 1119 1403 
Q 1119 906 1312 657 
Q 1506 409 1894 409 
Q 2359 409 2629 706 
Q 2900 1003 2900 1516 
L 2900 3500 
L 3475 3500 
L 3475 0 
L 2900 0 
L 2900 538 
Q 2691 219 2414 64 
Q 2138 -91 1772 -91 
Q 1169 -91 856 284 
Q 544 659 544 1381 
z
M 1991 3584 
L 1991 3584 
z
" id="DejaVuSans-75" transform="scale(0.015625)"/>
      <path d="M 3116 1747 
Q 3116 2381 2855 2742 
Q 2594 3103 2138 3103 
Q 1681 3103 1420 2742 
Q 1159 2381 1159 1747 
Q 1159 1113 1420 752 
Q 1681 391 2138 391 
Q 2594 391 2855 752 
Q 3116 1113 3116 1747 
z
M 1159 2969 
Q 1341 3281 1617 3432 
Q 1894 3584 2278 3584 
Q 2916 3584 3314 3078 
Q 3713 2572 3713 1747 
Q 3713 922 3314 415 
Q 2916 -91 2278 -91 
Q 1894 -91 1617 61 
Q 1341 213 1159 525 
L 1159 0 
L 581 0 
L 581 4863 
L 1159 4863 
L 1159 2969 
z
" id="DejaVuSans-62" transform="scale(0.015625)"/>
      <path d="M 191 3500 
L 800 3500 
L 1894 563 
L 2988 3500 
L 3597 3500 
L 2284 0 
L 1503 0 
L 191 3500 
z
" id="DejaVuSans-76" transform="scale(0.015625)"/>
     </defs>
     <use xlink:href="#DejaVuSans-45"/>
     <use x="63.183594" xlink:href="#DejaVuSans-66"/>
     <use x="98.388672" xlink:href="#DejaVuSans-66"/>
     <use x="133.59375" xlink:href="#DejaVuSans-6c"/>
     <use x="161.376953" xlink:href="#DejaVuSans-75"/>
     <use x="224.755859" xlink:href="#DejaVuSans-65"/>
     <use x="286.279297" xlink:href="#DejaVuSans-6e"/>
     <use x="349.658203" xlink:href="#DejaVuSans-74"/>
     <use x="388.867188" xlink:href="#DejaVuSans-20"/>
     <use x="420.654297" xlink:href="#DejaVuSans-62"/>
     <use x="484.130859" xlink:href="#DejaVuSans-72"/>
     <use x="525.244141" xlink:href="#DejaVuSans-69"/>
     <use x="553.027344" xlink:href="#DejaVuSans-6e"/>
     <use x="616.40625" xlink:href="#DejaVuSans-65"/>
     <use x="677.929688" xlink:href="#DejaVuSans-20"/>
     <use x="709.716797" xlink:href="#DejaVuSans-63"/>
     <use x="764.697266" xlink:href="#DejaVuSans-6f"/>
     <use x="825.878906" xlink:href="#DejaVuSans-6e"/>
     <use x="889.257812" xlink:href="#DejaVuSans-63"/>
     <use x="944.238281" xlink:href="#DejaVuSans-65"/>
     <use x="1005.761719" xlink:href="#DejaVuSans-6e"/>
     <use x="1069.140625" xlink:href="#DejaVuSans-74"/>
     <use x="1108.349609" xlink:href="#DejaVuSans-72"/>
     <use x="1149.462891" xlink:href="#DejaVuSans-61"/>
     <use x="1210.742188" xlink:href="#DejaVuSans-74"/>
     <use x="1249.951172" xlink:href="#DejaVuSans-69"/>
     <use x="1277.734375" xlink:href="#DejaVuSans-6f"/>
     <use x="1338.916016" xlink:href="#DejaVuSans-6e"/>
     <use x="1402.294922" xlink:href="#DejaVuSans-20"/>
     <use x="1434.082031" xlink:href="#DejaVuSans-6f"/>
     <use x="1495.263672" xlink:href="#DejaVuSans-76"/>
     <use x="1554.443359" xlink:href="#DejaVuSans-65"/>
     <use x="1615.966797" xlink:href="#DejaVuSans-72"/>
     <use x="1657.080078" xlink:href="#DejaVuSans-20"/>
     <use x="1688.867188" xlink:href="#DejaVuSans-74"/>
     <use x="1728.076172" xlink:href="#DejaVuSans-69"/>
     <use x="1755.859375" xlink:href="#DejaVuSans-6d"/>
     <use x="1853.271484" xlink:href="#DejaVuSans-65"/>
    </g>
   </g>
   <g id="legend_1">
    <g id="patch_7">
     <path d="M 953.859 634.8 
L 1093.2 634.8 
Q 1095.6 634.8 1095.6 632.4 
L 1095.6 472.7535 
Q 1095.6 470.3535 1093.2 470.3535 
L 953.859 470.3535 
Q 951.459 470.3535 951.459 472.7535 
L 951.459 632.4 
Q 951.459 634.8 953.859 634.8 
z
" style="fill:#ffffff;opacity:0.8;stroke:#cccccc;stroke-linejoin:miter;"/>
    </g>
    <g id="text_17">
     <!-- non-zero elements -->
     <g transform="translate(956.259 486.09525)scale(0.144 -0.144)">
      <defs>
       <path d="M 313 2009 
L 1997 2009 
L 1997 1497 
L 313 1497 
L 313 2009 
z
" id="DejaVuSans-2d" transform="scale(0.015625)"/>
       <path d="M 353 3500 
L 3084 3500 
L 3084 2975 
L 922 459 
L 3084 459 
L 3084 0 
L 275 0 
L 275 525 
L 2438 3041 
L 353 3041 
L 353 3500 
z
" id="DejaVuSans-7a" transform="scale(0.015625)"/>
      </defs>
      <use xlink:href="#DejaVuSans-6e"/>
      <use x="63.378906" xlink:href="#DejaVuSans-6f"/>
      <use x="124.560547" xlink:href="#DejaVuSans-6e"/>
      <use x="187.939453" xlink:href="#DejaVuSans-2d"/>
      <use x="224.023438" xlink:href="#DejaVuSans-7a"/>
      <use x="276.513672" xlink:href="#DejaVuSans-65"/>
      <use x="338.037109" xlink:href="#DejaVuSans-72"/>
      <use x="376.900391" xlink:href="#DejaVuSans-6f"/>
      <use x="438.082031" xlink:href="#DejaVuSans-20"/>
      <use x="469.869141" xlink:href="#DejaVuSans-65"/>
      <use x="531.392578" xlink:href="#DejaVuSans-6c"/>
      <use x="559.175781" xlink:href="#DejaVuSans-65"/>
      <use x="620.699219" xlink:href="#DejaVuSans-6d"/>
      <use x="718.111328" xlink:href="#DejaVuSans-65"/>
      <use x="779.634766" xlink:href="#DejaVuSans-6e"/>
      <use x="843.013672" xlink:href="#DejaVuSans-74"/>
      <use x="882.222656" xlink:href="#DejaVuSans-73"/>
     </g>
    </g>
    <g id="line2d_35">
     <path d="M 994.421063 500.008125 
L 1018.421063 500.008125 
" style="fill:none;stroke:#1f77b4;stroke-linecap:square;stroke-width:1.5;"/>
    </g>
    <g id="line2d_36"/>
    <g id="text_18">
     <!-- Ca -->
     <g transform="translate(1028.021062 504.208125)scale(0.12 -0.12)">
      <use xlink:href="#DejaVuSans-43"/>
      <use x="69.824219" xlink:href="#DejaVuSans-61"/>
     </g>
    </g>
    <g id="line2d_37">
     <path d="M 994.421063 517.621875 
L 1018.421063 517.621875 
" style="fill:none;stroke:#ff7f0e;stroke-linecap:square;stroke-width:1.5;"/>
    </g>
    <g id="line2d_38"/>
    <g id="text_19">
     <!-- Mg -->
     <g transform="translate(1028.021062 521.821875)scale(0.12 -0.12)">
      <defs>
       <path d="M 628 4666 
L 1569 4666 
L 2759 1491 
L 3956 4666 
L 4897 4666 
L 4897 0 
L 4281 0 
L 4281 4097 
L 3078 897 
L 2444 897 
L 1241 4097 
L 1241 0 
L 628 0 
L 628 4666 
z
" id="DejaVuSans-4d" transform="scale(0.015625)"/>
       <path d="M 2906 1791 
Q 2906 2416 2648 2759 
Q 2391 3103 1925 3103 
Q 1463 3103 1205 2759 
Q 947 2416 947 1791 
Q 947 1169 1205 825 
Q 1463 481 1925 481 
Q 2391 481 2648 825 
Q 2906 1169 2906 1791 
z
M 3481 434 
Q 3481 -459 3084 -895 
Q 2688 -1331 1869 -1331 
Q 1566 -1331 1297 -1286 
Q 1028 -1241 775 -1147 
L 775 -588 
Q 1028 -725 1275 -790 
Q 1522 -856 1778 -856 
Q 2344 -856 2625 -561 
Q 2906 -266 2906 331 
L 2906 616 
Q 2728 306 2450 153 
Q 2172 0 1784 0 
Q 1141 0 747 490 
Q 353 981 353 1791 
Q 353 2603 747 3093 
Q 1141 3584 1784 3584 
Q 2172 3584 2450 3431 
Q 2728 3278 2906 2969 
L 2906 3500 
L 3481 3500 
L 3481 434 
z
" id="DejaVuSans-67" transform="scale(0.015625)"/>
      </defs>
      <use xlink:href="#DejaVuSans-4d"/>
      <use x="86.279297" xlink:href="#DejaVuSans-67"/>
     </g>
    </g>
    <g id="line2d_39">
     <path d="M 994.421063 535.235625 
L 1018.421063 535.235625 
" style="fill:none;stroke:#2ca02c;stroke-linecap:square;stroke-width:1.5;"/>
    </g>
    <g id="line2d_40"/>
    <g id="text_20">
     <!-- Na -->
     <g transform="translate(1028.021062 539.435625)scale(0.12 -0.12)">
      <defs>
       <path d="M 628 4666 
L 1478 4666 
L 3547 763 
L 3547 4666 
L 4159 4666 
L 4159 0 
L 3309 0 
L 1241 3903 
L 1241 0 
L 628 0 
L 628 4666 
z
" id="DejaVuSans-4e" transform="scale(0.015625)"/>
      </defs>
      <use xlink:href="#DejaVuSans-4e"/>
      <use x="74.804688" xlink:href="#DejaVuSans-61"/>
     </g>
    </g>
    <g id="line2d_41">
     <path d="M 994.421063 552.849375 
L 1018.421063 552.849375 
" style="fill:none;stroke:#d62728;stroke-linecap:square;stroke-width:1.5;"/>
    </g>
    <g id="line2d_42"/>
    <g id="text_21">
     <!-- Sr -->
     <g transform="translate(1028.021062 557.049375)scale(0.12 -0.12)">
      <defs>
       <path d="M 3425 4513 
L 3425 3897 
Q 3066 4069 2747 4153 
Q 2428 4238 2131 4238 
Q 1616 4238 1336 4038 
Q 1056 3838 1056 3469 
Q 1056 3159 1242 3001 
Q 1428 2844 1947 2747 
L 2328 2669 
Q 3034 2534 3370 2195 
Q 3706 1856 3706 1288 
Q 3706 609 3251 259 
Q 2797 -91 1919 -91 
Q 1588 -91 1214 -16 
Q 841 59 441 206 
L 441 856 
Q 825 641 1194 531 
Q 1563 422 1919 422 
Q 2459 422 2753 634 
Q 3047 847 3047 1241 
Q 3047 1584 2836 1778 
Q 2625 1972 2144 2069 
L 1759 2144 
Q 1053 2284 737 2584 
Q 422 2884 422 3419 
Q 422 4038 858 4394 
Q 1294 4750 2059 4750 
Q 2388 4750 2728 4690 
Q 3069 4631 3425 4513 
z
" id="DejaVuSans-53" transform="scale(0.015625)"/>
      </defs>
      <use xlink:href="#DejaVuSans-53"/>
      <use x="63.476562" xlink:href="#DejaVuSans-72"/>
     </g>
    </g>
    <g id="line2d_43">
     <path d="M 994.421063 570.463125 
L 1018.421063 570.463125 
" style="fill:none;stroke:#9467bd;stroke-linecap:square;stroke-width:1.5;"/>
    </g>
    <g id="line2d_44"/>
    <g id="text_22">
     <!-- Cl -->
     <g transform="translate(1028.021062 574.663125)scale(0.12 -0.12)">
      <use xlink:href="#DejaVuSans-43"/>
      <use x="69.824219" xlink:href="#DejaVuSans-6c"/>
     </g>
    </g>
    <g id="line2d_45">
     <path d="M 994.421063 588.076875 
L 1018.421063 588.076875 
" style="fill:none;stroke:#8c564b;stroke-linecap:square;stroke-width:1.5;"/>
    </g>
    <g id="line2d_46"/>
    <g id="text_23">
     <!-- S(6) -->
     <g transform="translate(1028.021062 592.276875)scale(0.12 -0.12)">
      <use xlink:href="#DejaVuSans-53"/>
      <use x="63.476562" xlink:href="#DejaVuSans-28"/>
      <use x="102.490234" xlink:href="#DejaVuSans-36"/>
      <use x="166.113281" xlink:href="#DejaVuSans-29"/>
     </g>
    </g>
    <g id="line2d_47">
     <path d="M 994.421063 605.690625 
L 1018.421063 605.690625 
" style="fill:none;stroke:#e377c2;stroke-linecap:square;stroke-width:1.5;"/>
    </g>
    <g id="line2d_48"/>
    <g id="text_24">
     <!-- Fe -->
     <g transform="translate(1028.021062 609.890625)scale(0.12 -0.12)">
      <defs>
       <path d="M 628 4666 
L 3309 4666 
L 3309 4134 
L 1259 4134 
L 1259 2759 
L 3109 2759 
L 3109 2228 
L 1259 2228 
L 1259 0 
L 628 0 
L 628 4666 
z
" id="DejaVuSans-46" transform="scale(0.015625)"/>
      </defs>
      <use xlink:href="#DejaVuSans-46"/>
      <use x="52.019531" xlink:href="#DejaVuSans-65"/>
     </g>
    </g>
    <g id="line2d_49">
     <path d="M 994.421063 623.304375 
L 1018.421063 623.304375 
" style="fill:none;stroke:#7f7f7f;stroke-linecap:square;stroke-width:1.5;"/>
    </g>
    <g id="line2d_50"/>
    <g id="text_25">
     <!-- K -->
     <g transform="translate(1028.021062 627.504375)scale(0.12 -0.12)">
      <defs>
       <path d="M 628 4666 
L 1259 4666 
L 1259 2694 
L 3353 4666 
L 4166 4666 
L 1850 2491 
L 4331 0 
L 3500 0 
L 1259 2247 
L 1259 0 
L 628 0 
L 628 4666 
z
" id="DejaVuSans-4b" transform="scale(0.015625)"/>
      </defs>
      <use xlink:href="#DejaVuSans-4b"/>
     </g>
    </g>
   </g>
  </g>
  <g id="text_26">
   <!-- Final CF: 1.371E0 -->
   <g transform="translate(244.8 669.6)scale(0.12 -0.12)">
    <defs>
     <path d="M 750 794 
L 1409 794 
L 1409 0 
L 750 0 
L 750 794 
z
M 750 3309 
L 1409 3309 
L 1409 2516 
L 750 2516 
L 750 3309 
z
" id="DejaVuSans-3a" transform="scale(0.015625)"/>
    </defs>
    <use xlink:href="#DejaVuSans-46"/>
    <use x="50.269531" xlink:href="#DejaVuSans-69"/>
    <use x="78.052734" xlink:href="#DejaVuSans-6e"/>
    <use x="141.431641" xlink:href="#DejaVuSans-61"/>
    <use x="202.710938" xlink:href="#DejaVuSans-6c"/>
    <use x="230.494141" xlink:href="#DejaVuSans-20"/>
    <use x="262.28125" xlink:href="#DejaVuSans-43"/>
    <use x="332.105469" xlink:href="#DejaVuSans-46"/>
    <use x="381.875" xlink:href="#DejaVuSans-3a"/>
    <use x="415.566406" xlink:href="#DejaVuSans-20"/>
    <use x="447.353516" xlink:href="#DejaVuSans-31"/>
    <use x="510.976562" xlink:href="#DejaVuSans-2e"/>
    <use x="542.763672" xlink:href="#DejaVuSans-33"/>
    <use x="606.386719" xlink:href="#DejaVuSans-37"/>
    <use x="670.009766" xlink:href="#DejaVuSans-31"/>
    <use x="733.632812" xlink:href="#DejaVuSans-45"/>
    <use x="796.816406" xlink:href="#DejaVuSans-30"/>
   </g>
  </g>
 </g>
 <defs>
  <clipPath id="pe5af7c9813">
   <rect height="554.4" width="948.6" x="153" y="86.4"/>
  </clipPath>
 </defs>
</svg>
