<?xml version="1.0" encoding="utf-8" standalone="no"?>
<!DOCTYPE svg PUBLIC "-//W3C//DTD SVG 1.1//EN"
  "http://www.w3.org/Graphics/SVG/1.1/DTD/svg11.dtd">
<svg height="720pt" version="1.1" viewBox="0 0 1224 720" width="1224pt" xmlns="http://www.w3.org/2000/svg" xmlns:xlink="http://www.w3.org/1999/xlink">
 <metadata>
  <rdf:RDF xmlns:cc="http://creativecommons.org/ns#" xmlns:dc="http://purl.org/dc/elements/1.1/" xmlns:rdf="http://www.w3.org/1999/02/22-rdf-syntax-ns#">
   <cc:Work>
    <dc:type rdf:resource="http://purl.org/dc/dcmitype/StillImage"/>
    <dc:date>2022-01-02T00:36:31.621058</dc:date>
    <dc:format>image/svg+xml</dc:format>
    <dc:creator>
     <cc:Agent>
      <dc:title>Matplotlib v3.4.3, https://matplotlib.org/</dc:title>
     </cc:Agent>
    </dc:creator>
   </cc:Work>
  </rdf:RDF>
 </metadata>
 <defs>
  <style type="text/css">*{stroke-linecap:butt;stroke-linejoin:round;}</style>
 </defs>
 <g id="figure_1">
  <g id="patch_1">
   <path d="M 0 720 
L 1224 720 
L 1224 0 
L 0 0 
z
" style="fill:none;"/>
  </g>
  <g id="axes_1">
   <g id="patch_2">
    <path d="M 153 630 
L 1101.6 630 
L 1101.6 86.4 
L 153 86.4 
z
" style="fill:#ffffff;"/>
   </g>
   <g id="matplotlib.axis_1">
    <g id="xtick_1">
     <g id="line2d_1">
      <path clip-path="url(#pcec46a5416)" d="M 206.508105 630 
L 206.508105 86.4 
" style="fill:none;stroke:#b0b0b0;stroke-linecap:square;stroke-width:0.8;"/>
     </g>
     <g id="line2d_2">
      <defs>
       <path d="M 0 0 
L 0 3.5 
" id="m0aa0e4d31e" style="stroke:#000000;stroke-width:0.8;"/>
      </defs>
      <g>
       <use style="stroke:#000000;stroke-width:0.8;" x="206.508105" xlink:href="#m0aa0e4d31e" y="630"/>
      </g>
     </g>
     <g id="text_1">
      <!-- 8.96E0 -->
      <g transform="translate(189.034668 644.598438)scale(0.1 -0.1)">
       <defs>
        <path d="M 2034 2216 
Q 1584 2216 1326 1975 
Q 1069 1734 1069 1313 
Q 1069 891 1326 650 
Q 1584 409 2034 409 
Q 2484 409 2743 651 
Q 3003 894 3003 1313 
Q 3003 1734 2745 1975 
Q 2488 2216 2034 2216 
z
M 1403 2484 
Q 997 2584 770 2862 
Q 544 3141 544 3541 
Q 544 4100 942 4425 
Q 1341 4750 2034 4750 
Q 2731 4750 3128 4425 
Q 3525 4100 3525 3541 
Q 3525 3141 3298 2862 
Q 3072 2584 2669 2484 
Q 3125 2378 3379 2068 
Q 3634 1759 3634 1313 
Q 3634 634 3220 271 
Q 2806 -91 2034 -91 
Q 1263 -91 848 271 
Q 434 634 434 1313 
Q 434 1759 690 2068 
Q 947 2378 1403 2484 
z
M 1172 3481 
Q 1172 3119 1398 2916 
Q 1625 2713 2034 2713 
Q 2441 2713 2670 2916 
Q 2900 3119 2900 3481 
Q 2900 3844 2670 4047 
Q 2441 4250 2034 4250 
Q 1625 4250 1398 4047 
Q 1172 3844 1172 3481 
z
" id="DejaVuSans-38" transform="scale(0.015625)"/>
        <path d="M 684 794 
L 1344 794 
L 1344 0 
L 684 0 
L 684 794 
z
" id="DejaVuSans-2e" transform="scale(0.015625)"/>
        <path d="M 703 97 
L 703 672 
Q 941 559 1184 500 
Q 1428 441 1663 441 
Q 2288 441 2617 861 
Q 2947 1281 2994 2138 
Q 2813 1869 2534 1725 
Q 2256 1581 1919 1581 
Q 1219 1581 811 2004 
Q 403 2428 403 3163 
Q 403 3881 828 4315 
Q 1253 4750 1959 4750 
Q 2769 4750 3195 4129 
Q 3622 3509 3622 2328 
Q 3622 1225 3098 567 
Q 2575 -91 1691 -91 
Q 1453 -91 1209 -44 
Q 966 3 703 97 
z
M 1959 2075 
Q 2384 2075 2632 2365 
Q 2881 2656 2881 3163 
Q 2881 3666 2632 3958 
Q 2384 4250 1959 4250 
Q 1534 4250 1286 3958 
Q 1038 3666 1038 3163 
Q 1038 2656 1286 2365 
Q 1534 2075 1959 2075 
z
" id="DejaVuSans-39" transform="scale(0.015625)"/>
        <path d="M 2113 2584 
Q 1688 2584 1439 2293 
Q 1191 2003 1191 1497 
Q 1191 994 1439 701 
Q 1688 409 2113 409 
Q 2538 409 2786 701 
Q 3034 994 3034 1497 
Q 3034 2003 2786 2293 
Q 2538 2584 2113 2584 
z
M 3366 4563 
L 3366 3988 
Q 3128 4100 2886 4159 
Q 2644 4219 2406 4219 
Q 1781 4219 1451 3797 
Q 1122 3375 1075 2522 
Q 1259 2794 1537 2939 
Q 1816 3084 2150 3084 
Q 2853 3084 3261 2657 
Q 3669 2231 3669 1497 
Q 3669 778 3244 343 
Q 2819 -91 2113 -91 
Q 1303 -91 875 529 
Q 447 1150 447 2328 
Q 447 3434 972 4092 
Q 1497 4750 2381 4750 
Q 2619 4750 2861 4703 
Q 3103 4656 3366 4563 
z
" id="DejaVuSans-36" transform="scale(0.015625)"/>
        <path d="M 628 4666 
L 3578 4666 
L 3578 4134 
L 1259 4134 
L 1259 2753 
L 3481 2753 
L 3481 2222 
L 1259 2222 
L 1259 531 
L 3634 531 
L 3634 0 
L 628 0 
L 628 4666 
z
" id="DejaVuSans-45" transform="scale(0.015625)"/>
        <path d="M 2034 4250 
Q 1547 4250 1301 3770 
Q 1056 3291 1056 2328 
Q 1056 1369 1301 889 
Q 1547 409 2034 409 
Q 2525 409 2770 889 
Q 3016 1369 3016 2328 
Q 3016 3291 2770 3770 
Q 2525 4250 2034 4250 
z
M 2034 4750 
Q 2819 4750 3233 4129 
Q 3647 3509 3647 2328 
Q 3647 1150 3233 529 
Q 2819 -91 2034 -91 
Q 1250 -91 836 529 
Q 422 1150 422 2328 
Q 422 3509 836 4129 
Q 1250 4750 2034 4750 
z
" id="DejaVuSans-30" transform="scale(0.015625)"/>
       </defs>
       <use xlink:href="#DejaVuSans-38"/>
       <use x="63.623047" xlink:href="#DejaVuSans-2e"/>
       <use x="95.410156" xlink:href="#DejaVuSans-39"/>
       <use x="159.033203" xlink:href="#DejaVuSans-36"/>
       <use x="222.65625" xlink:href="#DejaVuSans-45"/>
       <use x="285.839844" xlink:href="#DejaVuSans-30"/>
      </g>
     </g>
    </g>
    <g id="xtick_2">
     <g id="line2d_3">
      <path clip-path="url(#pcec46a5416)" d="M 341.577108 630 
L 341.577108 86.4 
" style="fill:none;stroke:#b0b0b0;stroke-linecap:square;stroke-width:0.8;"/>
     </g>
     <g id="line2d_4">
      <g>
       <use style="stroke:#000000;stroke-width:0.8;" x="341.577108" xlink:href="#m0aa0e4d31e" y="630"/>
      </g>
     </g>
     <g id="text_2">
      <!-- 1.96E1 -->
      <g transform="translate(324.103671 644.598438)scale(0.1 -0.1)">
       <defs>
        <path d="M 794 531 
L 1825 531 
L 1825 4091 
L 703 3866 
L 703 4441 
L 1819 4666 
L 2450 4666 
L 2450 531 
L 3481 531 
L 3481 0 
L 794 0 
L 794 531 
z
" id="DejaVuSans-31" transform="scale(0.015625)"/>
       </defs>
       <use xlink:href="#DejaVuSans-31"/>
       <use x="63.623047" xlink:href="#DejaVuSans-2e"/>
       <use x="95.410156" xlink:href="#DejaVuSans-39"/>
       <use x="159.033203" xlink:href="#DejaVuSans-36"/>
       <use x="222.65625" xlink:href="#DejaVuSans-45"/>
       <use x="285.839844" xlink:href="#DejaVuSans-31"/>
      </g>
     </g>
    </g>
    <g id="xtick_3">
     <g id="line2d_5">
      <path clip-path="url(#pcec46a5416)" d="M 487.036035 630 
L 487.036035 86.4 
" style="fill:none;stroke:#b0b0b0;stroke-linecap:square;stroke-width:0.8;"/>
     </g>
     <g id="line2d_6">
      <g>
       <use style="stroke:#000000;stroke-width:0.8;" x="487.036035" xlink:href="#m0aa0e4d31e" y="630"/>
      </g>
     </g>
     <g id="text_3">
      <!-- 3.10E1 -->
      <g transform="translate(469.562598 644.598438)scale(0.1 -0.1)">
       <defs>
        <path d="M 2597 2516 
Q 3050 2419 3304 2112 
Q 3559 1806 3559 1356 
Q 3559 666 3084 287 
Q 2609 -91 1734 -91 
Q 1441 -91 1130 -33 
Q 819 25 488 141 
L 488 750 
Q 750 597 1062 519 
Q 1375 441 1716 441 
Q 2309 441 2620 675 
Q 2931 909 2931 1356 
Q 2931 1769 2642 2001 
Q 2353 2234 1838 2234 
L 1294 2234 
L 1294 2753 
L 1863 2753 
Q 2328 2753 2575 2939 
Q 2822 3125 2822 3475 
Q 2822 3834 2567 4026 
Q 2313 4219 1838 4219 
Q 1578 4219 1281 4162 
Q 984 4106 628 3988 
L 628 4550 
Q 988 4650 1302 4700 
Q 1616 4750 1894 4750 
Q 2613 4750 3031 4423 
Q 3450 4097 3450 3541 
Q 3450 3153 3228 2886 
Q 3006 2619 2597 2516 
z
" id="DejaVuSans-33" transform="scale(0.015625)"/>
       </defs>
       <use xlink:href="#DejaVuSans-33"/>
       <use x="63.623047" xlink:href="#DejaVuSans-2e"/>
       <use x="95.410156" xlink:href="#DejaVuSans-31"/>
       <use x="159.033203" xlink:href="#DejaVuSans-30"/>
       <use x="222.65625" xlink:href="#DejaVuSans-45"/>
       <use x="285.839844" xlink:href="#DejaVuSans-31"/>
      </g>
     </g>
    </g>
    <g id="xtick_4">
     <g id="line2d_7">
      <path clip-path="url(#pcec46a5416)" d="M 632.494962 630 
L 632.494962 86.4 
" style="fill:none;stroke:#b0b0b0;stroke-linecap:square;stroke-width:0.8;"/>
     </g>
     <g id="line2d_8">
      <g>
       <use style="stroke:#000000;stroke-width:0.8;" x="632.494962" xlink:href="#m0aa0e4d31e" y="630"/>
      </g>
     </g>
     <g id="text_4">
      <!-- 4.24E1 -->
      <g transform="translate(615.021524 644.598438)scale(0.1 -0.1)">
       <defs>
        <path d="M 2419 4116 
L 825 1625 
L 2419 1625 
L 2419 4116 
z
M 2253 4666 
L 3047 4666 
L 3047 1625 
L 3713 1625 
L 3713 1100 
L 3047 1100 
L 3047 0 
L 2419 0 
L 2419 1100 
L 313 1100 
L 313 1709 
L 2253 4666 
z
" id="DejaVuSans-34" transform="scale(0.015625)"/>
        <path d="M 1228 531 
L 3431 531 
L 3431 0 
L 469 0 
L 469 531 
Q 828 903 1448 1529 
Q 2069 2156 2228 2338 
Q 2531 2678 2651 2914 
Q 2772 3150 2772 3378 
Q 2772 3750 2511 3984 
Q 2250 4219 1831 4219 
Q 1534 4219 1204 4116 
Q 875 4013 500 3803 
L 500 4441 
Q 881 4594 1212 4672 
Q 1544 4750 1819 4750 
Q 2544 4750 2975 4387 
Q 3406 4025 3406 3419 
Q 3406 3131 3298 2873 
Q 3191 2616 2906 2266 
Q 2828 2175 2409 1742 
Q 1991 1309 1228 531 
z
" id="DejaVuSans-32" transform="scale(0.015625)"/>
       </defs>
       <use xlink:href="#DejaVuSans-34"/>
       <use x="63.623047" xlink:href="#DejaVuSans-2e"/>
       <use x="95.410156" xlink:href="#DejaVuSans-32"/>
       <use x="159.033203" xlink:href="#DejaVuSans-34"/>
       <use x="222.65625" xlink:href="#DejaVuSans-45"/>
       <use x="285.839844" xlink:href="#DejaVuSans-31"/>
      </g>
     </g>
    </g>
    <g id="xtick_5">
     <g id="line2d_9">
      <path clip-path="url(#pcec46a5416)" d="M 777.953888 630 
L 777.953888 86.4 
" style="fill:none;stroke:#b0b0b0;stroke-linecap:square;stroke-width:0.8;"/>
     </g>
     <g id="line2d_10">
      <g>
       <use style="stroke:#000000;stroke-width:0.8;" x="777.953888" xlink:href="#m0aa0e4d31e" y="630"/>
      </g>
     </g>
     <g id="text_5">
      <!-- 5.38E1 -->
      <g transform="translate(760.480451 644.598438)scale(0.1 -0.1)">
       <defs>
        <path d="M 691 4666 
L 3169 4666 
L 3169 4134 
L 1269 4134 
L 1269 2991 
Q 1406 3038 1543 3061 
Q 1681 3084 1819 3084 
Q 2600 3084 3056 2656 
Q 3513 2228 3513 1497 
Q 3513 744 3044 326 
Q 2575 -91 1722 -91 
Q 1428 -91 1123 -41 
Q 819 9 494 109 
L 494 744 
Q 775 591 1075 516 
Q 1375 441 1709 441 
Q 2250 441 2565 725 
Q 2881 1009 2881 1497 
Q 2881 1984 2565 2268 
Q 2250 2553 1709 2553 
Q 1456 2553 1204 2497 
Q 953 2441 691 2322 
L 691 4666 
z
" id="DejaVuSans-35" transform="scale(0.015625)"/>
       </defs>
       <use xlink:href="#DejaVuSans-35"/>
       <use x="63.623047" xlink:href="#DejaVuSans-2e"/>
       <use x="95.410156" xlink:href="#DejaVuSans-33"/>
       <use x="159.033203" xlink:href="#DejaVuSans-38"/>
       <use x="222.65625" xlink:href="#DejaVuSans-45"/>
       <use x="285.839844" xlink:href="#DejaVuSans-31"/>
      </g>
     </g>
    </g>
    <g id="xtick_6">
     <g id="line2d_11">
      <path clip-path="url(#pcec46a5416)" d="M 923.412815 630 
L 923.412815 86.4 
" style="fill:none;stroke:#b0b0b0;stroke-linecap:square;stroke-width:0.8;"/>
     </g>
     <g id="line2d_12">
      <g>
       <use style="stroke:#000000;stroke-width:0.8;" x="923.412815" xlink:href="#m0aa0e4d31e" y="630"/>
      </g>
     </g>
     <g id="text_6">
      <!-- 6.52E1 -->
      <g transform="translate(905.939377 644.598438)scale(0.1 -0.1)">
       <use xlink:href="#DejaVuSans-36"/>
       <use x="63.623047" xlink:href="#DejaVuSans-2e"/>
       <use x="95.410156" xlink:href="#DejaVuSans-35"/>
       <use x="159.033203" xlink:href="#DejaVuSans-32"/>
       <use x="222.65625" xlink:href="#DejaVuSans-45"/>
       <use x="285.839844" xlink:href="#DejaVuSans-31"/>
      </g>
     </g>
    </g>
    <g id="xtick_7">
     <g id="line2d_13">
      <path clip-path="url(#pcec46a5416)" d="M 1058.481818 630 
L 1058.481818 86.4 
" style="fill:none;stroke:#b0b0b0;stroke-linecap:square;stroke-width:0.8;"/>
     </g>
     <g id="line2d_14">
      <g>
       <use style="stroke:#000000;stroke-width:0.8;" x="1058.481818" xlink:href="#m0aa0e4d31e" y="630"/>
      </g>
     </g>
     <g id="text_7">
      <!-- 7.58E1 -->
      <g transform="translate(1041.008381 644.598438)scale(0.1 -0.1)">
       <defs>
        <path d="M 525 4666 
L 3525 4666 
L 3525 4397 
L 1831 0 
L 1172 0 
L 2766 4134 
L 525 4134 
L 525 4666 
z
" id="DejaVuSans-37" transform="scale(0.015625)"/>
       </defs>
       <use xlink:href="#DejaVuSans-37"/>
       <use x="63.623047" xlink:href="#DejaVuSans-2e"/>
       <use x="95.410156" xlink:href="#DejaVuSans-35"/>
       <use x="159.033203" xlink:href="#DejaVuSans-38"/>
       <use x="222.65625" xlink:href="#DejaVuSans-45"/>
       <use x="285.839844" xlink:href="#DejaVuSans-31"/>
      </g>
     </g>
    </g>
    <g id="text_8">
     <!-- Time (s) -->
     <g transform="translate(598.026375 661.619875)scale(0.144 -0.144)">
      <defs>
       <path d="M -19 4666 
L 3928 4666 
L 3928 4134 
L 2272 4134 
L 2272 0 
L 1638 0 
L 1638 4134 
L -19 4134 
L -19 4666 
z
" id="DejaVuSans-54" transform="scale(0.015625)"/>
       <path d="M 603 3500 
L 1178 3500 
L 1178 0 
L 603 0 
L 603 3500 
z
M 603 4863 
L 1178 4863 
L 1178 4134 
L 603 4134 
L 603 4863 
z
" id="DejaVuSans-69" transform="scale(0.015625)"/>
       <path d="M 3328 2828 
Q 3544 3216 3844 3400 
Q 4144 3584 4550 3584 
Q 5097 3584 5394 3201 
Q 5691 2819 5691 2113 
L 5691 0 
L 5113 0 
L 5113 2094 
Q 5113 2597 4934 2840 
Q 4756 3084 4391 3084 
Q 3944 3084 3684 2787 
Q 3425 2491 3425 1978 
L 3425 0 
L 2847 0 
L 2847 2094 
Q 2847 2600 2669 2842 
Q 2491 3084 2119 3084 
Q 1678 3084 1418 2786 
Q 1159 2488 1159 1978 
L 1159 0 
L 581 0 
L 581 3500 
L 1159 3500 
L 1159 2956 
Q 1356 3278 1631 3431 
Q 1906 3584 2284 3584 
Q 2666 3584 2933 3390 
Q 3200 3197 3328 2828 
z
" id="DejaVuSans-6d" transform="scale(0.015625)"/>
       <path d="M 3597 1894 
L 3597 1613 
L 953 1613 
Q 991 1019 1311 708 
Q 1631 397 2203 397 
Q 2534 397 2845 478 
Q 3156 559 3463 722 
L 3463 178 
Q 3153 47 2828 -22 
Q 2503 -91 2169 -91 
Q 1331 -91 842 396 
Q 353 884 353 1716 
Q 353 2575 817 3079 
Q 1281 3584 2069 3584 
Q 2775 3584 3186 3129 
Q 3597 2675 3597 1894 
z
M 3022 2063 
Q 3016 2534 2758 2815 
Q 2500 3097 2075 3097 
Q 1594 3097 1305 2825 
Q 1016 2553 972 2059 
L 3022 2063 
z
" id="DejaVuSans-65" transform="scale(0.015625)"/>
       <path id="DejaVuSans-20" transform="scale(0.015625)"/>
       <path d="M 1984 4856 
Q 1566 4138 1362 3434 
Q 1159 2731 1159 2009 
Q 1159 1288 1364 580 
Q 1569 -128 1984 -844 
L 1484 -844 
Q 1016 -109 783 600 
Q 550 1309 550 2009 
Q 550 2706 781 3412 
Q 1013 4119 1484 4856 
L 1984 4856 
z
" id="DejaVuSans-28" transform="scale(0.015625)"/>
       <path d="M 2834 3397 
L 2834 2853 
Q 2591 2978 2328 3040 
Q 2066 3103 1784 3103 
Q 1356 3103 1142 2972 
Q 928 2841 928 2578 
Q 928 2378 1081 2264 
Q 1234 2150 1697 2047 
L 1894 2003 
Q 2506 1872 2764 1633 
Q 3022 1394 3022 966 
Q 3022 478 2636 193 
Q 2250 -91 1575 -91 
Q 1294 -91 989 -36 
Q 684 19 347 128 
L 347 722 
Q 666 556 975 473 
Q 1284 391 1588 391 
Q 1994 391 2212 530 
Q 2431 669 2431 922 
Q 2431 1156 2273 1281 
Q 2116 1406 1581 1522 
L 1381 1569 
Q 847 1681 609 1914 
Q 372 2147 372 2553 
Q 372 3047 722 3315 
Q 1072 3584 1716 3584 
Q 2034 3584 2315 3537 
Q 2597 3491 2834 3397 
z
" id="DejaVuSans-73" transform="scale(0.015625)"/>
       <path d="M 513 4856 
L 1013 4856 
Q 1481 4119 1714 3412 
Q 1947 2706 1947 2009 
Q 1947 1309 1714 600 
Q 1481 -109 1013 -844 
L 513 -844 
Q 928 -128 1133 580 
Q 1338 1288 1338 2009 
Q 1338 2731 1133 3434 
Q 928 4138 513 4856 
z
" id="DejaVuSans-29" transform="scale(0.015625)"/>
      </defs>
      <use xlink:href="#DejaVuSans-54"/>
      <use x="57.958984" xlink:href="#DejaVuSans-69"/>
      <use x="85.742188" xlink:href="#DejaVuSans-6d"/>
      <use x="183.154297" xlink:href="#DejaVuSans-65"/>
      <use x="244.677734" xlink:href="#DejaVuSans-20"/>
      <use x="276.464844" xlink:href="#DejaVuSans-28"/>
      <use x="315.478516" xlink:href="#DejaVuSans-73"/>
      <use x="367.578125" xlink:href="#DejaVuSans-29"/>
     </g>
    </g>
   </g>
   <g id="matplotlib.axis_2">
    <g id="ytick_1">
     <g id="line2d_15">
      <path clip-path="url(#pcec46a5416)" d="M 153 576.920646 
L 1101.6 576.920646 
" style="fill:none;stroke:#b0b0b0;stroke-linecap:square;stroke-width:0.8;"/>
     </g>
     <g id="line2d_16">
      <defs>
       <path d="M 0 0 
L -3.5 0 
" id="m7f9a9ee503" style="stroke:#000000;stroke-width:0.8;"/>
      </defs>
      <g>
       <use style="stroke:#000000;stroke-width:0.8;" x="153" xlink:href="#m7f9a9ee503" y="576.920646"/>
      </g>
     </g>
     <g id="text_9">
      <!-- $\mathdefault{10^{-14}}$ -->
      <g transform="translate(118.1 580.719865)scale(0.1 -0.1)">
       <defs>
        <path d="M 678 2272 
L 4684 2272 
L 4684 1741 
L 678 1741 
L 678 2272 
z
" id="DejaVuSans-2212" transform="scale(0.015625)"/>
       </defs>
       <use transform="translate(0 0.684375)" xlink:href="#DejaVuSans-31"/>
       <use transform="translate(63.623047 0.684375)" xlink:href="#DejaVuSans-30"/>
       <use transform="translate(128.203125 38.965625)scale(0.7)" xlink:href="#DejaVuSans-2212"/>
       <use transform="translate(186.855469 38.965625)scale(0.7)" xlink:href="#DejaVuSans-31"/>
       <use transform="translate(231.391602 38.965625)scale(0.7)" xlink:href="#DejaVuSans-34"/>
      </g>
     </g>
    </g>
    <g id="ytick_2">
     <g id="line2d_17">
      <path clip-path="url(#pcec46a5416)" d="M 153 507.691423 
L 1101.6 507.691423 
" style="fill:none;stroke:#b0b0b0;stroke-linecap:square;stroke-width:0.8;"/>
     </g>
     <g id="line2d_18">
      <g>
       <use style="stroke:#000000;stroke-width:0.8;" x="153" xlink:href="#m7f9a9ee503" y="507.691423"/>
      </g>
     </g>
     <g id="text_10">
      <!-- $\mathdefault{10^{-12}}$ -->
      <g transform="translate(118.1 511.490641)scale(0.1 -0.1)">
       <use transform="translate(0 0.765625)" xlink:href="#DejaVuSans-31"/>
       <use transform="translate(63.623047 0.765625)" xlink:href="#DejaVuSans-30"/>
       <use transform="translate(128.203125 39.046875)scale(0.7)" xlink:href="#DejaVuSans-2212"/>
       <use transform="translate(186.855469 39.046875)scale(0.7)" xlink:href="#DejaVuSans-31"/>
       <use transform="translate(231.391602 39.046875)scale(0.7)" xlink:href="#DejaVuSans-32"/>
      </g>
     </g>
    </g>
    <g id="ytick_3">
     <g id="line2d_19">
      <path clip-path="url(#pcec46a5416)" d="M 153 438.462199 
L 1101.6 438.462199 
" style="fill:none;stroke:#b0b0b0;stroke-linecap:square;stroke-width:0.8;"/>
     </g>
     <g id="line2d_20">
      <g>
       <use style="stroke:#000000;stroke-width:0.8;" x="153" xlink:href="#m7f9a9ee503" y="438.462199"/>
      </g>
     </g>
     <g id="text_11">
      <!-- $\mathdefault{10^{-10}}$ -->
      <g transform="translate(118.1 442.261418)scale(0.1 -0.1)">
       <use transform="translate(0 0.765625)" xlink:href="#DejaVuSans-31"/>
       <use transform="translate(63.623047 0.765625)" xlink:href="#DejaVuSans-30"/>
       <use transform="translate(128.203125 39.046875)scale(0.7)" xlink:href="#DejaVuSans-2212"/>
       <use transform="translate(186.855469 39.046875)scale(0.7)" xlink:href="#DejaVuSans-31"/>
       <use transform="translate(231.391602 39.046875)scale(0.7)" xlink:href="#DejaVuSans-30"/>
      </g>
     </g>
    </g>
    <g id="ytick_4">
     <g id="line2d_21">
      <path clip-path="url(#pcec46a5416)" d="M 153 369.232975 
L 1101.6 369.232975 
" style="fill:none;stroke:#b0b0b0;stroke-linecap:square;stroke-width:0.8;"/>
     </g>
     <g id="line2d_22">
      <g>
       <use style="stroke:#000000;stroke-width:0.8;" x="153" xlink:href="#m7f9a9ee503" y="369.232975"/>
      </g>
     </g>
     <g id="text_12">
      <!-- $\mathdefault{10^{-8}}$ -->
      <g transform="translate(122.5 373.032194)scale(0.1 -0.1)">
       <use transform="translate(0 0.765625)" xlink:href="#DejaVuSans-31"/>
       <use transform="translate(63.623047 0.765625)" xlink:href="#DejaVuSans-30"/>
       <use transform="translate(128.203125 39.046875)scale(0.7)" xlink:href="#DejaVuSans-2212"/>
       <use transform="translate(186.855469 39.046875)scale(0.7)" xlink:href="#DejaVuSans-38"/>
      </g>
     </g>
    </g>
    <g id="ytick_5">
     <g id="line2d_23">
      <path clip-path="url(#pcec46a5416)" d="M 153 300.003752 
L 1101.6 300.003752 
" style="fill:none;stroke:#b0b0b0;stroke-linecap:square;stroke-width:0.8;"/>
     </g>
     <g id="line2d_24">
      <g>
       <use style="stroke:#000000;stroke-width:0.8;" x="153" xlink:href="#m7f9a9ee503" y="300.003752"/>
      </g>
     </g>
     <g id="text_13">
      <!-- $\mathdefault{10^{-6}}$ -->
      <g transform="translate(122.5 303.80297)scale(0.1 -0.1)">
       <use transform="translate(0 0.765625)" xlink:href="#DejaVuSans-31"/>
       <use transform="translate(63.623047 0.765625)" xlink:href="#DejaVuSans-30"/>
       <use transform="translate(128.203125 39.046875)scale(0.7)" xlink:href="#DejaVuSans-2212"/>
       <use transform="translate(186.855469 39.046875)scale(0.7)" xlink:href="#DejaVuSans-36"/>
      </g>
     </g>
    </g>
    <g id="ytick_6">
     <g id="line2d_25">
      <path clip-path="url(#pcec46a5416)" d="M 153 230.774528 
L 1101.6 230.774528 
" style="fill:none;stroke:#b0b0b0;stroke-linecap:square;stroke-width:0.8;"/>
     </g>
     <g id="line2d_26">
      <g>
       <use style="stroke:#000000;stroke-width:0.8;" x="153" xlink:href="#m7f9a9ee503" y="230.774528"/>
      </g>
     </g>
     <g id="text_14">
      <!-- $\mathdefault{10^{-4}}$ -->
      <g transform="translate(122.5 234.573747)scale(0.1 -0.1)">
       <use transform="translate(0 0.684375)" xlink:href="#DejaVuSans-31"/>
       <use transform="translate(63.623047 0.684375)" xlink:href="#DejaVuSans-30"/>
       <use transform="translate(128.203125 38.965625)scale(0.7)" xlink:href="#DejaVuSans-2212"/>
       <use transform="translate(186.855469 38.965625)scale(0.7)" xlink:href="#DejaVuSans-34"/>
      </g>
     </g>
    </g>
    <g id="ytick_7">
     <g id="line2d_27">
      <path clip-path="url(#pcec46a5416)" d="M 153 161.545304 
L 1101.6 161.545304 
" style="fill:none;stroke:#b0b0b0;stroke-linecap:square;stroke-width:0.8;"/>
     </g>
     <g id="line2d_28">
      <g>
       <use style="stroke:#000000;stroke-width:0.8;" x="153" xlink:href="#m7f9a9ee503" y="161.545304"/>
      </g>
     </g>
     <g id="text_15">
      <!-- $\mathdefault{10^{-2}}$ -->
      <g transform="translate(122.5 165.344523)scale(0.1 -0.1)">
       <use transform="translate(0 0.765625)" xlink:href="#DejaVuSans-31"/>
       <use transform="translate(63.623047 0.765625)" xlink:href="#DejaVuSans-30"/>
       <use transform="translate(128.203125 39.046875)scale(0.7)" xlink:href="#DejaVuSans-2212"/>
       <use transform="translate(186.855469 39.046875)scale(0.7)" xlink:href="#DejaVuSans-32"/>
      </g>
     </g>
    </g>
    <g id="ytick_8">
     <g id="line2d_29">
      <path clip-path="url(#pcec46a5416)" d="M 153 92.316081 
L 1101.6 92.316081 
" style="fill:none;stroke:#b0b0b0;stroke-linecap:square;stroke-width:0.8;"/>
     </g>
     <g id="line2d_30">
      <g>
       <use style="stroke:#000000;stroke-width:0.8;" x="153" xlink:href="#m7f9a9ee503" y="92.316081"/>
      </g>
     </g>
     <g id="text_16">
      <!-- $\mathdefault{10^{0}}$ -->
      <g transform="translate(128.4 96.115299)scale(0.1 -0.1)">
       <use transform="translate(0 0.765625)" xlink:href="#DejaVuSans-31"/>
       <use transform="translate(63.623047 0.765625)" xlink:href="#DejaVuSans-30"/>
       <use transform="translate(128.203125 39.046875)scale(0.7)" xlink:href="#DejaVuSans-30"/>
      </g>
     </g>
    </g>
    <g id="text_17">
     <!-- Concentration (molal) -->
     <g transform="translate(111.10525 436.872375)rotate(-90)scale(0.144 -0.144)">
      <defs>
       <path d="M 4122 4306 
L 4122 3641 
Q 3803 3938 3442 4084 
Q 3081 4231 2675 4231 
Q 1875 4231 1450 3742 
Q 1025 3253 1025 2328 
Q 1025 1406 1450 917 
Q 1875 428 2675 428 
Q 3081 428 3442 575 
Q 3803 722 4122 1019 
L 4122 359 
Q 3791 134 3420 21 
Q 3050 -91 2638 -91 
Q 1578 -91 968 557 
Q 359 1206 359 2328 
Q 359 3453 968 4101 
Q 1578 4750 2638 4750 
Q 3056 4750 3426 4639 
Q 3797 4528 4122 4306 
z
" id="DejaVuSans-43" transform="scale(0.015625)"/>
       <path d="M 1959 3097 
Q 1497 3097 1228 2736 
Q 959 2375 959 1747 
Q 959 1119 1226 758 
Q 1494 397 1959 397 
Q 2419 397 2687 759 
Q 2956 1122 2956 1747 
Q 2956 2369 2687 2733 
Q 2419 3097 1959 3097 
z
M 1959 3584 
Q 2709 3584 3137 3096 
Q 3566 2609 3566 1747 
Q 3566 888 3137 398 
Q 2709 -91 1959 -91 
Q 1206 -91 779 398 
Q 353 888 353 1747 
Q 353 2609 779 3096 
Q 1206 3584 1959 3584 
z
" id="DejaVuSans-6f" transform="scale(0.015625)"/>
       <path d="M 3513 2113 
L 3513 0 
L 2938 0 
L 2938 2094 
Q 2938 2591 2744 2837 
Q 2550 3084 2163 3084 
Q 1697 3084 1428 2787 
Q 1159 2491 1159 1978 
L 1159 0 
L 581 0 
L 581 3500 
L 1159 3500 
L 1159 2956 
Q 1366 3272 1645 3428 
Q 1925 3584 2291 3584 
Q 2894 3584 3203 3211 
Q 3513 2838 3513 2113 
z
" id="DejaVuSans-6e" transform="scale(0.015625)"/>
       <path d="M 3122 3366 
L 3122 2828 
Q 2878 2963 2633 3030 
Q 2388 3097 2138 3097 
Q 1578 3097 1268 2742 
Q 959 2388 959 1747 
Q 959 1106 1268 751 
Q 1578 397 2138 397 
Q 2388 397 2633 464 
Q 2878 531 3122 666 
L 3122 134 
Q 2881 22 2623 -34 
Q 2366 -91 2075 -91 
Q 1284 -91 818 406 
Q 353 903 353 1747 
Q 353 2603 823 3093 
Q 1294 3584 2113 3584 
Q 2378 3584 2631 3529 
Q 2884 3475 3122 3366 
z
" id="DejaVuSans-63" transform="scale(0.015625)"/>
       <path d="M 1172 4494 
L 1172 3500 
L 2356 3500 
L 2356 3053 
L 1172 3053 
L 1172 1153 
Q 1172 725 1289 603 
Q 1406 481 1766 481 
L 2356 481 
L 2356 0 
L 1766 0 
Q 1100 0 847 248 
Q 594 497 594 1153 
L 594 3053 
L 172 3053 
L 172 3500 
L 594 3500 
L 594 4494 
L 1172 4494 
z
" id="DejaVuSans-74" transform="scale(0.015625)"/>
       <path d="M 2631 2963 
Q 2534 3019 2420 3045 
Q 2306 3072 2169 3072 
Q 1681 3072 1420 2755 
Q 1159 2438 1159 1844 
L 1159 0 
L 581 0 
L 581 3500 
L 1159 3500 
L 1159 2956 
Q 1341 3275 1631 3429 
Q 1922 3584 2338 3584 
Q 2397 3584 2469 3576 
Q 2541 3569 2628 3553 
L 2631 2963 
z
" id="DejaVuSans-72" transform="scale(0.015625)"/>
       <path d="M 2194 1759 
Q 1497 1759 1228 1600 
Q 959 1441 959 1056 
Q 959 750 1161 570 
Q 1363 391 1709 391 
Q 2188 391 2477 730 
Q 2766 1069 2766 1631 
L 2766 1759 
L 2194 1759 
z
M 3341 1997 
L 3341 0 
L 2766 0 
L 2766 531 
Q 2569 213 2275 61 
Q 1981 -91 1556 -91 
Q 1019 -91 701 211 
Q 384 513 384 1019 
Q 384 1609 779 1909 
Q 1175 2209 1959 2209 
L 2766 2209 
L 2766 2266 
Q 2766 2663 2505 2880 
Q 2244 3097 1772 3097 
Q 1472 3097 1187 3025 
Q 903 2953 641 2809 
L 641 3341 
Q 956 3463 1253 3523 
Q 1550 3584 1831 3584 
Q 2591 3584 2966 3190 
Q 3341 2797 3341 1997 
z
" id="DejaVuSans-61" transform="scale(0.015625)"/>
       <path d="M 603 4863 
L 1178 4863 
L 1178 0 
L 603 0 
L 603 4863 
z
" id="DejaVuSans-6c" transform="scale(0.015625)"/>
      </defs>
      <use xlink:href="#DejaVuSans-43"/>
      <use x="69.824219" xlink:href="#DejaVuSans-6f"/>
      <use x="131.005859" xlink:href="#DejaVuSans-6e"/>
      <use x="194.384766" xlink:href="#DejaVuSans-63"/>
      <use x="249.365234" xlink:href="#DejaVuSans-65"/>
      <use x="310.888672" xlink:href="#DejaVuSans-6e"/>
      <use x="374.267578" xlink:href="#DejaVuSans-74"/>
      <use x="413.476562" xlink:href="#DejaVuSans-72"/>
      <use x="454.589844" xlink:href="#DejaVuSans-61"/>
      <use x="515.869141" xlink:href="#DejaVuSans-74"/>
      <use x="555.078125" xlink:href="#DejaVuSans-69"/>
      <use x="582.861328" xlink:href="#DejaVuSans-6f"/>
      <use x="644.042969" xlink:href="#DejaVuSans-6e"/>
      <use x="707.421875" xlink:href="#DejaVuSans-20"/>
      <use x="739.208984" xlink:href="#DejaVuSans-28"/>
      <use x="778.222656" xlink:href="#DejaVuSans-6d"/>
      <use x="875.634766" xlink:href="#DejaVuSans-6f"/>
      <use x="936.816406" xlink:href="#DejaVuSans-6c"/>
      <use x="964.599609" xlink:href="#DejaVuSans-61"/>
      <use x="1025.878906" xlink:href="#DejaVuSans-6c"/>
      <use x="1053.662109" xlink:href="#DejaVuSans-29"/>
     </g>
    </g>
   </g>
   <g id="line2d_31">
    <path clip-path="url(#pcec46a5416)" d="M 196.118182 603.295871 
L 206.508105 366.257017 
L 216.898028 147.479873 
L 227.287952 147.479872 
L 237.677875 147.479872 
L 248.067798 147.479872 
L 258.457722 147.479872 
L 268.847645 147.479872 
L 279.237568 147.479872 
L 289.627492 147.479872 
L 300.017415 147.479872 
L 310.407338 147.479872 
L 320.797262 147.479872 
L 331.187185 147.479872 
L 341.577108 147.479872 
L 351.967032 147.479872 
L 362.356955 147.479872 
L 372.746878 147.479872 
L 383.136802 147.479872 
L 393.526725 147.479872 
L 403.916648 147.479872 
L 414.306572 147.479872 
L 424.696495 147.479872 
L 435.086418 147.479872 
L 445.476342 147.479872 
L 455.866265 147.479872 
L 466.256188 147.479872 
L 476.646112 147.479872 
L 487.036035 147.479872 
L 497.425958 147.479872 
L 507.815882 147.479872 
L 518.205805 147.479872 
L 528.595728 147.479872 
L 538.985652 147.479872 
L 549.375575 147.479872 
L 559.765498 147.479872 
L 570.155422 147.479872 
L 580.545345 147.479872 
L 590.935268 147.479872 
L 601.325192 147.479872 
L 611.715115 147.479872 
L 622.105038 147.479872 
L 632.494962 147.479872 
L 642.884885 147.479872 
L 653.274808 147.479872 
L 663.664732 147.479872 
L 674.054655 147.479872 
L 684.444578 147.479872 
L 694.834502 147.479872 
L 705.224425 147.479872 
L 715.614348 147.479872 
L 726.004272 147.479872 
L 736.394195 147.479872 
L 746.784118 147.479872 
L 757.174042 147.479872 
L 767.563965 147.479872 
L 777.953888 147.479872 
L 788.343812 147.479872 
L 798.733735 147.479872 
L 809.123658 147.479872 
L 819.513582 147.479872 
L 829.903505 147.479872 
L 840.293428 147.479872 
L 850.683352 147.479872 
L 861.073275 147.479872 
L 871.463198 147.479872 
L 881.853122 147.479872 
L 892.243045 147.479872 
L 902.632968 147.479872 
L 913.022892 147.479872 
L 923.412815 147.479872 
L 933.802738 147.479872 
L 944.192662 147.479872 
L 954.582585 147.479872 
L 964.972508 147.479872 
L 975.362432 147.479872 
L 985.752355 147.479872 
L 996.142278 147.479872 
L 1006.532202 147.479872 
L 1016.922125 147.479872 
L 1027.312048 147.479872 
L 1037.701972 147.479872 
L 1048.091895 147.479872 
L 1058.481818 147.479872 
" style="fill:none;stroke:#1f77b4;stroke-linecap:square;stroke-width:1.5;"/>
   </g>
   <g id="line2d_32">
    <path clip-path="url(#pcec46a5416)" d="M 196.118182 605.290909 
L 206.508105 366.127363 
L 216.898028 140.920108 
L 227.287952 140.920101 
L 237.677875 140.920101 
L 248.067798 140.920101 
L 258.457722 140.920101 
L 268.847645 140.920101 
L 279.237568 140.920101 
L 289.627492 140.920101 
L 300.017415 140.920101 
L 310.407338 140.920101 
L 320.797262 140.920101 
L 331.187185 140.920101 
L 341.577108 140.920101 
L 351.967032 140.920101 
L 362.356955 140.920101 
L 372.746878 140.920101 
L 383.136802 140.920101 
L 393.526725 140.920101 
L 403.916648 140.920101 
L 414.306572 140.920101 
L 424.696495 140.920101 
L 435.086418 140.920101 
L 445.476342 140.920101 
L 455.866265 140.920101 
L 466.256188 140.920101 
L 476.646112 140.920101 
L 487.036035 140.920101 
L 497.425958 140.920101 
L 507.815882 140.920101 
L 518.205805 140.920101 
L 528.595728 140.920101 
L 538.985652 140.920101 
L 549.375575 140.920101 
L 559.765498 140.920101 
L 570.155422 140.920101 
L 580.545345 140.920101 
L 590.935268 140.920101 
L 601.325192 140.920101 
L 611.715115 140.920101 
L 622.105038 140.920101 
L 632.494962 140.920101 
L 642.884885 140.920101 
L 653.274808 140.920101 
L 663.664732 140.920101 
L 674.054655 140.920101 
L 684.444578 140.920101 
L 694.834502 140.920101 
L 705.224425 140.920101 
L 715.614348 140.920101 
L 726.004272 140.920101 
L 736.394195 140.920101 
L 746.784118 140.920101 
L 757.174042 140.920101 
L 767.563965 140.920101 
L 777.953888 140.920101 
L 788.343812 140.920101 
L 798.733735 140.920101 
L 809.123658 140.920101 
L 819.513582 140.920101 
L 829.903505 140.920101 
L 840.293428 140.920101 
L 850.683352 140.920101 
L 861.073275 140.920101 
L 871.463198 140.920101 
L 881.853122 140.920101 
L 892.243045 140.920101 
L 902.632968 140.920101 
L 913.022892 140.920101 
L 923.412815 140.920101 
L 933.802738 140.920101 
L 944.192662 140.920101 
L 954.582585 140.920101 
L 964.972508 140.920101 
L 975.362432 140.920101 
L 985.752355 140.920101 
L 996.142278 140.920101 
L 1006.532202 140.920101 
L 1016.922125 140.920101 
L 1027.312048 140.920101 
L 1037.701972 140.920101 
L 1048.091895 140.920101 
L 1058.481818 140.920101 
" style="fill:none;stroke:#ff7f0e;stroke-linecap:square;stroke-width:1.5;"/>
   </g>
   <g id="line2d_33">
    <path clip-path="url(#pcec46a5416)" d="M 196.118182 577.97478 
L 206.508105 338.811233 
L 216.898028 113.603979 
L 227.287952 113.603972 
L 237.677875 113.603972 
L 248.067798 113.603972 
L 258.457722 113.603972 
L 268.847645 113.603972 
L 279.237568 113.603972 
L 289.627492 113.603972 
L 300.017415 113.603972 
L 310.407338 113.603972 
L 320.797262 113.603972 
L 331.187185 113.603972 
L 341.577108 113.603972 
L 351.967032 113.603972 
L 362.356955 113.603972 
L 372.746878 113.603972 
L 383.136802 113.603972 
L 393.526725 113.603972 
L 403.916648 113.603972 
L 414.306572 113.603972 
L 424.696495 113.603972 
L 435.086418 113.603972 
L 445.476342 113.603972 
L 455.866265 113.603972 
L 466.256188 113.603972 
L 476.646112 113.603972 
L 487.036035 113.603972 
L 497.425958 113.603972 
L 507.815882 113.603972 
L 518.205805 113.603972 
L 528.595728 113.603972 
L 538.985652 113.603972 
L 549.375575 113.603972 
L 559.765498 113.603972 
L 570.155422 113.603972 
L 580.545345 113.603972 
L 590.935268 113.603972 
L 601.325192 113.603972 
L 611.715115 113.603972 
L 622.105038 113.603972 
L 632.494962 113.603972 
L 642.884885 113.603972 
L 653.274808 113.603972 
L 663.664732 113.603972 
L 674.054655 113.603972 
L 684.444578 113.603972 
L 694.834502 113.603972 
L 705.224425 113.603972 
L 715.614348 113.603972 
L 726.004272 113.603972 
L 736.394195 113.603972 
L 746.784118 113.603972 
L 757.174042 113.603972 
L 767.563965 113.603972 
L 777.953888 113.603972 
L 788.343812 113.603972 
L 798.733735 113.603972 
L 809.123658 113.603972 
L 819.513582 113.603972 
L 829.903505 113.603972 
L 840.293428 113.603972 
L 850.683352 113.603972 
L 861.073275 113.603972 
L 871.463198 113.603972 
L 881.853122 113.603972 
L 892.243045 113.603972 
L 902.632968 113.603972 
L 913.022892 113.603972 
L 923.412815 113.603972 
L 933.802738 113.603972 
L 944.192662 113.603972 
L 954.582585 113.603972 
L 964.972508 113.603972 
L 975.362432 113.603972 
L 985.752355 113.603972 
L 996.142278 113.603972 
L 1006.532202 113.603972 
L 1016.922125 113.603972 
L 1027.312048 113.603972 
L 1037.701972 113.603972 
L 1048.091895 113.603972 
L 1058.481818 113.603972 
" style="fill:none;stroke:#2ca02c;stroke-linecap:square;stroke-width:1.5;"/>
   </g>
   <g id="line2d_34">
    <path clip-path="url(#pcec46a5416)" d="M 206.508105 438.031731 
L 216.898028 219.128343 
L 227.287952 219.128341 
L 237.677875 219.128341 
L 248.067798 219.128341 
L 258.457722 219.128341 
L 268.847645 219.128341 
L 279.237568 219.128341 
L 289.627492 219.128341 
L 300.017415 219.128341 
L 310.407338 219.128341 
L 320.797262 219.128341 
L 331.187185 219.128341 
L 341.577108 219.128341 
L 351.967032 219.128341 
L 362.356955 219.128341 
L 372.746878 219.128341 
L 383.136802 219.128341 
L 393.526725 219.128341 
L 403.916648 219.128341 
L 414.306572 219.128341 
L 424.696495 219.128341 
L 435.086418 219.128341 
L 445.476342 219.128341 
L 455.866265 219.128341 
L 466.256188 219.128341 
L 476.646112 219.128341 
L 487.036035 219.128341 
L 497.425958 219.128341 
L 507.815882 219.128341 
L 518.205805 219.128341 
L 528.595728 219.128341 
L 538.985652 219.128341 
L 549.375575 219.128341 
L 559.765498 219.128341 
L 570.155422 219.128341 
L 580.545345 219.128341 
L 590.935268 219.128341 
L 601.325192 219.128341 
L 611.715115 219.128341 
L 622.105038 219.128341 
L 632.494962 219.128341 
L 642.884885 219.128341 
L 653.274808 219.128341 
L 663.664732 219.128341 
L 674.054655 219.128341 
L 684.444578 219.128341 
L 694.834502 219.128341 
L 705.224425 219.128341 
L 715.614348 219.128341 
L 726.004272 219.128341 
L 736.394195 219.128341 
L 746.784118 219.128341 
L 757.174042 219.128341 
L 767.563965 219.128341 
L 777.953888 219.128341 
L 788.343812 219.128341 
L 798.733735 219.128341 
L 809.123658 219.128341 
L 819.513582 219.128341 
L 829.903505 219.128341 
L 840.293428 219.128341 
L 850.683352 219.128341 
L 861.073275 219.128341 
L 871.463198 219.128341 
L 881.853122 219.128341 
L 892.243045 219.128341 
L 902.632968 219.128341 
L 913.022892 219.128341 
L 923.412815 219.128341 
L 933.802738 219.128341 
L 944.192662 219.128341 
L 954.582585 219.128341 
L 964.972508 219.128341 
L 975.362432 219.128341 
L 985.752355 219.128341 
L 996.142278 219.128341 
L 1006.532202 219.128341 
L 1016.922125 219.128341 
L 1027.312048 219.128341 
L 1037.701972 219.128341 
L 1048.091895 219.128341 
L 1058.481818 219.128341 
" style="fill:none;stroke:#d62728;stroke-linecap:square;stroke-width:1.5;"/>
   </g>
   <g id="line2d_35">
    <path clip-path="url(#pcec46a5416)" d="M 206.508105 336.316353 
L 216.898028 111.109098 
L 227.287952 111.109091 
L 237.677875 111.109091 
L 248.067798 111.109091 
L 258.457722 111.109091 
L 268.847645 111.109091 
L 279.237568 111.109091 
L 289.627492 111.109091 
L 300.017415 111.109091 
L 310.407338 111.109091 
L 320.797262 111.109091 
L 331.187185 111.109091 
L 341.577108 111.109091 
L 351.967032 111.109091 
L 362.356955 111.109091 
L 372.746878 111.109091 
L 383.136802 111.109091 
L 393.526725 111.109091 
L 403.916648 111.109091 
L 414.306572 111.109091 
L 424.696495 111.109091 
L 435.086418 111.109091 
L 445.476342 111.109091 
L 455.866265 111.109091 
L 466.256188 111.109091 
L 476.646112 111.109091 
L 487.036035 111.109091 
L 497.425958 111.109091 
L 507.815882 111.109091 
L 518.205805 111.109091 
L 528.595728 111.109091 
L 538.985652 111.109091 
L 549.375575 111.109091 
L 559.765498 111.109091 
L 570.155422 111.109091 
L 580.545345 111.109091 
L 590.935268 111.109091 
L 601.325192 111.109091 
L 611.715115 111.109091 
L 622.105038 111.109091 
L 632.494962 111.109091 
L 642.884885 111.109091 
L 653.274808 111.109091 
L 663.664732 111.109091 
L 674.054655 111.109091 
L 684.444578 111.109091 
L 694.834502 111.109091 
L 705.224425 111.109091 
L 715.614348 111.109091 
L 726.004272 111.109091 
L 736.394195 111.109091 
L 746.784118 111.109091 
L 757.174042 111.109091 
L 767.563965 111.109091 
L 777.953888 111.109091 
L 788.343812 111.109091 
L 798.733735 111.109091 
L 809.123658 111.109091 
L 819.513582 111.109091 
L 829.903505 111.109091 
L 840.293428 111.109091 
L 850.683352 111.109091 
L 861.073275 111.109091 
L 871.463198 111.109091 
L 881.853122 111.109091 
L 892.243045 111.109091 
L 902.632968 111.109091 
L 913.022892 111.109091 
L 923.412815 111.109091 
L 933.802738 111.109091 
L 944.192662 111.109091 
L 954.582585 111.109091 
L 964.972508 111.109091 
L 975.362432 111.109091 
L 985.752355 111.109091 
L 996.142278 111.109091 
L 1006.532202 111.109091 
L 1016.922125 111.109091 
L 1027.312048 111.109091 
L 1037.701972 111.109091 
L 1048.091895 111.109091 
L 1058.481818 111.109091 
" style="fill:none;stroke:#9467bd;stroke-linecap:square;stroke-width:1.5;"/>
   </g>
   <g id="line2d_36">
    <path clip-path="url(#pcec46a5416)" d="M 206.508105 361.231194 
L 216.898028 140.372477 
L 227.287952 140.372473 
L 237.677875 140.372473 
L 248.067798 140.372473 
L 258.457722 140.372473 
L 268.847645 140.372473 
L 279.237568 140.372473 
L 289.627492 140.372473 
L 300.017415 140.372473 
L 310.407338 140.372473 
L 320.797262 140.372473 
L 331.187185 140.372473 
L 341.577108 140.372473 
L 351.967032 140.372473 
L 362.356955 140.372473 
L 372.746878 140.372473 
L 383.136802 140.372473 
L 393.526725 140.372473 
L 403.916648 140.372473 
L 414.306572 140.372473 
L 424.696495 140.372473 
L 435.086418 140.372473 
L 445.476342 140.372473 
L 455.866265 140.372473 
L 466.256188 140.372473 
L 476.646112 140.372473 
L 487.036035 140.372473 
L 497.425958 140.372473 
L 507.815882 140.372473 
L 518.205805 140.372473 
L 528.595728 140.372473 
L 538.985652 140.372473 
L 549.375575 140.372473 
L 559.765498 140.372473 
L 570.155422 140.372473 
L 580.545345 140.372473 
L 590.935268 140.372473 
L 601.325192 140.372473 
L 611.715115 140.372473 
L 622.105038 140.372473 
L 632.494962 140.372473 
L 642.884885 140.372473 
L 653.274808 140.372473 
L 663.664732 140.372473 
L 674.054655 140.372473 
L 684.444578 140.372473 
L 694.834502 140.372473 
L 705.224425 140.372473 
L 715.614348 140.372473 
L 726.004272 140.372473 
L 736.394195 140.372473 
L 746.784118 140.372473 
L 757.174042 140.372473 
L 767.563965 140.372473 
L 777.953888 140.372473 
L 788.343812 140.372473 
L 798.733735 140.372473 
L 809.123658 140.372473 
L 819.513582 140.372473 
L 829.903505 140.372473 
L 840.293428 140.372473 
L 850.683352 140.372473 
L 861.073275 140.372473 
L 871.463198 140.372473 
L 881.853122 140.372473 
L 892.243045 140.372473 
L 902.632968 140.372473 
L 913.022892 140.372473 
L 923.412815 140.372473 
L 933.802738 140.372473 
L 944.192662 140.372473 
L 954.582585 140.372473 
L 964.972508 140.372473 
L 975.362432 140.372473 
L 985.752355 140.372473 
L 996.142278 140.372473 
L 1006.532202 140.372473 
L 1016.922125 140.372473 
L 1027.312048 140.372473 
L 1037.701972 140.372473 
L 1048.091895 140.372473 
L 1058.481818 140.372473 
" style="fill:none;stroke:#8c564b;stroke-linecap:square;stroke-width:1.5;"/>
   </g>
   <g id="line2d_37">
    <path clip-path="url(#pcec46a5416)" d="M 206.508105 490.231789 
L 216.898028 265.024535 
L 227.287952 265.024528 
L 237.677875 265.024528 
L 248.067798 265.024528 
L 258.457722 265.024528 
L 268.847645 265.024528 
L 279.237568 265.024528 
L 289.627492 265.024528 
L 300.017415 265.024528 
L 310.407338 265.024528 
L 320.797262 265.024528 
L 331.187185 265.024528 
L 341.577108 265.024528 
L 351.967032 265.024528 
L 362.356955 265.024528 
L 372.746878 265.024528 
L 383.136802 265.024528 
L 393.526725 265.024528 
L 403.916648 265.024528 
L 414.306572 265.024528 
L 424.696495 265.024528 
L 435.086418 265.024528 
L 445.476342 265.024528 
L 455.866265 265.024528 
L 466.256188 265.024528 
L 476.646112 265.024528 
L 487.036035 265.024528 
L 497.425958 265.024528 
L 507.815882 265.024528 
L 518.205805 265.024528 
L 528.595728 265.024528 
L 538.985652 265.024528 
L 549.375575 265.024528 
L 559.765498 265.024528 
L 570.155422 265.024528 
L 580.545345 265.024528 
L 590.935268 265.024528 
L 601.325192 265.024528 
L 611.715115 265.024528 
L 622.105038 265.024528 
L 632.494962 265.024528 
L 642.884885 265.024528 
L 653.274808 265.024528 
L 663.664732 265.024528 
L 674.054655 265.024528 
L 684.444578 265.024528 
L 694.834502 265.024528 
L 705.224425 265.024528 
L 715.614348 265.024528 
L 726.004272 265.024528 
L 736.394195 265.024528 
L 746.784118 265.024528 
L 757.174042 265.024528 
L 767.563965 265.024528 
L 777.953888 265.024528 
L 788.343812 265.024528 
L 798.733735 265.024528 
L 809.123658 265.024528 
L 819.513582 265.024528 
L 829.903505 265.024528 
L 840.293428 265.024528 
L 850.683352 265.024528 
L 861.073275 265.024528 
L 871.463198 265.024528 
L 881.853122 265.024528 
L 892.243045 265.024528 
L 902.632968 265.024528 
L 913.022892 265.024528 
L 923.412815 265.024528 
L 933.802738 265.024528 
L 944.192662 265.024528 
L 954.582585 265.024528 
L 964.972508 265.024528 
L 975.362432 265.024528 
L 985.752355 265.024528 
L 996.142278 265.024528 
L 1006.532202 265.024528 
L 1016.922125 265.024528 
L 1027.312048 265.024528 
L 1037.701972 265.024528 
L 1048.091895 265.024528 
L 1058.481818 265.024528 
" style="fill:none;stroke:#e377c2;stroke-linecap:square;stroke-width:1.5;"/>
   </g>
   <g id="patch_3">
    <path d="M 153 630 
L 153 86.4 
" style="fill:none;stroke:#000000;stroke-linecap:square;stroke-linejoin:miter;stroke-width:0.8;"/>
   </g>
   <g id="patch_4">
    <path d="M 1101.6 630 
L 1101.6 86.4 
" style="fill:none;stroke:#000000;stroke-linecap:square;stroke-linejoin:miter;stroke-width:0.8;"/>
   </g>
   <g id="patch_5">
    <path d="M 153 630 
L 1101.6 630 
" style="fill:none;stroke:#000000;stroke-linecap:square;stroke-linejoin:miter;stroke-width:0.8;"/>
   </g>
   <g id="patch_6">
    <path d="M 153 86.4 
L 1101.6 86.4 
" style="fill:none;stroke:#000000;stroke-linecap:square;stroke-linejoin:miter;stroke-width:0.8;"/>
   </g>
   <g id="text_18">
    <!-- Effluent brine concentration over time -->
    <g transform="translate(461.8629 80.4)scale(0.1728 -0.1728)">
     <defs>
      <path d="M 2375 4863 
L 2375 4384 
L 1825 4384 
Q 1516 4384 1395 4259 
Q 1275 4134 1275 3809 
L 1275 3500 
L 2222 3500 
L 2222 3053 
L 1275 3053 
L 1275 0 
L 697 0 
L 697 3053 
L 147 3053 
L 147 3500 
L 697 3500 
L 697 3744 
Q 697 4328 969 4595 
Q 1241 4863 1831 4863 
L 2375 4863 
z
" id="DejaVuSans-66" transform="scale(0.015625)"/>
      <path d="M 544 1381 
L 544 3500 
L 1119 3500 
L 1119 1403 
Q 1119 906 1312 657 
Q 1506 409 1894 409 
Q 2359 409 2629 706 
Q 2900 1003 2900 1516 
L 2900 3500 
L 3475 3500 
L 3475 0 
L 2900 0 
L 2900 538 
Q 2691 219 2414 64 
Q 2138 -91 1772 -91 
Q 1169 -91 856 284 
Q 544 659 544 1381 
z
M 1991 3584 
L 1991 3584 
z
" id="DejaVuSans-75" transform="scale(0.015625)"/>
      <path d="M 3116 1747 
Q 3116 2381 2855 2742 
Q 2594 3103 2138 3103 
Q 1681 3103 1420 2742 
Q 1159 2381 1159 1747 
Q 1159 1113 1420 752 
Q 1681 391 2138 391 
Q 2594 391 2855 752 
Q 3116 1113 3116 1747 
z
M 1159 2969 
Q 1341 3281 1617 3432 
Q 1894 3584 2278 3584 
Q 2916 3584 3314 3078 
Q 3713 2572 3713 1747 
Q 3713 922 3314 415 
Q 2916 -91 2278 -91 
Q 1894 -91 1617 61 
Q 1341 213 1159 525 
L 1159 0 
L 581 0 
L 581 4863 
L 1159 4863 
L 1159 2969 
z
" id="DejaVuSans-62" transform="scale(0.015625)"/>
      <path d="M 191 3500 
L 800 3500 
L 1894 563 
L 2988 3500 
L 3597 3500 
L 2284 0 
L 1503 0 
L 191 3500 
z
" id="DejaVuSans-76" transform="scale(0.015625)"/>
     </defs>
     <use xlink:href="#DejaVuSans-45"/>
     <use x="63.183594" xlink:href="#DejaVuSans-66"/>
     <use x="98.388672" xlink:href="#DejaVuSans-66"/>
     <use x="133.59375" xlink:href="#DejaVuSans-6c"/>
     <use x="161.376953" xlink:href="#DejaVuSans-75"/>
     <use x="224.755859" xlink:href="#DejaVuSans-65"/>
     <use x="286.279297" xlink:href="#DejaVuSans-6e"/>
     <use x="349.658203" xlink:href="#DejaVuSans-74"/>
     <use x="388.867188" xlink:href="#DejaVuSans-20"/>
     <use x="420.654297" xlink:href="#DejaVuSans-62"/>
     <use x="484.130859" xlink:href="#DejaVuSans-72"/>
     <use x="525.244141" xlink:href="#DejaVuSans-69"/>
     <use x="553.027344" xlink:href="#DejaVuSans-6e"/>
     <use x="616.40625" xlink:href="#DejaVuSans-65"/>
     <use x="677.929688" xlink:href="#DejaVuSans-20"/>
     <use x="709.716797" xlink:href="#DejaVuSans-63"/>
     <use x="764.697266" xlink:href="#DejaVuSans-6f"/>
     <use x="825.878906" xlink:href="#DejaVuSans-6e"/>
     <use x="889.257812" xlink:href="#DejaVuSans-63"/>
     <use x="944.238281" xlink:href="#DejaVuSans-65"/>
     <use x="1005.761719" xlink:href="#DejaVuSans-6e"/>
     <use x="1069.140625" xlink:href="#DejaVuSans-74"/>
     <use x="1108.349609" xlink:href="#DejaVuSans-72"/>
     <use x="1149.462891" xlink:href="#DejaVuSans-61"/>
     <use x="1210.742188" xlink:href="#DejaVuSans-74"/>
     <use x="1249.951172" xlink:href="#DejaVuSans-69"/>
     <use x="1277.734375" xlink:href="#DejaVuSans-6f"/>
     <use x="1338.916016" xlink:href="#DejaVuSans-6e"/>
     <use x="1402.294922" xlink:href="#DejaVuSans-20"/>
     <use x="1434.082031" xlink:href="#DejaVuSans-6f"/>
     <use x="1495.263672" xlink:href="#DejaVuSans-76"/>
     <use x="1554.443359" xlink:href="#DejaVuSans-65"/>
     <use x="1615.966797" xlink:href="#DejaVuSans-72"/>
     <use x="1657.080078" xlink:href="#DejaVuSans-20"/>
     <use x="1688.867188" xlink:href="#DejaVuSans-74"/>
     <use x="1728.076172" xlink:href="#DejaVuSans-69"/>
     <use x="1755.859375" xlink:href="#DejaVuSans-6d"/>
     <use x="1853.271484" xlink:href="#DejaVuSans-65"/>
    </g>
   </g>
   <g id="legend_1">
    <g id="patch_7">
     <path d="M 953.859 624 
L 1093.2 624 
Q 1095.6 624 1095.6 621.6 
L 1095.6 479.56725 
Q 1095.6 477.16725 1093.2 477.16725 
L 953.859 477.16725 
Q 951.459 477.16725 951.459 479.56725 
L 951.459 621.6 
Q 951.459 624 953.859 624 
z
" style="fill:#ffffff;opacity:0.8;stroke:#cccccc;stroke-linejoin:miter;"/>
    </g>
    <g id="text_19">
     <!-- non-zero elements -->
     <g transform="translate(956.259 492.909)scale(0.144 -0.144)">
      <defs>
       <path d="M 313 2009 
L 1997 2009 
L 1997 1497 
L 313 1497 
L 313 2009 
z
" id="DejaVuSans-2d" transform="scale(0.015625)"/>
       <path d="M 353 3500 
L 3084 3500 
L 3084 2975 
L 922 459 
L 3084 459 
L 3084 0 
L 275 0 
L 275 525 
L 2438 3041 
L 353 3041 
L 353 3500 
z
" id="DejaVuSans-7a" transform="scale(0.015625)"/>
      </defs>
      <use xlink:href="#DejaVuSans-6e"/>
      <use x="63.378906" xlink:href="#DejaVuSans-6f"/>
      <use x="124.560547" xlink:href="#DejaVuSans-6e"/>
      <use x="187.939453" xlink:href="#DejaVuSans-2d"/>
      <use x="224.023438" xlink:href="#DejaVuSans-7a"/>
      <use x="276.513672" xlink:href="#DejaVuSans-65"/>
      <use x="338.037109" xlink:href="#DejaVuSans-72"/>
      <use x="376.900391" xlink:href="#DejaVuSans-6f"/>
      <use x="438.082031" xlink:href="#DejaVuSans-20"/>
      <use x="469.869141" xlink:href="#DejaVuSans-65"/>
      <use x="531.392578" xlink:href="#DejaVuSans-6c"/>
      <use x="559.175781" xlink:href="#DejaVuSans-65"/>
      <use x="620.699219" xlink:href="#DejaVuSans-6d"/>
      <use x="718.111328" xlink:href="#DejaVuSans-65"/>
      <use x="779.634766" xlink:href="#DejaVuSans-6e"/>
      <use x="843.013672" xlink:href="#DejaVuSans-74"/>
      <use x="882.222656" xlink:href="#DejaVuSans-73"/>
     </g>
    </g>
    <g id="line2d_38">
     <path d="M 994.421063 506.821875 
L 1018.421063 506.821875 
" style="fill:none;stroke:#1f77b4;stroke-linecap:square;stroke-width:1.5;"/>
    </g>
    <g id="line2d_39"/>
    <g id="text_20">
     <!-- Ca -->
     <g transform="translate(1028.021062 511.021875)scale(0.12 -0.12)">
      <use xlink:href="#DejaVuSans-43"/>
      <use x="69.824219" xlink:href="#DejaVuSans-61"/>
     </g>
    </g>
    <g id="line2d_40">
     <path d="M 994.421063 524.435625 
L 1018.421063 524.435625 
" style="fill:none;stroke:#ff7f0e;stroke-linecap:square;stroke-width:1.5;"/>
    </g>
    <g id="line2d_41"/>
    <g id="text_21">
     <!-- Mg -->
     <g transform="translate(1028.021062 528.635625)scale(0.12 -0.12)">
      <defs>
       <path d="M 628 4666 
L 1569 4666 
L 2759 1491 
L 3956 4666 
L 4897 4666 
L 4897 0 
L 4281 0 
L 4281 4097 
L 3078 897 
L 2444 897 
L 1241 4097 
L 1241 0 
L 628 0 
L 628 4666 
z
" id="DejaVuSans-4d" transform="scale(0.015625)"/>
       <path d="M 2906 1791 
Q 2906 2416 2648 2759 
Q 2391 3103 1925 3103 
Q 1463 3103 1205 2759 
Q 947 2416 947 1791 
Q 947 1169 1205 825 
Q 1463 481 1925 481 
Q 2391 481 2648 825 
Q 2906 1169 2906 1791 
z
M 3481 434 
Q 3481 -459 3084 -895 
Q 2688 -1331 1869 -1331 
Q 1566 -1331 1297 -1286 
Q 1028 -1241 775 -1147 
L 775 -588 
Q 1028 -725 1275 -790 
Q 1522 -856 1778 -856 
Q 2344 -856 2625 -561 
Q 2906 -266 2906 331 
L 2906 616 
Q 2728 306 2450 153 
Q 2172 0 1784 0 
Q 1141 0 747 490 
Q 353 981 353 1791 
Q 353 2603 747 3093 
Q 1141 3584 1784 3584 
Q 2172 3584 2450 3431 
Q 2728 3278 2906 2969 
L 2906 3500 
L 3481 3500 
L 3481 434 
z
" id="DejaVuSans-67" transform="scale(0.015625)"/>
      </defs>
      <use xlink:href="#DejaVuSans-4d"/>
      <use x="86.279297" xlink:href="#DejaVuSans-67"/>
     </g>
    </g>
    <g id="line2d_42">
     <path d="M 994.421063 542.049375 
L 1018.421063 542.049375 
" style="fill:none;stroke:#2ca02c;stroke-linecap:square;stroke-width:1.5;"/>
    </g>
    <g id="line2d_43"/>
    <g id="text_22">
     <!-- Na -->
     <g transform="translate(1028.021062 546.249375)scale(0.12 -0.12)">
      <defs>
       <path d="M 628 4666 
L 1478 4666 
L 3547 763 
L 3547 4666 
L 4159 4666 
L 4159 0 
L 3309 0 
L 1241 3903 
L 1241 0 
L 628 0 
L 628 4666 
z
" id="DejaVuSans-4e" transform="scale(0.015625)"/>
      </defs>
      <use xlink:href="#DejaVuSans-4e"/>
      <use x="74.804688" xlink:href="#DejaVuSans-61"/>
     </g>
    </g>
    <g id="line2d_44">
     <path d="M 994.421063 559.663125 
L 1018.421063 559.663125 
" style="fill:none;stroke:#d62728;stroke-linecap:square;stroke-width:1.5;"/>
    </g>
    <g id="line2d_45"/>
    <g id="text_23">
     <!-- Sr -->
     <g transform="translate(1028.021062 563.863125)scale(0.12 -0.12)">
      <defs>
       <path d="M 3425 4513 
L 3425 3897 
Q 3066 4069 2747 4153 
Q 2428 4238 2131 4238 
Q 1616 4238 1336 4038 
Q 1056 3838 1056 3469 
Q 1056 3159 1242 3001 
Q 1428 2844 1947 2747 
L 2328 2669 
Q 3034 2534 3370 2195 
Q 3706 1856 3706 1288 
Q 3706 609 3251 259 
Q 2797 -91 1919 -91 
Q 1588 -91 1214 -16 
Q 841 59 441 206 
L 441 856 
Q 825 641 1194 531 
Q 1563 422 1919 422 
Q 2459 422 2753 634 
Q 3047 847 3047 1241 
Q 3047 1584 2836 1778 
Q 2625 1972 2144 2069 
L 1759 2144 
Q 1053 2284 737 2584 
Q 422 2884 422 3419 
Q 422 4038 858 4394 
Q 1294 4750 2059 4750 
Q 2388 4750 2728 4690 
Q 3069 4631 3425 4513 
z
" id="DejaVuSans-53" transform="scale(0.015625)"/>
      </defs>
      <use xlink:href="#DejaVuSans-53"/>
      <use x="63.476562" xlink:href="#DejaVuSans-72"/>
     </g>
    </g>
    <g id="line2d_46">
     <path d="M 994.421063 577.276875 
L 1018.421063 577.276875 
" style="fill:none;stroke:#9467bd;stroke-linecap:square;stroke-width:1.5;"/>
    </g>
    <g id="line2d_47"/>
    <g id="text_24">
     <!-- Cl -->
     <g transform="translate(1028.021062 581.476875)scale(0.12 -0.12)">
      <use xlink:href="#DejaVuSans-43"/>
      <use x="69.824219" xlink:href="#DejaVuSans-6c"/>
     </g>
    </g>
    <g id="line2d_48">
     <path d="M 994.421063 594.890625 
L 1018.421063 594.890625 
" style="fill:none;stroke:#8c564b;stroke-linecap:square;stroke-width:1.5;"/>
    </g>
    <g id="line2d_49"/>
    <g id="text_25">
     <!-- S(6) -->
     <g transform="translate(1028.021062 599.090625)scale(0.12 -0.12)">
      <use xlink:href="#DejaVuSans-53"/>
      <use x="63.476562" xlink:href="#DejaVuSans-28"/>
      <use x="102.490234" xlink:href="#DejaVuSans-36"/>
      <use x="166.113281" xlink:href="#DejaVuSans-29"/>
     </g>
    </g>
    <g id="line2d_50">
     <path d="M 994.421063 612.504375 
L 1018.421063 612.504375 
" style="fill:none;stroke:#e377c2;stroke-linecap:square;stroke-width:1.5;"/>
    </g>
    <g id="line2d_51"/>
    <g id="text_26">
     <!-- Fe -->
     <g transform="translate(1028.021062 616.704375)scale(0.12 -0.12)">
      <defs>
       <path d="M 628 4666 
L 3309 4666 
L 3309 4134 
L 1259 4134 
L 1259 2759 
L 3109 2759 
L 3109 2228 
L 1259 2228 
L 1259 0 
L 628 0 
L 628 4666 
z
" id="DejaVuSans-46" transform="scale(0.015625)"/>
      </defs>
      <use xlink:href="#DejaVuSans-46"/>
      <use x="52.019531" xlink:href="#DejaVuSans-65"/>
     </g>
    </g>
   </g>
  </g>
  <g id="text_27">
   <!-- Final CF: 2.836E0 -->
   <g transform="translate(244.8 669.6)scale(0.12 -0.12)">
    <defs>
     <path d="M 750 794 
L 1409 794 
L 1409 0 
L 750 0 
L 750 794 
z
M 750 3309 
L 1409 3309 
L 1409 2516 
L 750 2516 
L 750 3309 
z
" id="DejaVuSans-3a" transform="scale(0.015625)"/>
    </defs>
    <use xlink:href="#DejaVuSans-46"/>
    <use x="50.269531" xlink:href="#DejaVuSans-69"/>
    <use x="78.052734" xlink:href="#DejaVuSans-6e"/>
    <use x="141.431641" xlink:href="#DejaVuSans-61"/>
    <use x="202.710938" xlink:href="#DejaVuSans-6c"/>
    <use x="230.494141" xlink:href="#DejaVuSans-20"/>
    <use x="262.28125" xlink:href="#DejaVuSans-43"/>
    <use x="332.105469" xlink:href="#DejaVuSans-46"/>
    <use x="381.875" xlink:href="#DejaVuSans-3a"/>
    <use x="415.566406" xlink:href="#DejaVuSans-20"/>
    <use x="447.353516" xlink:href="#DejaVuSans-32"/>
    <use x="510.976562" xlink:href="#DejaVuSans-2e"/>
    <use x="542.763672" xlink:href="#DejaVuSans-38"/>
    <use x="606.386719" xlink:href="#DejaVuSans-33"/>
    <use x="670.009766" xlink:href="#DejaVuSans-36"/>
    <use x="733.632812" xlink:href="#DejaVuSans-45"/>
    <use x="796.816406" xlink:href="#DejaVuSans-30"/>
   </g>
  </g>
 </g>
 <defs>
  <clipPath id="pcec46a5416">
   <rect height="543.6" width="948.6" x="153" y="86.4"/>
  </clipPath>
 </defs>
</svg>
